<?xml version="1.0" encoding="utf-8"?>
<!-- Generator: Adobe Illustrator 21.0.2, SVG Export Plug-In . SVG Version: 6.00 Build 0)  -->
<svg version="1.1" id="Layer_1" xmlns="http://www.w3.org/2000/svg" xmlns:xlink="http://www.w3.org/1999/xlink" x="0px" y="0px"
	 viewBox="0 0 401.2 343.9" style="enable-background:new 0 0 401.2 343.9;" xml:space="preserve">
<style type="text/css">
	.st0{filter:url(#Rectangle_3);}
	.st1{fill:#FAC14D;}
	.st2{filter:url(#Rectangle_4);}
	.st3{fill:#5439F8;}
	.st4{fill:none;stroke:#FAC14D;stroke-width:0.488;stroke-miterlimit:10;}
	.st5{filter:url(#Rectangle_5);}
	.st6{fill:#F2F2F2;}
	.st7{fill:#E6E6E6;}
	.st8{fill:#FFFFFF;}
	.st9{fill:#3FC080;}
	.st10{fill:#4D4D4D;}
	.st11{font-family:'SegoeUI';}
	.st12{font-size:18px;}
	.st13{fill:#5237F4;}
	.st14{fill:#3D26C7;}
</style>
<filter  filterUnits="userSpaceOnUse" height="237.167" id="Rectangle_5" width="330.558" x="31.828" y="59.035">
	<feOffset  dy="2.813" input="SourceAlpha"></feOffset>
	<feGaussianBlur  result="blur-3" stdDeviation="2.344"></feGaussianBlur>
	<feFlood  flood-opacity="0.149"></feFlood>
	<feComposite  in2="blur-3" operator="in"></feComposite>
	<feComposite  in="SourceGraphic" operator="over"></feComposite>
</filter>
<filter  filterUnits="userSpaceOnUse" height="236.334" id="Rectangle_4" width="221.051" x="159.972" y="18.136">
	<feOffset  dy="2.813" input="SourceAlpha"></feOffset>
	<feGaussianBlur  result="blur-2" stdDeviation="2.344"></feGaussianBlur>
	<feFlood  flood-opacity="0.149"></feFlood>
	<feComposite  in2="blur-2" operator="in"></feComposite>
	<feComposite  in="SourceGraphic" operator="over"></feComposite>
</filter>
<filter  filterUnits="userSpaceOnUse" height="134.167" id="Rectangle_3" width="159.544" x="12.439" y="144.667">
	<feOffset  dy="2.813" input="SourceAlpha"></feOffset>
	<feGaussianBlur  result="blur" stdDeviation="2.344"></feGaussianBlur>
	<feFlood  flood-opacity="0.149"></feFlood>
	<feComposite  in2="blur" operator="in"></feComposite>
	<feComposite  in="SourceGraphic" operator="over"></feComposite>
</filter>
<g transform="matrix(1, 0, 0, 1, 61.06, 184.58)" class="st0">
	<path id="Rectangle_3-2_1_" class="st1" d="M-32.3-20.6l114.2-14c5.1-0.6,9.8,3,10.4,8.1l10.4,85.3c0.6,5.1-3,9.8-8.1,10.4
		l-114.2,14c-5.1,0.6-9.8-3-10.4-8.1l-10.4-85.3C-41.1-15.3-37.4-19.9-32.3-20.6z"/>
</g>
<g transform="matrix(1, 0, 0, 1, 61.06, 184.58)" class="st2">
	<path id="Rectangle_4-2_1_" class="st3" d="M114.3-102.5l111-55.6c4.6-2.3,10.2-0.4,12.5,4.2l70.9,141.6c2.3,4.6,0.4,10.2-4.2,12.5
		l-111,55.6c-4.6,2.3-10.2,0.4-12.5-4.2L110.1-89.9C107.8-94.5,109.7-100.1,114.3-102.5z"/>
</g>
<path id="Path_3" class="st4" d="M125,108.2C54,27,160.3-37.5,222.6,30.4S353,67.7,374.7,93.8s31,127.3-88.8,111.5
	s0.1,67-45.6,115.1s-186.4,18.2-145.6-59s-75.4-48.6-68-125S125,108.2,125,108.2z"/>
<g id="Group_8" transform="translate(0 0)">
	<g transform="matrix(1, 0, 0, 1, -38.86, -63.25)" class="st5">
		
			<rect id="Rectangle_5-2_1_" x="140.2" y="89.6" transform="matrix(0.1104 -0.9939 0.9939 0.1104 -26.6252 445.3712)" class="st6" width="190.6" height="295.9"/>
	</g>
	
		<rect id="Rectangle_6" x="193.8" y="-56.4" transform="matrix(0.111 -0.9938 0.9938 0.111 91.8149 287.0413)" class="st7" width="25.1" height="297.2"/>
	<path id="Path_4" class="st8" d="M341,115.7L69.8,85.4c-2.3-0.3-4-2.3-3.7-4.6c0,0,0,0,0,0l0,0c0.3-2.3,2.3-4,4.6-3.7c0,0,0,0,0,0
		l271.2,30.3c2.3,0.3,4,2.3,3.7,4.6c0,0,0,0,0,0l0,0C345.4,114.3,343.3,115.9,341,115.7C341,115.7,341,115.7,341,115.7z"/>
	<path id="Path_5" class="st9" d="M72.8,72.1c-0.2,1.6-1.6,2.7-3.2,2.6c-1.6-0.2-2.7-1.6-2.6-3.2s1.6-2.7,3.2-2.6c0,0,0,0,0,0
		C71.9,69.1,73,70.5,72.8,72.1z"/>
	<path id="Path_6" class="st3" d="M83.6,73.3c-0.2,1.6-1.6,2.7-3.2,2.5c-1.6-0.2-2.7-1.6-2.5-3.2c0.2-1.6,1.6-2.7,3.2-2.5
		C82.6,70.3,83.8,71.7,83.6,73.3z"/>
	<path id="Path_7" class="st1" d="M94.3,74.5c-0.2,1.6-1.6,2.7-3.2,2.6c-1.6-0.2-2.7-1.6-2.6-3.2s1.6-2.7,3.2-2.6c0,0,0,0,0,0
		C93.4,71.5,94.5,72.9,94.3,74.5z"/>
</g>
<path id="Path_8" class="st8" d="M293,199.3L98.1,177.6c-7.5-0.8-13-7.6-12.1-15.2l0,0c0.8-7.5,7.6-13,15.2-12.1c0,0,0,0,0,0
	L296.1,172c7.5,0.8,13,7.6,12.1,15.2l0,0C307.4,194.7,300.6,200.1,293,199.3z"/>
<text transform="matrix(0.9938 0.1109 -0.1109 0.9938 98.307 167.429)" class="st10 st11 st12">Notes , Books , PYQ</text>
<path id="Path_9" class="st13" d="M300.6,186.3l-8.6-10.1l-0.5,4.6l-7.9-0.9l-1,8.9l7.9,0.9l-0.5,4.6L300.6,186.3z"/>
<g id="Group_10" transform="translate(79.916 297.377)">
	
		<rect id="Rectangle_7" x="-13.6" y="-101.5" transform="matrix(0.6159 -0.7878 0.7878 0.6159 71.9321 -41.6196)" class="st14" width="13.8" height="13.8"/>
	<path id="Path_10" class="st3" d="M55.5-174.2c-21.4-16.7-52.2-12.9-68.9,8.4S-26.3-113.5-5-96.8c21.4,16.7,52.2,12.9,68.9-8.4
		c0,0,0,0,0,0C80.6-126.6,76.9-157.5,55.5-174.2z M1.1-104.6c-17.1-13.4-20.1-38-6.8-55.1s38-20.1,55.1-6.8s20.1,38,6.8,55.1
		c0,0,0,0,0,0C42.9-94.2,18.2-91.2,1.1-104.6C1.1-104.6,1.1-104.6,1.1-104.6z"/>
	<path id="Path_11" class="st9" d="M-3.6-87.3l-10.9-8.5c-1.9-1.5-3.5-0.2-5,1.8l-40.6,49.3c-1.5,1.9-1.2,4.7,0.8,6.3l10.9,8.5
		c1.9,1.5,4.7,1.2,6.3-0.8c0,0,0,0,0,0l38-51.3C-2.6-84-1.7-85.8-3.6-87.3z"/>
</g>
<path id="Path_12" class="st9" d="M253.8,247.8c-2.5-9.8-12-16.2-22.1-14.9c-0.1,0-0.2,0-0.3,0s-0.2,0-0.3,0
	c-10.1,1.1-17.8,9.6-17.9,19.8c0,0.3-0.1,0.6-0.1,0.9l0,0.2l0.3,2.5l0,0.1c0,0,0,0.1,0,0.1c0,0.2,0.1,0.6,0.2,0.9
	c0,0.1,0,0.2,0.1,0.3l0,0.1c0,0.2,0.1,0.3,0.1,0.5c0.2,0.8,0.5,1.7,0.9,2.5c0.1,0.2,0.2,0.3,0.2,0.5c0.1,0.1,0.1,0.2,0.2,0.3
	c2.3,4.5,6.3,8.9,9.6,13.2c4.4,5.7,8.9,11.3,13.3,16.8c0.1,0.2,0.3,0.4,0.4,0.5l0,0l0,0c0.1-0.2,0.2-0.4,0.3-0.6
	c3-6.5,6-13,8.9-19.5c2.2-5,5-10.2,6.1-15.1c0-0.1,0.1-0.3,0.1-0.4c0-0.2,0.1-0.4,0.1-0.5c0.2-0.9,0.3-1.7,0.3-2.6
	c0-0.2,0-0.3,0-0.5v-0.1c0-0.1,0-0.2,0-0.3c0-0.3,0-0.7-0.1-1c0,0,0-0.1,0-0.1l0-0.1l-0.3-2.5l0-0.2
	C254,248.4,253.9,248.1,253.8,247.8z M234.8,260.4c-2.3,0.3-4.7-0.6-6.3-2.2c-0.5-0.6-1-1.2-1.3-1.8c-0.2-0.6-0.4-1.2-0.4-1.8
	l-0.2-1.6c-0.1-0.9-0.1-1.9,0.2-2.8c0.6-1.6,1.6-2.9,3.1-3.8c0.2-0.1,0.3-0.2,0.5-0.3c0.2-0.1,0.3-0.1,0.5-0.2
	c0.3-0.1,0.6-0.2,0.9-0.3c0.3-0.1,0.7-0.2,1-0.2c0.1,0,0.2,0,0.3,0s0.2,0,0.3,0c0.3,0,0.7,0,1,0c0.3,0,0.6,0,1,0.1
	c0.2,0,0.3,0.1,0.5,0.1c0.2,0,0.4,0.1,0.6,0.1c1.6,0.5,3,1.6,3.9,2.9c0.5,0.8,0.8,1.7,0.9,2.6l0.2,1.6c0.1,0.6,0.1,1.2,0,1.9
	c-0.2,0.7-0.5,1.4-0.8,2.1C239.2,258.7,237.1,260.1,234.8,260.4L234.8,260.4z"/>
<g id="Group_11" transform="translate(346.913 242.46)">
	<path id="Path_13" class="st9" d="M-19.9-88l2.6-16.8c-13.8-2.2-24.6-13.1-26.5-26.9l-16.8,2.3C-57.7-108.1-41.1-91.3-19.9-88
		L-19.9-88z"/>
	<path id="Path_14" class="st1" d="M-43.8-131.7c-0.8-6.1,0.1-12.3,2.8-17.8l-15.4-7.3c-4.1,8.5-5.5,18-4.3,27.4L-43.8-131.7z"/>
	<path id="Path_15" class="st7" d="M-41-149.6c7.5-15.7,26.3-22.4,42.1-14.9c15.7,7.5,22.4,26.3,14.9,42.1
		c-3.3,7-9.1,12.5-16.3,15.5l6.6,15.7c24.7-10.4,36.3-38.9,25.9-63.6c-10.4-24.7-38.9-36.3-63.6-25.9c-11,4.6-19.9,13.1-25,23.9
		L-41-149.6z"/>
	<path id="Path_16" class="st3" d="M6.4-91.2l-6.6-15.7c-5.4,2.3-11.3,3-17.1,2.1L-19.9-88C-11-86.6-1.9-87.7,6.4-91.2z"/>
</g>
<g id="Group_12" transform="translate(163.791 425.69)">
	<path id="Path_17" class="st9" d="M-54.1-152.9c0.8,1.1,1.7,2.2,2.8,3.1l-1,2.9c-0.3,1,0.1,2,1,2.5l4.3,2.1c0.9,0.4,2,0.1,2.6-0.7
		l1.7-2.6c1.4,0.3,2.9,0.4,4.3,0.3l1.4,2.8c0.4,0.9,1.5,1.4,2.5,1l4.5-1.5c1-0.3,1.5-1.3,1.3-2.3l-0.7-3c1.3-0.9,2.4-1.9,3.5-3
		l2.8,1c1,0.3,2-0.1,2.5-1l2.1-4.3c0.4-0.9,0.1-2-0.7-2.6l-2.5-1.6c0.3-1.5,0.4-3,0.3-4.5l2.6-1.2c0.9-0.4,1.4-1.5,1-2.5l-1.5-4.5
		c-0.3-1-1.3-1.5-2.3-1.3l-2.7,0.6c-0.8-1.2-1.8-2.4-2.9-3.4l0.9-2.6c0.3-1-0.1-2-1-2.5l-4.2-2.1c-0.9-0.4-2-0.1-2.6,0.7l-1.4,2.3
		c-1.5-0.3-3.1-0.4-4.7-0.3l-1.2-2.5c-0.4-0.9-1.5-1.4-2.5-1l-4.5,1.5c-1,0.3-1.5,1.3-1.3,2.3l0.6,2.7c-1.3,0.9-2.6,2-3.6,3.2
		l-2.6-0.9c-1-0.3-2,0.1-2.5,1l-2.1,4.3c-0.4,0.9-0.1,2,0.7,2.6l2.5,1.6c-0.3,1.5-0.3,3-0.2,4.5l-2.6,1.3c-0.9,0.4-1.4,1.5-1,2.5
		l1.5,4.5c0.3,1,1.3,1.5,2.3,1.3L-54.1-152.9z M-42.1-170.6c4.1-1.4,8.5,0.7,9.9,4.8c1.4,4.1-0.7,8.5-4.8,9.9
		c-4.1,1.4-8.5-0.7-9.9-4.8C-48.3-164.7-46.1-169.2-42.1-170.6z"/>
	<path id="Path_18" class="st1" d="M6.7-172.7l-3-1.2c-0.9-0.4-2,0-2.5,0.9l-0.9,1.7c-1.3-0.1-2.6-0.1-3.9,0.1l-1-1.7
		c-0.5-0.9-1.6-1.2-2.5-0.8l-3,1.3c-0.9,0.4-1.4,1.4-1.1,2.4l0.6,1.8c-1,0.8-1.9,1.8-2.7,2.9l-1.9-0.5c-1-0.3-2,0.3-2.3,1.2
		l-1.2,3.1c-0.4,0.9,0,2,0.9,2.5l1.9,1c-0.1,1.2-0.1,2.5,0.1,3.7l-1.8,1.1c-0.9,0.5-1.2,1.6-0.8,2.5l1.3,3c0.4,0.9,1.4,1.4,2.4,1.1
		l2.1-0.7c0.7,0.9,1.6,1.6,2.5,2.3l-0.6,2.2c-0.3,1,0.3,2,1.2,2.3l3,1.2c0.9,0.4,2,0,2.5-0.9l1-2c1.2,0.1,2.4,0.1,3.5-0.1l1.2,2
		c0.5,0.9,1.6,1.2,2.5,0.8l3-1.3c0.9-0.4,1.4-1.4,1.1-2.4l-0.6-2.1c1-0.8,1.9-1.7,2.6-2.7l2.1,0.5c1,0.2,2-0.3,2.3-1.2l1.2-3
		c0.4-0.9,0-2-0.9-2.5l-1.9-1c0.1-1.2,0.1-2.5-0.1-3.7l1.7-1c0.9-0.5,1.2-1.6,0.8-2.5l-1.3-3c-0.4-0.9-1.4-1.4-2.4-1.1l-1.9,0.6
		c-0.8-1-1.7-1.8-2.6-2.5l0.5-1.9C8.1-171.3,7.6-172.4,6.7-172.7L6.7-172.7z M1.2-150.9c-3.2,1.4-7,0-8.4-3.2c-1.4-3.2,0-7,3.2-8.4
		c3.2-1.4,7,0,8.4,3.2c0,0,0,0,0,0C5.9-156.1,4.5-152.4,1.2-150.9C1.2-150.9,1.2-150.9,1.2-150.9z"/>
	<path id="Path_19" class="st3" d="M-33.9-129.5c-0.9,0.4-1.4,1.5-1,2.4l0.6,1.9c0.3,1,1.3,1.5,2.3,1.3l1.5-0.3
		c0.5,0.8,1.1,1.5,1.8,2.1l-0.5,1.4c-0.3,0.9,0.1,2,1,2.4l1.8,0.9c0.9,0.5,2,0.2,2.5-0.7l0.8-1.2c0.9,0.2,1.9,0.3,2.9,0.2l0.6,1.4
		c0.4,0.9,1.5,1.4,2.4,1l1.9-0.6c1-0.3,1.5-1.3,1.3-2.3l-0.3-1.4c0.9-0.6,1.6-1.2,2.3-2l1.3,0.5c0.9,0.3,2-0.1,2.4-1l0.9-1.8
		c0.4-0.9,0.2-2-0.7-2.5l-1.2-0.8c0.2-1,0.3-2,0.2-3l1.2-0.6c0.9-0.4,1.4-1.5,1-2.4l-0.6-1.9c-0.3-1-1.3-1.5-2.3-1.3l-1.3,0.3
		c-0.5-0.8-1.2-1.6-1.9-2.3l0.4-1.2c0.3-0.9-0.1-2-1-2.4l-1.8-0.9c-0.9-0.5-2-0.2-2.5,0.7l-0.7,1c-1-0.2-2.1-0.3-3.1-0.2l-0.5-1.1
		c-0.4-0.9-1.5-1.4-2.4-1l-1.9,0.6c-1,0.3-1.5,1.3-1.3,2.3l0.3,1.2c-0.9,0.6-1.7,1.3-2.4,2.1l-1.2-0.4c-0.9-0.3-2,0.1-2.4,1
		l-0.9,1.8c-0.5,0.9-0.2,2,0.7,2.5l1.2,0.8c-0.2,1-0.2,2-0.2,3L-33.9-129.5z M-22.4-135.8c2.7-0.9,5.7,0.6,6.6,3.3
		c0.9,2.7-0.6,5.7-3.3,6.6c-2.7,0.9-5.7-0.6-6.6-3.3C-26.6-132-25.1-134.9-22.4-135.8C-22.4-135.8-22.4-135.8-22.4-135.8z"/>
</g>
<g id="Group_14" transform="translate(371.224 409.523)">
	<g id="Group_13">
		<path id="Path_20" class="st1" d="M-22.5-174.5c-3.7-1.5-7.8-1.2-11.2,1c-1,0.7-2.3,0.6-3.1-0.4c-0.2-0.3-0.4-0.7-0.4-1.1
			c-1.4-6.5-7.7-10.7-14.3-9.3c-5.5,1.1-9.5,6-9.6,11.6c-0.9,11,8.2,28.2,12.2,30.3c4.4,1.3,23.1-4.2,30.2-12.6
			c4.7-4.7,4.6-12.4-0.2-17C-19.8-173.1-21.1-173.9-22.5-174.5L-22.5-174.5z"/>
	</g>
</g>
<g id="Group_19" transform="translate(350.042 408.881)">
	<g id="Group_18">
		<g id="Group_15" transform="translate(0 28.395)">
			<path id="Path_21" class="st3" d="M-36.7-102.9c-8.1,1-16.3,0.8-24.4-0.5l2.2-13.3c39.1,6.5,76-19.9,82.5-59
				c0.5-3,0.8-5.9,0.9-8.9l13.4,0.5C36.4-142.3,4.8-107.9-36.7-102.9L-36.7-102.9z"/>
		</g>
		<g id="Group_17" transform="translate(72.251)">
			<g id="Group_16">
				<path id="Path_22" class="st3" d="M-21.1-152.4l-24.1-32.2l-15.9,37L-21.1-152.4z"/>
			</g>
		</g>
	</g>
</g>
<g id="Group_24" transform="translate(61.061 184.578)">
	<g id="Group_23">
		<g id="Group_20" transform="translate(13.126)">
			<path id="Path_23" class="st9" d="M13.6-183.9c8.1-1,16.3-0.8,24.4,0.5l-2.2,13.3c-39.1-6.5-76,19.9-82.5,59
				c-0.5,3-0.8,5.9-0.9,8.9l-13.4-0.5C-59.5-144.5-27.8-178.9,13.6-183.9z"/>
		</g>
		<g id="Group_22" transform="translate(0 73.768)">
			<g id="Group_21">
				<path id="Path_24" class="st9" d="M-61.1-179.8l24.1,32.2l15.9-37L-61.1-179.8z"/>
			</g>
		</g>
	</g>
</g>
</svg>
