<?xml version="1.0" encoding="utf-8"?>
<!-- Generator: Adobe Illustrator 21.0.2, SVG Export Plug-In . SVG Version: 6.00 Build 0)  -->
<svg version="1.1" id="Layer_1" xmlns="http://www.w3.org/2000/svg" xmlns:xlink="http://www.w3.org/1999/xlink" x="0px" y="0px"
	 viewBox="0 0 401.2 343.9" style="enable-background:new 0 0 401.2 343.9;" xml:space="preserve">
<style type="text/css">
	.st0{fill:#FFFFFF;}
	.st1{fill:none;stroke:#647BF4;stroke-linecap:round;stroke-linejoin:round;stroke-miterlimit:10;}
	.st2{opacity:0.25;fill:none;stroke:#647BF4;stroke-linecap:round;stroke-linejoin:round;stroke-miterlimit:10;}
	.st3{fill:#F0C9CF;}
	.st4{fill:#1F2251;}
	.st5{fill:#D683A7;}
	.st6{fill:#99A3CA;}
	.st7{fill:#7988B8;}
	.st8{fill:#647BF4;}
	.st9{opacity:0.25;fill:#FFFFFF;}
	.st10{fill:none;stroke:#1F2251;stroke-width:0.5252;stroke-linecap:round;stroke-linejoin:round;stroke-miterlimit:10;}
	.st11{fill:#161937;}
	.st12{fill:none;stroke:#C85E8B;stroke-width:0.5252;stroke-linecap:round;stroke-miterlimit:9;}
	.st13{fill:none;stroke:#1F2251;stroke-width:0.7879;stroke-linecap:round;stroke-linejoin:round;stroke-miterlimit:10;}
	.st14{fill:#EAB7C0;}
	.st15{fill:#2A3551;}
	.st16{fill:#364380;}
	.st17{fill:#445EC7;}
	.st18{fill:#4257B2;}
	.st19{fill:#EBAF65;}
	.st20{clip-path:url(#SVGID_2_);}
	.st21{fill:#292F69;}
	.st22{fill:none;stroke:#647BF4;stroke-width:0.7879;stroke-miterlimit:10;}
	.st23{fill:#E6E9FC;}
	.st24{fill:none;stroke:#97A2D4;stroke-width:2.101;stroke-linecap:round;stroke-linejoin:round;stroke-miterlimit:10;}
	.st25{fill:#F2F2F2;}
</style>
<g>
	<g>
		<g>
			<polyline class="st3" points="102.4,287.9 104.1,300.5 100.4,306.8 91.6,303.3 88.9,291.1 			"/>
			<path class="st4" d="M122.9,309.3l-19.2-11.1l-3.7,5.2h-8.4l-0.9,7.8h31.7C123.4,311.2,123.8,309.8,122.9,309.3z"/>
			<polyline class="st3" points="34,287.9 31.6,300.5 35.2,306.8 44,303.3 47.6,291.1 			"/>
			<path class="st3" d="M112.1,165.3l-14.4,19c-0.5,0.7-0.8,1.4-0.9,2.3l-1.2,16.9L90.4,168l7.3-12.2l-0.7-2.4l-2.8-9.2l14.2-5.4
				l0.9,2.6l4.5,13.4C115,158.4,114.3,162.3,112.1,165.3z"/>
			<polygon class="st5" points="109.3,141.4 96.9,153.3 94.2,144.2 108.4,138.8 			"/>
			<polygon class="st6" points="105.1,291.2 87.6,294 73.9,235.2 70.5,220.6 70.5,220.2 48.2,295.5 30.8,290.7 47,186.1 48.2,178.2 
				92.5,177.5 93,181.8 			"/>
			<polygon class="st7" points="93,181.8 47,186.1 47.7,181.8 48.2,178.2 92.5,177.5 92.9,181.1 			"/>
			<path class="st4" d="M92.9,181.1c-9.6,1.4-38.4,0.9-45.2,0.7l0.6-3.7l44.3-0.7L92.9,181.1z"/>
			<path class="st8" d="M110.7,138l-10.2,6.1l-1.3,0.8l-3.1,1.8v0.1l-0.1,1.3l-0.5,10.7l-0.1,1.3l-0.5,10.7l-0.1,1.3l-0.2,3.4
				c0,0,1.8,2,1.3,3.7c-0.1,0.4-3.2,0.7-7.7,1c-0.4,0-0.9,0-1.3,0.1c-3.1,0.1-6.9,0.2-10.7,0.3c-0.4,0-0.9,0-1.3,0
				c-3.6,0-7.3,0-10.7-0.1c-0.4,0-0.9,0-1.3,0c-4.1-0.1-7.8-0.2-10.7-0.5c-0.5,0-0.9-0.1-1.3-0.1c-2.9-0.3-4.7-0.6-4.7-1.1
				c0.2-2.4,1.7-4.1,1.7-4.1l0-2.6l0-1.3l0-10.7l0-1.3l0-10.7v-0.7l-1.1-0.6l-6.8-4l-1.3-0.8l-8.5-5l0.5-1l0.6-1.3l4.8-10.8l0.6-1.3
				l2-4.5l0.4-0.9c0.3-0.6,0.6-1.2,0.9-1.8c0.7-1.2,1.5-2.4,2.3-3.5c0.4-0.5,0.7-0.9,1.1-1.3c2.1-2.3,4.5-4.1,7.3-5.5
				c0.4-0.2,0.9-0.4,1.3-0.6c1.9-0.8,3.9-1.4,6-1.7l3.2-0.5l1.6-0.2l1.3-0.2l0,0l10.7,0.9l1.3,0.1l3.2,0.3l2.7,0.4
				c0.2,0,0.3,0,0.5,0.1c1.5,0.2,2.9,0.6,4.3,1.1c0.4,0.2,0.9,0.3,1.3,0.5c3.1,1.3,5.9,3.1,8.2,5.5c0.4,0.4,0.8,0.9,1.2,1.3
				c0.5,0.5,0.9,1.1,1.3,1.7c0.5,0.7,0.9,1.3,1.3,2c0.4,0.8,0.8,1.5,1.2,2.4l2.1,4.7l0.6,1.3l4.8,10.8l0.6,1.3L110.7,138z"/>
			<g>
				<path class="st9" d="M109.2,134.7h-8.8v-10.8h3.9l-0.6-1.3h-3.3v-7.1c-0.4-0.7-0.8-1.4-1.3-2v9.1H88.4v-10.8h9.4
					c-0.4-0.5-0.8-0.9-1.2-1.3h-8.2v-5.5c-0.4-0.2-0.9-0.3-1.3-0.5v6H76.3v-7.8l-1.3-0.1v7.9H64.2v-8.8l-1.3,0.2v8.6H52.2v-6.1
					c-0.4,0.2-0.9,0.4-1.3,0.6v5.5h-7.3c-0.4,0.4-0.8,0.9-1.1,1.3h8.4v10.8H40.1v-7.2c-0.3,0.6-0.6,1.2-0.9,1.8l-0.4,0.9v4.5h-2
					l-0.6,1.3h2.6v10.8h-7.5l-0.6,1.3h8v6l1.3,0.8V136h10.8v10.7h-3.9l1.1,0.6v0.7h2.8v10.7H48l0,1.3h2.9v10.7h-2.9l0,1.3h2.9v7.7
					c0.4,0,0.9,0.1,1.3,0.1v-7.8h10.7v8.3c0.4,0,0.9,0,1.3,0v-8.4H75v8.4c0.4,0,0.9,0,1.3,0v-8.4H87v8.2c0.5,0,0.9,0,1.3-0.1v-8.1
					h6.5l0.1-1.3h-6.6v-10.7h7.1l0.1-1.3h-7.1v-10.7h7.6l0.1-1.3h-7.7V136h10.7v8.8l1.3-0.8v-8h9.4L109.2,134.7z M50.8,134.7H40.1
					v-10.8h10.8V134.7z M62.9,170.9H52.2v-10.7h10.7V170.9z M62.9,158.8H52.2v-10.7h10.7V158.8z M62.9,146.8H52.2V136h10.7V146.8z
					 M62.9,134.7H52.2v-10.8h10.7V134.7z M62.9,122.6H52.2v-10.8h10.7V122.6z M75,170.9H64.2v-10.7H75V170.9z M75,158.8H64.2v-10.7
					H75V158.8z M75,146.8H64.2V136H75V146.8z M75,134.7H64.2v-10.8H75V134.7z M75,122.6H64.2v-10.8H75V122.6z M87,170.9H76.3v-10.7
					H87V170.9z M87,158.8H76.3v-10.7H87V158.8z M87,146.8H76.3V136H87V146.8z M87,134.7H76.3v-10.8H87V134.7z M87,122.6H76.3v-10.8
					H87V122.6z M99.1,134.7H88.4v-10.8h10.7V134.7z"/>
			</g>
			<path class="st0" d="M82.8,103.5c-1,4.3-3.4,8.6-9,8.5c-9-0.1-11.7-7-12.4-9.8l3-0.5l15.3,1.3l2.7,0.4
				C82.4,103.4,82.6,103.5,82.8,103.5z"/>
			<line class="st10" x1="94.2" y1="144.2" x2="93" y2="126.7"/>
			<path class="st4" d="M86.6,74c0,0,1.9,2.1,0.4,5.6c-1.5,3.6-2.2,6.6-2.4,10c-0.1,2.8-12.3,4.4-16.5,4.9c-0.9,0.1-1.4,0.2-1.4,0.2
				l-3.3-6.5c-0.4-1.2-1.5-3.3-2.4-5.8c-1.5-4.1-2.7-9.1-0.3-12c3.9-4.7,8.1-2.6,14.7-5.9c6.6-3.2,9.9-6.3,13.7-1.8
				C93,67.1,86.6,74,86.6,74z"/>
			<path class="st11" d="M69.3,93.2l-1.1,1.4c-0.9,0.1-1.4,0.2-1.4,0.2l-3.3-6.5c-0.4-1.2-1.5-3.3-2.4-5.8c3.3-1.3,5.5-4.7,5.5-4.7
				L69.3,93.2z"/>
			<path class="st3" d="M79.5,103c0,0,0.3,6.4-6.7,6.2c-7-0.3-8.6-7.5-8.6-7.5l1.9-0.4c0,0,0.7-7.7,0-13.1L79.5,95
				c-0.1,0.1-0.2,0.3-0.4,0.4c-1.5,2.1-1.4,7-1.4,7L79.5,103z"/>
			<path class="st5" d="M77.8,102.4c-8.6,0.3-11-9.8-11-9.8l12.4,2.8C77.6,97.6,77.8,102.4,77.8,102.4z"/>
			<path class="st3" d="M85.6,88.8c0,1.2,0,2.4-0.2,3.6c-0.7,4.6-3.2,7.9-9.1,7.4c-8.8-0.7-10.4-9.3-10.4-9.3s-2.3,1.9-4.5-0.3
				c-2.2-2.2-1.1-5.4,1-5.8c1.2-0.2,2.3,1,3.1,2.1c0.3,0.5,1.1,0.2,1.1-0.4v-8.5c0,0,10.7,0.4,17.1-1.9c0,0,0.1,0,0.1,0
				c1,0.9,1.4,2.2,1.5,3.6c0.2,1.9-0.2,4,0,5.8C85.5,86.3,85.5,87.6,85.6,88.8z"/>
			<path class="st12" d="M79.2,90.5L80,90c0.6-0.3,0.8-1,0.5-1.6l-1.4-3.2"/>
			<ellipse cx="75.5" cy="87.4" rx="0.6" ry="0.8"/>
			<ellipse cx="82.8" cy="87.1" rx="0.6" ry="0.8"/>
			<path class="st12" d="M61.7,86.7c1.3-0.7,2.9,0.5,2.6,2.4"/>
			<path class="st12" d="M76.3,94c0,0,1.7,1.7,4,0.4"/>
			<path class="st13" d="M72.6,84.1c0,0,1.3-1.9,3.8-1.1"/>
			<path class="st13" d="M84.7,83.2c0,0-1.5-1.7-3.9-0.1"/>
			<circle class="st14" cx="72.9" cy="90.5" r="2.1"/>
			<path class="st14" d="M85.6,88.8c0,1.2,0,2.4-0.2,3.6c-0.3,0.2-0.7,0.3-1,0.3c-1.2,0-2.1-1-2.1-2.1s1-2.1,2.1-2.1
				C84.8,88.4,85.2,88.5,85.6,88.8z"/>
			<g>
				<path class="st15" d="M90.1,160.5h-11c-1.3,0-2.2-1.1-1.9-2.4l4.6-22.9c0.3-1.3,1.5-2.4,2.9-2.4h12.5c1.3,0,2.2,1.1,1.9,2.4
					L93,158.1C92.7,159.4,91.4,160.5,90.1,160.5z"/>
				<path class="st16" d="M91.7,161.5h-11c-1.3,0-2.2-1.1-1.9-2.4l4.6-22.9c0.3-1.3,1.5-2.4,2.9-2.4h11c1.3,0,2.2,1.1,1.9,2.4
					l-4.6,22.9C94.3,160.4,93,161.5,91.7,161.5z"/>
			</g>
			<path class="st3" d="M89,156.9c0,2.3-2.7,4.3-2.7,4.3s0.6,3.1-4.5,4.1c-5.1,1-10.3-3.4-10.3-3.4l-32.9,6.9
				c-0.9,0.2-1.7,0.3-2.6,0.3c-3.7,0-7.3-1.7-9.6-4.6c-3-3.7-3.6-8.7-1.6-13l4.8-10.3l1.7-3.6l16.8,9.8l-1.2,2.1l-1.7,3l26.7-0.9
				c0,0,2.7-1.9,4.5-4.2c1.8-2.3,2.4-2.9,3.8-2c1.4,0.9-0.1,4.9-1.3,6.4c4.3,2.4,9.4,0.5,11.4,0.8C92.2,152.8,92.2,155.3,89,156.9z"
				/>
			<path class="st12" d="M89,156.9c-2.6,1.1-9.1,0.1-10.9-1.1"/>
			<path class="st12" d="M86.3,161.1c-3.6,0.7-7.7,0.5-9.7-1.6"/>
			<path class="st17" d="M85.1,143.8L85.1,143.8c-0.7,0-1.1-0.6-1-1.2l0.9-4.5c0.1-0.7,0.8-1.2,1.5-1.2l0,0c0.7,0,1.1,0.6,1,1.2
				l-0.9,4.5C86.5,143.3,85.8,143.8,85.1,143.8z"/>
			<line class="st12" x1="45.1" y1="152.5" x2="36.2" y2="152.5"/>
			<line class="st12" x1="97.7" y1="155.8" x2="102.4" y2="150"/>
			<line class="st10" x1="48" y1="147.4" x2="57.6" y2="128.9"/>
			<polygon class="st5" points="48,147.4 46.8,149.5 29.5,141.2 31.2,137.6 			"/>
			<line class="st10" x1="70.5" y1="220.2" x2="76.6" y2="200.3"/>
			<path class="st4" d="M12.7,309.3L32,298.2l3.7,5.2H44l0.9,7.8H13.2C12.2,311.2,11.9,309.8,12.7,309.3z"/>
			<g>
				<path class="st6" d="M47.2,295.9l-15.6-3.2c-1.5-0.3-2.5-1.8-2.2-3.3l0.3-1.3c0.3-1.5,1.8-2.5,3.3-2.2l15.6,3.2
					c1.5,0.3,2.5,1.8,2.2,3.3l-0.3,1.3C50.2,295.2,48.7,296.2,47.2,295.9z"/>
				<line class="st10" x1="32" y1="285.6" x2="49.6" y2="289.3"/>
			</g>
			<g>
				<path class="st6" d="M104.7,292.9L89,295.8c-1.5,0.3-3-0.7-3.3-2.3l-0.3-1.4c-0.3-1.5,0.7-3,2.3-3.3l15.7-2.9
					c1.5-0.3,3,0.7,3.3,2.3l0.3,1.4C107.2,291.1,106.2,292.6,104.7,292.9z"/>
				<line class="st10" x1="86.7" y1="289.1" x2="104.4" y2="285.9"/>
			</g>
			<line class="st10" x1="52.8" y1="173.4" x2="91.4" y2="167.7"/>
			<polygon class="st7" points="76.1,202.8 73.9,235.2 70.5,220.6 70.6,219.8 			"/>
		</g>
		<g>
			<path class="st3" d="M225.5,105.8l-8.4,31.6c-1.3,5-6.6,8-11.6,6.5l-5.7-1.7l17.1-40.2L225.5,105.8z"/>
			<path class="st5" d="M220.4,97c-0.7-0.8-6,2-7.3,2.3c-1.3,0.3-0.1,3.5,2.2,3.2c2.4-0.3,3.1-2.8,3.1-2.8L220.4,97z"/>
			<path class="st15" d="M216.5,90.2l-0.2,20.7l2.2-0.5V90.2c0-0.4-0.3-0.8-0.7-1l0,0C217.2,89,216.5,89.5,216.5,90.2z"/>
			<path class="st3" d="M219.7,97.4c0,0-6.8,6.8-5.5,8.8c1.3,2,5.5-1.6,6.3-2.7c-0.1,2.3,2.8,4.4,4.6,4.2c2.6-0.4,3.7-3.1,2.9-4.3
				c-0.8-1.2-5.7-4.1-5.7-4.1S221,95.5,219.7,97.4z"/>
			<g>
				<polyline class="st3" points="153,287.9 150.6,300.5 154.2,306.8 163,303.3 166.6,291.1 				"/>
				<path class="st4" d="M131.7,309.3l19.2-11.1l3.7,5.2h8.4l0.9,7.8h-31.7C131.2,311.2,130.9,309.8,131.7,309.3z"/>
			</g>
			<g>
				<polyline class="st3" points="235.8,287.9 238.2,300.5 234.6,306.8 225.8,303.3 222.2,291.1 				"/>
				<path class="st4" d="M257.1,309.3l-19.2-11.1l-3.7,5.2h-8.4l-0.9,7.8h31.7C257.6,311.2,257.9,309.8,257.1,309.3z"/>
			</g>
			<polygon class="st8" points="237.4,283.5 219.2,287.5 191.5,194.5 169.3,285.9 151.3,283.2 162.9,186.1 164.6,171.1 191.6,169.1 
				209.7,167.7 210,169.1 210.2,169.9 			"/>
			<polygon class="st18" points="210.2,169.9 162.9,186.1 164.6,171.1 191.6,169.1 210,169.1 			"/>
			<path class="st19" d="M211.4,167c0.2,1.2-0.7,2.2-1.8,2.4l-43.4,6.4c-1.5,0.2-2.8-1-2.7-2.5l1.2-34.1l0.9-24.8l6.6-14.5l1.4-3
				h15.2l1.7,0.2c0.4,0.1,0.8,0.1,1.2,0.2c6.6,1.3,12.2,5.5,15.2,11.5l9.4,18.9l-8.9,9L211.4,167z"/>
			<path class="st19" d="M171.2,110.7c-0.3,0.7-0.4,1.4-0.3,2.1l1.7,21.9l-1.4,0.8l-6.4,3.8l-8,4.7l-1.3,0.8l-2.5-21.8
				c-1.1-9.6,4.1-18.8,12.8-22.8l5.4-2.5l2.6-1.2l1.9,0.5l1.1,0.3l-2.2,5.3L171.2,110.7z"/>
			<g>
				<defs>
					<path id="SVGID_1_" d="M207.4,136.9l8.9-9l-9.4-18.9c-3-6-8.6-10.3-15.2-11.5c-0.4-0.1-0.8-0.1-1.2-0.2l-1.7-0.2h-13.3
						l-1.9-0.5l-2.6,1.2l-5.4,2.5c-8.7,4-13.9,13.2-12.8,22.8l2.5,21.8l9.4-5.5l-1.2,34.1c-0.1,1.5,1.3,2.7,2.7,2.5l43.4-6.4
						c1.2-0.2,2-1.3,1.8-2.4L207.4,136.9z"/>
				</defs>
				<clipPath id="SVGID_2_">
					<use xlink:href="#SVGID_1_"  style="overflow:visible;"/>
				</clipPath>
				<g class="st20">
					<g>
						<circle class="st9" cx="154.9" cy="166.5" r="1.6"/>
						<circle class="st9" cx="164.2" cy="166.5" r="1.6"/>
						<circle class="st9" cx="173.5" cy="166.5" r="1.6"/>
						<circle class="st9" cx="182.8" cy="166.5" r="1.6"/>
						<circle class="st9" cx="192.1" cy="166.5" r="1.6"/>
						<circle class="st9" cx="201.4" cy="166.5" r="1.6"/>
						<circle class="st9" cx="210.7" cy="166.5" r="1.6"/>
						<circle class="st9" cx="220" cy="166.5" r="1.6"/>
					</g>
					<g>
						<circle class="st9" cx="154.9" cy="157.8" r="1.6"/>
						<circle class="st9" cx="164.2" cy="157.8" r="1.6"/>
						<circle class="st9" cx="173.5" cy="157.8" r="1.6"/>
						<circle class="st9" cx="182.8" cy="157.8" r="1.6"/>
						<circle class="st9" cx="192.1" cy="157.8" r="1.6"/>
						<circle class="st9" cx="201.4" cy="157.8" r="1.6"/>
						<circle class="st9" cx="210.7" cy="157.8" r="1.6"/>
						<circle class="st9" cx="220" cy="157.8" r="1.6"/>
					</g>
					<g>
						<circle class="st9" cx="154.9" cy="149.1" r="1.6"/>
						<circle class="st9" cx="164.2" cy="149.1" r="1.6"/>
						<circle class="st9" cx="173.5" cy="149.1" r="1.6"/>
						<circle class="st9" cx="182.8" cy="149.1" r="1.6"/>
						<circle class="st9" cx="192.1" cy="149.1" r="1.6"/>
						<circle class="st9" cx="201.4" cy="149.1" r="1.6"/>
						<circle class="st9" cx="210.7" cy="149.1" r="1.6"/>
						<circle class="st9" cx="220" cy="149.1" r="1.6"/>
					</g>
					<g>
						<circle class="st9" cx="154.9" cy="140.4" r="1.6"/>
						<circle class="st9" cx="164.2" cy="140.4" r="1.6"/>
						<circle class="st9" cx="173.5" cy="140.4" r="1.6"/>
						<circle class="st9" cx="182.8" cy="140.4" r="1.6"/>
						<circle class="st9" cx="192.1" cy="140.4" r="1.6"/>
						<circle class="st9" cx="201.4" cy="140.4" r="1.6"/>
						<circle class="st9" cx="210.7" cy="140.4" r="1.6"/>
						<circle class="st9" cx="220" cy="140.4" r="1.6"/>
					</g>
					<g>
						<circle class="st9" cx="154.9" cy="131.7" r="1.6"/>
						<circle class="st9" cx="164.2" cy="131.7" r="1.6"/>
						<circle class="st9" cx="173.5" cy="131.7" r="1.6"/>
						<circle class="st9" cx="182.8" cy="131.7" r="1.6"/>
						<circle class="st9" cx="192.1" cy="131.7" r="1.6"/>
						<circle class="st9" cx="201.4" cy="131.7" r="1.6"/>
						<circle class="st9" cx="210.7" cy="131.7" r="1.6"/>
						<circle class="st9" cx="220" cy="131.7" r="1.6"/>
					</g>
					<g>
						<circle class="st9" cx="154.9" cy="123" r="1.6"/>
						<circle class="st9" cx="164.2" cy="123" r="1.6"/>
						<circle class="st9" cx="173.5" cy="123" r="1.6"/>
						<circle class="st9" cx="182.8" cy="123" r="1.6"/>
						<circle class="st9" cx="192.1" cy="123" r="1.6"/>
						<circle class="st9" cx="201.4" cy="123" r="1.6"/>
						<circle class="st9" cx="210.7" cy="123" r="1.6"/>
						<circle class="st9" cx="220" cy="123" r="1.6"/>
					</g>
					<g>
						<circle class="st9" cx="154.9" cy="114.4" r="1.6"/>
						<circle class="st9" cx="164.2" cy="114.4" r="1.6"/>
						<circle class="st9" cx="173.5" cy="114.4" r="1.6"/>
						<circle class="st9" cx="182.8" cy="114.4" r="1.6"/>
						<circle class="st9" cx="192.1" cy="114.4" r="1.6"/>
						<circle class="st9" cx="201.4" cy="114.4" r="1.6"/>
						<circle class="st9" cx="210.7" cy="114.4" r="1.6"/>
						<circle class="st9" cx="220" cy="114.4" r="1.6"/>
					</g>
					<g>
						<circle class="st9" cx="154.9" cy="105.7" r="1.6"/>
						<circle class="st9" cx="164.2" cy="105.7" r="1.6"/>
						<circle class="st9" cx="173.5" cy="105.7" r="1.6"/>
						<circle class="st9" cx="182.8" cy="105.7" r="1.6"/>
						<circle class="st9" cx="192.1" cy="105.7" r="1.6"/>
						<circle class="st9" cx="201.4" cy="105.7" r="1.6"/>
						<circle class="st9" cx="210.7" cy="105.7" r="1.6"/>
						<circle class="st9" cx="220" cy="105.7" r="1.6"/>
					</g>
					<g>
						<circle class="st9" cx="154.9" cy="97" r="1.6"/>
						<circle class="st9" cx="164.2" cy="97" r="1.6"/>
						<circle class="st9" cx="173.5" cy="97" r="1.6"/>
						<circle class="st9" cx="182.8" cy="97" r="1.6"/>
						<circle class="st9" cx="192.1" cy="97" r="1.6"/>
						<circle class="st9" cx="201.4" cy="97" r="1.6"/>
						<circle class="st9" cx="210.7" cy="97" r="1.6"/>
						<circle class="st9" cx="220" cy="97" r="1.6"/>
					</g>
				</g>
			</g>
			<path class="st15" d="M194.5,132.3l9.3-20.5c0.4-0.8,1-1.4,1.9-1.6l37.7-10.3c0.6-0.2,1.9,1.4,1.6,2l-13.7,25.5
				c-0.4,0.9-1.2,1.6-2.1,1.9l-35.5,13.4L194.5,132.3z"/>
			<path class="st16" d="M195.1,133.8l9.3-20.5c0.4-0.8,1-1.4,1.9-1.6l37.7-10.3c0.6-0.2,1.2,0.5,0.9,1.1l-13,26.4
				c-0.4,0.9-1.2,1.6-2.1,1.9l-35.5,13.4L195.1,133.8z"/>
			<path class="st3" d="M204.3,138.6c0,0,0.8,1.8-3,5.2c-3.8,3.4-9.4,1.2-9.4,1.2l-15.1,11.4c-2.1,1.6-4.7,2.4-7.2,2.4
				c-1.9,0-3.8-0.4-5.6-1.4c-3.2-1.7-5.5-4.7-6.3-8.3l-0.1-0.5l-1-4.8l8-4.7l6.4-3.8l0.2,1.2l1,5.5l16.4-8c0,0,3.3-5.3,4.9-7.1
				c1.6-1.9,3.3-2.2,3.9-1c0.6,1.2-3,6.2-3,6.2s1.3-0.1,5.3-1.5c4-1.4,6.5-4.2,7.6-3.3c1.1,0.9,0.5,3.3-1,5.3
				C206.7,136.1,204.3,138.6,204.3,138.6z"/>
			<polygon class="st5" points="171.3,136.7 157.7,148.8 156.7,144 164.7,139.3 171.1,135.5 			"/>
			<path class="st0" d="M191.7,97.4c-0.6,3.6-2.6,7.1-8,7.7c-4.2,0.5-7.2-0.8-9.3-2.6c-0.9-0.8-1.7-1.7-2.2-2.6
				c-0.5-0.8-0.9-1.6-1.2-2.3l2.6-1.2l1.9,0.5h13.3l1.7,0.2C190.9,97.3,191.3,97.3,191.7,97.4z"/>
			<path class="st3" d="M184.1,102.7c-7.5,0.8-10.5-6.2-10.5-6.2l1.5-0.7c0,0,0.3-5.9-0.3-9.4L177,87l10.5,2.7
				c-1,2.3-0.7,5.4-0.6,6.5c0,0.2,0,0.3,0,0.3l1.9,0.5C188.8,97,189.2,102.2,184.1,102.7z"/>
			<path class="st5" d="M186.9,96.2c-4.2,0.1-9.5-1.4-11.2-6.9c-0.4-1.2,0.2-2,1.3-2.3l10.5,2.7C186.5,92,186.8,95.2,186.9,96.2z"/>
			<path class="st4" d="M173.1,82.7l-3.8-4.7c-2-2.4-1.8-6,0.5-8.1l0,0l0,0c-2.1-4.9,0.9-10.5,6.1-11.7l3.9-0.9
				c0.7-0.2,1.3-0.4,1.9-0.9l3.7-2.7c0.9-0.7,2.1-0.7,3.1-0.1l0,0c1.2,0.8,1.7,2.3,1,3.6l-1.1,2.2c-0.1,0.3,0.2,0.5,0.4,0.4l6.8-4.2
				c0.9-0.5,2-0.4,2.7,0.4l0,0c0.7,0.7,0.7,1.8,0.2,2.7l-4.7,6.5c-0.2,0.2,0.1,0.5,0.3,0.4l1.1-0.4c1.2-0.4,2.5,0,3.1,1.1l0,0
				c0.6,1,0.5,2.3-0.3,3.2c-2.2,2.4-6.4,7.1-7,9.8C190.2,83,173.1,82.7,173.1,82.7z"/>
			<path class="st3" d="M191.5,75.4c-0.1,0.7-0.2,1.8-0.2,3.4c0,1,0.2,2.8,0.2,4.7c0,1.3-0.1,2.7-0.3,4.1c-0.7,3.1-2.5,5.7-7.1,5.7
				c-9.5,0-10.4-9.4-10.4-9.4s-0.3,2.3-2.4,1.2c-1.6-0.8-2.1-4.4-0.3-5.3c1.1-0.5,2.2,0.2,2.9,0.8c0.3,0.3,0.8,0,0.8-0.4l-0.4-4.4
				c2.6,0.8,11.9-1.9,15.5-5.4c0.1,1,0.7,2.1,1.3,2.8C191.4,73.8,191.6,74.6,191.5,75.4z"/>
			<g>
				<path class="st12" d="M184.8,85.7l0.8-0.5c0.6-0.3,0.8-1,0.5-1.6l-1.4-3.2"/>
				<ellipse cx="181.1" cy="81.9" rx="0.6" ry="0.8"/>
				<ellipse cx="188.4" cy="81.4" rx="0.6" ry="0.8"/>
				<path class="st13" d="M178.2,79.3c0,0,1.3-1.9,3.8-1.1"/>
				<path class="st13" d="M190.3,78.4c0,0-1.5-1.7-3.9-0.1"/>
			</g>
			<path class="st0" d="M181.9,87.5l3.6,0.2c0,0-0.1,1.9-1.9,1.7C181.8,89.3,181.9,87.5,181.9,87.5z"/>
			<path class="st12" d="M170.6,81.6c1.1-0.7,2,0.2,1.8,1.8"/>
			<g>
				<circle class="st14" cx="179.3" cy="85.5" r="2.1"/>
				<path class="st14" d="M191.5,83.5c0,1.3-0.1,2.7-0.3,4.1c-0.1,0-0.3,0-0.4,0c-1.2,0-2.1-1-2.1-2.1c0-1.2,1-2.1,2.1-2.1
					C191,83.3,191.2,83.4,191.5,83.5z"/>
			</g>
			<line class="st12" x1="172.3" y1="142.2" x2="166.3" y2="145.3"/>
			<path class="st12" d="M206.4,132.7c-1.3,2.6-8.6,3.7-8.6,3.7"/>
			<path class="st12" d="M204.3,138.6c-2.9,3.1-7.8,2.4-7.8,2.4"/>
			<line class="st10" x1="171.1" y1="135.5" x2="168.6" y2="117.3"/>
			<line class="st10" x1="202.1" y1="150" x2="183.7" y2="165.5"/>
			<g>
				<path class="st8" d="M167.2,291.9l-15.8-2c-1.5-0.2-2.6-1.6-2.4-3.1l0.2-1.4c0.2-1.5,1.6-2.6,3.1-2.4l15.8,2
					c1.5,0.2,2.6,1.6,2.4,3.1l-0.2,1.4C170.2,291.1,168.8,292.1,167.2,291.9z"/>
				<line class="st10" x1="151.3" y1="282.9" x2="169.1" y2="285.2"/>
			</g>
			<g>
				<path class="st8" d="M237.9,288.6l-15.3,4.5c-1.5,0.4-3.1-0.4-3.5-1.9l-0.4-1.3c-0.4-1.5,0.4-3.1,1.9-3.5l15.3-4.5
					c1.5-0.4,3.1,0.4,3.5,1.9l0.4,1.3C240.2,286.6,239.4,288.2,237.9,288.6z"/>
				<line class="st10" x1="219.7" y1="286.7" x2="236.9" y2="281.7"/>
			</g>
			<g>
				
					<ellipse transform="matrix(0.8041 -0.5945 0.5945 0.8041 -28.4173 146.1349)" class="st9" cx="207.5" cy="116.2" rx="2.3" ry="1.7"/>
				
					<ellipse transform="matrix(0.8041 -0.5945 0.5945 0.8041 -28.4168 146.1389)" class="st9" cx="207.5" cy="116.2" rx="1.2" ry="0.9"/>
			</g>
			<line class="st10" x1="192.9" y1="186.1" x2="188.1" y2="208.3"/>
		</g>
		<path class="st16" d="M257.5,125.4H257C257.2,125.4,257.3,125.4,257.5,125.4z"/>
		<path class="st16" d="M257,125.4C257,125.4,257,125.4,257,125.4L257,125.4L257,125.4z"/>
		<g>
			<g>
				<polyline class="st3" points="294.7,266 293.5,300.9 297.1,307.1 305.9,303.7 308.3,269.2 				"/>
				<path class="st19" d="M274.6,309.7l19.2-11.1l3.7,5.2h8.4l0.9,7.8h-31.7C274.1,311.5,273.8,310.2,274.6,309.7z"/>
			</g>
			<g>
				<polyline class="st3" points="353.5,266 364.6,300.9 361,307.1 352.1,303.7 339.9,269.2 				"/>
				<path class="st19" d="M383.5,309.7l-19.2-11.1l-3.7,5.2h-8.4l-0.9,7.8H383C384,311.5,384.3,310.2,383.5,309.7z"/>
			</g>
			<path class="st21" d="M295.8,151.4l-4.6,131.5l18,1.3l6.9-82.2l27.2,84.8l16-5c0,0-21.7-89.5-24.1-102.2
				c-2.4-12.8-1.2-19.5-5.1-28.4L295.8,151.4z"/>
			<path class="st4" d="M310.2,63c-5.2-1.4-9.2,6.2-7.9,15.6c1.2,9.4-6.9,18.5-6,22.3c0.9,3.9,19,9.2,31,9.1
				c12.1-0.1,15.8-5.4,13.6-9.1c-2.2-3.8-5.8-7.4-5.5-18.7C335.7,70.9,327.9,49.9,310.2,63z"/>
			<path class="st3" d="M285.3,116.9l-6.7,15l-10.3-24.3c0,0-1.3-8.3-2.4-10.6c-1.1-2.3-0.7-5.4-2.1-5.9c-1.4-0.5-1.9,2.1-1.9,4.3
				c0,2.2-0.4,4.3-0.4,4.3s-5.9-5.2-6.3-6.8c-0.4-1.6-0.2-7.1-1.5-7.9s-2.8,0.9-3.1,5.6c-0.3,4.7,9.2,18.5,9.2,18.5l6.9,33.7
				l19.5,3.5l11.6-19L285.3,116.9z"/>
			<path class="st8" d="M344.9,121.3l-7.2,5.2l-0.7,0.5l-5.3,3.9l-0.8,21.2l-3.3-0.1l-0.7,0l-9.4-0.2l-0.7,0l-9.4-0.2l-0.7,0
				l-9.4-0.2l-0.7,0l-1,0c0,0,0.4-5.2-1.1-12.7c-1.5-7.6,0.6-12.7,0.6-12.7l-9.9-9l5.1-7.9c1.6-2.4,3.7-4.4,6.3-5.6
				c0.2-0.1,0.4-0.2,0.7-0.3c0.7-0.3,1.5-0.6,2.3-0.8l7.1-1.8l0.4-0.1l0.3-0.1l2.4-0.6l7,0h0.7l7.6,0l1.8,0.9l0.7,0.4l0,0l6.4,3.4
				c1.1,0.6,2.1,1.2,3,2c0.2,0.2,0.5,0.4,0.7,0.6c1.6,1.5,2.8,3.4,3.6,5.4L344.9,121.3z"/>
			<g>
				<path class="st9" d="M297.4,103.1v48.3l-0.7,0v-48C296.9,103.3,297.2,103.2,297.4,103.1z"/>
				<polygon class="st9" points="307.5,100.3 307.5,151.6 306.8,151.6 306.8,100.4 307.2,100.3 				"/>
				<polygon class="st9" points="317.6,99.7 317.6,151.8 316.9,151.8 316.9,99.7 				"/>
				<polygon class="st9" points="327.7,101 327.7,152 327,152 327,100.6 				"/>
				<path class="st9" d="M337.8,107v19.5l-0.7,0.5v-20.6C337.3,106.6,337.6,106.8,337.8,107z"/>
			</g>
			<path class="st0" d="M327.7,101c-2.1,4.3-7.6,6.8-14.4,6.3c-5.7-0.4-6.4-4.2-6.1-7l2.7-0.7l15.3,0L327.7,101z"/>
			<path class="st3" d="M325.2,99.7c0,0-2.8,5.6-9.9,5.6c-7.1,0-5.4-5.6-5.4-5.6l2-0.7l-0.1-3.5l-0.2-5.1l12.2-3.7
				c-0.3,0.5-0.4,1.2-0.6,2.1c-0.6,3.8,0,10.2,0,10.2L325.2,99.7z"/>
			<path class="st5" d="M323.8,86.7c-0.3,0.5-0.4,1.2-0.6,2.1c0,0,0,0,0,0c-3.4,6.9-9.2,6.9-11.4,6.7l-0.2-5.1L323.8,86.7z"/>
			<path class="st3" d="M310.4,68.4c1.1,6,13.9,10.1,14.8,10.8c0.5,0.4,0.7,1.4,0.8,2.1c0,0.2,0.2,0.2,0.3,0c0.3-0.9,1-2.1,2.1-2.3
				c1.7-0.2,3.3,1.9,2.4,4.5c-1,2.6-4.8,1.2-4.8,1.2s-3.1,7.7-10.4,7.9c-7.2,0.2-8.8-5.9-8.3-9.7c0.5-3.8,0.5-5.6,0.2-7.9
				C307.1,72.9,309.8,71.3,310.4,68.4z"/>
			<path class="st12" d="M328.9,80.5c-0.6,0.2-1.3,1.8-1,2.6"/>
			<g>
				<path class="st12" d="M314.4,85.3l-0.8-0.5c-0.6-0.3-0.8-1-0.5-1.6l1.4-3.2"/>
				<ellipse cx="318" cy="81.5" rx="0.6" ry="0.8"/>
				<ellipse cx="310.8" cy="81.1" rx="0.6" ry="0.8"/>
				<path class="st13" d="M320.6,77.4c0,0-1.5-1.7-3.9-0.5"/>
				<path class="st13" d="M308.8,77.3c0,0,1.5-1.7,3.9-0.1"/>
			</g>
			<circle class="st22" cx="309.7" cy="81.3" r="3.1"/>
			<circle class="st22" cx="318.3" cy="81.3" r="3.1"/>
			<path class="st22" d="M312.7,80.5c0,0,1.3-1.3,2.6,0"/>
			<path class="st12" d="M315.3,88.1c0,0,2,0.8,3.6-0.6"/>
			<path class="st6" d="M293.4,151h-30l0,0c-0.5,0-1-0.3-1.1-0.8l-6.4-23.4c-0.2-0.6,0.2-1.2,0.8-1.4l0.4-0.1h0c0,0,0,0,0,0h30
				L293.4,151z"/>
			<circle class="st23" cx="273.1" cy="139.4" r="2.3"/>
			<g>
				<path class="st7" d="M293.6,151H317c0.7,0,1.3-0.6,1.3-1.3v0c0-0.7-0.6-1.3-1.3-1.3h-23.4c-0.7,0-1.3,0.6-1.3,1.3l0,0
					C292.3,150.5,292.9,151,293.6,151z"/>
				<path class="st7" d="M285.9,127.1l6.2,22.6c0.2,0.7,0.9,1.1,1.6,0.9l0,0c0.7-0.2,1.1-0.9,0.9-1.6l-6.2-22.6
					c-0.2-0.7-0.9-1.1-1.6-0.9l0,0C286.1,125.7,285.7,126.4,285.9,127.1z"/>
			</g>
			<path class="st3" d="M355.8,157.7c0,2.9-1.3,5.8-3.6,7.7c-3.4,2.8-8.3,3-12,0.5l-16.7-11.5c0,0-9.1,2-13.2,1.6
				c-4.1-0.4-8.5-2.5-8.5-3.4c0-0.8,16.5-2.6,15.7-3.2c-0.8-0.7-8.1-0.7-8.2-2.3c-0.1-1.6,1.8-2.1,4.8-2.3c3.1-0.2,7,1.4,7,1.4
				l16.7,2.3l-4.7-13.9l-1.3-3.7l13.2-9.6l0.9,2.8l9.5,30.7C355.6,155.8,355.8,156.8,355.8,157.7z"/>
			<polygon class="st5" points="344.9,121.3 345.8,124.1 333,134.6 331.8,130.9 			"/>
			<line class="st12" x1="337.8" y1="148.5" x2="344.9" y2="149.4"/>
			<circle class="st4" cx="297.8" cy="149.8" r="0.4"/>
			<circle class="st4" cx="299.4" cy="149.8" r="0.4"/>
			<g>
				<path class="st6" d="M308,288.9l-15.9-0.5c-1.6-0.1-2.8-1.4-2.7-2.9l0-1.4c0.1-1.6,1.4-2.8,2.9-2.7l15.9,0.5
					c1.6,0.1,2.8,1.4,2.7,2.9l0,1.4C310.9,287.8,309.6,289,308,288.9z"/>
			</g>
			<g>
				<path class="st6" d="M360,285.3l-15.3,4.6c-1.5,0.4-3.1-0.4-3.5-1.9l-0.4-1.3c-0.4-1.5,0.4-3.1,1.9-3.5l15.3-4.6
					c1.5-0.4,3.1,0.4,3.5,1.9l0.4,1.3C362.3,283.2,361.5,284.8,360,285.3z"/>
			</g>
			<line class="st10" x1="310.9" y1="184.8" x2="319.3" y2="211.8"/>
			<path class="st10" d="M297.4,138c4.4,4.1,12.3,4.7,12.3,4.7"/>
			<line class="st10" x1="331.8" y1="130.9" x2="326.1" y2="121.3"/>
			<path class="st10" d="M295.3,125.9c2.4-4.8,2.9-11.1,2.9-11.1"/>
		</g>
	</g>
	<line class="st24" x1="1.9" y1="311.5" x2="399" y2="311.5"/>
</g>
<polygon class="st25" points="49.7,16.8 49.7,71.2 63.4,57.6 115.8,57.6 115.8,16.8 "/>
<g>
	<path class="st16" d="M56.1,42.9l0.5-1.1c0.7,0.7,2,1.1,3.2,1.1c1.7,0,2.4-0.7,2.4-1.5c0-2.4-5.9-0.9-5.9-4.5
		c0-1.5,1.2-2.8,3.8-2.8c1.1,0,2.3,0.3,3.2,0.9l-0.5,1.1c-0.9-0.5-1.8-0.8-2.7-0.8c-1.7,0-2.4,0.7-2.4,1.6c0,2.4,5.9,0.9,5.9,4.5
		c0,1.5-1.2,2.8-3.8,2.8C58.4,44.1,56.9,43.6,56.1,42.9z"/>
	<path class="st16" d="M72.5,39.8V44h-1.3v-4.1c0-1.5-0.7-2.2-2-2.2c-1.4,0-2.4,0.9-2.4,2.5V44h-1.3V33.6h1.3v4
		c0.6-0.7,1.5-1.1,2.6-1.1C71.3,36.5,72.5,37.6,72.5,39.8z"/>
	<path class="st16" d="M74.8,34.3c0-0.5,0.4-0.9,0.9-0.9c0.5,0,0.9,0.4,0.9,0.9c0,0.5-0.4,0.9-0.9,0.9
		C75.2,35.2,74.8,34.8,74.8,34.3z M75,36.6h1.3V44H75V36.6z"/>
	<path class="st16" d="M85.5,36.6L82.3,44h-1.4l-3.2-7.4H79l2.5,6l2.6-6H85.5z"/>
	<path class="st16" d="M92.4,39.5V44h-1.3v-1c-0.4,0.7-1.3,1.1-2.4,1.1c-1.7,0-2.7-0.9-2.7-2.2c0-1.2,0.8-2.2,3-2.2h2.1v-0.3
		c0-1.1-0.7-1.8-2-1.8c-0.9,0-1.8,0.3-2.4,0.8l-0.6-1c0.8-0.6,1.9-1,3.1-1C91.3,36.5,92.4,37.5,92.4,39.5z M91.1,41.8v-1H89
		c-1.3,0-1.7,0.5-1.7,1.1c0,0.7,0.6,1.2,1.6,1.2C89.9,43.1,90.7,42.6,91.1,41.8z"/>
	<path class="st16" d="M107.2,39.8V44h-1.3v-4.1c0-1.5-0.7-2.2-1.9-2.2c-1.3,0-2.2,0.9-2.2,2.5V44h-1.3v-4.1c0-1.5-0.7-2.2-1.9-2.2
		c-1.3,0-2.2,0.9-2.2,2.5V44h-1.3v-7.4h1.3v1.1c0.5-0.8,1.4-1.2,2.6-1.2c1.1,0,2.1,0.4,2.6,1.4c0.6-0.8,1.6-1.4,2.9-1.4
		C106,36.5,107.2,37.6,107.2,39.8z"/>
</g>
<polygon class="st25" points="204.3,24.3 204.3,74 216.8,61.5 264.7,61.5 264.7,24.3 "/>
<polygon class="st25" points="312.3,11 312.3,58.8 328,46.8 388,46.8 388,11 "/>
<g>
	<path class="st16" d="M222.4,50v3.6h-1.5v-3.7l-4.2-6.8h1.6l3.4,5.5l3.4-5.5h1.5L222.4,50z"/>
	<path class="st16" d="M233.2,48.8v4.8h-1.4v-1c-0.5,0.7-1.4,1.1-2.6,1.1c-1.8,0-2.9-1-2.9-2.3c0-1.3,0.8-2.3,3.2-2.3h2.3v-0.3
		c0-1.2-0.7-1.9-2.1-1.9c-0.9,0-1.9,0.3-2.5,0.9l-0.6-1.1c0.8-0.7,2-1,3.3-1C232,45.6,233.2,46.6,233.2,48.8z M231.8,51.2V50h-2.2
		c-1.4,0-1.8,0.6-1.8,1.2c0,0.8,0.7,1.3,1.8,1.3C230.5,52.6,231.4,52.1,231.8,51.2z"/>
	<path class="st16" d="M234.9,52.7l0.6-1.1c0.7,0.5,1.8,0.8,2.8,0.8c1.3,0,1.9-0.4,1.9-1.1c0-1.8-5-0.2-5-3.4c0-1.4,1.3-2.4,3.3-2.4
		c1,0,2.2,0.3,2.9,0.7l-0.6,1.1c-0.7-0.5-1.5-0.6-2.3-0.6c-1.3,0-1.9,0.5-1.9,1.1c0,1.9,5,0.3,5,3.4c0,1.4-1.3,2.4-3.4,2.4
		C236.8,53.7,235.5,53.3,234.9,52.7z"/>
	<path class="st16" d="M250.9,49v4.6h-1.4v-4.4c0-1.6-0.8-2.3-2.1-2.3c-1.5,0-2.5,0.9-2.5,2.6v4.1h-1.4V42.5h1.4v4.3
		c0.6-0.8,1.6-1.2,2.8-1.2C249.6,45.6,250.9,46.7,250.9,49z"/>
</g>
<g>
	<path class="st16" d="M317.5,33.8l0.6-1.2c0.8,0.7,2.1,1.2,3.5,1.2c1.8,0,2.6-0.7,2.6-1.6c0-2.6-6.4-0.9-6.4-4.8c0-1.6,1.3-3,4-3
		c1.2,0,2.5,0.3,3.4,0.9l-0.5,1.2c-0.9-0.6-2-0.9-2.9-0.9c-1.8,0-2.5,0.8-2.5,1.7c0,2.6,6.4,1,6.4,4.8c0,1.6-1.3,3-4.1,3
		C319.9,35.1,318.4,34.6,317.5,33.8z"/>
	<path class="st16" d="M333.9,30.2V35h-1.4v-1c-0.5,0.7-1.4,1.1-2.6,1.1c-1.8,0-2.9-1-2.9-2.3c0-1.3,0.8-2.3,3.2-2.3h2.3v-0.3
		c0-1.2-0.7-1.9-2.1-1.9c-0.9,0-1.9,0.3-2.5,0.9l-0.6-1.1c0.8-0.7,2-1,3.3-1C332.7,27,333.9,28,333.9,30.2z M332.5,32.6v-1.1h-2.2
		c-1.4,0-1.8,0.6-1.8,1.2c0,0.8,0.7,1.3,1.8,1.3C331.2,34,332.1,33.5,332.5,32.6z"/>
	<path class="st16" d="M344.1,30.4V35h-1.4v-4.4c0-1.6-0.8-2.3-2.1-2.3c-1.5,0-2.5,0.9-2.5,2.6V35h-1.4V27h1.4v1.2
		c0.6-0.8,1.6-1.3,2.9-1.3C342.7,27,344.1,28.1,344.1,30.4z"/>
	<path class="st16" d="M354.3,23.9V35h-1.4v-1.3c-0.6,0.9-1.7,1.3-2.8,1.3c-2.3,0-4-1.6-4-4.1c0-2.4,1.7-4.1,4-4.1
		c1.1,0,2.1,0.4,2.8,1.3v-4.4H354.3z M352.9,31c0-1.7-1.2-2.8-2.7-2.8c-1.5,0-2.7,1.1-2.7,2.8c0,1.7,1.2,2.8,2.7,2.8
		C351.7,33.8,352.9,32.7,352.9,31z"/>
	<path class="st16" d="M364.6,30.4V35h-1.4v-4.4c0-1.6-0.8-2.3-2.1-2.3c-1.5,0-2.5,0.9-2.5,2.6V35h-1.4V23.9h1.4v4.3
		c0.6-0.8,1.6-1.2,2.8-1.2C363.2,27,364.6,28.1,364.6,30.4z"/>
	<path class="st16" d="M374.2,27l-3.9,8.7c-0.7,1.7-1.6,2.2-2.8,2.2c-0.8,0-1.5-0.3-2-0.7l0.6-1.1c0.4,0.4,0.9,0.6,1.4,0.6
		c0.7,0,1.1-0.3,1.5-1.2l0.3-0.6l-3.5-7.9h1.5l2.8,6.4l2.7-6.4H374.2z"/>
	<path class="st16" d="M381.6,30.2V35h-1.4v-1c-0.5,0.7-1.4,1.1-2.6,1.1c-1.8,0-2.9-1-2.9-2.3c0-1.3,0.8-2.3,3.2-2.3h2.3v-0.3
		c0-1.2-0.7-1.9-2.1-1.9c-0.9,0-1.9,0.3-2.5,0.9l-0.6-1.1c0.8-0.7,2-1,3.3-1C380.3,27,381.6,28,381.6,30.2z M380.1,32.6v-1.1h-2.2
		c-1.4,0-1.8,0.6-1.8,1.2c0,0.8,0.7,1.3,1.8,1.3C378.9,34,379.8,33.5,380.1,32.6z"/>
</g>
</svg>
