<?xml version="1.0" encoding="utf-8"?>
<!-- Generator: Adobe Illustrator 21.0.2, SVG Export Plug-In . SVG Version: 6.00 Build 0)  -->
<svg version="1.1" id="Layer_1" xmlns="http://www.w3.org/2000/svg" xmlns:xlink="http://www.w3.org/1999/xlink" x="0px" y="0px"
	 viewBox="0 0 401.2 343.9" style="enable-background:new 0 0 401.2 343.9;" xml:space="preserve">
<style type="text/css">
	.st0{fill:#407BFF;}
	.st1{opacity:0.2;}
	.st2{clip-path:url(#SVGID_2_);}
	.st3{clip-path:url(#SVGID_4_);}
	.st4{clip-path:url(#SVGID_6_);}
	.st5{opacity:0.9;}
	.st6{clip-path:url(#SVGID_8_);fill:#FFFFFF;}
	.st7{clip-path:url(#SVGID_10_);}
	.st8{fill:#263238;}
	.st9{clip-path:url(#SVGID_12_);}
	.st10{clip-path:url(#SVGID_14_);fill:#FFFFFF;}
	.st11{opacity:0.3;}
	.st12{clip-path:url(#SVGID_16_);fill:#407BFF;}
	.st13{clip-path:url(#SVGID_18_);fill:#407BFF;}
	.st14{clip-path:url(#SVGID_20_);fill:#407BFF;}
	.st15{clip-path:url(#SVGID_22_);}
	.st16{clip-path:url(#SVGID_24_);fill:#FFFFFF;}
	.st17{clip-path:url(#SVGID_26_);fill:#FFFFFF;}
	.st18{clip-path:url(#SVGID_28_);fill:#FFFFFF;}
	.st19{clip-path:url(#SVGID_30_);fill:#FFFFFF;}
	.st20{clip-path:url(#SVGID_32_);}
	.st21{clip-path:url(#SVGID_34_);fill:#FFFFFF;}
	.st22{clip-path:url(#SVGID_36_);fill:#FFFFFF;}
	.st23{opacity:0.4;}
	.st24{clip-path:url(#SVGID_38_);fill:#263238;}
	.st25{clip-path:url(#SVGID_40_);}
	.st26{clip-path:url(#SVGID_42_);fill:#FFFFFF;}
	.st27{clip-path:url(#SVGID_44_);}
	.st28{clip-path:url(#SVGID_46_);fill:#FFFFFF;}
	.st29{clip-path:url(#SVGID_48_);}
	.st30{clip-path:url(#SVGID_50_);fill:#FFFFFF;}
	.st31{clip-path:url(#SVGID_52_);fill:#FFFFFF;}
	.st32{clip-path:url(#SVGID_54_);}
	.st33{clip-path:url(#SVGID_56_);fill:#FFFFFF;}
	.st34{clip-path:url(#SVGID_58_);fill:#FFFFFF;}
	.st35{clip-path:url(#SVGID_60_);}
	.st36{clip-path:url(#SVGID_62_);fill:#FFFFFF;}
	.st37{clip-path:url(#SVGID_64_);}
	.st38{clip-path:url(#SVGID_66_);fill:#FFFFFF;}
	.st39{clip-path:url(#SVGID_68_);fill:#FFFFFF;}
	.st40{clip-path:url(#SVGID_70_);}
	.st41{clip-path:url(#SVGID_72_);fill:#FFFFFF;}
	.st42{clip-path:url(#SVGID_74_);fill:#FFFFFF;}
	.st43{clip-path:url(#SVGID_76_);}
	.st44{clip-path:url(#SVGID_78_);}
	.st45{fill:#FFC3BD;}
	.st46{clip-path:url(#SVGID_80_);}
	.st47{clip-path:url(#SVGID_82_);}
	.st48{clip-path:url(#SVGID_84_);}
	.st49{clip-path:url(#SVGID_86_);}
	.st50{opacity:0.8;}
	.st51{clip-path:url(#SVGID_88_);fill:#FFFFFF;}
	.st52{clip-path:url(#SVGID_90_);fill:#FFFFFF;}
	.st53{clip-path:url(#SVGID_92_);}
	.st54{clip-path:url(#SVGID_94_);}
	.st55{fill:#FFFFFF;}
	.st56{fill:#ED847E;}
</style>
<g>
	<path class="st0" d="M151.2,269.4h210.7c2.3,0,4.1,1.8,4.1,4.1v44.7c0,2.3-1.8,4.1-4.1,4.1H151.2V269.4z"/>
	<g class="st1">
		<g>
			<g>
				<g>
					<defs>
						<rect id="SVGID_1_" x="151.2" y="269.4" width="214.8" height="52.8"/>
					</defs>
					<clipPath id="SVGID_2_">
						<use xlink:href="#SVGID_1_"  style="overflow:visible;"/>
					</clipPath>
					<path class="st2" d="M151.2,269.4h210.7c2.3,0,4.1,1.8,4.1,4.1v44.7c0,2.3-1.8,4.1-4.1,4.1H151.2V269.4z"/>
				</g>
			</g>
		</g>
	</g>
	<g class="st1">
		<g>
			<g>
				<g>
					<defs>
						<rect id="SVGID_3_" x="202.8" y="269.4" width="32.3" height="52.8"/>
					</defs>
					<clipPath id="SVGID_4_">
						<use xlink:href="#SVGID_3_"  style="overflow:visible;"/>
					</clipPath>
					<rect x="202.8" y="269.4" class="st3" width="32.3" height="52.8"/>
				</g>
			</g>
		</g>
	</g>
	<g class="st1">
		<g>
			<g>
				<g>
					<defs>
						<rect id="SVGID_5_" x="248.9" y="269.4" width="16.3" height="52.8"/>
					</defs>
					<clipPath id="SVGID_6_">
						<use xlink:href="#SVGID_5_"  style="overflow:visible;"/>
					</clipPath>
					<rect x="248.9" y="269.4" class="st4" width="16.3" height="52.8"/>
				</g>
			</g>
		</g>
	</g>
	<path class="st0" d="M151.2,269.4H81.4c-2.3,0-4.1,1.8-4.1,4.1v44.6c0,2.3,1.8,4.1,4.1,4.1h69.8L151.2,269.4L151.2,269.4z"/>
	<g class="st5">
		<g>
			<g>
				<g>
					<defs>
						<rect id="SVGID_7_" x="77.3" y="275" width="66.4" height="41.4"/>
					</defs>
					<clipPath id="SVGID_8_">
						<use xlink:href="#SVGID_7_"  style="overflow:visible;"/>
					</clipPath>
					<path class="st6" d="M138.3,275h-61v41.4h61c3,0,5.3-2.4,5.3-5.3v-30.8C143.7,277.4,141.3,275,138.3,275"/>
				</g>
			</g>
		</g>
	</g>
	<g class="st1">
		<g>
			<g>
				<g>
					<defs>
						<rect id="SVGID_9_" x="321.3" y="280.7" width="30.2" height="30.2"/>
					</defs>
					<clipPath id="SVGID_10_">
						<use xlink:href="#SVGID_9_"  style="overflow:visible;"/>
					</clipPath>
					<path class="st7" d="M321.3,295.8c0,8.3,6.8,15.1,15.1,15.1s15.1-6.8,15.1-15.1c0-8.3-6.8-15.1-15.1-15.1
						S321.3,287.4,321.3,295.8"/>
				</g>
			</g>
		</g>
	</g>
	<path class="st8" d="M166.4,231h210.7c2.3,0,4.1,1.8,4.1,4.1v30.2c0,2.3-1.8,4.1-4.1,4.1H166.4V231z"/>
	<g class="st1">
		<g>
			<g>
				<g>
					<defs>
						<rect id="SVGID_11_" x="166.4" y="231" width="214.8" height="38.4"/>
					</defs>
					<clipPath id="SVGID_12_">
						<use xlink:href="#SVGID_11_"  style="overflow:visible;"/>
					</clipPath>
					<path class="st9" d="M166.4,231h210.7c2.3,0,4.1,1.8,4.1,4.1v30.2c0,2.3-1.8,4.1-4.1,4.1H166.4V231z"/>
				</g>
			</g>
		</g>
	</g>
	<path class="st8" d="M166.4,231H96.7c-2.3,0-4.1,1.8-4.1,4.1v30.1c0,2.3,1.8,4.1,4.1,4.1h69.8L166.4,231L166.4,231z"/>
	<g class="st5">
		<g>
			<g>
				<g>
					<defs>
						<rect id="SVGID_13_" x="92.6" y="236.7" width="66.4" height="27"/>
					</defs>
					<clipPath id="SVGID_14_">
						<use xlink:href="#SVGID_13_"  style="overflow:visible;"/>
					</clipPath>
					<path class="st10" d="M153.6,236.7h-61v27h61c3,0,5.3-2.4,5.3-5.3v-16.2C159,239.1,156.6,236.7,153.6,236.7"/>
				</g>
			</g>
		</g>
	</g>
	<g class="st11">
		<g>
			<g>
				<g>
					<defs>
						<rect id="SVGID_15_" x="206.1" y="240.1" width="156.2" height="20.1"/>
					</defs>
					<clipPath id="SVGID_16_">
						<use xlink:href="#SVGID_15_"  style="overflow:visible;"/>
					</clipPath>
					<path class="st12" d="M210.5,260.3h147.4c2.5,0,4.4-2,4.4-4.4v-11.4c0-2.5-2-4.4-4.4-4.4H210.5c-2.5,0-4.4,2-4.4,4.4v11.4
						C206.1,258.3,208.1,260.3,210.5,260.3"/>
				</g>
			</g>
		</g>
	</g>
	<g class="st11">
		<g>
			<g>
				<g>
					<defs>
						<rect id="SVGID_17_" x="174.4" y="231" width="5.6" height="38.4"/>
					</defs>
					<clipPath id="SVGID_18_">
						<use xlink:href="#SVGID_17_"  style="overflow:visible;"/>
					</clipPath>
					<rect x="174.4" y="231" class="st13" width="5.6" height="38.4"/>
				</g>
			</g>
		</g>
	</g>
	<g class="st11">
		<g>
			<g>
				<g>
					<defs>
						<rect id="SVGID_19_" x="184.6" y="231" width="5.6" height="38.4"/>
					</defs>
					<clipPath id="SVGID_20_">
						<use xlink:href="#SVGID_19_"  style="overflow:visible;"/>
					</clipPath>
					<rect x="184.6" y="231" class="st14" width="5.6" height="38.4"/>
				</g>
			</g>
		</g>
	</g>
	<path class="st0" d="M143.1,191.5h210.7c2.3,0,4.1,1.8,4.1,4.1V227c0,2.3-1.8,4.1-4.1,4.1H143.1V191.5z"/>
	<g class="st11">
		<g>
			<g>
				<g>
					<defs>
						<rect id="SVGID_21_" x="143.1" y="191.5" width="214.8" height="39.5"/>
					</defs>
					<clipPath id="SVGID_22_">
						<use xlink:href="#SVGID_21_"  style="overflow:visible;"/>
					</clipPath>
					<path class="st15" d="M143.1,191.5h210.7c2.3,0,4.1,1.8,4.1,4.1V227c0,2.3-1.8,4.1-4.1,4.1H143.1V191.5z"/>
				</g>
			</g>
		</g>
	</g>
	<g class="st5">
		<g>
			<g>
				<g>
					<defs>
						<rect id="SVGID_23_" x="194.8" y="191.5" width="73.2" height="39.5"/>
					</defs>
					<clipPath id="SVGID_24_">
						<use xlink:href="#SVGID_23_"  style="overflow:visible;"/>
					</clipPath>
					<rect x="194.8" y="191.5" class="st16" width="73.2" height="39.5"/>
				</g>
			</g>
		</g>
	</g>
	<g class="st5">
		<g>
			<g>
				<g>
					<defs>
						<rect id="SVGID_25_" x="299.3" y="191.5" width="37.1" height="39.5"/>
					</defs>
					<clipPath id="SVGID_26_">
						<use xlink:href="#SVGID_25_"  style="overflow:visible;"/>
					</clipPath>
					<rect x="299.3" y="191.5" class="st17" width="37.1" height="39.5"/>
				</g>
			</g>
		</g>
	</g>
	<path class="st0" d="M143.1,191.5H73.4c-2.3,0-4.1,1.8-4.1,4.1v31.3c0,2.3,1.8,4.1,4.1,4.1h69.8L143.1,191.5L143.1,191.5z"/>
	<g class="st5">
		<g>
			<g>
				<g>
					<defs>
						<rect id="SVGID_27_" x="69.3" y="197.2" width="66.4" height="28.2"/>
					</defs>
					<clipPath id="SVGID_28_">
						<use xlink:href="#SVGID_27_"  style="overflow:visible;"/>
					</clipPath>
					<path class="st18" d="M130.3,197.2h-61v28.2h61c3,0,5.3-2.4,5.3-5.3v-17.5C135.6,199.6,133.3,197.2,130.3,197.2"/>
				</g>
			</g>
		</g>
	</g>
	<path class="st0" d="M158.4,165.2H369c2.3,0,4.1,1.8,4.1,4.1v18c0,2.3-1.8,4.1-4.1,4.1H158.4V165.2z"/>
	<g class="st11">
		<g>
			<g>
				<g>
					<defs>
						<rect id="SVGID_29_" x="158.4" y="165.2" width="214.8" height="26.3"/>
					</defs>
					<clipPath id="SVGID_30_">
						<use xlink:href="#SVGID_29_"  style="overflow:visible;"/>
					</clipPath>
					<path class="st19" d="M158.4,165.2H369c2.3,0,4.1,1.8,4.1,4.1v18c0,2.3-1.8,4.1-4.1,4.1H158.4V165.2z"/>
				</g>
			</g>
		</g>
	</g>
	<g class="st1">
		<g>
			<g>
				<g>
					<defs>
						<rect id="SVGID_31_" x="158.4" y="165.2" width="214.8" height="26.3"/>
					</defs>
					<clipPath id="SVGID_32_">
						<use xlink:href="#SVGID_31_"  style="overflow:visible;"/>
					</clipPath>
					<path class="st20" d="M158.4,165.2H369c2.3,0,4.1,1.8,4.1,4.1v18c0,2.3-1.8,4.1-4.1,4.1H158.4V165.2z"/>
				</g>
			</g>
		</g>
	</g>
	<path class="st0" d="M158.4,165.2H88.6c-2.3,0-4.1,1.8-4.1,4.1v18c0,2.3,1.8,4.1,4.1,4.1h69.8V165.2L158.4,165.2z"/>
	<g class="st11">
		<g>
			<g>
				<g>
					<defs>
						<rect id="SVGID_33_" x="84.5" y="165.2" width="73.9" height="26.3"/>
					</defs>
					<clipPath id="SVGID_34_">
						<use xlink:href="#SVGID_33_"  style="overflow:visible;"/>
					</clipPath>
					<path class="st21" d="M158.4,165.2H88.6c-2.3,0-4.1,1.8-4.1,4.1v18c0,2.3,1.8,4.1,4.1,4.1h69.8V165.2L158.4,165.2z"/>
				</g>
			</g>
		</g>
	</g>
	<g class="st5">
		<g>
			<g>
				<g>
					<defs>
						<rect id="SVGID_35_" x="84.5" y="170.9" width="66.4" height="14.9"/>
					</defs>
					<clipPath id="SVGID_36_">
						<use xlink:href="#SVGID_35_"  style="overflow:visible;"/>
					</clipPath>
					<path class="st22" d="M145.5,170.9h-61v14.9h61c3,0,5.3-2.4,5.3-5.3v-4.2C150.8,173.3,148.4,170.9,145.5,170.9"/>
				</g>
			</g>
		</g>
	</g>
	<g class="st23">
		<g>
			<g>
				<g>
					<defs>
						<rect id="SVGID_37_" x="177.2" y="172.2" width="95.5" height="12.4"/>
					</defs>
					<clipPath id="SVGID_38_">
						<use xlink:href="#SVGID_37_"  style="overflow:visible;"/>
					</clipPath>
					<rect x="177.2" y="172.2" class="st24" width="95.5" height="12.4"/>
				</g>
			</g>
		</g>
	</g>
	<path class="st0" d="M224.7,156.6h-30.1c-0.4,0-0.7,0.3-0.7,0.7v7.4c0,0.4,0.3,0.7,0.7,0.7h30.1V156.6z"/>
	<g class="st1">
		<g>
			<g>
				<g>
					<defs>
						<rect id="SVGID_39_" x="193.9" y="156.6" width="30.8" height="8.7"/>
					</defs>
					<clipPath id="SVGID_40_">
						<use xlink:href="#SVGID_39_"  style="overflow:visible;"/>
					</clipPath>
					<path class="st25" d="M224.7,156.6h-30.1c-0.4,0-0.7,0.3-0.7,0.7v7.4c0,0.4,0.3,0.7,0.7,0.7h30.1V156.6z"/>
				</g>
			</g>
		</g>
	</g>
	<path class="st0" d="M224.7,156.6h11.5c0.4,0,0.7,0.3,0.7,0.7v7.4c0,0.4-0.3,0.7-0.7,0.7h-11.5V156.6z"/>
	<g class="st5">
		<g>
			<g>
				<g>
					<defs>
						<rect id="SVGID_41_" x="226" y="157.5" width="10.9" height="6.8"/>
					</defs>
					<clipPath id="SVGID_42_">
						<use xlink:href="#SVGID_41_"  style="overflow:visible;"/>
					</clipPath>
					<path class="st26" d="M226.8,157.5h10v6.8h-10c-0.5,0-0.9-0.4-0.9-0.9v-5.1C226,157.9,226.4,157.5,226.8,157.5"/>
				</g>
			</g>
		</g>
	</g>
	<path class="st8" d="M222.3,150.2h-30.1c-0.4,0-0.7,0.3-0.7,0.7v5c0,0.4,0.3,0.7,0.7,0.7h30.1V150.2z"/>
	<g class="st1">
		<g>
			<g>
				<g>
					<defs>
						<rect id="SVGID_43_" x="191.4" y="150.3" width="30.8" height="6.3"/>
					</defs>
					<clipPath id="SVGID_44_">
						<use xlink:href="#SVGID_43_"  style="overflow:visible;"/>
					</clipPath>
					<path class="st27" d="M222.3,150.2h-30.1c-0.4,0-0.7,0.3-0.7,0.7v5c0,0.4,0.3,0.7,0.7,0.7h30.1V150.2z"/>
				</g>
			</g>
		</g>
	</g>
	<path class="st8" d="M222.3,150.2h11.5c0.4,0,0.7,0.3,0.7,0.7v5c0,0.4-0.3,0.7-0.7,0.7h-11.5V150.2z"/>
	<g class="st5">
		<g>
			<g>
				<g>
					<defs>
						<rect id="SVGID_45_" x="223.4" y="151.2" width="10.9" height="4.5"/>
					</defs>
					<clipPath id="SVGID_46_">
						<use xlink:href="#SVGID_45_"  style="overflow:visible;"/>
					</clipPath>
					<path class="st28" d="M224.4,151.2h10v4.5h-10c-0.5,0-0.9-0.4-0.9-0.9v-2.7C223.4,151.6,223.9,151.2,224.4,151.2"/>
				</g>
			</g>
		</g>
	</g>
	<path class="st0" d="M226.1,143.7H196c-0.4,0-0.7,0.3-0.7,0.7v5.2c0,0.4,0.3,0.7,0.7,0.7h30.1V143.7z"/>
	<g class="st11">
		<g>
			<g>
				<g>
					<defs>
						<rect id="SVGID_47_" x="195.2" y="143.7" width="30.8" height="6.5"/>
					</defs>
					<clipPath id="SVGID_48_">
						<use xlink:href="#SVGID_47_"  style="overflow:visible;"/>
					</clipPath>
					<path class="st29" d="M226.1,143.7H196c-0.4,0-0.7,0.3-0.7,0.7v5.2c0,0.4,0.3,0.7,0.7,0.7h30.1V143.7z"/>
				</g>
			</g>
		</g>
	</g>
	<path class="st0" d="M226.1,143.7h11.5c0.4,0,0.7,0.3,0.7,0.7v5.2c0,0.4-0.3,0.7-0.7,0.7h-11.5V143.7z"/>
	<g class="st5">
		<g>
			<g>
				<g>
					<defs>
						<rect id="SVGID_49_" x="227.3" y="144.7" width="10.9" height="4.7"/>
					</defs>
					<clipPath id="SVGID_50_">
						<use xlink:href="#SVGID_49_"  style="overflow:visible;"/>
					</clipPath>
					<path class="st30" d="M228.2,144.7h10v4.7h-10c-0.5,0-0.9-0.4-0.9-0.9v-2.9C227.3,145.1,227.7,144.7,228.2,144.7"/>
				</g>
			</g>
		</g>
	</g>
	<path class="st0" d="M223.5,139.4h-30.1c-0.4,0-0.7,0.3-0.7,0.7v3c0,0.4,0.3,0.7,0.7,0.7h30.1V139.4z"/>
	<g class="st11">
		<g>
			<g>
				<g>
					<defs>
						<rect id="SVGID_51_" x="192.8" y="139.4" width="30.8" height="4.3"/>
					</defs>
					<clipPath id="SVGID_52_">
						<use xlink:href="#SVGID_51_"  style="overflow:visible;"/>
					</clipPath>
					<path class="st31" d="M223.5,139.4h-30.1c-0.4,0-0.7,0.3-0.7,0.7v3c0,0.4,0.3,0.7,0.7,0.7h30.1V139.4z"/>
				</g>
			</g>
		</g>
	</g>
	<g class="st1">
		<g>
			<g>
				<g>
					<defs>
						<rect id="SVGID_53_" x="192.8" y="139.4" width="30.8" height="4.3"/>
					</defs>
					<clipPath id="SVGID_54_">
						<use xlink:href="#SVGID_53_"  style="overflow:visible;"/>
					</clipPath>
					<path class="st32" d="M223.5,139.4h-30.1c-0.4,0-0.7,0.3-0.7,0.7v3c0,0.4,0.3,0.7,0.7,0.7h30.1V139.4z"/>
				</g>
			</g>
		</g>
	</g>
	<path class="st0" d="M223.5,139.4H235c0.4,0,0.7,0.3,0.7,0.7v3c0,0.4-0.3,0.7-0.7,0.7h-11.5V139.4z"/>
	<g class="st11">
		<g>
			<g>
				<g>
					<defs>
						<rect id="SVGID_55_" x="223.5" y="139.4" width="12.1" height="4.3"/>
					</defs>
					<clipPath id="SVGID_56_">
						<use xlink:href="#SVGID_55_"  style="overflow:visible;"/>
					</clipPath>
					<path class="st33" d="M223.5,139.4H235c0.4,0,0.7,0.3,0.7,0.7v3c0,0.4-0.3,0.7-0.7,0.7h-11.5V139.4z"/>
				</g>
			</g>
		</g>
	</g>
	<g class="st5">
		<g>
			<g>
				<g>
					<defs>
						<rect id="SVGID_57_" x="224.7" y="140.4" width="10.9" height="2.5"/>
					</defs>
					<clipPath id="SVGID_58_">
						<use xlink:href="#SVGID_57_"  style="overflow:visible;"/>
					</clipPath>
					<path class="st34" d="M225.7,140.4h10v2.5h-10c-0.5,0-0.9-0.4-0.9-0.9v-0.7C224.7,140.8,225.1,140.4,225.7,140.4"/>
				</g>
			</g>
		</g>
	</g>
	<path class="st8" d="M222.3,133.1h-30.1c-0.4,0-0.7,0.3-0.7,0.7v5c0,0.4,0.3,0.7,0.7,0.7h30.1V133.1z"/>
	<g class="st1">
		<g>
			<g>
				<g>
					<defs>
						<rect id="SVGID_59_" x="191.4" y="133.1" width="30.8" height="6.3"/>
					</defs>
					<clipPath id="SVGID_60_">
						<use xlink:href="#SVGID_59_"  style="overflow:visible;"/>
					</clipPath>
					<path class="st35" d="M222.3,133.1h-30.1c-0.4,0-0.7,0.3-0.7,0.7v5c0,0.4,0.3,0.7,0.7,0.7h30.1V133.1z"/>
				</g>
			</g>
		</g>
	</g>
	<path class="st8" d="M222.3,133.1h7.6c0.4,0,0.7,0.3,0.7,0.7v5c0,0.4-0.3,0.7-0.7,0.7h-7.6V133.1z"/>
	<g class="st5">
		<g>
			<g>
				<g>
					<defs>
						<rect id="SVGID_61_" x="223.4" y="134.1" width="7.1" height="4.5"/>
					</defs>
					<clipPath id="SVGID_62_">
						<use xlink:href="#SVGID_61_"  style="overflow:visible;"/>
					</clipPath>
					<path class="st36" d="M224.4,134.1h6.2v4.5h-6.2c-0.5,0-0.9-0.4-0.9-0.9V135C223.4,134.5,223.9,134.1,224.4,134.1"/>
				</g>
			</g>
		</g>
	</g>
	<path class="st0" d="M226.1,126.6H196c-0.4,0-0.7,0.3-0.7,0.7v5.2c0,0.4,0.3,0.7,0.7,0.7h30.1V126.6z"/>
	<g class="st11">
		<g>
			<g>
				<g>
					<defs>
						<rect id="SVGID_63_" x="195.2" y="126.6" width="30.8" height="6.5"/>
					</defs>
					<clipPath id="SVGID_64_">
						<use xlink:href="#SVGID_63_"  style="overflow:visible;"/>
					</clipPath>
					<path class="st37" d="M226.1,126.6H196c-0.4,0-0.7,0.3-0.7,0.7v5.2c0,0.4,0.3,0.7,0.7,0.7h30.1V126.6z"/>
				</g>
			</g>
		</g>
	</g>
	<path class="st0" d="M226.1,126.6h7.6c0.4,0,0.7,0.3,0.7,0.7v5.2c0,0.4-0.3,0.7-0.7,0.7h-7.6V126.6z"/>
	<g class="st5">
		<g>
			<g>
				<g>
					<defs>
						<rect id="SVGID_65_" x="227.3" y="127.6" width="7.1" height="4.7"/>
					</defs>
					<clipPath id="SVGID_66_">
						<use xlink:href="#SVGID_65_"  style="overflow:visible;"/>
					</clipPath>
					<path class="st38" d="M228.2,127.6h6.2v4.7h-6.2c-0.5,0-0.9-0.4-0.9-0.9v-2.9C227.3,128,227.7,127.6,228.2,127.6"/>
				</g>
			</g>
		</g>
	</g>
	<path class="st0" d="M223.5,122.3h-30.1c-0.4,0-0.7,0.3-0.7,0.7v3c0,0.4,0.3,0.7,0.7,0.7h30.1V122.3z"/>
	<g class="st11">
		<g>
			<g>
				<g>
					<defs>
						<rect id="SVGID_67_" x="192.8" y="122.3" width="30.8" height="4.3"/>
					</defs>
					<clipPath id="SVGID_68_">
						<use xlink:href="#SVGID_67_"  style="overflow:visible;"/>
					</clipPath>
					<path class="st39" d="M223.5,122.3h-30.1c-0.4,0-0.7,0.3-0.7,0.7v3c0,0.4,0.3,0.7,0.7,0.7h30.1V122.3z"/>
				</g>
			</g>
		</g>
	</g>
	<g class="st1">
		<g>
			<g>
				<g>
					<defs>
						<rect id="SVGID_69_" x="192.8" y="122.3" width="30.8" height="4.3"/>
					</defs>
					<clipPath id="SVGID_70_">
						<use xlink:href="#SVGID_69_"  style="overflow:visible;"/>
					</clipPath>
					<path class="st40" d="M223.5,122.3h-30.1c-0.4,0-0.7,0.3-0.7,0.7v3c0,0.4,0.3,0.7,0.7,0.7h30.1V122.3z"/>
				</g>
			</g>
		</g>
	</g>
	<path class="st0" d="M223.5,122.3h7.6c0.4,0,0.7,0.3,0.7,0.7v3c0,0.4-0.3,0.7-0.7,0.7h-7.6V122.3z"/>
	<g class="st11">
		<g>
			<g>
				<g>
					<defs>
						<rect id="SVGID_71_" x="223.5" y="122.3" width="8.3" height="4.3"/>
					</defs>
					<clipPath id="SVGID_72_">
						<use xlink:href="#SVGID_71_"  style="overflow:visible;"/>
					</clipPath>
					<path class="st41" d="M223.5,122.3h7.6c0.4,0,0.7,0.3,0.7,0.7v3c0,0.4-0.3,0.7-0.7,0.7h-7.6V122.3z"/>
				</g>
			</g>
		</g>
	</g>
	<g class="st5">
		<g>
			<g>
				<g>
					<defs>
						<rect id="SVGID_73_" x="224.7" y="123.2" width="7.1" height="2.5"/>
					</defs>
					<clipPath id="SVGID_74_">
						<use xlink:href="#SVGID_73_"  style="overflow:visible;"/>
					</clipPath>
					<path class="st42" d="M225.7,123.2h6.2v2.5h-6.2c-0.5,0-0.9-0.4-0.9-0.9v-0.7C224.7,123.7,225.1,123.2,225.7,123.2"/>
				</g>
			</g>
		</g>
	</g>
	<path class="st8" d="M59.5,231.7l8.5,1.8c0.3,0.1,0.5,0.3,0.5,0.7l-1.1,6.9c-0.1,0.7-0.9,1.2-1.6,1.1c-3-0.7-4.3-1.1-8.1-1.9
		c-2.3-0.5-10.3-2.1-13.4-3.2c-3.1-1.1-1.9-4.1-0.6-3.9c6.3,0.8,11.7,0.1,14.2-1.1C58.6,231.7,59.2,231.6,59.5,231.7"/>
	<g class="st1">
		<g>
			<g>
				<g>
					<defs>
						<rect id="SVGID_75_" x="61.4" y="217.2" width="10.2" height="12.4"/>
					</defs>
					<clipPath id="SVGID_76_">
						<use xlink:href="#SVGID_75_"  style="overflow:visible;"/>
					</clipPath>
					<polygon class="st43" points="71.6,220.7 64.6,217.2 61.4,227.1 68.6,229.6 					"/>
				</g>
			</g>
		</g>
	</g>
	<path class="st0" d="M142,133.5c0,0-59.6,5.8-64.7,27.5c-7.2,31.2-16.9,60.8-16.9,60.8l13.4,2.4c2-8.9,17.3-40.1,24.4-61
		c16.1-2.4,59.3,6.8,65.8-5.5c5.3-10,5.2-20.1,5.2-20.1L142,133.5z"/>
	<g class="st11">
		<g>
			<g>
				<g>
					<defs>
						<rect id="SVGID_77_" x="60.5" y="133.5" width="108.7" height="90.7"/>
					</defs>
					<clipPath id="SVGID_78_">
						<use xlink:href="#SVGID_77_"  style="overflow:visible;"/>
					</clipPath>
					<path class="st44" d="M142,133.5c0,0-59.6,5.8-64.7,27.5c-7.2,31.2-16.9,60.8-16.9,60.8l13.4,2.4c2-8.9,17.3-40.1,24.4-61
						c16.1-2.4,59.3,6.8,65.8-5.5c5.3-10,5.2-20.1,5.2-20.1L142,133.5z"/>
				</g>
			</g>
		</g>
	</g>
	<polygon class="st0" points="74.7,228.9 59.1,223.3 59.8,217.1 76.2,221.4 	"/>
	<path class="st0" d="M56.6,232.4c0.7,0.2,1.5,0.2,2.1,0.2c0.1,0,0.1,0,0.2-0.1c0.1-0.1,0-0.1,0-0.2c-0.2-0.2-2-2.1-3.1-2
		c-0.2,0-0.4,0.2-0.5,0.4c-0.2,0.4-0.2,0.8,0,1.1C55.5,232.2,56,232.3,56.6,232.4 M58.2,232.2c-1.4,0-2.4-0.3-2.7-0.7
		c-0.1-0.2-0.1-0.4,0-0.7c0.1-0.1,0.1-0.2,0.3-0.2C56.4,230.6,57.4,231.5,58.2,232.2"/>
	<path class="st0" d="M58.7,232.6L58.7,232.6c0.2,0,0.2-0.1,0.2-0.1c0-0.1,0.7-2.2,0-3.2c-0.2-0.3-0.4-0.4-0.7-0.4
		c-0.4,0-0.7,0.1-0.8,0.4C57.1,230.1,57.9,232,58.7,232.6C58.6,232.6,58.6,232.6,58.7,232.6 M58.2,229.3c0.2,0,0.3,0.1,0.4,0.2
		c0.4,0.6,0.2,1.8,0,2.5c-0.6-0.7-1.1-2.1-0.9-2.6C57.8,229.4,57.9,229.3,58.2,229.3L58.2,229.3"/>
	<path class="st45" d="M148.4,79c-0.4,3.9-1,7.6-1.5,11.4c-0.7,3.7-1.4,7.5-2.4,11.3s-2.1,7.5-3.7,11.3c-0.9,1.9-1.7,3.8-3,5.7
		c-0.7,1-1.3,1.9-2.2,3c-0.9,1-2,2-3.4,2.9l-0.5,0.3l-0.3,0.1c-2.9,1.1-5.2,0.7-7.1,0.2s-3.5-1.1-5-2c-1.4-0.8-2.8-1.7-4.1-2.7
		c-0.7-0.5-1.2-1-1.8-1.5c-0.6-0.5-1.1-1.1-1.7-1.6l3.3-4.8c1.2,0.4,2.6,1,3.8,1.3c1.2,0.4,2.6,0.8,3.7,1.1c1.2,0.3,2.4,0.5,3.3,0.5
		c1,0,1.6-0.3,1.4-0.3l-0.7,0.4c0.3-0.2,1.1-1.1,1.7-2.4c0.7-1.2,1.3-2.7,1.9-4.2c1.1-3.1,2-6.5,2.8-9.9s1.4-7,2-10.5
		s1.1-7.2,1.5-10.6L148.4,79z"/>
	<path class="st8" d="M138,73.1c-7.3,6.3-6.9,21.7-6.9,21.7l19.2,6.9c4-6.3,6-18.4,5.7-23.6C155.5,70.3,146.6,65.7,138,73.1"/>
	<g class="st1">
		<g>
			<g>
				<g>
					<defs>
						<rect id="SVGID_79_" x="136.8" y="77.6" width="19.3" height="24.2"/>
					</defs>
					<clipPath id="SVGID_80_">
						<use xlink:href="#SVGID_79_"  style="overflow:visible;"/>
					</clipPath>
					<path class="st46" d="M156.1,78.5c-3.4-1.6-8.1-1.1-12.8,3c-4.2,3.6-5.8,10.4-6.5,15.5l13.6,4.9
						C154.4,95.6,156.3,83.8,156.1,78.5"/>
				</g>
			</g>
		</g>
	</g>
	<polygon class="st45" points="38.4,219.5 36.1,212.1 52.2,203.3 54.6,210.8 	"/>
	<path class="st8" d="M36.6,211.4l5.8,6.5c0.2,0.2,0.2,0.6,0,0.8l-4.9,5c-0.5,0.5-1.4,0.5-1.9-0.1c-2-2.3-2.9-3.5-5.4-6.3
		c-1.6-1.7-7.2-7.5-9.4-9.9c-2.1-2.4,0.3-4.5,1.4-3.7c5.2,3.7,10.2,6.7,13,7.2C35.9,210.9,36.3,211,36.6,211.4"/>
	<g class="st1">
		<g>
			<g>
				<g>
					<defs>
						<rect id="SVGID_81_" x="40.4" y="203.3" width="14" height="12.4"/>
					</defs>
					<clipPath id="SVGID_82_">
						<use xlink:href="#SVGID_81_"  style="overflow:visible;"/>
					</clipPath>
					<polygon class="st47" points="54.6,210.8 52.2,203.3 40.4,209.7 45.4,215.7 					"/>
				</g>
			</g>
		</g>
	</g>
	<path class="st0" d="M155.5,135.7c0,0-40.9,5.4-49.4,16.6C91.4,171.8,45,203.9,45,203.9l4.2,13.6c0,0,63.3-26.6,74.5-49
		c20.6-1.6,54.3,5.3,59.6-7.6c3.5-8.5,1.8-21.3,1.8-21.3L155.5,135.7z"/>
	<g class="st1">
		<g>
			<g>
				<g>
					<defs>
						<rect id="SVGID_83_" x="42.3" y="135.7" width="140.6" height="81.8"/>
					</defs>
					<clipPath id="SVGID_84_">
						<use xlink:href="#SVGID_83_"  style="overflow:visible;"/>
					</clipPath>
					<path class="st48" d="M152.7,135.7c0,0-40.9,5.4-49.4,16.6c-14.7,19.5-61.1,51.6-61.1,51.6l4.2,13.6c0,0,63.3-26.6,74.5-49
						c20.6-1.6,54.3,5.3,59.6-7.6c3.5-8.5,1.8-21.3,1.8-21.3L152.7,135.7z"/>
				</g>
			</g>
		</g>
	</g>
	<polygon class="st0" points="50.2,219.5 41.1,205 46.9,200.3 55.5,215.9 	"/>
	<path class="st0" d="M33.8,210.3c0.5,0.6,1.1,1.1,1.6,1.3c0.1,0,0.1,0,0.2,0s0.1-0.1,0.1-0.2c0-0.3-0.4-3-1.3-3.4
		c-0.2-0.1-0.5-0.1-0.7,0c-0.4,0.2-0.6,0.5-0.6,0.9S33.4,209.8,33.8,210.3 M35.2,211c-1.1-0.9-1.8-1.6-1.7-2.1
		c0-0.2,0.1-0.4,0.4-0.6c0.1-0.1,0.2-0.1,0.3,0C34.6,208.7,35,210,35.2,211"/>
	<path class="st0" d="M35.3,211.6C35.4,211.6,35.4,211.6,35.3,211.6c0.1,0.1,0.2,0.1,0.3,0s1.8-1.4,1.9-2.5c0-0.3-0.1-0.6-0.3-0.8
		c-0.3-0.2-0.6-0.3-0.9-0.1C35.6,208.7,35.1,210.7,35.3,211.6C35.3,211.5,35.3,211.5,35.3,211.6 M36.9,208.7
		c0.1,0.1,0.2,0.3,0.1,0.4c0,0.7-1,1.5-1.5,2c0-0.9,0.4-2.3,0.9-2.6C36.5,208.5,36.7,208.5,36.9,208.7L36.9,208.7"/>
	<path class="st45" d="M117.1,113.9l-6.2-6l-4.3,8.4c0,0,7.5,4.1,9.4,2.2L117.1,113.9z"/>
	<polygon class="st45" points="102.7,107.9 101.7,114.8 106.6,116.3 110.9,108 	"/>
	<path class="st8" d="M184.8,68c-0.8-2.1-2.2-4.1-4.4-4.1c-0.5,0-3.2,0.1-3.6,0.1c-2.6,0.1-5.7,0.2-8.8,0.6
		c-5.3,0.7-12.9,1.8-17.4,3.1c-2.7,0.7-5.2,1.6-7.2,2.4h-0.1c-2.4,1-3.8,3.3-3.5,5.8c1.1,11.2,3.6,42,2.2,58.1l43.3,5.7
		c2.6-8.2,3.6-27.1,3.6-42.5C188.8,87.9,188.1,76.4,184.8,68"/>
	<g class="st1">
		<g>
			<g>
				<g>
					<defs>
						<rect id="SVGID_85_" x="157.1" y="89.2" width="31.7" height="29.8"/>
					</defs>
					<clipPath id="SVGID_86_">
						<use xlink:href="#SVGID_85_"  style="overflow:visible;"/>
					</clipPath>
					<path class="st49" d="M188.7,89.2l-0.9,0.1l-5.4,4.8l-5.6,19.6l-19.5,3.4c4.8,2.4,18.5,2.9,26.6,0.8c2.8-0.8,4.7-3.2,4.8-6
						c0.2-4.9,0.3-9.8,0.3-14.5C188.8,94.6,188.8,92,188.7,89.2"/>
				</g>
			</g>
		</g>
	</g>
	<path class="st0" d="M118.7,95.6c0,0,3.8-2.1,10.9-0.1c7.2,2,12.1-0.4,12.1-0.4l2.7,5l-24.3,0.9L118.7,95.6z"/>
	<g class="st50">
		<g>
			<g>
				<g>
					<defs>
						<rect id="SVGID_87_" x="118.7" y="94.6" width="25.8" height="6.4"/>
					</defs>
					<clipPath id="SVGID_88_">
						<use xlink:href="#SVGID_87_"  style="overflow:visible;"/>
					</clipPath>
					<path class="st51" d="M118.7,95.6c0,0,3.8-2.1,10.9-0.1c7.2,2,12.1-0.4,12.1-0.4l2.7,5l-24.3,0.9L118.7,95.6z"/>
				</g>
			</g>
		</g>
	</g>
	<path class="st0" d="M118.7,95.6c0,0-0.2-1.5-4.8-1.7c-9.3-0.3-13.2-2.7-13.2-2.7l-0.4,2.4l19.9,7.4L118.7,95.6z"/>
	<g class="st50">
		<g>
			<g>
				<g>
					<defs>
						<rect id="SVGID_89_" x="100.4" y="91.2" width="19.9" height="9.8"/>
					</defs>
					<clipPath id="SVGID_90_">
						<use xlink:href="#SVGID_89_"  style="overflow:visible;"/>
					</clipPath>
					<path class="st52" d="M118.7,95.6c0,0-0.2-1.5-4.8-1.7c-9.3-0.3-13.2-2.7-13.2-2.7l-0.4,2.4l19.9,7.4L118.7,95.6z"/>
				</g>
			</g>
		</g>
	</g>
	<path class="st0" d="M126.5,131.1l-17.1-4.9c-0.4-0.1-0.8-0.5-0.9-1l-8.8-31.8c-0.2-0.8,0.4-1.2,1.1-1.1l16.3,4.7L126.5,131.1z"/>
	<path class="st0" d="M153.2,132.6l-22.5-1.2l-9.4-34l22.8,1.2c0.5,0,1,0.4,1.1,1l8.8,32C154.2,132.2,153.8,132.6,153.2,132.6"/>
	<polygon class="st0" points="126.5,131.1 130.7,131.3 121.2,97.4 117.1,97.1 	"/>
	<g class="st11">
		<g>
			<g>
				<g>
					<defs>
						<rect id="SVGID_91_" x="117.1" y="97.1" width="13.6" height="34.2"/>
					</defs>
					<clipPath id="SVGID_92_">
						<use xlink:href="#SVGID_91_"  style="overflow:visible;"/>
					</clipPath>
					<polygon class="st53" points="126.5,131.1 130.7,131.3 121.2,97.4 117.1,97.1 					"/>
				</g>
			</g>
		</g>
	</g>
	<path class="st45" d="M186.9,75.7c0.2,1.5,0.4,2.8,0.5,4.2c0.1,1.3,0.2,2.7,0.3,4.1c0.1,2.7,0.1,5.4-0.1,8.2
		c-0.3,5.4-1.1,11-3.1,16.5c0,0.1-0.2,0.6-0.3,0.9c-0.2,0.4-0.3,0.7-0.5,1c-0.4,0.6-0.8,1.1-1.1,1.6c-0.9,1-1.7,1.6-2.6,2.2
		c-1.7,1.1-3.2,1.6-4.8,2c-3,0.9-5.8,1.1-8.6,1.3c-5.5,0.3-10.8-0.1-16.1-0.9l0.3-5.8c5-0.5,10-1.1,14.7-2.1
		c2.4-0.5,4.7-1.1,6.5-1.9c1-0.4,1.7-0.9,2.2-1.2c0.2-0.2,0.3-0.4,0.3-0.4s-0.1,0-0.1,0.1l-0.1,0.1c0,0-0.1,0.2,0,0
		c0.5-2.2,0.9-4.5,1.1-6.8c0.2-2.4,0.4-4.7,0.4-7.2c0-2.4,0-4.9-0.1-7.3c-0.1-1.2-0.1-2.4-0.2-3.6l-0.2-1.8l-0.2-1.7L186.9,75.7z"/>
	<path class="st8" d="M186.9,66.4c-5.2-3.9-12.2-3.8-15.1,6.5c-1.9,6.8-0.9,20.3-0.9,20.3l20.4-0.4C193.7,82,192.1,70.4,186.9,66.4"
		/>
	<path class="st45" d="M166,47.5l-4.3,5.1l-5.8,6.9c0.4,0.9,0.7,1.8,1,2.7c1.1,3.6-2.3,4.4-5.3,6.2c0,0-4.5,5.9,6.3,4.2
		c10.8-1.7,12.3-7.4,12.3-7.4C165.3,61.8,165.7,53.8,166,47.5"/>
	<path class="st0" d="M161.1,71.8c-1,0.3-2.1,0.6-3.3,0.8c-1.9,0.3-3.3,0.4-4.4,0.3l-0.3,1.2c-0.4,0.3-0.5,1.7,2,3.4
		C157.7,77,161.8,74.8,161.1,71.8"/>
	<path class="st8" d="M168.3,63.3c0,0-2,5.4-9.5,7.4c1.1,2.9-0.7,6.2-0.7,6.2s10.4-3.5,12.5-7.1c2.2-3.5,1.2-5.6,1.2-5.6
		C170.9,63.7,169.6,63.4,168.3,63.3"/>
	<path class="st8" d="M153.6,76.7c0,0,0.1-4.5,1.4-6c-0.7-2-0.3-3.2,0.8-5c-1.6,0.5-4.1,1.2-5.5,3.6
		C148.7,71.7,149.8,76.8,153.6,76.7"/>
	<g class="st1">
		<g>
			<g>
				<g>
					<defs>
						<rect id="SVGID_93_" x="155.9" y="52.4" width="6.2" height="9.5"/>
					</defs>
					<clipPath id="SVGID_94_">
						<use xlink:href="#SVGID_93_"  style="overflow:visible;"/>
					</clipPath>
					<path class="st54" d="M155.9,59.3c0.4,0.9,0.7,1.8,1,2.7c2.5-1,5.4-4.3,5.3-7c0-1.1-0.2-1.9-0.4-2.6L155.9,59.3z"/>
				</g>
			</g>
		</g>
	</g>
	<path class="st8" d="M141.7,35.3c-2,4.3-0.3,14.4,9.4,10.4C160.6,41.6,144.9,28.4,141.7,35.3"/>
	<path class="st8" d="M162.8,44.2c-0.9,1.8-0.1,6.2,4,4.5C171,46.9,164.2,41.2,162.8,44.2"/>
	<path class="st8" d="M163.9,47.2c-1.3,1.5-1.8,5.9,2.7,5.4C171.1,51.9,166.1,44.6,163.9,47.2"/>
	<path class="st45" d="M165,35.6c1.7,8.2,3.2,12.8,0.3,18.2c-4.3,8.1-15.1,7.5-19.2,0.1c-3.7-6.7-5.9-18.9,1-24.5
		C153.8,23.9,163.2,27.5,165,35.6"/>
	<path class="st8" d="M163.5,26.2c-1.6-7.3-11.4-4.7-16.3-0.4c-5.1,4.5-6.2,7.8-10.4,10.4c7.7,1.1,18.6-2,20.6-4.6
		c-0.2,2.7,1.8,5.6,3.3,6.6c-0.3,2.3,0,6.8,0,6.8l3.5-1.8l4.1-1.6C174.4,31.4,170.9,25,163.5,26.2"/>
	<path class="st55" d="M154.7,41.3c-0.1,0-0.3-0.1-0.3-0.2c0-0.2,0.1-0.3,0.2-0.3l11.5-1.9c0.2,0,0.3,0.1,0.3,0.2
		c0,0.2-0.1,0.3-0.2,0.3L154.7,41.3C154.8,41.3,154.7,41.3,154.7,41.3"/>
	<path class="st55" d="M153.2,48L153.2,48c-2.1,0-4.5-2.3-5.2-5.1c-0.5-1.6-0.3-3.2,0.5-4.1c0.5-0.7,1.2-1.1,2.1-1.1l0,0
		c2.1,0,4.4,2.3,5.2,5.1c0.5,1.6,0.3,3.2-0.5,4.1C154.8,47.7,154.1,48,153.2,48 M150.6,38.5c-0.7,0-1.2,0.3-1.6,0.8
		c-0.7,0.9-0.8,2.2-0.4,3.6c0.7,2.5,2.8,4.6,4.7,4.6c0.7,0,1.2-0.3,1.6-0.8c0.7-0.9,0.8-2.2,0.4-3.6
		C154.6,40.5,152.5,38.5,150.6,38.5L150.6,38.5z"/>
	<path class="st55" d="M146.7,44.6c-0.1,0-0.1,0-0.2,0c-0.1-0.1-0.2-0.3-0.1-0.4c0.7-1.1,2.1-0.8,2.1-0.8c0.2,0,0.3,0.2,0.2,0.3
		c0,0.2-0.2,0.3-0.3,0.2c0,0-1.1-0.2-1.5,0.5C146.9,44.6,146.8,44.6,146.7,44.6"/>
	<path class="st45" d="M169.9,41.9c-0.5,2.3-1.9,4.1-3.4,5.2c-2.3,1.5-4.1-0.4-4-3.1c0.1-2.5,1.3-6.2,3.9-6.7
		C168.9,36.9,170.5,39.2,169.9,41.9"/>
	<path class="st8" d="M152,42.5c0.3,0.6,0.2,1.2-0.2,1.4s-1-0.1-1.2-0.7c-0.3-0.6-0.2-1.2,0.2-1.5C151.1,41.5,151.7,41.9,152,42.5"
		/>
	<path class="st8" d="M145.3,45.3c0.3,0.7,0.2,1.2-0.3,1.4c-0.4,0.2-1-0.2-1.2-0.8c-0.3-0.7-0.2-1.2,0.3-1.4
		C144.5,44.2,145,44.6,145.3,45.3"/>
	<path class="st8" d="M142,41.5c0.1,0,0.2-0.1,0.3-0.3c0.6-1.7,2-2.2,2-2.2c0.2-0.1,0.3-0.3,0.3-0.5c-0.1-0.2-0.3-0.3-0.5-0.3l0,0
		c-0.1,0-1.8,0.6-2.5,2.7C141.5,41.2,141.6,41.4,142,41.5C141.8,41.5,141.9,41.5,142,41.5"/>
	<path class="st55" d="M145.1,50.2L145.1,50.2c-1.9,0-4.1-2.1-4.8-4.6c-0.4-1.5-0.3-2.9,0.5-3.7c0.5-0.6,1.1-1,1.9-1l0,0
		c1.9,0,4,2.1,4.7,4.6c0.4,1.5,0.3,2.9-0.5,3.7C146.5,49.8,145.9,50.2,145.1,50.2 M142.7,41.5c-0.6,0-1.1,0.3-1.4,0.7
		c-0.6,0.8-0.7,2-0.4,3.2c0.7,2.3,2.5,4.1,4.2,4.2l0,0c0.6,0,1.1-0.3,1.4-0.7c0.6-0.8,0.7-2,0.4-3.2
		C146.3,43.4,144.4,41.5,142.7,41.5L142.7,41.5z"/>
	<path class="st56" d="M147.5,44.2c0,0-0.1,3.6-1,5.6c1.2,0.6,2.8-0.5,2.8-0.5L147.5,44.2z"/>
	<path class="st8" d="M150.7,51.9c2.6-0.8,3.5-2.8,3.5-2.9c0-0.1,0-0.2-0.1-0.3c-0.1,0-0.2,0-0.3,0.1c0,0-1.1,2.3-4,2.9
		c-0.1,0-0.2,0.1-0.2,0.2c0,0.1,0.1,0.2,0.2,0.2C150.2,51.9,150.5,51.9,150.7,51.9"/>
	<path class="st8" d="M152.9,37.5C153,37.5,153,37.4,152.9,37.5c0.2-0.3,0.2-0.6,0-0.7c-1.9-1.1-3.5-0.3-3.6-0.2
		c-0.2,0.1-0.3,0.4-0.2,0.6c0.1,0.2,0.4,0.3,0.6,0.2c0.1,0,1.3-0.7,2.8,0.2C152.6,37.6,152.8,37.6,152.9,37.5"/>
	<path class="st45" d="M152.8,111.3l-6.6-2.8l0.2,8.4c0,0,6.6,2.7,7.6-0.9L152.8,111.3z"/>
	<polygon class="st45" points="138,110.4 139.5,116.4 146.4,116.9 146.3,108.6 	"/>
</g>
</svg>
