<?xml version="1.0" encoding="utf-8"?>
<!-- Generator: Adobe Illustrator 21.0.2, SVG Export Plug-In . SVG Version: 6.00 Build 0)  -->
<svg version="1.1" id="Layer_1" xmlns="http://www.w3.org/2000/svg" xmlns:xlink="http://www.w3.org/1999/xlink" x="0px" y="0px"
	 viewBox="0 0 401.2 343.9" style="enable-background:new 0 0 401.2 343.9;" xml:space="preserve">
<style type="text/css">
	.st0{opacity:0.4;fill:#87888A;}
	.st1{opacity:0.4;fill:#B2B3B5;}
	.st2{fill:#FFFFFF;}
	.st3{fill:#ECECF0;}
	.st4{fill:#88BA34;}
	.st5{fill:#B0B1B3;}
	.st6{fill:#BDBEC0;}
	.st7{fill:#D1D2D4;}
	.st8{fill:none;stroke:#B0B1B3;stroke-linecap:round;stroke-linejoin:round;stroke-miterlimit:10;}
	.st9{fill:#20284D;}
	.st10{fill:#364380;}
	.st11{fill:#B4B3B3;}
	.st12{fill:#EDEFC7;}
	.st13{fill:#D2D2D2;}
	.st14{fill:#DDDDE0;}
	.st15{fill:#FDFFFE;}
	.st16{fill:#543823;}
	.st17{fill:#FCB040;}
	.st18{fill:#E6A03A;}
</style>
<g>
	<path class="st0" d="M83.3,122.5l-5.2-5.2c-0.6-0.6-1.7-0.6-2.3,0l-1.6,1.6c-0.6,0.6-0.6,1.7,0,2.3l0.7,0.7l-0.7,0.7
		c-0.6,0.6-0.6,1.4-0.2,2.1l-2.8,2.8c-6-6.2-14.3-10.1-23.5-10.6v-2c1.5,0,2.6-1.2,2.6-2.6v-1.7h1.1c1.5,0,2.6-1.2,2.6-2.6v-3.7
		c0-1.5-1.2-2.6-2.6-2.6H39.5c-1.5,0-2.6,1.2-2.6,2.6v3.7c0,1.5,1.2,2.6,2.6,2.6h1.5v1.7c0,1.3,0.9,2.3,2.1,2.6v2.1
		c-9,0.6-17.1,4.6-23,10.7l-3-3c0.4-0.6,0.4-1.5-0.2-2.1l-0.7-0.7l0.7-0.7c0.6-0.6,0.6-1.7,0-2.3l-1.6-1.6c-0.6-0.6-1.7-0.6-2.3,0
		l-5.2,5.2c-0.6,0.6-0.6,1.7,0,2.3l1.6,1.6c0.6,0.6,1.7,0.6,2.3,0l0.5-0.5l0.7,0.7c0.6,0.6,1.7,0.6,2.3,0l0,0l3,3
		c-5.1,6.1-8.1,14-8.1,22.6c0,19.6,15.9,35.5,35.5,35.5c19.6,0,35.5-15.9,35.5-35.5c0-9-3.4-17.3-8.9-23.6l0.7,0.7l2.8-2.8l0,0
		c0.6,0.6,1.7,0.6,2.3,0l0.7-0.7l0.5,0.5c0.6,0.6,1.7,0.6,2.3,0l1.6-1.6C83.9,124.2,83.9,123.2,83.3,122.5z"/>
	
		<rect x="220.2" y="94.1" transform="matrix(0.395 -0.9187 0.9187 0.395 34.9167 374.9801)" class="st1" width="164" height="133.8"/>
	<path class="st1" d="M271.6,44.3h-31c-0.8-3.8-4.2-6.7-8.3-6.7H206c-1.9-5-6.7-8.6-12.3-8.6s-10.4,3.6-12.3,8.6H155
		c-4.1,0-7.5,2.9-8.3,6.7h-31c-3.2,0-5.7,2.5-5.7,5.5V50v194.7v7.1c0,3.2,2.6,5.7,5.7,5.7h155.9c3.2,0,5.7-2.6,5.7-5.7v-7.1V50v-0.2
		C277.3,46.8,274.8,44.3,271.6,44.3z"/>
	<g>
		
			<rect x="215.3" y="86.6" transform="matrix(0.395 -0.9187 0.9187 0.395 38.8917 365.9667)" class="st2" width="164" height="133.8"/>
		<g>
			<path class="st3" d="M360.3,123c-0.2,0.6-1.3,0.7-2.3,0.2l-80.5-34.6c-1-0.4-1.6-1.3-1.4-1.8c0.2-0.6,1.3-0.7,2.3-0.2l80.5,34.6
				C359.9,121.6,360.5,122.4,360.3,123z"/>
		</g>
		<g>
			<path class="st3" d="M329.8,114.3c-0.2,0.6-1.3,0.7-2.3,0.2l-51.6-22.2c-1-0.4-1.6-1.3-1.4-1.8c0.2-0.6,1.3-0.7,2.3-0.2
				l51.6,22.2C329.4,112.9,330.1,113.7,329.8,114.3z"/>
		</g>
		<g>
			<path class="st3" d="M315,112.4c-0.2,0.6-1.3,0.7-2.3,0.2l-38.4-16.5c-1-0.4-1.6-1.3-1.4-1.8c0.2-0.6,1.3-0.7,2.3-0.2l38.4,16.5
				C314.6,111,315.2,111.8,315,112.4z"/>
		</g>
		<g>
			<path class="st3" d="M352.3,141.4c-0.2,0.6-1.3,0.7-2.3,0.2l-80.5-34.6c-1-0.4-1.6-1.3-1.4-1.8c0.2-0.6,1.3-0.7,2.3-0.2
				l80.5,34.6C352,140.1,352.6,140.9,352.3,141.4z"/>
		</g>
		<g>
			<path class="st3" d="M321.9,132.8c-0.2,0.6-1.3,0.7-2.3,0.2L268,110.8c-1-0.4-1.6-1.3-1.4-1.8s1.3-0.7,2.3-0.2l51.6,22.2
				C321.5,131.4,322.1,132.2,321.9,132.8z"/>
		</g>
		<g>
			<path class="st3" d="M307,130.9c-0.2,0.6-1.3,0.7-2.3,0.2l-38.4-16.5c-1-0.4-1.6-1.3-1.4-1.8c0.2-0.6,1.3-0.7,2.3-0.2l38.4,16.5
				C306.6,129.5,307.3,130.3,307,130.9z"/>
		</g>
		<g>
			<path class="st3" d="M343.1,162.9c-0.2,0.6-1.3,0.7-2.3,0.2l-80.5-34.6c-1-0.4-1.6-1.3-1.4-1.8c0.2-0.6,1.3-0.7,2.3-0.2
				l80.5,34.6C342.7,161.5,343.4,162.3,343.1,162.9z"/>
		</g>
		<g>
			<path class="st3" d="M312.7,154.2c-0.2,0.6-1.3,0.7-2.3,0.2l-51.6-22.2c-1-0.4-1.6-1.3-1.4-1.8s1.3-0.7,2.3-0.2l51.6,22.2
				C312.3,152.8,312.9,153.7,312.7,154.2z"/>
		</g>
		<g>
			<path class="st3" d="M297.8,152.3c-0.2,0.6-1.3,0.7-2.3,0.2L257.1,136c-1-0.4-1.6-1.3-1.4-1.8c0.2-0.6,1.3-0.7,2.3-0.2l38.4,16.5
				C297.4,150.9,298,151.8,297.8,152.3z"/>
		</g>
		<g>
			<path class="st3" d="M323,209.6c-0.2,0.6-1.3,0.7-2.3,0.2l-80.5-34.6c-1-0.4-1.6-1.3-1.4-1.8s1.3-0.7,2.3-0.2l80.5,34.6
				C322.7,208.2,323.3,209,323,209.6z"/>
		</g>
		<g>
			<path class="st3" d="M292.6,200.9c-0.2,0.6-1.3,0.7-2.3,0.2l-51.6-22.2c-1-0.4-1.6-1.3-1.4-1.8s1.3-0.7,2.3-0.2l51.6,22.2
				C292.2,199.5,292.8,200.4,292.6,200.9z"/>
		</g>
		<g>
			<path class="st3" d="M277.7,199c-0.2,0.6-1.3,0.7-2.3,0.2L237,182.7c-1-0.4-1.6-1.3-1.4-1.8c0.2-0.6,1.3-0.7,2.3-0.2l38.4,16.5
				C277.3,197.6,278,198.5,277.7,199z"/>
		</g>
		<g>
			<path class="st3" d="M335.3,181.2c-0.2,0.6-1.3,0.7-2.3,0.2l-80.5-34.6c-1-0.4-1.6-1.3-1.4-1.8c0.2-0.6,1.3-0.7,2.3-0.2
				l80.5,34.6C334.9,179.8,335.5,180.6,335.3,181.2z"/>
		</g>
		<g>
			<path class="st3" d="M304.8,172.5c-0.2,0.6-1.3,0.7-2.3,0.2l-51.6-22.2c-1-0.4-1.6-1.3-1.4-1.8c0.2-0.6,1.3-0.7,2.3-0.2
				l51.6,22.2C304.4,171.1,305,172,304.8,172.5z"/>
		</g>
		<g>
			<path class="st3" d="M299.7,184.3c-0.2,0.6-1.3,0.7-2.3,0.2l-51.6-22.2c-1-0.4-1.6-1.3-1.4-1.8c0.2-0.6,1.3-0.7,2.3-0.2
				l51.6,22.2C299.3,182.9,300,183.7,299.7,184.3z"/>
		</g>
		<g>
			<path class="st3" d="M289.9,170.6c-0.2,0.6-1.3,0.7-2.3,0.2l-38.4-16.5c-1-0.4-1.6-1.3-1.4-1.8c0.2-0.6,1.3-0.7,2.3-0.2
				l38.4,16.5C289.5,169.2,290.2,170.1,289.9,170.6z"/>
		</g>
		<g>
			<path class="st3" d="M281,171.5c-0.2,0.6-1.3,0.7-2.3,0.2l-31.2-13.4c-1-0.4-1.6-1.3-1.4-1.8s1.3-0.7,2.3-0.2l31.2,13.4
				C280.6,170.1,281.3,171,281,171.5z"/>
		</g>
		<g>
			<path class="st4" d="M349,133.4c-0.1,0-0.2,0-0.3-0.1c-0.2-0.1-0.4-0.3-0.4-0.5l-1.4-6c-0.1-0.4,0.1-0.7,0.4-0.9
				c0.1,0,0.2-0.1,0.3-0.1c0.3,0,0.5,0.1,0.6,0.4l2,3.3l7.6-2.6c0.1,0,0.2,0,0.2,0c0.3,0,0.6,0.2,0.7,0.4c0.2,0.4,0,0.8-0.3,1
				l-9,4.9C349.3,133.4,349.1,133.4,349,133.4z"/>
			<path class="st4" d="M347.6,126.7l2.3,3.8l8.1-2.7l-9,4.9L347.6,126.7 M358,127.8L358,127.8 M347.6,125.2c-0.2,0-0.4,0-0.6,0.1
				c-0.7,0.3-1.1,1-0.9,1.7l1.4,6c0.1,0.5,0.4,0.8,0.8,1c0.2,0.1,0.4,0.1,0.6,0.1c0.2,0,0.5-0.1,0.7-0.2l9-4.9
				c0.5-0.2,0.8-0.8,0.8-1.3c0-0.8-0.6-1.5-1.4-1.5c0,0-0.1,0-0.1,0c-0.1,0-0.1,0-0.2,0c-0.1,0-0.2,0-0.3,0.1l-7,2.3l-1.7-2.8
				C348.6,125.5,348.1,125.2,347.6,125.2L347.6,125.2z"/>
		</g>
		<g>
			<path class="st4" d="M312.4,218.7c-0.1,0-0.2,0-0.3-0.1c-0.2-0.1-0.4-0.3-0.4-0.5l-1.4-6c-0.1-0.4,0.1-0.7,0.4-0.9
				c0.1,0,0.2-0.1,0.3-0.1c0.3,0,0.5,0.1,0.6,0.4l2,3.3l7.6-2.6c0.1,0,0.2,0,0.2,0c0.3,0,0.6,0.2,0.7,0.4c0.2,0.4,0,0.8-0.3,1
				l-9,4.9C312.6,218.7,312.5,218.7,312.4,218.7z"/>
			<path class="st4" d="M310.9,212l2.3,3.8l8.1-2.7l-9,4.9L310.9,212 M321.4,213L321.4,213 M310.9,210.5c-0.2,0-0.4,0-0.6,0.1
				c-0.7,0.3-1.1,1-0.9,1.7l1.4,6c0.1,0.5,0.4,0.8,0.8,1c0.2,0.1,0.4,0.1,0.6,0.1c0.2,0,0.5-0.1,0.7-0.2l9-4.9
				c0.5-0.2,0.8-0.8,0.8-1.3c0-0.8-0.6-1.5-1.4-1.5c0,0-0.1,0-0.1,0c-0.1,0-0.1,0-0.2,0c-0.1,0-0.2,0-0.3,0.1l-7,2.3l-1.7-2.8
				C311.9,210.7,311.4,210.5,310.9,210.5L310.9,210.5z"/>
		</g>
		<g>
			<path class="st4" d="M331.4,174.4c-0.1,0-0.2,0-0.3-0.1c-0.2-0.1-0.4-0.3-0.4-0.5l-1.4-6c-0.1-0.4,0.1-0.7,0.4-0.9
				c0.1,0,0.2-0.1,0.3-0.1c0.3,0,0.5,0.1,0.6,0.4l2,3.3l7.6-2.6c0.1,0,0.2,0,0.2,0c0.3,0,0.6,0.2,0.7,0.4c0.2,0.4,0,0.8-0.3,1
				l-9,4.9C331.6,174.4,331.5,174.4,331.4,174.4z"/>
			<path class="st4" d="M330,167.7l2.3,3.8l8.1-2.7l-9,4.9L330,167.7 M340.4,168.8L340.4,168.8 M330,166.2c-0.2,0-0.4,0-0.6,0.1
				c-0.7,0.3-1.1,1-0.9,1.7l1.4,6c0.1,0.5,0.4,0.8,0.8,1c0.2,0.1,0.4,0.1,0.6,0.1c0.2,0,0.5-0.1,0.7-0.2l9-4.9
				c0.5-0.2,0.8-0.8,0.8-1.3c0-0.8-0.6-1.5-1.4-1.5c0,0-0.1,0-0.1,0c-0.1,0-0.1,0-0.2,0c-0.1,0-0.2,0-0.3,0.1l-7,2.3l-1.7-2.8
				C331,166.5,330.5,166.2,330,166.2L330,166.2z"/>
		</g>
	</g>
	<g>
		<polygon class="st5" points="45.4,117.1 45.4,117.1 41,117.1 41,117.1 41,111.4 41,111.4 45.4,111.4 45.4,111.4 		"/>
		<polygon class="st5" points="70.8,127.9 70.8,127.9 68.9,125.9 68.9,125.9 72.6,122.2 72.6,122.2 74.6,124.1 74.6,124.1 		"/>
		<polygon class="st5" points="16.7,128.6 16.7,128.6 18.6,126.7 18.6,126.7 14.1,122.1 14.1,122.1 12.2,124.1 12.2,124.1 		"/>
		<path class="st6" d="M48.1,110.7c0,1.5-1.2,2.6-2.6,2.6h-3.9c-1.5,0-2.6-1.2-2.6-2.6v-1.8c0-1.5,1.2-2.6,2.6-2.6h3.9
			c1.5,0,2.6,1.2,2.6,2.6V110.7z"/>
		<path class="st6" d="M75.9,125c-0.6,0.6-1.7,0.6-2.3,0l-1.7-1.7c-0.6-0.6-0.6-1.7,0-2.3l0.8-0.8c0.6-0.6,1.7-0.6,2.3,0l1.7,1.7
			c0.6,0.6,0.6,1.7,0,2.3L75.9,125z"/>
		<path class="st6" d="M10.8,125c0.6,0.6,1.7,0.6,2.3,0l1.7-1.7c0.6-0.6,0.6-1.7,0-2.3l-0.8-0.8c-0.6-0.6-1.7-0.6-2.3,0l-1.7,1.7
			c-0.6,0.6-0.6,1.7,0,2.3L10.8,125z"/>
		<path class="st7" d="M51.8,106.4c0,1.5-1.2,2.6-2.6,2.6H37.3c-1.5,0-2.6-1.2-2.6-2.6v-3.7c0-1.5,1.2-2.6,2.6-2.6h11.8
			c1.5,0,2.6,1.2,2.6,2.6V106.4z"/>
		<path class="st7" d="M79.4,124.8c-0.6,0.6-1.7,0.6-2.3,0l-5.2-5.2c-0.6-0.6-0.6-1.7,0-2.3l1.6-1.6c0.6-0.6,1.7-0.6,2.3,0l5.2,5.2
			c0.6,0.6,0.6,1.7,0,2.3L79.4,124.8z"/>
		<path class="st7" d="M7.3,124.8c0.6,0.6,1.7,0.6,2.3,0l5.2-5.2c0.6-0.6,0.6-1.7,0-2.3l-1.6-1.6c-0.6-0.6-1.7-0.6-2.3,0l-5.2,5.2
			c-0.6,0.6-0.6,1.7,0,2.3L7.3,124.8z"/>
		<circle class="st7" cx="43.5" cy="150.7" r="35.5"/>
		<circle class="st6" cx="43.5" cy="150.7" r="28.2"/>
		<circle class="st2" cx="43.5" cy="150.7" r="24.7"/>
		<g>
			<path class="st5" d="M44.3,132.9c0,0.1-0.1,0.2-0.2,0.2h-0.6c-0.1,0-0.2-0.1-0.2-0.2v-3.2c0-0.1,0.1-0.2,0.2-0.2H44
				c0.1,0,0.2,0.1,0.2,0.2V132.9z"/>
			<path class="st5" d="M44.3,171.2c0,0.1-0.1,0.2-0.2,0.2h-0.6c-0.1,0-0.2-0.1-0.2-0.2V168c0-0.1,0.1-0.2,0.2-0.2H44
				c0.1,0,0.2,0.1,0.2,0.2V171.2z"/>
			<path class="st5" d="M53.3,135.7c-0.1,0.1-0.2,0.2-0.3,0.1l-0.5-0.3c-0.1-0.1-0.2-0.2-0.1-0.3l1.7-2.8c0.1-0.1,0.2-0.2,0.3-0.1
				l0.5,0.3c0.1,0.1,0.2,0.2,0.1,0.3L53.3,135.7z"/>
			<path class="st5" d="M33.4,168.5c-0.1,0.1-0.2,0.2-0.3,0.1l-0.5-0.3c-0.1-0.1-0.2-0.2-0.1-0.3l1.7-2.8c0.1-0.1,0.2-0.2,0.3-0.1
				l0.5,0.3c0.1,0.1,0.2,0.2,0.1,0.3L33.4,168.5z"/>
			<path class="st5" d="M59.2,142.2c-0.1,0.1-0.3,0-0.3-0.1l-0.3-0.5c-0.1-0.1,0-0.3,0.1-0.3l2.8-1.6c0.1-0.1,0.3,0,0.3,0.1l0.3,0.5
				c0.1,0.1,0,0.3-0.1,0.3L59.2,142.2z"/>
			<path class="st5" d="M26,161.3c-0.1,0.1-0.3,0-0.3-0.1l-0.3-0.5c-0.1-0.1,0-0.3,0.1-0.3l2.8-1.6c0.1-0.1,0.3,0,0.3,0.1l0.3,0.5
				c0.1,0.1,0,0.3-0.1,0.3L26,161.3z"/>
			<path class="st5" d="M61.2,151c-0.1,0-0.2-0.1-0.2-0.2l0-0.6c0-0.1,0.1-0.2,0.2-0.2l3.2,0c0.1,0,0.2,0.1,0.2,0.2l0,0.6
				c0,0.1-0.1,0.2-0.2,0.2L61.2,151z"/>
			<path class="st5" d="M22.9,150.9c-0.1,0-0.2-0.1-0.2-0.2l0-0.6c0-0.1,0.1-0.2,0.2-0.2l3.2,0c0.1,0,0.2,0.1,0.2,0.2l0,0.6
				c0,0.1-0.1,0.2-0.2,0.2L22.9,150.9z"/>
			<path class="st5" d="M58.6,159.7c-0.1-0.1-0.2-0.2-0.1-0.3l0.3-0.5c0.1-0.1,0.2-0.2,0.3-0.1l2.8,1.6c0.1,0.1,0.2,0.2,0.1,0.3
				l-0.3,0.5c-0.1,0.1-0.2,0.2-0.3,0.1L58.6,159.7z"/>
			<path class="st5" d="M25.5,140.5c-0.1-0.1-0.2-0.2-0.1-0.3l0.3-0.5c0.1-0.1,0.2-0.2,0.3-0.1l2.8,1.6c0.1,0.1,0.2,0.2,0.1,0.3
				l-0.3,0.5c-0.1,0.1-0.2,0.2-0.3,0.1L25.5,140.5z"/>
			<path class="st5" d="M58.6,159.7c-0.1-0.1-0.2-0.2-0.1-0.3l0.3-0.5c0.1-0.1,0.2-0.2,0.3-0.1l2.8,1.6c0.1,0.1,0.2,0.2,0.1,0.3
				l-0.3,0.5c-0.1,0.1-0.2,0.2-0.3,0.1L58.6,159.7z"/>
			<path class="st5" d="M25.5,140.5c-0.1-0.1-0.2-0.2-0.1-0.3l0.3-0.5c0.1-0.1,0.2-0.2,0.3-0.1l2.8,1.6c0.1,0.1,0.2,0.2,0.1,0.3
				l-0.3,0.5c-0.1,0.1-0.2,0.2-0.3,0.1L25.5,140.5z"/>
			<path class="st5" d="M52.1,165.8c-0.1-0.1,0-0.3,0.1-0.3l0.5-0.3c0.1-0.1,0.3,0,0.3,0.1l1.6,2.8c0.1,0.1,0,0.3-0.1,0.3l-0.5,0.3
				c-0.1,0.1-0.3,0-0.3-0.1L52.1,165.8z"/>
			<path class="st5" d="M32.7,132.8c-0.1-0.1,0-0.3,0.1-0.3l0.5-0.3c0.1-0.1,0.3,0,0.3,0.1l1.6,2.8c0.1,0.1,0,0.3-0.1,0.3l-0.5,0.3
				c-0.1,0.1-0.3,0-0.3-0.1L32.7,132.8z"/>
			<circle class="st5" cx="44" cy="150.3" r="1.6"/>
			<line class="st8" x1="39.5" y1="153.3" x2="57.8" y2="142.2"/>
		</g>
	</g>
	<path class="st9" d="M274,248.5c0,3.2-2.6,5.7-5.7,5.7H112.4c-3.2,0-5.7-2.6-5.7-5.7V46.7c0-3.2,2.6-5.7,5.7-5.7h155.9
		c3.2,0,5.7,2.6,5.7,5.7V248.5z"/>
	<path class="st10" d="M274,241.4c0,3.1-2.6,5.5-5.7,5.5H112.4c-3.2,0-5.7-2.5-5.7-5.5V46.5c0-3.1,2.6-5.5,5.7-5.5h155.9
		c3.2,0,5.7,2.5,5.7,5.5V241.4z"/>
	<rect x="116.4" y="52.5" class="st2" width="147.9" height="181.3"/>
	<g>
		<path class="st11" d="M237.5,42.8c0-4.7-3.8-8.5-8.5-8.5h-77.3c-4.7,0-8.5,3.8-8.5,8.5v14.9h94.2V42.8z"/>
		<circle class="st11" cx="190.4" cy="38.9" r="13.1"/>
		<circle class="st12" cx="190.4" cy="34.9" r="4"/>
		<rect x="143.3" y="47.3" class="st13" width="94.2" height="10.4"/>
	</g>
	<g>
		<path class="st3" d="M238.5,91.8c0,0.7-0.9,1.2-2,1.2h-97.3c-1.1,0-2-0.6-2-1.2s0.9-1.2,2-1.2h97.3
			C237.6,90.6,238.5,91.1,238.5,91.8z"/>
	</g>
	<g>
		<path class="st3" d="M203.7,96.3c0,0.7-0.9,1.2-2,1.2h-62.6c-1.1,0-2-0.6-2-1.2c0-0.7,0.9-1.2,2-1.2h62.6
			C202.8,95,203.7,95.6,203.7,96.3z"/>
	</g>
	<g>
		<path class="st3" d="M187.8,100.8c0,0.7-0.9,1.2-2,1.2h-46.6c-1.1,0-2-0.6-2-1.2s0.9-1.2,2-1.2h46.6
			C186.9,99.6,187.8,100.2,187.8,100.8z"/>
	</g>
	<g>
		<path class="st3" d="M239.1,122.9c0,1.1-0.9,1.9-2,1.9h-76.4c-1.1,0-2-0.9-2-1.9s0.9-1.9,2-1.9h76.4
			C238.2,121,239.1,121.8,239.1,122.9z"/>
	</g>
	<g>
		<path class="st3" d="M239.1,142.1c0,1.1-0.9,1.9-2,1.9h-76.4c-1.1,0-2-0.9-2-1.9c0-1.1,0.9-1.9,2-1.9h76.4
			C238.2,140.2,239.1,141.1,239.1,142.1z"/>
	</g>
	<g>
		<path class="st3" d="M239.1,161.7c0,1.1-0.9,1.9-2,1.9h-76.4c-1.1,0-2-0.9-2-1.9s0.9-1.9,2-1.9h76.4
			C238.2,159.8,239.1,160.7,239.1,161.7z"/>
	</g>
	<g>
		<path class="st3" d="M239.1,180c0,1.1-0.9,1.9-2,1.9h-76.4c-1.1,0-2-0.9-2-1.9s0.9-1.9,2-1.9h76.4
			C238.2,178.1,239.1,179,239.1,180z"/>
	</g>
	<path class="st3" d="M150.7,116v12h-12v-12H150.7 M152.2,114.5h-15v15h15V114.5L152.2,114.5z"/>
	<path class="st3" d="M150.7,135.5v12h-12v-12H150.7 M152.2,134h-15v15h15V134L152.2,134z"/>
	<path class="st3" d="M150.7,155v12h-12v-12H150.7 M152.2,153.5h-15v15h15V153.5L152.2,153.5z"/>
	<path class="st3" d="M150.7,174.7v12h-12v-12H150.7 M152.2,173.2h-15v15h15V173.2L152.2,173.2z"/>
	<g>
		<path class="st4" d="M144.8,126.4c-0.2,0-0.5-0.1-0.6-0.3l-5-6.7c-0.2-0.3-0.2-0.7,0.1-1c0.1-0.1,0.3-0.2,0.5-0.2
			c0.2,0,0.3,0,0.4,0.1l4.4,3.1l8.2-7.4c0.1-0.1,0.3-0.2,0.5-0.2c0.2,0,0.4,0.1,0.5,0.2c0.3,0.3,0.3,0.7,0.1,1l-8.6,10.9
			C145.2,126.3,145,126.4,144.8,126.4C144.8,126.4,144.8,126.4,144.8,126.4z"/>
		<path class="st4" d="M153.3,114.7L153.3,114.7 M153.3,114.7l-8.6,10.9l-5-6.7l4.9,3.5L153.3,114.7 M153.3,113.2
			C153.3,113.2,153.3,113.2,153.3,113.2C153.3,113.2,153.3,113.2,153.3,113.2C153.3,113.2,153.3,113.2,153.3,113.2
			c-0.4,0-0.7,0.2-1,0.4l-7.7,6.9l-3.9-2.8c-0.3-0.2-0.6-0.3-0.9-0.3c-0.4,0-0.8,0.2-1.1,0.5c-0.5,0.5-0.6,1.4-0.1,1.9l5,6.7
			c0.3,0.4,0.7,0.6,1.2,0.6c0,0,0,0,0,0c0.5,0,0.9-0.2,1.2-0.6l8.5-10.9c0.2-0.3,0.4-0.6,0.4-1C154.8,113.9,154.2,113.2,153.3,113.2
			L153.3,113.2C153.3,113.2,153.3,113.2,153.3,113.2L153.3,113.2z M153.3,116.2L153.3,116.2L153.3,116.2L153.3,116.2z"/>
	</g>
	<g>
		<path class="st4" d="M144.8,144.3c-0.2,0-0.5-0.1-0.6-0.3l-5-6.7c-0.2-0.3-0.2-0.7,0.1-1c0.1-0.1,0.3-0.2,0.5-0.2
			c0.2,0,0.3,0,0.4,0.1l4.4,3.1l8.2-7.4c0.1-0.1,0.3-0.2,0.5-0.2c0.2,0,0.4,0.1,0.5,0.2c0.3,0.3,0.3,0.7,0.1,1l-8.6,10.9
			C145.2,144.2,145,144.3,144.8,144.3C144.8,144.3,144.8,144.3,144.8,144.3z"/>
		<path class="st4" d="M153.3,132.7L153.3,132.7 M153.3,132.7l-8.6,10.9l-5-6.7l4.9,3.5L153.3,132.7 M153.3,131.2L153.3,131.2
			C153.3,131.2,153.3,131.2,153.3,131.2C153.3,131.2,153.3,131.2,153.3,131.2C153.3,131.2,153.3,131.2,153.3,131.2
			C153.3,131.2,153.3,131.2,153.3,131.2C153.3,131.2,153.3,131.2,153.3,131.2C153.3,131.2,153.3,131.2,153.3,131.2
			C153.3,131.2,153.3,131.2,153.3,131.2C153.3,131.2,153.3,131.2,153.3,131.2C153.3,131.2,153.3,131.2,153.3,131.2
			C153.3,131.2,153.3,131.2,153.3,131.2C153.3,131.2,153.3,131.2,153.3,131.2C153.3,131.2,153.3,131.2,153.3,131.2
			c-0.4,0-0.7,0.1-1,0.4l-7.7,6.9l-3.9-2.8c-0.3-0.2-0.6-0.3-0.9-0.3c-0.4,0-0.8,0.2-1.1,0.5c-0.5,0.5-0.6,1.4-0.1,1.9l5,6.7
			c0.3,0.4,0.7,0.6,1.2,0.6c0,0,0,0,0,0c0.5,0,0.9-0.2,1.2-0.6l8.5-10.9c0.2-0.3,0.4-0.6,0.4-1C154.8,131.8,154.2,131.2,153.3,131.2
			L153.3,131.2z M153.3,134.2L153.3,134.2L153.3,134.2L153.3,134.2z"/>
	</g>
	<path class="st14" d="M116.4,189.3v44.3h21.5C137,233.6,117.7,211.5,116.4,189.3z"/>
	<path class="st3" d="M140.7,212.6c-6.4-1.9-11.1-4.6-14.6-7.5c-8.2-6.9-9.5-15.3-9.7-18.9v2.9c1.3,22.2,20.6,44.5,21.5,44.5
		c-1-1.2-1.4-2.8-1.5-4.4C136.3,225,138.5,219.4,140.7,212.6z"/>
	<path class="st1" d="M129.2,213.1l-14.6,7l0,0l0,0l-77.9,78.2l0,0l-5.1,5.1l0,0l-1.9,1.9c-2.9,2.9-2.9,7.7,0,10.6
		c2.9,2.9,7.7,2.9,10.6,0l1.9-1.9l0,0l5.1-5.1l0,0l0,0l77.9-78.2l0,0l7-14.5l0,0l3.1-6.4L129,213L129.2,213.1z"/>
	<g>
		<path class="st2" d="M38,311.2c-2.9,2.9-7.7,2.9-10.6,0l0,0c-2.9-2.9-2.9-7.7,0-10.6l10.4-10.4c2.9-2.9,7.7-2.9,10.6,0l0,0
			c2.9,2.9,2.9,7.7,0,10.6L38,311.2z"/>
		
			<rect x="33.5" y="293.8" transform="matrix(0.7066 -0.7076 0.7076 0.7066 -202.3928 114.6846)" class="st13" width="7.2" height="15.1"/>
		<polygon class="st15" points="112.2,215.3 122.9,226 132.9,205.4 		"/>
		<polygon class="st16" points="133.1,205.1 126.6,208.2 130,211.6 		"/>
		
			<rect x="23.4" y="252.2" transform="matrix(0.7057 -0.7085 0.7085 0.7057 -160.9183 132.1326)" class="st17" width="110.4" height="15.2"/>
		
			<rect x="23.4" y="256.4" transform="matrix(0.7057 -0.7085 0.7085 0.7057 -160.9194 132.1347)" class="st18" width="110.4" height="6.6"/>
		<path class="st3" d="M136.3,222.9C136.3,222.9,136.3,222.9,136.3,222.9"/>
	</g>
</g>
</svg>
