<?xml version="1.0" encoding="utf-8"?>
<!-- Generator: Adobe Illustrator 21.0.2, SVG Export Plug-In . SVG Version: 6.00 Build 0)  -->
<svg version="1.1" id="Layer_1" xmlns="http://www.w3.org/2000/svg" xmlns:xlink="http://www.w3.org/1999/xlink" x="0px" y="0px"
	 viewBox="0 0 401.2 343.9" style="enable-background:new 0 0 401.2 343.9;" xml:space="preserve">
<style type="text/css">
	.st0{fill:none;}
	.st1{clip-path:url(#SVGID_2_);fill:#E0E0E0;}
	.st2{clip-path:url(#SVGID_4_);fill:#004AAD;}
	.st3{opacity:0.1;clip-path:url(#SVGID_4_);}
	.st4{clip-path:url(#SVGID_6_);}
	.st5{clip-path:url(#SVGID_4_);fill:#FFFFFF;}
	.st6{clip-path:url(#SVGID_8_);fill:#004AAD;}
	.st7{opacity:0.1;clip-path:url(#SVGID_8_);}
	.st8{clip-path:url(#SVGID_10_);}
	.st9{opacity:0.2;clip-path:url(#SVGID_8_);}
	.st10{clip-path:url(#SVGID_12_);}
	.st11{clip-path:url(#SVGID_14_);}
	.st12{clip-path:url(#SVGID_8_);fill:#EBEBEB;}
	.st13{clip-path:url(#SVGID_8_);fill:#F0F0F0;}
	.st14{clip-path:url(#SVGID_8_);fill:#E0E0E0;}
	.st15{clip-path:url(#SVGID_8_);fill:#FAFAFA;}
	.st16{clip-path:url(#SVGID_16_);}
	.st17{clip-path:url(#SVGID_8_);fill:#263238;}
	.st18{clip-path:url(#SVGID_18_);}
	.st19{clip-path:url(#SVGID_20_);}
	.st20{clip-path:url(#SVGID_22_);}
	.st21{clip-path:url(#SVGID_24_);}
	.st22{clip-path:url(#SVGID_26_);}
	.st23{clip-path:url(#SVGID_28_);}
	.st24{clip-path:url(#SVGID_30_);}
	.st25{clip-path:url(#SVGID_32_);}
	.st26{clip-path:url(#SVGID_34_);}
	.st27{clip-path:url(#SVGID_8_);fill:none;stroke:#EBEBEB;stroke-width:0.569;stroke-linecap:round;stroke-miterlimit:10;}
	.st28{clip-path:url(#SVGID_8_);fill:none;stroke:#27DEBF;stroke-width:0.569;stroke-linecap:round;stroke-miterlimit:10;}
	.st29{opacity:0.25;clip-path:url(#SVGID_8_);}
	.st30{clip-path:url(#SVGID_36_);fill:#455A64;}
	.st31{clip-path:url(#SVGID_38_);fill:#F28F8F;}
	.st32{clip-path:url(#SVGID_38_);fill:#FFA8A7;}
	.st33{clip-path:url(#SVGID_38_);fill:#263238;}
	.st34{clip-path:url(#SVGID_38_);fill:#004AAD;}
	.st35{clip-path:url(#SVGID_38_);fill:#EBEBEB;}
	.st36{opacity:0.1;clip-path:url(#SVGID_38_);}
	.st37{clip-path:url(#SVGID_40_);}
	.st38{clip-path:url(#SVGID_38_);fill:#37474F;}
	.st39{clip-path:url(#SVGID_38_);fill:#F5F5F5;}
	.st40{clip-path:url(#SVGID_42_);fill:#263238;}
	.st41{clip-path:url(#SVGID_42_);fill:#FAFAFA;}
	.st42{clip-path:url(#SVGID_42_);fill:#F0F0F0;}
	.st43{clip-path:url(#SVGID_42_);fill:#004AAD;}
	.st44{opacity:0.3;clip-path:url(#SVGID_42_);}
	.st45{clip-path:url(#SVGID_44_);fill:#FFFFFF;}
	.st46{clip-path:url(#SVGID_46_);fill:#FFFFFF;}
	.st47{opacity:0.1;clip-path:url(#SVGID_42_);}
	.st48{clip-path:url(#SVGID_48_);}
	.st49{clip-path:url(#SVGID_42_);fill:#455A64;}
</style>
<rect x="10.6" y="-18.1" class="st0" width="380.1" height="380.1"/>
<g>
	<defs>
		<rect id="SVGID_1_" x="10.6" y="-18.1" width="380.1" height="380.1"/>
	</defs>
	<clipPath id="SVGID_2_">
		<use xlink:href="#SVGID_1_"  style="overflow:visible;"/>
	</clipPath>
	<path class="st1" d="M67,247.8l105.7,61c1.9,1.1,5,1.1,6.9,0l160.3-92.6c1.9-1.1,1.9-2.9,0-4l-105.7-61c-1.9-1.1-5-1.1-6.9,0
		L67,243.8C65.1,244.9,65.1,246.7,67,247.8"/>
	<path class="st1" d="M326.5,156.4c-12.5-5-32.4-5-44.4,0c-12.1,5-12.1,13.1,0,18.1c12.1,5,31.9,5,44.4,0
		C338.9,169.4,338.9,161.3,326.5,156.4"/>
	<path class="st1" d="M93.8,209.4c-10,4.8-26.2,4.8-36.2,0c-10-4.8-10-12.5,0-17.2c10-4.8,26.2-4.8,36.2,0
		C103.8,197,103.8,204.7,93.8,209.4"/>
</g>
<g>
	<defs>
		<rect id="SVGID_3_" x="10.6" y="-18.1" width="380.1" height="380.1"/>
	</defs>
	<clipPath id="SVGID_4_">
		<use xlink:href="#SVGID_3_"  style="overflow:visible;"/>
	</clipPath>
	<path class="st2" d="M60.1,178.7c-0.4-4.8-4.1-13.1-9.6-18.9c-5.5-5.9-14.3-8.7-19.8-6.3c-5.1,2.2-4,9,2.7,13
		c6.7,4,16.6,8.9,20.1,16.6l6.6,9.1V178.7z"/>
	<g class="st3">
		<g>
			<defs>
				<rect id="SVGID_5_" x="27.6" y="152.7" width="32.6" height="39.5"/>
			</defs>
			<clipPath id="SVGID_6_">
				<use xlink:href="#SVGID_5_"  style="overflow:visible;"/>
			</clipPath>
			<path class="st4" d="M60.1,178.7c-0.4-4.8-4.1-13.1-9.6-18.9c-5.5-5.9-14.3-8.7-19.8-6.3c-5.1,2.2-4,9,2.7,13
				c6.7,4,16.6,8.9,20.1,16.6l6.6,9.1V178.7z"/>
		</g>
	</g>
	<path class="st5" d="M60.8,185.1c0,0,0.1,0,0.1,0c0.2-0.1,0.3-0.2,0.2-0.4c-5.4-16.4-20.8-27.4-27.2-28.4c-0.2,0-0.4,0.1-0.4,0.3
		c0,0.2,0.1,0.4,0.3,0.4c6.3,1,21.3,11.8,26.7,28C60.5,185,60.7,185.1,60.8,185.1"/>
	<path class="st2" d="M59.4,198.7c-1-2.7-4.7-6.9-10.3-10.1c-6.3-3.6-13.9-4.9-15.9-7.9c-2.4-3.7,0.5-7.5,6.7-7.3
		c6.2,0.3,17.5,7.7,20.3,20.1L59.4,198.7z"/>
	<path class="st5" d="M59.7,193.7c0.1,0,0.1,0,0.2,0c0.2-0.1,0.2-0.3,0.1-0.5c-5.3-10.5-16.5-15.5-22.2-16.7c-0.2,0-0.4,0.1-0.4,0.3
		c0,0.2,0.1,0.4,0.3,0.4c5.7,1.2,16.6,6.1,21.8,16.4C59.4,193.6,59.6,193.7,59.7,193.7"/>
</g>
<g>
	<defs>
		<rect id="SVGID_7_" x="10.6" y="-18.1" width="380.1" height="380.1"/>
	</defs>
	<clipPath id="SVGID_8_">
		<use xlink:href="#SVGID_7_"  style="overflow:visible;"/>
	</clipPath>
	<path class="st6" d="M146.2,194.7v-2.1l79-43.5c1-0.6,2.7-0.6,3.7,0l109.5,61.8c0,0,0,1.7,0,2.1c0,0.4-0.3,0.8-0.8,1.1l-79,45.6
		L146.2,194.7z"/>
	<g class="st7">
		<g>
			<defs>
				<rect id="SVGID_9_" x="258.7" y="210.2" width="79.8" height="49.5"/>
			</defs>
			<clipPath id="SVGID_10_">
				<use xlink:href="#SVGID_9_"  style="overflow:visible;"/>
			</clipPath>
			<path class="st8" d="M338.4,213c0-0.4,0-2.1,0-2.1l-1.3-0.8l-78.4,47.4v2.1l79-45.6C338.2,213.8,338.4,213.4,338.4,213"/>
		</g>
	</g>
	<path class="st6" d="M146.2,192.7l79-45.6c1-0.6,2.7-0.6,3.7,0l108.7,62.8c1,0.6,1,1.6,0,2.2l-79,45.6L146.2,192.7z"/>
	<g class="st9">
		<g>
			<defs>
				<rect id="SVGID_11_" x="146.2" y="192.7" width="112.5" height="67"/>
			</defs>
			<clipPath id="SVGID_12_">
				<use xlink:href="#SVGID_11_"  style="overflow:visible;"/>
			</clipPath>
			<polygon class="st10" points="258.7,259.7 258.7,257.6 146.2,192.7 146.2,194.8 			"/>
		</g>
	</g>
	<path class="st6" d="M148,195.7l-79.8,42l-1.6,2.6v2.1c0,1,0.6,2,1.6,2.6l105.2,60.8c0.8,0.4,1.7,0.7,2.7,0.7c1,0,2-0.2,2.7-0.7
		l78.1-45.1v-2.1L148,195.7z"/>
	<g class="st7">
		<g>
			<defs>
				<rect id="SVGID_13_" x="66.5" y="195.7" width="190.4" height="110.7"/>
			</defs>
			<clipPath id="SVGID_14_">
				<use xlink:href="#SVGID_13_"  style="overflow:visible;"/>
			</clipPath>
			<path class="st11" d="M148,195.7l-79.8,42l-1.6,2.6v2.1c0,1,0.6,2,1.6,2.6l105.2,60.8c0.8,0.4,1.7,0.7,2.7,0.7c1,0,2-0.2,2.7-0.7
				l78.1-45.1v-2.1L148,195.7z"/>
		</g>
	</g>
	<path class="st6" d="M176.1,304.4c-1,0-2-0.2-2.7-0.7L68.1,243c-1-0.6-1.6-1.5-1.6-2.6s0.6-2,1.6-2.6l76.3-44.1l112.4,64.9
		l-78.1,45.1C178.1,304.1,177.1,304.4,176.1,304.4"/>
	<path class="st12" d="M144.5,187.6L69,231.2l-0.8,1.1v8.1c0,0.4,0.3,0.8,0.8,1.1l105.2,60.8c1,0.6,2.7,0.6,3.7,0l75.5-43.6v-8.1
		L144.5,187.6z"/>
	<path class="st13" d="M253.5,250.5l-0.9,0.5l-12.3,7.1l-2.3,1.3l-60,34.6c-1,0.6-2.7,0.6-3.7,0L69,233.3c-1-0.6-1-1.6,0-2.2l1-0.6
		l74.5-43l108,62.4l0.2,0.1L253.5,250.5z"/>
	<path class="st14" d="M176.1,294.6v8.1c-0.7,0-1.4-0.1-1.9-0.5L69,241.4c-0.5-0.3-0.8-0.7-0.8-1.1v-8.1c0,0.4,0.3,0.8,0.8,1.1
		l105.2,60.8C174.8,294.4,175.4,294.6,176.1,294.6"/>
	<path class="st15" d="M253.5,249.5l-13.6,7.8l-2.1,1.2L178,293c-1,0.6-2.7,0.6-3.7,0L80,238.6c-0.8-0.5-1.6-0.9-2.4-1.4
		c-3.8-2.3-6.1-4.4-7.6-6.6c-0.1-0.1-0.1-0.2-0.2-0.3c-0.1-0.2-0.2-0.4-0.2-0.6c-0.2-0.8,0.4-1.6,1.3-1.9c1.8-0.5,4.6-1.5,7.1-3
		c0,0,0.1,0,0.1-0.1l66.4-38.3L253.5,249.5z"/>
	<g class="st7">
		<g>
			<defs>
				<rect id="SVGID_15_" x="238.7" y="248.1" width="4.9" height="2.9"/>
			</defs>
			<clipPath id="SVGID_16_">
				<use xlink:href="#SVGID_15_"  style="overflow:visible;"/>
			</clipPath>
			<path class="st16" d="M239.4,248.5c-1,0.6-1,1.5,0,2c1,0.6,2.5,0.6,3.5,0c1-0.6,1-1.5,0-2C241.9,247.9,240.4,247.9,239.4,248.5"
				/>
		</g>
	</g>
	<path class="st17" d="M250.6,241.9c-1.3-0.8-3-0.6-4.7,0.3c-2.6,1.5-4.9,4.9-5.9,8.5c0.4,0.1,0.8,0.2,1.3,0.2
		c0.9-3.2,2.9-6.2,5.3-7.5c0.8-0.4,1.5-0.7,2.1-0.7c0.5,0,0.9,0.1,1.3,0.3c1.1,0.6,1.8,2.2,1.8,4.3c0,0.3,0,0.7-0.1,1l1.2,0.7
		c0.1-0.6,0.1-1.2,0.1-1.7C253.1,244.8,252.2,242.8,250.6,241.9"/>
	<path class="st17" d="M252.8,249.8c0,0.1,0,0.2-0.1,0.3l-0.2-0.1L252.8,249.8z"/>
	<g class="st7">
		<g>
			<defs>
				<rect id="SVGID_17_" x="228.1" y="242" width="4.9" height="2.9"/>
			</defs>
			<clipPath id="SVGID_18_">
				<use xlink:href="#SVGID_17_"  style="overflow:visible;"/>
			</clipPath>
			<path class="st18" d="M228.9,242.4c-1,0.6-1,1.5,0,2c1,0.6,2.5,0.6,3.5,0c1-0.6,1-1.5,0-2C231.4,241.9,229.8,241.9,228.9,242.4"
				/>
		</g>
	</g>
	<path class="st17" d="M240.1,235.9c-1.3-0.8-3-0.6-4.7,0.3c-2.6,1.5-4.9,4.9-5.9,8.5c0.4,0.1,0.8,0.2,1.3,0.2
		c0.9-3.2,2.9-6.2,5.3-7.5c0.8-0.4,1.5-0.7,2.1-0.7c0.5,0,0.9,0.1,1.3,0.3c1.1,0.6,1.8,2.2,1.8,4.3c0,0.3,0,0.7-0.1,1l1.2,0.7
		c0.1-0.6,0.1-1.2,0.1-1.7C242.5,238.7,241.6,236.7,240.1,235.9"/>
	<g class="st7">
		<g>
			<defs>
				<rect id="SVGID_19_" x="217.6" y="235.9" width="4.9" height="2.9"/>
			</defs>
			<clipPath id="SVGID_20_">
				<use xlink:href="#SVGID_19_"  style="overflow:visible;"/>
			</clipPath>
			<path class="st19" d="M218.3,236.3c-1,0.6-1,1.5,0,2c1,0.6,2.5,0.6,3.5,0c1-0.6,1-1.5,0-2C220.8,235.8,219.3,235.8,218.3,236.3"
				/>
		</g>
	</g>
	<path class="st17" d="M229.5,229.8c-1.3-0.8-3-0.6-4.7,0.3c-2.6,1.5-4.9,4.9-5.9,8.5c0.4,0.1,0.8,0.2,1.3,0.2
		c0.9-3.2,2.9-6.2,5.3-7.5c0.8-0.4,1.5-0.7,2.1-0.7c0.5,0,0.9,0.1,1.3,0.3c1.1,0.6,1.8,2.2,1.8,4.3c0,0.3,0,0.7-0.1,1l1.2,0.7
		c0.1-0.6,0.1-1.2,0.1-1.7C232,232.6,231.1,230.7,229.5,229.8"/>
	<g class="st7">
		<g>
			<defs>
				<rect id="SVGID_21_" x="207" y="229.8" width="4.9" height="2.9"/>
			</defs>
			<clipPath id="SVGID_22_">
				<use xlink:href="#SVGID_21_"  style="overflow:visible;"/>
			</clipPath>
			<path class="st20" d="M207.8,230.2c-1,0.6-1,1.5,0,2c1,0.6,2.5,0.6,3.5,0c1-0.6,1-1.5,0-2C210.3,229.7,208.7,229.7,207.8,230.2"
				/>
		</g>
	</g>
	<path class="st17" d="M219,223.7c-1.3-0.8-3-0.6-4.7,0.3c-2.6,1.5-4.9,4.9-5.9,8.5c0.4,0.1,0.8,0.2,1.3,0.2
		c0.9-3.2,2.9-6.2,5.3-7.5c0.8-0.4,1.5-0.7,2.1-0.7c0.5,0,0.9,0.1,1.3,0.3c1.1,0.6,1.8,2.2,1.8,4.3c0,0.3,0,0.7-0.1,1l1.2,0.7
		c0.1-0.6,0.1-1.2,0.1-1.7C221.4,226.6,220.5,224.6,219,223.7"/>
	<g class="st7">
		<g>
			<defs>
				<rect id="SVGID_23_" x="196.5" y="223.7" width="4.9" height="2.9"/>
			</defs>
			<clipPath id="SVGID_24_">
				<use xlink:href="#SVGID_23_"  style="overflow:visible;"/>
			</clipPath>
			<path class="st21" d="M197.2,224.2c-1,0.6-1,1.5,0,2c1,0.6,2.5,0.6,3.5,0c1-0.6,1-1.5,0-2C199.7,223.6,198.2,223.6,197.2,224.2"
				/>
		</g>
	</g>
	<path class="st17" d="M208.5,217.6c-1.3-0.8-3-0.6-4.7,0.3c-2.6,1.5-4.9,4.9-5.9,8.5c0.4,0.1,0.8,0.2,1.3,0.2
		c0.9-3.2,2.9-6.2,5.3-7.5c0.8-0.4,1.5-0.7,2.1-0.7c0.5,0,0.9,0.1,1.3,0.3c1.1,0.6,1.8,2.2,1.8,4.3c0,0.3,0,0.7-0.1,1l1.2,0.7
		c0.1-0.6,0.1-1.2,0.1-1.7C210.9,220.5,210,218.5,208.5,217.6"/>
	<g class="st7">
		<g>
			<defs>
				<rect id="SVGID_25_" x="185.9" y="217.6" width="4.9" height="2.9"/>
			</defs>
			<clipPath id="SVGID_26_">
				<use xlink:href="#SVGID_25_"  style="overflow:visible;"/>
			</clipPath>
			<path class="st22" d="M186.7,218.1c-1,0.6-1,1.5,0,2c1,0.6,2.5,0.6,3.5,0c1-0.6,1-1.5,0-2C189.2,217.5,187.6,217.5,186.7,218.1"
				/>
		</g>
	</g>
	<path class="st17" d="M197.9,211.5c-1.3-0.8-3-0.6-4.7,0.3c-2.6,1.5-4.9,4.9-5.9,8.5c0.4,0.1,0.8,0.2,1.3,0.2
		c0.9-3.2,2.9-6.2,5.3-7.5c0.8-0.4,1.5-0.7,2.1-0.7c0.5,0,0.9,0.1,1.3,0.3c1.1,0.6,1.8,2.2,1.8,4.3c0,0.3,0,0.7-0.1,1l1.2,0.7
		c0.1-0.6,0.1-1.2,0.1-1.7C200.3,214.4,199.4,212.4,197.9,211.5"/>
	<g class="st7">
		<g>
			<defs>
				<rect id="SVGID_27_" x="175.4" y="211.6" width="4.9" height="2.9"/>
			</defs>
			<clipPath id="SVGID_28_">
				<use xlink:href="#SVGID_27_"  style="overflow:visible;"/>
			</clipPath>
			<path class="st23" d="M176.1,212c-1,0.6-1,1.5,0,2c1,0.6,2.5,0.6,3.5,0c1-0.6,1-1.5,0-2C178.6,211.4,177.1,211.4,176.1,212"/>
		</g>
	</g>
	<path class="st17" d="M187.4,205.4c-1.3-0.8-3-0.6-4.7,0.3c-2.6,1.5-4.9,4.9-5.9,8.5c0.4,0.1,0.8,0.2,1.3,0.2
		c0.9-3.2,2.9-6.2,5.3-7.5c0.8-0.4,1.5-0.7,2.1-0.7c0.5,0,0.9,0.1,1.3,0.3c1.1,0.6,1.8,2.2,1.8,4.3c0,0.3,0,0.7-0.1,1l1.2,0.7
		c0.1-0.6,0.1-1.2,0.1-1.7C189.8,208.3,188.9,206.3,187.4,205.4"/>
	<g class="st7">
		<g>
			<defs>
				<rect id="SVGID_29_" x="164.8" y="205.5" width="4.9" height="2.9"/>
			</defs>
			<clipPath id="SVGID_30_">
				<use xlink:href="#SVGID_29_"  style="overflow:visible;"/>
			</clipPath>
			<path class="st24" d="M165.6,205.9c-1,0.6-1,1.5,0,2c1,0.6,2.5,0.6,3.5,0c1-0.6,1-1.5,0-2C168.1,205.3,166.5,205.3,165.6,205.9"
				/>
		</g>
	</g>
	<path class="st17" d="M176.8,199.3c-1.3-0.8-3-0.6-4.7,0.3c-2.6,1.5-4.9,4.9-5.9,8.5c0.4,0.1,0.8,0.2,1.3,0.2
		c0.9-3.2,2.9-6.2,5.3-7.5c0.8-0.4,1.5-0.7,2.1-0.7c0.5,0,0.9,0.1,1.3,0.3c1.1,0.6,1.8,2.2,1.8,4.3c0,0.3,0,0.7-0.1,1l1.2,0.7
		c0.1-0.6,0.1-1.2,0.1-1.7C179.2,202.2,178.4,200.2,176.8,199.3"/>
	<g class="st7">
		<g>
			<defs>
				<rect id="SVGID_31_" x="154.3" y="199.4" width="4.9" height="2.9"/>
			</defs>
			<clipPath id="SVGID_32_">
				<use xlink:href="#SVGID_31_"  style="overflow:visible;"/>
			</clipPath>
			<path class="st25" d="M155,199.8c-1,0.6-1,1.5,0,2c1,0.6,2.5,0.6,3.5,0c1-0.6,1-1.5,0-2C157.6,199.2,156,199.2,155,199.8"/>
		</g>
	</g>
	<path class="st17" d="M166.3,193.2c-1.3-0.8-3-0.6-4.7,0.3c-2.6,1.5-4.9,4.9-5.9,8.5c0.4,0.1,0.8,0.2,1.3,0.2
		c0.9-3.2,2.9-6.2,5.3-7.5c0.8-0.4,1.5-0.7,2.1-0.7c0.5,0,0.9,0.1,1.3,0.3c1.1,0.6,1.8,2.2,1.8,4.3c0,0.3,0,0.7-0.1,1l1.2,0.7
		c0.1-0.6,0.1-1.2,0.1-1.7C168.7,196.1,167.8,194.1,166.3,193.2"/>
	<g class="st7">
		<g>
			<defs>
				<rect id="SVGID_33_" x="143.8" y="193.3" width="4.9" height="2.9"/>
			</defs>
			<clipPath id="SVGID_34_">
				<use xlink:href="#SVGID_33_"  style="overflow:visible;"/>
			</clipPath>
			<path class="st26" d="M144.5,193.7c-1,0.6-1,1.5,0,2c1,0.6,2.5,0.6,3.5,0c1-0.6,1-1.5,0-2C147,193.1,145.4,193.1,144.5,193.7"/>
		</g>
	</g>
	<path class="st17" d="M155.7,187.1c-1.3-0.8-3-0.6-4.7,0.3c-2.6,1.5-4.9,4.9-5.9,8.5c0.4,0.1,0.8,0.2,1.3,0.2
		c0.9-3.2,2.9-6.2,5.3-7.5c0.8-0.4,1.5-0.7,2.1-0.7c0.5,0,0.9,0.1,1.3,0.3c1.1,0.6,1.8,2.2,1.8,4.3c0,0.3,0,0.7-0.1,1l1.2,0.7
		c0.1-0.6,0.1-1.2,0.1-1.7C158.1,190,157.3,188,155.7,187.1"/>
	<line class="st27" x1="223.6" y1="247.5" x2="165.6" y2="281"/>
	<line class="st27" x1="216.6" y1="243.4" x2="158.5" y2="276.9"/>
	<line class="st27" x1="209.6" y1="239.3" x2="151.5" y2="272.9"/>
	<line class="st27" x1="202.5" y1="235.3" x2="144.5" y2="268.8"/>
	<line class="st27" x1="195.5" y1="231.2" x2="137.4" y2="264.7"/>
	<line class="st27" x1="188.5" y1="227.2" x2="130.4" y2="260.7"/>
	<line class="st27" x1="181.4" y1="223.1" x2="123.4" y2="256.6"/>
	<line class="st27" x1="174.4" y1="219" x2="116.4" y2="252.6"/>
	<line class="st27" x1="167.4" y1="215" x2="109.3" y2="248.5"/>
	<line class="st27" x1="160.3" y1="210.9" x2="102.3" y2="244.4"/>
	<line class="st27" x1="153.3" y1="206.9" x2="95.3" y2="240.4"/>
	<line class="st27" x1="146.3" y1="202.8" x2="88.2" y2="236.3"/>
	<line class="st27" x1="139.3" y1="198.7" x2="81.2" y2="232.3"/>
	<line class="st28" x1="135.7" y1="196.7" x2="237.7" y2="255.6"/>
	<line class="st28" x1="234.1" y1="249.5" x2="172.7" y2="285"/>
	<g class="st29">
		<g>
			<defs>
				<rect id="SVGID_35_" x="115.1" y="213.2" width="100.9" height="58.4"/>
			</defs>
			<clipPath id="SVGID_36_">
				<use xlink:href="#SVGID_35_"  style="overflow:visible;"/>
			</clipPath>
			<path class="st30" d="M203.4,242.1c-0.5-0.8-1.5-1.1-2.4-1.5c-0.3-0.2-0.7-0.4-1.1-0.6c-0.5-0.9-1.2-2.3-0.3-2.4
				c0.6-0.1,1.7,0.5,2.3,0.7c0.3,0.1,0.3-0.4,0-0.5c-1-0.4-3-1.7-3.4,0.1c-0.1,0.5,0,1,0.2,1.6c-0.5-0.2-1-0.3-1.5-0.3
				c-0.5,0-0.9,0.1-1.1,0.6c-0.1,0.3,0,0.5,0.1,0.7c0,0.4,0.4,0.5,0.5,0.5c-0.1,0-0.2,0-0.6,0c-0.7,0-2.7-0.5-3.2,0.4
				c-0.2,0.4,0.2,0.9,0.2,1c0,0.1-1.5,0.5-1.7,0.7c-0.1,0.1,0,0.5-0.1,0.5c-0.2,0.1-1.7,0-2.1,0c-1.2,0.1-4-0.3-3.7,1.5
				c0,0.2,0.2,0.2,0.2,0.5c0,0.3,0.1,0.4,0.1,0.4c0,0-0.1,0-0.3,0.2c-0.1,0.1-0.5,0.1-0.6,0.3c-0.6,0.7,0.3,0.9-0.4,1.4
				c-1,0.6-3-0.6-4,0.1c-0.9,0.6,0.3,2.3-1.3,2.4c-0.3,0-0.1,0.5,0.1,0.5c1.4,0.1,1.3-0.1,1.6-1.3c0.5-1.9,3.3-0.6,4.9-1
				c0.2-0.1,0.2-0.3,0.1-0.4c-0.4-0.7,0.1-1.1,0.7-1.4c0.2-0.1,0.2-0.3,0.1-0.4c-0.2-0.3-0.8-1.3-0.4-1.7c0.1-0.1,1.5-0.2,1.7-0.2
				c1.3-0.1,2.5-0.1,3.8-0.1c0.2,0,0.3-0.2,0.2-0.4c-0.2-0.4,1.4-0.7,1.8-0.7c0.1,0,0.2-0.2,0.2-0.3c-0.8-1.9,2.1-1.2,3.3-1
				c0.2,0,0.4-0.1,0.3-0.4c-0.2-0.6-1.6-1.3,0.1-1.5c0.3,0,0.8,0.1,1.3,0.3c0.8,1.3,2.1,2.6,3,3.1
				C203.1,243.8,204.3,243.4,203.4,242.1 M202.9,242.4c0.4,0.5-0.8,0.1-0.9,0c-0.7-0.3-1.1-1-1.5-1.6c0.3,0.2,0.7,0.4,0.9,0.5
				C202,241.6,202.5,241.9,202.9,242.4"/>
			<path class="st30" d="M174.4,254.3c-0.2-0.8-0.2-1.8,0.5-1.9c0.4,0,0.1-0.6-0.2-0.6c-1.1,0-1.4,0.9-1.2,2
				c-0.5-0.2-0.9-0.4-1.3-0.4c-0.7-0.1-1.1-0.1-1.4,0.5c-0.1,0.4,0.2,0.7,0.2,1.1c0,0.5,0.5,0.3-0.3,0.5c-0.2,0.1-0.7-0.1-1-0.1
				c-0.8,0-0.9,0-1.4,0.4c-0.5,0.4,0.8,0.6-0.8,0.4c-0.4-0.1-0.8-0.3-1.2-0.2c-0.6,0.1-0.9,0.3-0.8,0.9c0,0.3,0.6,0.6,0.6,0.8
				c0,1.3-1.4,0.2-2,0c-0.2-0.1-0.3,0-0.3,0.2c0,0.7,0.4,0.9-0.5,1c-0.1,0-0.8-0.4-1-0.4c-0.6,0-1.2,0.8-2,0.7
				c-0.2,0-0.3,0.2-0.2,0.4c0.2,0.6,0.5,1-0.7,1.5c0,0-1.4-0.2-1.4-0.2c-0.3,0-0.1,0.6,0.1,0.6c0.6,0,2.4,0.8,3,0.1
				c0.4-0.6-0.4-1.2-0.2-1.5c-0.1,0.2,1.1-0.3,1.2-0.4c0.2-0.1,0.7-0.3,0.9-0.3c0.2,0,0.3,0.3,0.5,0.3c0.2,0,0.5,0.1,0.7,0
				c0.2-0.1,0.3-0.4,0.3-0.4c0.2-0.1-0.3-0.3,0.1-0.5c0.3-0.1,0.6,0.2,0.9,0.3c0.5,0.1,1.1,0.5,1.5,0c0.5-0.6-0.4-1.1-0.3-1.5
				c0.2-1,1.6-0.2,2.2-0.7c0.1-0.1,0.1-0.2,0.1-0.3c-0.4-1.3,2-0.3,2.8-0.4c0.1,0,0.3-0.1,0.3-0.3c0-0.1-0.3-0.8-0.3-0.8
				c0.2-0.8,1.3-0.7,1.8-0.6c0.5,1.6,1.8,3.2,3.1,2.8c0.1,0,0.2-0.1,0.2-0.2C176.9,256.2,175.7,255.1,174.4,254.3 M174.9,255.6
				c0-0.1-0.1-0.2-0.2-0.4c0.5,0.3,0.9,0.7,1,1C175.9,257,175,255.9,174.9,255.6"/>
			<path class="st30" d="M195.5,262.9c-0.5-0.8-1.5-1.1-2.4-1.5c-0.3-0.2-0.7-0.4-1.1-0.6c-0.5-0.9-1.2-2.3-0.3-2.4
				c0.6-0.1,1.7,0.5,2.3,0.7c0.3,0.1,0.3-0.4,0-0.5c-1-0.4-3-1.7-3.4,0.1c-0.1,0.5,0,1,0.2,1.6c-0.5-0.2-1-0.3-1.5-0.3
				c-0.5,0-0.9,0.1-1.1,0.6c-0.1,0.3,0,0.5,0.1,0.7c0,0.4,0.4,0.5,0.5,0.5c-0.1,0-0.2,0-0.6,0c-0.7,0-2.7-0.5-3.2,0.4
				c-0.2,0.4,0.2,0.9,0.2,1c0,0.1-1.5,0.5-1.7,0.7c-0.1,0.1,0,0.5-0.1,0.5c-0.2,0.1-1.7,0-2.1,0c-1.2,0.1-4-0.3-3.7,1.5
				c0,0.2,0.2,0.2,0.2,0.5c0,0.3,0.1,0.4,0.1,0.4c0,0-0.1,0-0.3,0.2c-0.1,0.1-0.5,0.1-0.6,0.3c-0.6,0.7,0.3,0.9-0.4,1.4
				c-1,0.6-3-0.6-4,0.1c-0.9,0.6,0.3,2.3-1.3,2.4c-0.3,0-0.1,0.5,0.1,0.5c1.4,0.1,1.3-0.1,1.6-1.3c0.5-1.9,3.3-0.6,4.9-1
				c0.2-0.1,0.2-0.3,0.1-0.4c-0.4-0.7,0.1-1.1,0.7-1.4c0.2-0.1,0.2-0.3,0.1-0.4c-0.2-0.3-0.8-1.3-0.4-1.7c0.1-0.1,1.5-0.2,1.7-0.2
				c1.3-0.1,2.5-0.1,3.8-0.1c0.2,0,0.3-0.2,0.2-0.4c-0.2-0.4,1.4-0.7,1.8-0.7c0.1,0,0.2-0.2,0.2-0.3c-0.8-1.9,2.1-1.2,3.3-1
				c0.2,0,0.4-0.1,0.3-0.4c-0.2-0.6-1.6-1.3,0.1-1.5c0.3,0,0.8,0.1,1.3,0.3c0.8,1.3,2.1,2.6,3,3.1
				C195.2,264.6,196.3,264.2,195.5,262.9 M194.9,263.3c0.4,0.5-0.8,0.1-0.9,0c-0.7-0.3-1.1-1-1.5-1.6c0.3,0.2,0.7,0.4,0.9,0.5
				C194,262.4,194.5,262.7,194.9,263.3"/>
			<path class="st30" d="M213.3,248.1c-0.2-0.8-0.2-1.8,0.5-1.9c0.4,0,0.1-0.6-0.2-0.6c-1.1,0-1.4,0.9-1.2,2
				c-0.5-0.2-0.9-0.4-1.3-0.4c-0.7-0.1-1.1-0.1-1.4,0.5c-0.1,0.4,0.2,0.7,0.2,1.1c0,0.5,0.5,0.3-0.3,0.5c-0.2,0.1-0.7-0.1-1-0.1
				c-0.8,0-0.9,0-1.4,0.4c-0.5,0.4,0.8,0.6-0.8,0.4c-0.4-0.1-0.8-0.3-1.2-0.2c-0.6,0.1-0.9,0.3-0.8,0.9c0,0.3,0.6,0.6,0.6,0.8
				c0,1.3-1.4,0.2-2,0c-0.2-0.1-0.3,0-0.3,0.2c0,0.7,0.4,0.9-0.5,1c-0.1,0-0.8-0.4-1-0.4c-0.6,0-1.2,0.8-2,0.7
				c-0.2,0-0.3,0.2-0.2,0.4c0.2,0.6,0.5,1-0.7,1.5c0,0-1.4-0.2-1.4-0.2c-0.3,0-0.1,0.6,0.1,0.6c0.6,0,2.4,0.8,3,0.1
				c0.4-0.6-0.4-1.2-0.2-1.5c-0.1,0.2,1.1-0.3,1.2-0.4c0.2-0.1,0.7-0.3,0.9-0.3c0.2,0,0.3,0.3,0.5,0.3c0.2,0,0.5,0.1,0.7,0
				c0.2-0.1,0.3-0.4,0.3-0.4c0.2-0.1-0.3-0.3,0.1-0.5c0.3-0.1,0.6,0.2,0.9,0.3c0.5,0.1,1.1,0.5,1.5,0c0.5-0.6-0.4-1.1-0.3-1.5
				c0.2-1,1.6-0.2,2.2-0.7c0.1-0.1,0.1-0.2,0.1-0.3c-0.4-1.3,2-0.3,2.8-0.4c0.1,0,0.3-0.1,0.3-0.3c0-0.1-0.3-0.8-0.3-0.8
				c0.2-0.8,1.3-0.7,1.8-0.6c0.5,1.6,1.8,3.2,3.1,2.8c0.1,0,0.2-0.1,0.2-0.2C215.8,250,214.6,248.9,213.3,248.1 M213.8,249.5
				c0-0.1-0.1-0.2-0.2-0.4c0.5,0.3,0.9,0.7,1,1C214.9,250.8,213.9,249.7,213.8,249.5"/>
			<path class="st30" d="M160.5,218.4c-0.5-0.8-1.5-1.1-2.4-1.5c-0.3-0.2-0.7-0.4-1.1-0.6c-0.5-0.9-1.2-2.3-0.3-2.4
				c0.6-0.1,1.7,0.5,2.3,0.7c0.3,0.1,0.3-0.4,0-0.5c-1-0.4-3-1.7-3.4,0.1c-0.1,0.5,0,1,0.2,1.6c-0.5-0.2-1-0.3-1.5-0.3
				c-0.5,0-0.9,0.1-1.1,0.6c-0.1,0.3,0,0.5,0.1,0.7c0,0.4,0.4,0.5,0.5,0.5c-0.1,0-0.2,0-0.6,0c-0.7,0-2.7-0.5-3.2,0.4
				c-0.2,0.4,0.2,0.9,0.2,1c0,0.1-1.5,0.5-1.7,0.7c-0.1,0.1,0,0.5-0.1,0.5c-0.2,0.1-1.7,0-2.1,0c-1.2,0.1-4-0.3-3.7,1.5
				c0,0.2,0.2,0.2,0.2,0.5c0,0.3,0.1,0.4,0.1,0.4c0,0-0.1,0-0.3,0.2c-0.1,0.1-0.5,0.1-0.6,0.3c-0.6,0.7,0.3,0.9-0.4,1.4
				c-1,0.6-3-0.6-4,0.1c-0.9,0.6,0.3,2.3-1.3,2.4c-0.3,0-0.1,0.5,0.1,0.5c1.4,0.1,1.3-0.1,1.6-1.3c0.5-1.9,3.3-0.6,4.9-1
				c0.2-0.1,0.2-0.3,0.1-0.4c-0.4-0.7,0.1-1.1,0.7-1.4c0.2-0.1,0.2-0.3,0.1-0.4c-0.2-0.3-0.8-1.3-0.4-1.7c0.1-0.1,1.5-0.2,1.7-0.2
				c1.3-0.1,2.5-0.1,3.8-0.1c0.2,0,0.3-0.2,0.2-0.4c-0.2-0.4,1.4-0.7,1.8-0.7c0.1,0,0.2-0.2,0.2-0.3c-0.8-1.9,2.1-1.2,3.3-1
				c0.2,0,0.4-0.1,0.3-0.4c-0.2-0.6-1.6-1.3,0.1-1.5c0.3,0,0.8,0.1,1.3,0.3c0.8,1.3,2.1,2.6,3,3.1
				C160.2,220.1,161.4,219.7,160.5,218.4 M160,218.7c0.4,0.5-0.8,0.1-0.9,0c-0.7-0.3-1.1-1-1.5-1.6c0.3,0.2,0.7,0.4,0.9,0.5
				C159.1,217.9,159.6,218.2,160,218.7"/>
			<path class="st30" d="M131.5,230.6c-0.2-0.8-0.2-1.8,0.5-1.9c0.4,0,0.1-0.6-0.2-0.6c-1.1,0-1.4,0.9-1.2,2
				c-0.5-0.2-0.9-0.4-1.3-0.4c-0.7-0.1-1.1-0.1-1.4,0.5c-0.1,0.4,0.2,0.7,0.2,1.1c0,0.5,0.5,0.3-0.3,0.5c-0.2,0.1-0.7-0.1-1-0.1
				c-0.8,0-0.9,0-1.4,0.4c-0.5,0.4,0.8,0.6-0.8,0.4c-0.4-0.1-0.8-0.3-1.2-0.2c-0.6,0.1-0.9,0.3-0.8,0.9c0,0.3,0.6,0.6,0.6,0.8
				c0,1.3-1.4,0.2-2,0c-0.2-0.1-0.3,0-0.3,0.2c0,0.7,0.4,0.9-0.5,1c-0.1,0-0.8-0.4-1-0.4c-0.6,0-1.2,0.8-2,0.7
				c-0.2,0-0.3,0.2-0.2,0.4c0.2,0.6,0.5,1-0.7,1.5c0,0-1.4-0.2-1.4-0.2c-0.3,0-0.1,0.6,0.1,0.6c0.6,0,2.4,0.8,3,0.1
				c0.4-0.6-0.4-1.2-0.2-1.5c-0.1,0.2,1.1-0.3,1.2-0.4c0.2-0.1,0.7-0.3,0.9-0.3c0.2,0,0.3,0.3,0.5,0.3c0.2,0,0.5,0.1,0.7,0
				c0.2-0.1,0.3-0.4,0.3-0.4c0.2-0.1-0.3-0.3,0.1-0.5c0.3-0.1,0.6,0.2,0.9,0.3c0.5,0.1,1.1,0.5,1.5,0c0.5-0.6-0.4-1.1-0.3-1.5
				c0.2-1,1.6-0.2,2.2-0.7c0.1-0.1,0.1-0.2,0.1-0.3c-0.4-1.3,2-0.3,2.8-0.4c0.1,0,0.3-0.1,0.3-0.3c0-0.1-0.3-0.8-0.3-0.8
				c0.2-0.8,1.3-0.7,1.8-0.6c0.5,1.6,1.8,3.2,3.1,2.8c0.1,0,0.2-0.1,0.2-0.2C134,232.5,132.8,231.4,131.5,230.6 M132,231.9
				c0-0.1-0.1-0.2-0.2-0.4c0.5,0.3,0.9,0.7,1,1C133,233.3,132.1,232.2,132,231.9"/>
			<path class="st30" d="M152.6,239.2c-0.5-0.8-1.5-1.1-2.4-1.5c-0.3-0.2-0.7-0.4-1.1-0.6c-0.5-0.9-1.2-2.3-0.3-2.4
				c0.6-0.1,1.7,0.5,2.3,0.7c0.3,0.1,0.3-0.4,0-0.5c-1-0.4-3-1.7-3.4,0.1c-0.1,0.5,0,1,0.2,1.6c-0.5-0.2-1-0.3-1.5-0.3
				c-0.5,0-0.9,0.1-1.1,0.6c-0.1,0.3,0,0.5,0.1,0.7c0,0.4,0.4,0.5,0.5,0.5c-0.1,0-0.2,0-0.6,0c-0.7,0-2.7-0.5-3.2,0.4
				c-0.2,0.4,0.2,0.9,0.2,1c0,0.1-1.5,0.5-1.7,0.7c-0.1,0.1,0,0.5-0.1,0.5c-0.2,0.1-1.7,0-2.1,0c-1.2,0.1-4-0.3-3.7,1.5
				c0,0.2,0.2,0.2,0.2,0.5c0,0.3,0.1,0.4,0.1,0.4c0,0-0.1,0-0.3,0.2c-0.1,0.1-0.5,0.1-0.6,0.3c-0.6,0.7,0.3,0.9-0.4,1.4
				c-1,0.6-3-0.6-4,0.1c-0.9,0.6,0.3,2.3-1.3,2.4c-0.3,0-0.1,0.5,0.1,0.5c1.4,0.1,1.3-0.1,1.6-1.3c0.5-1.9,3.3-0.6,4.9-1
				c0.2-0.1,0.2-0.3,0.1-0.4c-0.4-0.7,0.1-1.1,0.7-1.4c0.2-0.1,0.2-0.3,0.1-0.4c-0.2-0.3-0.8-1.3-0.4-1.7c0.1-0.1,1.5-0.2,1.7-0.2
				c1.3-0.1,2.5-0.1,3.8-0.1c0.2,0,0.3-0.2,0.2-0.4c-0.2-0.4,1.4-0.7,1.8-0.7c0.1,0,0.2-0.2,0.2-0.3c-0.8-1.9,2.1-1.2,3.3-1
				c0.2,0,0.4-0.1,0.3-0.4c-0.2-0.6-1.6-1.3,0.1-1.5c0.3,0,0.8,0.1,1.3,0.3c0.8,1.3,2.1,2.6,3,3.1
				C152.3,240.9,153.4,240.5,152.6,239.2 M152.1,239.5c0.4,0.5-0.8,0.1-0.9,0c-0.7-0.3-1.1-1-1.5-1.6c0.3,0.2,0.7,0.4,0.9,0.5
				C151.2,238.7,151.6,239,152.1,239.5"/>
			<path class="st30" d="M170.4,224.4c-0.2-0.8-0.2-1.8,0.5-1.9c0.4,0,0.1-0.6-0.2-0.6c-1.1,0-1.4,0.9-1.2,2
				c-0.5-0.2-0.9-0.4-1.3-0.4c-0.7-0.1-1.1-0.1-1.4,0.5c-0.1,0.4,0.2,0.7,0.2,1.1c0,0.5,0.5,0.3-0.3,0.5c-0.2,0.1-0.7-0.1-1-0.1
				c-0.8,0-0.9,0-1.4,0.4c-0.5,0.4,0.8,0.6-0.8,0.4c-0.4-0.1-0.8-0.3-1.2-0.2c-0.6,0.1-0.9,0.3-0.8,0.9c0,0.3,0.6,0.6,0.6,0.8
				c0,1.3-1.4,0.2-2,0c-0.2-0.1-0.3,0-0.3,0.2c0,0.7,0.4,0.9-0.5,1c-0.1,0-0.8-0.4-1-0.4c-0.6,0-1.2,0.8-2,0.7
				c-0.2,0-0.3,0.2-0.2,0.4c0.2,0.6,0.5,1-0.7,1.5c0,0-1.4-0.2-1.4-0.2c-0.3,0-0.1,0.6,0.1,0.6c0.6,0,2.4,0.8,3,0.1
				c0.4-0.6-0.4-1.2-0.2-1.5c-0.1,0.2,1.1-0.3,1.2-0.4c0.2-0.1,0.7-0.3,0.9-0.3c0.2,0,0.3,0.3,0.5,0.3c0.2,0,0.5,0.1,0.7,0
				c0.2-0.1,0.3-0.4,0.3-0.4c0.2-0.1-0.3-0.3,0.1-0.5c0.3-0.1,0.6,0.2,0.9,0.3c0.5,0.1,1.1,0.5,1.5,0c0.5-0.6-0.4-1.1-0.3-1.5
				c0.2-1,1.6-0.2,2.2-0.7c0.1-0.1,0.1-0.2,0.1-0.3c-0.4-1.3,2-0.3,2.8-0.4c0.1,0,0.3-0.1,0.3-0.3c0-0.1-0.3-0.8-0.3-0.8
				c0.2-0.8,1.3-0.7,1.8-0.6c0.5,1.6,1.8,3.2,3.1,2.8c0.1,0,0.2-0.1,0.2-0.2C172.9,226.3,171.7,225.2,170.4,224.4 M170.9,225.8
				c0-0.1-0.1-0.2-0.2-0.4c0.5,0.3,0.9,0.7,1,1C172,227.1,171.1,226,170.9,225.8"/>
			<path class="st30" d="M157,253.5c-0.5-0.8-1.5-1.1-2.4-1.5c-0.3-0.2-0.7-0.4-1.1-0.6c-0.5-0.9-1.2-2.3-0.3-2.4
				c0.6-0.1,1.7,0.5,2.3,0.7c0.3,0.1,0.3-0.4,0-0.5c-1-0.4-3-1.7-3.4,0.1c-0.1,0.5,0,1,0.2,1.6c-0.5-0.2-1-0.3-1.5-0.3
				c-0.5,0-0.9,0.1-1.1,0.6c-0.1,0.3,0,0.5,0.1,0.7c0,0.4,0.4,0.5,0.5,0.5c-0.1,0-0.2,0-0.6,0c-0.7,0-2.7-0.5-3.2,0.4
				c-0.2,0.4,0.2,0.9,0.2,1c0,0.1-1.5,0.5-1.7,0.7c-0.1,0.1,0,0.5-0.1,0.5c-0.2,0.1-1.7,0-2.1,0c-1.2,0.1-4-0.3-3.7,1.5
				c0,0.2,0.2,0.2,0.2,0.5c0,0.3,0.1,0.4,0.1,0.4c0,0-0.1,0-0.3,0.2c-0.1,0.1-0.5,0.1-0.6,0.3c-0.6,0.7,0.3,0.9-0.4,1.4
				c-1,0.6-3-0.6-4,0.1c-0.9,0.6,0.3,2.3-1.3,2.4c-0.3,0-0.1,0.5,0.1,0.5c1.4,0.1,1.3-0.1,1.6-1.3c0.5-1.9,3.3-0.6,4.9-1
				c0.2-0.1,0.2-0.3,0.1-0.4c-0.4-0.7,0.1-1.1,0.7-1.4c0.2-0.1,0.2-0.3,0.1-0.4c-0.2-0.3-0.8-1.3-0.4-1.7c0.1-0.1,1.5-0.2,1.7-0.2
				c1.3-0.1,2.5-0.1,3.8-0.1c0.2,0,0.3-0.2,0.2-0.4c-0.2-0.4,1.4-0.7,1.8-0.7c0.1,0,0.2-0.2,0.2-0.3c-0.8-1.9,2.1-1.2,3.3-1
				c0.2,0,0.4-0.1,0.3-0.4c-0.2-0.6-1.6-1.3,0.1-1.5c0.3,0,0.8,0.1,1.3,0.3c0.8,1.3,2.1,2.6,3,3.1
				C156.7,255.2,157.9,254.8,157,253.5 M156.5,253.9c0.4,0.5-0.8,0.1-0.9,0c-0.7-0.3-1.1-1-1.5-1.6c0.3,0.2,0.7,0.4,0.9,0.5
				C155.6,253.1,156.1,253.3,156.5,253.9"/>
			<path class="st30" d="M171.1,240.1c-0.2-0.8-0.2-1.8,0.5-1.9c0.4,0,0.1-0.6-0.2-0.6c-1.1,0-1.4,0.9-1.2,2
				c-0.5-0.2-0.9-0.4-1.3-0.4c-0.7-0.1-1.1-0.1-1.4,0.5c-0.1,0.4,0.2,0.7,0.2,1.1c0,0.5,0.5,0.3-0.3,0.5c-0.2,0.1-0.7-0.1-1-0.1
				c-0.8,0-0.9,0-1.4,0.4c-0.5,0.4,0.8,0.6-0.8,0.4c-0.4-0.1-0.8-0.3-1.2-0.2c-0.6,0.1-0.9,0.3-0.8,0.9c0,0.3,0.6,0.6,0.6,0.8
				c0,1.3-1.4,0.2-2,0c-0.2-0.1-0.3,0-0.3,0.2c0,0.7,0.4,0.9-0.5,1c-0.1,0-0.8-0.4-1-0.4c-0.6,0-1.2,0.8-2,0.7
				c-0.2,0-0.3,0.2-0.2,0.4c0.2,0.6,0.5,1-0.7,1.5c0,0-1.4-0.2-1.4-0.2c-0.3,0-0.1,0.6,0.1,0.6c0.6,0,2.4,0.8,3,0.1
				c0.4-0.6-0.4-1.2-0.2-1.5c-0.1,0.2,1.1-0.3,1.2-0.4c0.2-0.1,0.7-0.3,0.9-0.3c0.2,0,0.3,0.3,0.5,0.3c0.2,0,0.5,0.1,0.7,0
				c0.2-0.1,0.3-0.4,0.3-0.4c0.2-0.1-0.3-0.3,0.1-0.5c0.3-0.1,0.6,0.2,0.9,0.3c0.5,0.1,1.1,0.5,1.5,0c0.5-0.6-0.4-1.1-0.3-1.5
				c0.2-1,1.6-0.2,2.2-0.7c0.1-0.1,0.1-0.2,0.1-0.3c-0.4-1.3,2-0.3,2.8-0.4c0.1,0,0.3-0.1,0.3-0.3c0-0.1-0.3-0.8-0.3-0.8
				c0.2-0.8,1.3-0.7,1.8-0.6c0.5,1.6,1.8,3.2,3.1,2.8c0.1,0,0.2-0.1,0.2-0.2C173.6,241.9,172.4,240.8,171.1,240.1 M171.6,241.4
				c0-0.1-0.1-0.2-0.2-0.4c0.5,0.3,0.9,0.7,1,1C172.7,242.8,171.8,241.6,171.6,241.4"/>
			<path class="st30" d="M187.3,229.2c0-0.1,0-0.2,0-0.3c-0.2-0.8-1.2-0.2-1.3,0.3c-0.1,0.4,0.2,0.7,0.2,1.1c0,0.5,0.5,0.3-0.3,0.5
				c-0.2,0.1-0.7-0.1-1-0.1c-0.8,0-0.9,0-1.4,0.4c-0.5,0.4,0.8,0.6-0.8,0.4c-0.4-0.1-0.8-0.3-1.2-0.2c-0.6,0.1-0.9,0.3-0.8,0.9
				c0,0.3,0.6,0.6,0.6,0.8c0,1.3-1.4,0.2-2,0c-0.2-0.1-0.3,0-0.3,0.2c0,0.7,0.4,0.9-0.5,1c-0.1,0-0.8-0.4-1-0.4
				c-0.6,0-1.2,0.8-2,0.7c-0.2,0-0.3,0.2-0.2,0.4c0.2,0.6,0.5,1-0.7,1.5c0,0-1.4-0.2-1.4-0.2c-0.3,0-0.1,0.6,0.1,0.6
				c0.6,0,2.4,0.8,3,0.1c0.4-0.6-0.4-1.2-0.2-1.5c-0.1,0.2,1.1-0.3,1.2-0.4c0.2-0.1,0.7-0.3,0.9-0.3c0.2,0,0.3,0.3,0.5,0.3
				c0.2,0,0.5,0.1,0.7,0c0.2-0.1,0.3-0.4,0.3-0.4c0.2-0.1-0.3-0.3,0.1-0.5c0.3-0.1,0.6,0.2,0.9,0.3c0.5,0.1,1.1,0.5,1.5,0
				c0.5-0.6-0.4-1.1-0.3-1.5c0.2-1,1.6-0.2,2.2-0.7c0.1-0.1,0.1-0.2,0.1-0.3c-0.4-1.3,2-0.3,2.8-0.4c0.1,0,0.3-0.1,0.3-0.3
				c-0.1-0.6-0.3-1-0.1-1.7C187.3,229.4,187.3,229.3,187.3,229.2"/>
		</g>
	</g>
</g>
<g>
	<defs>
		<rect id="SVGID_37_" x="10.6" y="-18.1" width="380.1" height="380.1"/>
	</defs>
	<clipPath id="SVGID_38_">
		<use xlink:href="#SVGID_37_"  style="overflow:visible;"/>
	</clipPath>
	<path class="st31" d="M90.6,67.8c3.5,4.2,9.4,10,12.7,14.1c1.7,2.2,2.7,4.9,2.7,7.7c0,2.1-0.6,3.8-2.6,2.9
		c-1.5-0.6-2.4-1.4-4.5-3.5c-1.9-1.9-11.2-10.6-11.2-10.6S85.9,67.7,83,66.9c-2.9-0.9-5.3-5.5-5.3-5.5
		C82.4,60.9,86.1,62.5,90.6,67.8"/>
	<path class="st32" d="M123,178.5l16.6,24.3c0.5,0.7,1.6,0.4,1.6-0.5l1.6-29.6L123,178.5z"/>
	<path class="st33" d="M141.2,202.4c0,0.9-1.2,1.2-1.6,0.5l-3.2-4.8c1.8,0.4,3.7-0.2,4.9-1.6l0.3-0.4L141.2,202.4z"/>
	<path class="st34" d="M109.5,53l0.7,2.6l0.9,3.2l31.8,114c-1.4,3-4.2,5.1-7.3,6.3c-4.7,1.8-10.1,1.6-12.6-0.6L91.4,65.4l-1.7-6.1
		C91.1,63.2,110.7,56.9,109.5,53"/>
	<path class="st35" d="M112.3,63l1.6,5.9c0.5,1.7-2.8,3.8-6.9,5.3c-5.4,2.1-12.2,3.1-12.9,0.9L93,70.8l-0.4-1.6
		c0.7,2.2,7.5,1.2,12.9-0.9c3.9-1.5,7.1-3.5,6.9-5.1l0,0C112.3,63.1,112.3,63.1,112.3,63"/>
	<path class="st34" d="M112.7,64.5c1.2,3.9-18.5,10.1-19.7,6.2l-1.6-5.9c1.2,3.9,21-2.3,19.7-6.2L112.7,64.5z"/>
	<path class="st35" d="M109.5,53l1.6,5.8c1.2,3.8-17.7,10-19.6,6.6c0-0.1-0.1-0.1-0.1-0.2l-1.6-5.9C91.1,63.2,110.7,56.9,109.5,53"
		/>
	<g class="st36">
		<g>
			<defs>
				<rect id="SVGID_39_" x="89.8" y="59.3" width="49.8" height="143.5"/>
			</defs>
			<clipPath id="SVGID_40_">
				<use xlink:href="#SVGID_39_"  style="overflow:visible;"/>
			</clipPath>
			<path class="st37" d="M91.4,65.4l-1.7-6.1c0.6,1.7,4.9,1.4,9.4,0.2l0,0l32.7,120.6l7.8,22.8L123,178.5l0,0h0L91.4,65.4z"/>
		</g>
	</g>
	<path class="st31" d="M102.6,28.4l6.9,24.6c0.5,1.7-2.7,3.8-6.8,5.3c-5.4,2.1-12.2,3.2-12.9,1c0,0,0,0,0,0l-6.6-23.7
		c-2-5.4,7.8-10.7,14.3-10.3C99.9,25.5,101.8,26.4,102.6,28.4"/>
	<path class="st33" d="M73.7,57.5L73.7,57.5c-7.7,0-13.9-6.2-13.9-13.9v-0.8c0-6.5,5.3-11.8,11.8-11.8h4.2c6.5,0,11.8,5.3,11.8,11.8
		v0.8C87.6,51.3,81.4,57.5,73.7,57.5"/>
	<path class="st33" d="M54.2,58.9L54.2,58.9c3.5,0,6.3-2.8,6.3-6.3V40c-3.5,0-6.3,2.8-6.3,6.3V58.9z"/>
	<path class="st33" d="M88,195c1.6,1.8,3.4,3.2,5.3,4.6c0.3,0.2,0.6,0.4,0.7,0.8c0.3,0.5,0.6,1.8-1.7,2.6c-2.3,0.8-5.2,0.6-7.3-0.7
		c-1.9-1.2-2-3.8-3.9-5.2c-1.4-1.1-3.1-1.3-4.2-2.7c-0.8-1-0.6-2.3-0.2-3.9c0.4-1.8,0.6-3.1,1.2-2.9l-0.1,0.8
		c0.7,1.2,4.5,1.5,6.1,0.7C84.1,189.1,87,193.9,88,195"/>
	<path class="st32" d="M89.7,196.7C89.7,196.7,89.7,196.7,89.7,196.7c-0.6-0.5-1.1-1.1-1.6-1.6c-0.7-0.7-2.1-3-3.1-4.5
		c-0.6-0.9-1.3-2.1-1.3-3.3c0-1.6,0.1-4.3,0.1-4.3l-5.6-0.4l-0.3,5.8v0c-0.1,1.3,0.9,2.5,2.9,4.2c1.9,1.7,4.4,5.6,6.1,6.5
		c1.8,1,3,0.9,3.8,0.4C91.5,199,91.5,198.6,89.7,196.7"/>
	<path class="st33" d="M69.5,200.6c1.6,1.8,3.4,3.2,5.3,4.6c0.3,0.2,0.6,0.4,0.7,0.8c0.3,0.5,0.6,1.8-1.7,2.6
		c-2.3,0.8-5.2,0.6-7.3-0.7c-1.9-1.2-2-3.8-3.9-5.2c-1.4-1.1-3.1-1.3-4.2-2.7c-0.8-1-0.6-2.3-0.2-3.9c0.4-1.8,0.6-3.1,1.2-2.9
		l-0.1,0.8c0.7,1.2,4.5,1.5,6.1,0.7C65.6,194.6,68.4,199.4,69.5,200.6"/>
	<path class="st32" d="M71.1,202.2C71.1,202.2,71.1,202.2,71.1,202.2c-0.6-0.5-1.1-1.1-1.6-1.6c-0.7-0.7-2.1-3-3.1-4.5
		c-0.6-0.9-1.2-2.1-1.3-3.4c-0.1-1.4,0-4.2,0-4.2l-5.6,0l-0.1,5.4v0c-0.1,1.3,0.9,2.5,2.9,4.2c1.9,1.7,4.4,5.6,6.1,6.5
		c1.8,1,3,0.9,3.8,0.4C73,204.6,73,204.2,71.1,202.2"/>
	<path class="st38" d="M59.5,98.5c-4.8,10.6,0.7,50.7,0.7,50.7c-0.1,1.7-1.7,4.4-1.8,9.6c-0.2,6.7,1,31.6,1,31.6s2.9,1.8,6.3,0.1
		c0,0,5.7-33.8,6.9-42.6c1-7.8,2.9-26,2.9-26l3.9,25.9c0,0-2,4.3-2.1,8.2c-0.1,5.2,0.6,29.6,0.6,29.6s2.3,0.8,6.4,0.2
		c0,0,5.8-32.9,6.4-39.2c0.3-3.8-2.5-49.8-2.5-49.8L59.5,98.5z"/>
	<path class="st33" d="M75.3,121.9l1.6-8.7c0,0,6.7-1.4,9.7-4.2c0,0-3.2,3.9-7.9,5.2l-1.8,7.6l1.7,22.6L75.3,121.9z"/>
	<path class="st39" d="M68.9,61.7L68.9,61.7c-4.3,0.6-6.5,1.5-7.9,5.5c-0.9,2.6-0.7,6.5,0.2,9.1L65,87.1c0,0-3.7,5.7-5.5,11.4
		c10.9,6.1,25.3,2.8,28.6-1.6c0.1-0.9-0.7-5.5-0.5-10.3c0.3-5.1,1.1-11,0.3-14.2c-1.5-5.9-5.6-9.7-10.2-11L68.9,61.7z"/>
	<path class="st32" d="M83,36.7c1.5,0.9,3.3,4.6,3.1,12.3c-0.2,6.6-2.3,8.2-3.3,8.7c-1.1,0.5-3.1,0.2-5.1-0.2v3.9c0,0,2.8,3.2,2.6,5
		c-0.2,1.8-4,2.2-6.6,0.5c-2.6-1.8-4.3-4.5-4.3-4.5v-9.5c0,0-1.4,1.8-3.6,0.3c-2.2-1.5-2.3-5.1-1-6.4c1.3-1.3,4.1-0.9,4.6,0.9
		c0,0,3.2,0.1,7.4-2.2C81.1,43.2,82.8,39.2,83,36.7"/>
	<path class="st33" d="M78.8,47.3c0,0.5-0.3,0.9-0.8,0.9c-0.5,0-0.8-0.3-0.9-0.8c0-0.5,0.3-0.9,0.8-0.9
		C78.4,46.5,78.8,46.9,78.8,47.3"/>
	<path class="st31" d="M79,52.9l1.9,0.6c-0.2,0.5-0.7,0.9-1.2,0.7C79.2,54,78.9,53.4,79,52.9"/>
	<path class="st33" d="M85.6,44.8l-1.7-1.2c0.3-0.5,0.9-0.6,1.4-0.3C85.8,43.7,85.9,44.3,85.6,44.8"/>
	<path class="st33" d="M85.2,46.7c0,0.5-0.3,0.9-0.8,0.9c-0.5,0-0.8-0.3-0.9-0.8c0-0.5,0.3-0.9,0.8-0.9
		C84.8,45.9,85.2,46.3,85.2,46.7"/>
	<polygon class="st31" points="81.3,46.3 81.4,51.2 84.1,50.4 	"/>
	<path class="st31" d="M77.7,57.5c-2.1-0.3-6.5-1.5-7.1-3.2c0,0,0.2,1.1,1.5,2.2c1.3,1.1,5.6,2.4,5.6,2.4V57.5z"/>
	<path class="st32" d="M111.1,93.6c-1.3,0.5-2.6,0.5-4.3,1.4c-1.6,0.7-2.2,1-3.8,1.1c-1.7,0.1-6.6-2-10.8-4
		c-5-2.3-10.4-6.6-12.4-8.9c-4.2-4.7-7.7-10.6-9.6-13.8c-1.5-2.6-3.1-6.4-5.5-6.8c-4.2,0.4-5.9,7.7-3.2,12.2
		c2.7,4.5,7.5,10.4,12.7,15.4c2.5,2.4,7.1,5,13.6,7.8c4.9,2.1,8.9,3.4,13.2,4.5c1.3,0.3,2.2,0.8,4.7,1.7c1,0.3,2.1,0.7,3.1,0.8
		c1.3,0,2.7-0.1,4-0.4c1.6-0.4,3.2-1.2,4.3-2.4c0.6-0.7,1.2-1.4,1.4-2.3c0.3-0.9,0.3-1.9-0.1-2.7c-0.1-0.2-0.2-0.3-0.3-0.5
		c-0.3-0.2-0.6-0.2-1-0.1c-1.9,0.3-3.8,0.8-5.7,0.9c-1.6,0.1-2.7-0.1-2.5-0.4c0.2-0.2,1.1-0.2,2.3-0.9c1.2-0.7,1.9-2,1.5-2.6
		C112.3,93,112.4,93.2,111.1,93.6"/>
	<path class="st32" d="M114.6,76.1c0,0-1.7-1.4-5-0.8c-1.6,0.3-1,6.3,4.1,8c3.3,1.1,4,0.5,5.1,3.3c0,0,2-0.4,1.5-3.5
		c-0.5-3.1-1.8-5.9-4.1-8.5c-1.5-1.7-1.6-3.2-2.3-2.7c-0.8,0.6-0.3,2-0.3,2L114.6,76.1z"/>
</g>
<g>
	<defs>
		<rect id="SVGID_41_" x="10.6" y="-18.1" width="380.1" height="380.1"/>
	</defs>
	<clipPath id="SVGID_42_">
		<use xlink:href="#SVGID_41_"  style="overflow:visible;"/>
	</clipPath>
	<path class="st40" d="M326,108.6c-12.2-4.5-31.7-4.5-43.5,0c-11.8,4.5-11.8,11.8,0,16.3c11.8,4.5,31.3,4.5,43.5,0
		C338.2,120.4,338.2,113.1,326,108.6"/>
	<path class="st41" d="M336.2,88.9l-63.5,0.1l4.8,74.8h0.1c0.3,2.7,2.8,5.4,7.7,7.5c10.3,4.4,27.4,4.4,38.1,0c5-2.1,7.6-4.8,8-7.5
		h0.1L336.2,88.9z"/>
	<path class="st42" d="M272.7,88.9l1,15.2c1.5,1,3.2,2,5.3,2.8c13.7,5.7,36.4,5.7,50.6,0c0.6-0.2,1.1-0.5,1.7-0.8
		c2.3-1.1,4-2.2,4-2.2l1-15.1L272.7,88.9z"/>
	<path class="st43" d="M340.2,91.1V79.6h-7.4c-1-0.5-2.1-1-3.3-1.5c-14.2-5.7-36.8-5.7-50.6,0c-1.1,0.5-2.2,1-3.1,1.5h-7.2v11.4
		c0,3.7,3.4,7.4,10.3,10.3c13.7,5.7,36.4,5.7,50.6,0C336.6,98.5,340.2,94.8,340.2,91.1"/>
	<path class="st43" d="M329.5,69.3c-14.2-5.7-36.8-5.7-50.6,0c-13.7,5.7-13.7,14.9,0,20.6c13.7,5.7,36.4,5.7,50.6,0
		C343.7,84.2,343.7,75,329.5,69.3"/>
	<g class="st44">
		<g>
			<defs>
				<rect id="SVGID_43_" x="268.7" y="65.1" width="71.5" height="29.1"/>
			</defs>
			<clipPath id="SVGID_44_">
				<use xlink:href="#SVGID_43_"  style="overflow:visible;"/>
			</clipPath>
			<path class="st45" d="M329.5,69.3c-14.2-5.7-36.8-5.7-50.6,0c-13.7,5.7-13.7,14.9,0,20.6c13.7,5.7,36.4,5.7,50.6,0
				C343.7,84.2,343.7,75,329.5,69.3"/>
		</g>
	</g>
	<path class="st43" d="M331,76.4L331,76.4L328.2,66h-47.6l-2.9,10.5h0c-1.1,3,1.4,6.1,7.5,8.4c10.3,3.9,27.3,3.9,38,0
		C329.6,82.5,332.2,79.4,331,76.4"/>
	<path class="st43" d="M321.2,60.7c-9.5-3.5-24.6-3.5-33.8,0c-9.2,3.5-9.2,9.1,0,12.5c9.2,3.5,24.3,3.5,33.8,0
		C330.7,69.7,330.7,64.1,321.2,60.7"/>
	<g class="st44">
		<g>
			<defs>
				<rect id="SVGID_45_" x="280.5" y="58.1" width="47.8" height="17.7"/>
			</defs>
			<clipPath id="SVGID_46_">
				<use xlink:href="#SVGID_45_"  style="overflow:visible;"/>
			</clipPath>
			<path class="st46" d="M321.2,60.7c-9.5-3.5-24.6-3.5-33.8,0c-9.2,3.5-9.2,9.1,0,12.5c9.2,3.5,24.3,3.5,33.8,0
				C330.7,69.7,330.7,64.1,321.2,60.7"/>
		</g>
	</g>
	<path class="st43" d="M325,66.9c0,0.1-0.3,0.6-1.1,1.2c-0.7,0.6-2,1.3-3.9,2c-4.2,1.5-10,2.4-15.9,2.4s-11.6-0.9-15.6-2.4
		c-1.9-0.7-3.1-1.4-3.8-2c-0.8-0.6-1-1.1-1-1.2c0-0.2,0.8-1.7,4.7-3.2c4-1.5,9.7-2.4,15.6-2.4s11.7,0.9,15.9,2.4
		C324,65.2,325,66.6,325,66.9"/>
	<g class="st47">
		<g>
			<defs>
				<rect id="SVGID_47_" x="284.8" y="63.7" width="39.2" height="8.7"/>
			</defs>
			<clipPath id="SVGID_48_">
				<use xlink:href="#SVGID_47_"  style="overflow:visible;"/>
			</clipPath>
			<path class="st48" d="M324,68.1c-0.7,0.6-2,1.3-3.9,2c-4.2,1.5-10,2.4-15.9,2.4c-5.9,0-11.6-0.9-15.6-2.4c-1.9-0.7-3.1-1.4-3.8-2
				c0.7-0.6,1.9-1.3,3.8-2c4-1.5,9.7-2.4,15.6-2.4c5.9,0,11.7,0.9,15.9,2.4C322,66.8,323.2,67.5,324,68.1"/>
		</g>
	</g>
	<path class="st40" d="M314.5,68.3c1.4-0.8,3.1-1.1,3.8-0.7c0.7,0.4,0.1,1.3-1.3,2.1c-1.4,0.8-3.1,1.1-3.8,0.7
		C312.5,70.1,313.1,69.1,314.5,68.3"/>
	<path class="st49" d="M275.4,143.9c0,2.8,2.8,5.6,8.3,7.7c11.1,4.2,29.5,4.2,41,0c5.7-2.1,8.6-4.9,8.6-7.7l1.8-27.1
		c0,2.9-3.1,5.9-9.2,8.1c-12.2,4.5-31.7,4.5-43.5,0c-5.9-2.3-8.9-5.2-8.9-8.1L275.4,143.9z"/>
	<path class="st40" d="M300.6,145.5c-1-1.4-1.6-3.1-2.4-4.6c-1.7-3-4-5-7.1-6.2c-0.4-0.2-0.9,0-1.1,0.4c-1.5,3.1-0.6,7.5,2.6,10.7
		c3.2,3.2,7.5,4.1,10.6,2.7c0.2-0.1,0.2-0.4,0.1-0.5C302.2,147.3,301.3,146.5,300.6,145.5"/>
	<path class="st40" d="M292.7,133.8c1.6,0.6,3.2,1.6,4.5,2.8c1.4,1.2,2.5,2.8,3.2,4.4c1.2,2.5,2.3,4.1,4.1,5.4
		c0.4,0.3,1,0.2,1.2-0.2c2.1-3.2,1.3-8-2.2-11.4c-3.3-3.3-7.8-4.2-10.9-2.5C292,132.6,292.1,133.5,292.7,133.8"/>
</g>
<rect x="10.6" y="-18.1" class="st0" width="380.1" height="380.1"/>
<rect x="10.6" y="-18.1" class="st0" width="380.1" height="380.1"/>
</svg>
