<svg id="Layer_1" data-name="Layer 1" xmlns="http://www.w3.org/2000/svg" viewBox="0 0 401.2 343.9"><defs><style>.cls-1{fill:none;}.cls-2{fill:#95a6db;}.cls-3{fill:#cfdaff;}.cls-4{fill:#c4d2ff;}.cls-5{fill:#b8c9ff;}.cls-6{fill:#c2d1ff;}.cls-7{fill:#cfdbff;}.cls-8{fill:#fff;}.cls-9{fill:#3f964f;}.cls-10{fill:#78a5ff;}.cls-11{fill:#9cc2ff;}.cls-12{fill:#6397ff;}.cls-13{fill:#2c2858;}.cls-14{fill:#aa62cc;}.cls-15{fill:#0e6a41;}.cls-16{fill:#d48fff;}.cls-17{fill:#32186c;}.cls-18{fill:#0c5c38;}.cls-19{fill:#e62552;}.cls-20{fill:#e3eaff;}.cls-21{fill:#f37a50;}.cls-22{fill:#de623c;}.cls-23{fill:#201d40;}.cls-24{fill:#18161a;}.cls-25{fill:#062440;}.cls-26{fill:#d4deff;}.cls-27{fill:#768fdb;}.cls-28{fill:#494c7f;}.cls-29{fill:#c4204a;}.cls-30{fill:#4661b3;}.cls-31{fill:#55ab65;}.cls-32{fill:#f5a3b7;}.cls-33{fill:#8cbf95;}.cls-34{fill:#2bbf86;}.cls-35{fill:#f56;}</style></defs><title>lab</title><rect class="cls-1" x="10.6" y="-18.1" width="380.1" height="380.1"/><rect class="cls-1" x="154.3" y="199.4" width="4.9" height="2.9"/><rect class="cls-1" x="10.6" y="-18.1" width="380.1" height="380.1"/><rect class="cls-1" x="10.6" y="-18.1" width="380.1" height="380.1"/><rect class="cls-1" x="10.6" y="-18.1" width="380.1" height="380.1"/><rect class="cls-1" x="10.6" y="-18.1" width="380.1" height="380.1"/><path class="cls-2" d="M388.42,277.19H47.59A2.18,2.18,0,0,1,45.41,275h0a2.18,2.18,0,0,1,2.18-2.18H388.42A2.18,2.18,0,0,1,390.6,275h0A2.18,2.18,0,0,1,388.42,277.19Z"/><rect class="cls-3" x="317.42" y="101.67" width="73.18" height="3.45"/><rect class="cls-3" x="317.42" y="138.38" width="73.18" height="3.45"/><rect class="cls-3" x="317.42" y="175.09" width="73.18" height="97.88"/><path class="cls-4" d="M386,268.79H322V180.45h64Zm-62.39-1.57h60.83V182H323.59Z"/><rect class="cls-3" x="386.96" y="101.67" width="3.64" height="75.14"/><rect class="cls-3" x="317.42" y="101.67" width="3.64" height="75.14"/><rect class="cls-4" x="353.13" y="182.01" width="1.76" height="85.22"/><circle class="cls-4" cx="359.53" cy="230.15" r="2.3"/><circle class="cls-4" cx="348.44" cy="230.15" r="2.3"/><path class="cls-4" d="M383.34,158.85h-4.09v-1.62h.24a.57.57,0,0,0,.57-.57v-.33a.57.57,0,0,0-.57-.57h-3.24a.57.57,0,0,0-.57.57v.33a.57.57,0,0,0,.57.57h.26v1.62h-3.05v-1.62h.24a.57.57,0,0,0,.57-.57v-.33a.57.57,0,0,0-.57-.57h-3.24a.57.57,0,0,0-.57.57v.33a.57.57,0,0,0,.57.57h.26v1.62h-3.05v-1.62h.24a.57.57,0,0,0,.57-.57v-.33a.57.57,0,0,0-.57-.57h-3.24a.57.57,0,0,0-.57.57v.33a.57.57,0,0,0,.57.57h.26v1.62h-4.7a.29.29,0,1,0,0,.57h1.3v14.69h-.76a.54.54,0,1,0,0,1.07h22.06a.54.54,0,1,0,0-1.07H382V159.42h1.3a.29.29,0,1,0,0-.57Zm-1.8,15.26H362V159.42h2.9v12.35a1.37,1.37,0,0,0,2.74,0V159.42h3.05v12.35a1.37,1.37,0,0,0,2.74,0V159.42h3.05v12.35a1.37,1.37,0,0,0,2.74,0V159.42h2.29Z"/><path class="cls-5" d="M348.16,122h-4.09v-1.62h.24a.57.57,0,0,0,.57-.57v-.33a.57.57,0,0,0-.57-.57h-3.24a.57.57,0,0,0-.57.57v.33a.57.57,0,0,0,.57.57h.26V122h-3.05v-1.62h.24a.57.57,0,0,0,.57-.57v-.33a.57.57,0,0,0-.57-.57h-3.24a.57.57,0,0,0-.57.57v.33a.57.57,0,0,0,.57.57h.26V122h-3.05v-1.62h.24a.57.57,0,0,0,.57-.57v-.33a.57.57,0,0,0-.57-.57h-3.24a.57.57,0,0,0-.57.57v.33a.57.57,0,0,0,.57.57h.26V122H325a.29.29,0,1,0,0,.57h1.3v14.69h-.76a.54.54,0,0,0,0,1.07h22.06a.54.54,0,1,0,0-1.07h-.76V122.62h1.3a.29.29,0,1,0,0-.57Zm-1.8,15.26H326.83V122.62h2.9V135a1.37,1.37,0,0,0,2.74,0V122.62h3.05V135a1.37,1.37,0,0,0,2.74,0V122.62h3.05V135a1.37,1.37,0,0,0,2.74,0V122.62h2.29Z"/><path class="cls-5" d="M376.57,136.71,371.29,128v-3.16a.47.47,0,0,0,.47-.47v-.08a.47.47,0,0,0-.47-.47h-2.81a.47.47,0,0,0-.47.47v.08a.47.47,0,0,0,.47.47V128l-5.28,8.75a1.11,1.11,0,0,0,1,1.67h11.46A1.11,1.11,0,0,0,376.57,136.71Z"/><path class="cls-4" d="M368.44,136.65l-5.36-9v-6.81a.47.47,0,0,0,.47-.47v-.1a.47.47,0,0,0-.47-.47h-2.85a.47.47,0,0,0-.47.47v.1a.47.47,0,0,0,.47.47v6.81l-5.36,9a1.14,1.14,0,0,0,1,1.73h11.62A1.14,1.14,0,0,0,368.44,136.65Z"/><path class="cls-4" d="M386.14,136.23l-5.9-11.28v-8.49a.52.52,0,0,0,.52-.52v-.26a.52.52,0,0,0-.52-.52H377.1a.52.52,0,0,0-.52.52v.26a.52.52,0,0,0,.52.52v8.49l-5.9,11.28a1.44,1.44,0,0,0,1.07,2.15h12.8A1.44,1.44,0,0,0,386.14,136.23Z"/><rect class="cls-3" x="251.4" y="135.17" width="66.78" height="2.75"/><rect class="cls-3" x="251.4" y="164.45" width="66.78" height="2.75"/><rect class="cls-6" x="271.41" y="143.94" width="5.33" height="20.5"/><rect class="cls-7" x="276.65" y="145.58" width="3.85" height="18.86"/><rect class="cls-7" x="267.56" y="147.69" width="3.85" height="16.75"/><rect class="cls-7" x="263.81" y="146.25" width="3.85" height="18.19"/><rect class="cls-7" x="257.17" y="146.64" width="2.6" height="18.19" transform="translate(97.33 -99.4) rotate(26.65)"/><rect class="cls-6" x="255.61" y="117.66" width="4.56" height="17.53"/><rect class="cls-6" x="260.09" y="119.06" width="3.3" height="16.13"/><rect class="cls-6" x="280.46" y="117.66" width="4.56" height="17.53" transform="translate(565.48 252.84) rotate(180)"/><rect class="cls-6" x="301.49" y="117.66" width="4.56" height="17.53" transform="translate(607.54 252.84) rotate(180)"/><rect class="cls-6" x="311.43" y="117.67" width="2.99" height="17.53" transform="translate(564.63 351.27) rotate(-160.23)"/><rect class="cls-6" x="293.59" y="121.71" width="3.35" height="13.48" transform="translate(590.52 256.9) rotate(180)"/><rect class="cls-7" x="291.5" y="118.41" width="2.11" height="16.77" transform="translate(585.1 253.6) rotate(180)"/><rect class="cls-7" x="277.24" y="119.06" width="3.3" height="16.13" transform="translate(557.78 254.24) rotate(180)"/><rect class="cls-7" x="285.01" y="120.86" width="3.3" height="14.33" transform="translate(573.32 256.05) rotate(180)"/><rect class="cls-7" x="288.22" y="119.63" width="3.3" height="15.56" transform="translate(579.74 254.82) rotate(180)"/><rect class="cls-7" x="296.93" y="115.79" width="4.58" height="19.4" transform="translate(598.44 250.98) rotate(180)"/><rect class="cls-6" x="265.48" y="119" width="2.67" height="16.13" transform="translate(-24.88 79.64) rotate(-16.23)"/><rect class="cls-8" x="11.13" y="165.39" width="18.37" height="0.66" transform="translate(-85.67 36.71) rotate(-32.42)"/><rect class="cls-8" x="13.73" y="168.44" width="17.89" height="0.66" transform="translate(-86.91 38.43) rotate(-32.41)"/><rect class="cls-8" x="17.23" y="171.92" width="14.44" height="0.66" transform="translate(-88.53 39.95) rotate(-32.42)"/><rect class="cls-8" x="22.4" y="175.08" width="8.41" height="0.66" transform="translate(-89.86 41.57) rotate(-32.41)"/><rect class="cls-8" x="25.65" y="181.7" width="10.05" height="0.66" transform="translate(-92.8 44.81) rotate(-32.42)"/><rect class="cls-8" x="24.75" y="184.96" width="16" height="0.66" transform="translate(-94.23 46.43) rotate(-32.42)"/><rect class="cls-8" x="25.62" y="188.23" width="18.37" height="0.66" transform="translate(-95.66 48.04) rotate(-32.42)"/><rect class="cls-8" x="27.7" y="191.49" width="18.37" height="0.66" transform="translate(-97.08 49.66) rotate(-32.42)"/><rect class="cls-8" x="30.31" y="194.75" width="17.29" height="0.66" transform="translate(-98.51 51.28) rotate(-32.42)"/><rect class="cls-8" x="34.75" y="198.01" width="12.55" height="0.66" transform="translate(-99.93 52.9) rotate(-32.42)"/><rect class="cls-8" x="40.94" y="201.18" width="4.48" height="0.66" transform="translate(-101.27 54.52) rotate(-32.4)"/><rect class="cls-8" x="42.44" y="204.45" width="5.62" height="0.66" transform="matrix(0.84, -0.54, 0.54, 0.84, -102.7, 56.14)"/><rect class="cls-8" x="40.86" y="207.88" width="12.51" height="0.66" transform="translate(-104.27 57.7) rotate(-32.42)"/><rect class="cls-8" x="40.89" y="211.06" width="16.84" height="0.66" transform="translate(-105.64 59.37) rotate(-32.42)"/><rect class="cls-8" x="42.19" y="214.33" width="18.37" height="0.66" transform="translate(-107.06 60.99) rotate(-32.42)"/><path class="cls-9" d="M26.77,177.14c-11.94-.88-14-8.76-14.13-9.07a1,1,0,1,0-2,.47c.1.39,2.42,9.64,15.92,10.63,9.52.71,13.21,1.82,16.42,6.95l.3.48c3.21,5.12,2.58,8.95-.9,17.81-5,12.56,2.31,18.7,2.63,19a1,1,0,0,0,1.17.08.93.93,0,0,0,.24-.23,1,1,0,0,0-.14-1.41c0-.07-6.47-5.45-2-16.68,3.44-8.68,4.63-13.44.75-19.62l-.3-.48C40.94,178.82,36.09,177.84,26.77,177.14Z"/><path class="cls-9" d="M30,177c5-12.56-2.32-18.71-2.63-19a1,1,0,1,0-1.27,1.55c.27.23,6.44,5.53,2,16.68-3.43,8.69-4.63,13.46-.76,19.63l.3.48c3.87,6.18,8.69,7.18,18,7.86,11.93.9,14,8.75,14.14,9.08a1,1,0,0,0,1.21.74.93.93,0,0,0,.31-.12,1,1,0,0,0,.44-1.09c-.09-.4-2.42-9.64-15.92-10.63-9.52-.71-13.21-1.83-16.42-6.95l-.3-.48C25.87,189.73,26.49,185.91,30,177Z"/><rect class="cls-10" x="35.61" y="80.56" width="211.17" height="106.62" rx="7.26" ry="7.26"/><path class="cls-11" d="M210.56,158.82H206V150.6a2.26,2.26,0,0,1,2.26-2.26h0a2.26,2.26,0,0,1,2.26,2.26Z"/><path class="cls-11" d="M222.92,158.82H218.4V145.62a2.26,2.26,0,0,1,2.26-2.26h0a2.26,2.26,0,0,1,2.26,2.26Z"/><path class="cls-11" d="M216.89,158.82h-4.52V140.5a2.26,2.26,0,0,1,2.26-2.26h0a2.26,2.26,0,0,1,2.26,2.26Z"/><path class="cls-11" d="M230,158.82h-4.47V134.49a2.24,2.24,0,0,1,2.24-2.24h0a2.24,2.24,0,0,1,2.24,2.24Z"/><path class="cls-11" d="M237.56,158.82h-4.47V128.18a2.24,2.24,0,0,1,2.24-2.24h0a2.24,2.24,0,0,1,2.24,2.24Z"/><path class="cls-11" d="M204,141.69a.72.72,0,0,1-.46-1.28l10.26-8.5a.72.72,0,0,1,.91,0l4.53,3.65,12.14-13.28a.72.72,0,0,1,1.07,1L219.83,137a.72.72,0,0,1-1,.08l-4.6-3.7-9.8,8.12A.72.72,0,0,1,204,141.69Z"/><polygon class="cls-11" points="232.5 126.06 231.29 123.42 228.55 122.45 234.8 119.58 232.5 126.06"/><rect class="cls-8" x="107.08" y="87.12" width="76.08" height="45.39" rx="19.03" ry="19.03"/><path class="cls-11" d="M180.09,133.24H172.7a.76.76,0,1,1,0-1.47h7.39a.88.88,0,0,1,1,.73.86.86,0,0,1-1,.74Zm-14.78,0h-7.39a.76.76,0,1,1,0-1.47h7.39a.76.76,0,1,1,0,1.47Zm-14.78,0h-7.39a.76.76,0,1,1,0-1.47h7.39a.76.76,0,1,1,0,1.47Zm-14.78,0h-7.39a.76.76,0,1,1,0-1.47h7.39a.76.76,0,1,1,0,1.47Zm-14.78,0h-7.39a.76.76,0,1,1,0-1.47H121a.76.76,0,1,1,0,1.47Zm-13.78-1.68a1,1,0,0,1-.92-.53,2.41,2.41,0,0,1-.17-.87v-5a1,1,0,0,1,1.93,0v5a1.26,1.26,0,0,0,.09.46c.15.39-.14.8-.65.91A1.24,1.24,0,0,1,107.2,131.57Zm76-2.63a.87.87,0,0,1-1-.74v-5.63a1,1,0,0,1,1.93,0v5.63A.87.87,0,0,1,183.16,128.94Zm-76.08-8.63a.87.87,0,0,1-1-.74v-5.63a1,1,0,0,1,1.93,0v5.63A.87.87,0,0,1,107.08,120.31Zm76.08-2.63a.87.87,0,0,1-1-.74v-5.63a1,1,0,0,1,1.93,0v5.63A.87.87,0,0,1,183.16,117.68ZM107.08,109a.87.87,0,0,1-1-.73v-5.63a1,1,0,0,1,1.93,0v5.63A.87.87,0,0,1,107.08,109Zm76.08-2.63a.87.87,0,0,1-1-.74V100a1,1,0,0,1,1.93,0v5.63A.87.87,0,0,1,183.16,106.41Zm-76.08-8.63a.87.87,0,0,1-1-.74V91.42a1,1,0,0,1,1.93,0V97A.87.87,0,0,1,107.08,97.78Zm76.08-2.63a.87.87,0,0,1-1-.74v-5a1.26,1.26,0,0,0-.09-.46c-.15-.39.14-.8.65-.91a1,1,0,0,1,1.2.49,2.41,2.41,0,0,1,.17.88v5A.87.87,0,0,1,183.16,95.15Zm-6.52-7.3h-7.39a.76.76,0,1,1,0-1.47h7.39a.76.76,0,1,1,0,1.47Zm-14.78,0h-7.39a.76.76,0,1,1,0-1.47h7.39a.76.76,0,1,1,0,1.47Zm-14.78,0H139.7a.76.76,0,1,1,0-1.47h7.39a.76.76,0,1,1,0,1.47Zm-14.78,0h-7.39a.76.76,0,1,1,0-1.47h7.39a.76.76,0,1,1,0,1.47Zm-14.78,0h-7.38a.76.76,0,1,1,0-1.47h7.39a.76.76,0,1,1,0,1.47Z"/><path class="cls-9" d="M125.65,103.44s5.1-5.94,5.41-5.94h6.26l3.41,5.91L136.9,110a.29.29,0,0,0,0,.29l4.06,7a.29.29,0,0,0,.25.14h7.62l3.64,6.31a.29.29,0,0,0,.25.14h8.12a.29.29,0,0,0,.25-.14l3.64-6.31h7.52a.29.29,0,0,0,.25-.14l4.06-7a.29.29,0,0,0,0-.29l-3.66-6.34,4.67-5.81a.72.72,0,0,0-1.12-.9l-4.72,5.88h-7.59a.29.29,0,0,0-.25.14l-3.64,6.31h-7L149.58,103a.29.29,0,0,0-.25-.14h-7.26l-3.7-6.41a.72.72,0,0,0-.64-.38h-7.19l-6,6.46a.72.72,0,0,0,1.1.92ZM171.59,116h-6.7l-3.44-6,3.35-5.8h6.79l3.39,5.88Zm-21.6.58,3.39-5.88h6.7l3.44,6-3.35,5.8h-6.79Zm-11.51-6.46,3.39-5.88h6.79l3.39,5.88L148.66,116h-6.79Z"/><path class="cls-9" d="M149,108.94a.72.72,0,0,1,.62-.36.71.71,0,0,1,.36.1.72.72,0,0,1,.26,1L147.2,115a.72.72,0,0,1-1.24-.72Z"/><path class="cls-9" d="M169.45,114.12l3-5.26a.73.73,0,0,1,.62-.36.71.71,0,0,1,.36.1.72.72,0,0,1,.26,1l-3,5.26a.72.72,0,0,1-1.25-.72Z"/><path class="cls-9" d="M116.09,105.83v-2.78a.58.58,0,0,1,1.17,0v4.42a.54.54,0,0,1-.6.6,1,1,0,0,1-.69-.46l-2.29-2.89v2.76a.58.58,0,0,1-1.17,0v-4.42a.56.56,0,0,1,.58-.6c.27,0,.43.1.7.44Z"/><path class="cls-9" d="M121.89,103.05a.62.62,0,0,1,1.25,0v4.44a.62.62,0,0,1-1.25,0V105.8h-2v1.69a.62.62,0,0,1-1.25,0v-4.44a.62.62,0,0,1,1.25,0v1.58h2Z"/><path class="cls-9" d="M126.33,107.79a1.21,1.21,0,0,1,1,1.26,1.43,1.43,0,0,1-.5,1.16,1.89,1.89,0,0,1-1.28.44,1.94,1.94,0,0,1-1.37-.44.59.59,0,0,1-.11-.8.55.55,0,0,1,.77-.11,1.17,1.17,0,0,0,.64.22c.43,0,.66-.22.66-.51s-.23-.59-.7-.59a.55.55,0,0,1-.62-.56.53.53,0,0,1,.59-.56.5.5,0,0,0,.53-.53.43.43,0,0,0-.48-.44,1.06,1.06,0,0,0-.53.14.54.54,0,0,1-.76-.15.57.57,0,0,1,.16-.76,2,2,0,0,1,1.24-.35,1.75,1.75,0,0,1,1.14.36,1.22,1.22,0,0,1,.44,1A1.23,1.23,0,0,1,126.33,107.79Z"/><rect class="cls-11" x="39.65" y="104.21" width="46.56" height="32.28" rx="13.54" ry="13.54"/><rect class="cls-10" x="42.19" y="110.24" width="37.09" height="4.87" rx="2.04" ry="2.04"/><rect class="cls-10" x="42.19" y="119.08" width="22.38" height="2.44" rx="1.02" ry="1.02"/><rect class="cls-10" x="42.19" y="128.89" width="15.97" height="2.44" rx="1.02" ry="1.02"/><rect class="cls-10" x="42.19" y="123.68" width="27.09" height="2.44" rx="1.02" ry="1.02"/><path class="cls-12" d="M85.46,110a10.42,10.42,0,0,1-1.07-.05,10.24,10.24,0,0,1-9.13-11.23,1.78,1.78,0,1,1,3.54.36,6.67,6.67,0,1,0,3.52-5.22,1.78,1.78,0,1,1-1.67-3.14A10.23,10.23,0,1,1,85.46,110Z"/><circle class="cls-12" cx="85.45" cy="99.76" r="3.23"/><rect class="cls-12" x="126.11" y="139.2" width="33.5" height="25.83" rx="10.83" ry="10.83"/><rect class="cls-11" x="115.39" y="144.56" width="32.59" height="25.13" rx="10.54" ry="10.54"/><path class="cls-13" d="M119.11,149.68l-6.44-6.44H95.85a.42.42,0,0,1,0-.85H113l6.69,6.69a.42.42,0,0,1-.6.6Z"/><path class="cls-13" d="M106.75,141.12h-11a.42.42,0,1,1,0-.85h11a.42.42,0,1,1,0,.85Z"/><path class="cls-13" d="M114.54,175.61l6.66-.17,5.71-6a.42.42,0,1,0-.61-.58l-5.47,5.76-6.31.16a.42.42,0,0,0,0,.85Z"/><path class="cls-14" d="M118.57,157.46a11.07,11.07,0,0,0,2,6.37h0A11,11,0,0,1,118.57,157.46Z"/><path class="cls-14" d="M131.3,146.46c.32,0,.63.1.94.17C131.93,146.56,131.62,146.5,131.3,146.46Z"/><path class="cls-14" d="M126.12,168l-.18-.06q.44.16.9.28l-.12,0Z"/><path class="cls-14" d="M125.13,167.58l-.44-.2q.47.24,1,.43l-.14-.06Z"/><path class="cls-14" d="M133.8,147.12a11.11,11.11,0,0,1,1.07.49A11.07,11.07,0,0,0,133.8,147.12Z"/><path class="cls-15" d="M137.44,157.46h3.39a11.13,11.13,0,0,0-5.9-9.82l-1.6,3A7.73,7.73,0,0,1,137.44,157.46Z"/><path class="cls-14" d="M129.7,146.33a11.13,11.13,0,0,0-11.13,11.13A11.18,11.18,0,0,1,129.7,146.33Z"/><path class="cls-14" d="M132.59,146.72q.46.12.92.29Q133.05,146.84,132.59,146.72Z"/><path class="cls-14" d="M129.7,146.33a11.12,11.12,0,0,1,1.27.08A11.2,11.2,0,0,0,129.7,146.33Z"/><path class="cls-14" d="M124.52,167.3a11.17,11.17,0,0,1-1.09-.65A11.16,11.16,0,0,0,124.52,167.3Z"/><path class="cls-14" d="M123.37,166.6a11.12,11.12,0,0,1-.89-.69A11.14,11.14,0,0,0,123.37,166.6Z"/><path class="cls-14" d="M129.7,168.59a11.13,11.13,0,0,0,11.13-11.13A11.18,11.18,0,0,1,129.7,168.59Z"/><path class="cls-14" d="M128.43,168.51a11.21,11.21,0,0,0,1.27.08,11,11,0,0,1-1.25-.08Z"/><path class="cls-14" d="M127.25,168.3h-.07c.31.07.62.13.93.17H128C127.77,168.41,127.51,168.36,127.25,168.3Z"/><path class="cls-14" d="M121.3,164.75q-.31-.35-.59-.74C120.9,164.26,121.1,164.51,121.3,164.75Z"/><path class="cls-14" d="M122.19,165.66q-.32-.29-.61-.6C121.78,165.26,122,165.46,122.19,165.66Z"/><path class="cls-16" d="M133.5,147l.3.11Z"/><path class="cls-16" d="M132.24,146.63l.35.09Z"/><path class="cls-16" d="M134.93,147.63l-.07,0,.07,0Z"/><path class="cls-16" d="M131,146.41l.33.05Z"/><path class="cls-16" d="M126.12,168l.6.19Z"/><path class="cls-16" d="M129.7,168.59a11.12,11.12,0,0,1-1.25-.08A11,11,0,0,0,129.7,168.59Z"/><path class="cls-9" d="M123.36,161.89c-4.64-6.54,2.91-15.08,10-11.26l1.6-3c-10.16-5.48-21,6.82-14.33,16.18Z"/><path class="cls-16" d="M125.13,167.58l.38.17Z"/><path class="cls-16" d="M127.25,168.3c.26.06.52.1.78.14C127.77,168.41,127.51,168.36,127.25,168.3Z"/><path class="cls-17" d="M121.58,165.05l-.28-.31Z"/><path class="cls-17" d="M122.47,165.91l-.28-.25Z"/><path class="cls-17" d="M123.43,166.65l-.07,0Z"/><path class="cls-17" d="M128.43,168.51l-.32,0Z"/><path class="cls-17" d="M124.69,167.38l-.17-.08Z"/><path class="cls-17" d="M127.18,168.29l-.33-.09Z"/><path class="cls-17" d="M125.94,167.92l-.29-.11Z"/><path class="cls-17" d="M120.58,163.83l.14.18-.13-.18Z"/><path class="cls-17" d="M120.6,163.82h0l.13.18q.28.38.59.74l.28.31q.3.31.61.6l.28.25a11.12,11.12,0,0,0,.89.69l.07,0a11.17,11.17,0,0,0,1.09.65l.17.08.44.2A11.28,11.28,0,0,1,120.6,163.82Z"/><path class="cls-17" d="M128,168.45h.08l.32,0h0Z"/><path class="cls-17" d="M125.51,167.75l.14.06.29.11.18.06Z"/><path class="cls-17" d="M126.72,168.16l.12,0,.33.09h.07Z"/><path class="cls-18" d="M140.83,157.46h-3.39c.15,7.46-10,10.55-14.07,4.43l-2.76,1.93C126.67,172.68,140.89,168.19,140.83,157.46Z"/><path class="cls-12" d="M246.79,87.82v18.9H191.46a3.77,3.77,0,0,1-3.77-3.77V80.56h51.84A7.26,7.26,0,0,1,246.79,87.82Z"/><path class="cls-11" d="M193.45,66.71h63.13a3.77,3.77,0,0,1,3.77,3.77v30.19a3.77,3.77,0,0,1-3.77,3.77H193.45a3.78,3.78,0,0,1-3.78-3.78V70.49A3.77,3.77,0,0,1,193.45,66.71Z"/><path class="cls-10" d="M260.35,70.49v5.58H189.67V70.49a3.77,3.77,0,0,1,3.77-3.78h63.13A3.77,3.77,0,0,1,260.35,70.49Z"/><circle class="cls-19" cx="196.24" cy="71.67" r="3.02"/><circle class="cls-11" cx="204.82" cy="71.67" r="3.02"/><circle class="cls-11" cx="213.4" cy="71.67" r="3.02"/><rect class="cls-20" x="195.08" y="81.62" width="14.41" height="14.41" rx="6.04" ry="6.04"/><rect class="cls-20" x="217.26" y="81.62" width="14.41" height="14.41" rx="6.04" ry="6.04"/><rect class="cls-20" x="239.44" y="81.62" width="14.41" height="14.41" rx="6.04" ry="6.04"/><path class="cls-3" d="M191.86,166l7.32-3.22c.61.79,9.06,3.06,12.7,20.35.76,3.61-5.34,13.43-9.11,16.42S197,196,197,196l5.29-12.26Z"/><path d="M185.15,264.34c-3.66,5.14-12.64,2-12.34,8.95,13.66-.09,19.33,0,19.33,0a52,52,0,0,0-.6-6.88Z"/><path d="M206.34,264.34c-3.66,5.14-12.64,2-12.34,8.95,13.66-.09,19.33,0,19.33,0a52,52,0,0,0-.6-6.88Z"/><polygon class="cls-21" points="192.67 162.89 185.13 162.28 184.4 154.86 191.05 151.31 192.67 162.89"/><path class="cls-21" d="M184.83,139.59c-4,0-7.06,3.67-7.78,7.61-1.29,7.13,2.92,11.72,4,12.11,2.1.73,6.64-1.55,6.64-1.55S193,153,193,150C193,146,188.83,139.59,184.83,139.59Z"/><path class="cls-13" d="M197.15,146.42c1.88-2.88.52-4.77-2-5.75s-2.85-2.23-3.9-3.92-5.62-3.3-7.75-.82c-3.16,3.7-3.81.65-6.58,3.41a5.26,5.26,0,0,0-.81,6.91c1.05,1.36,3.56-1.07,3.39.71-.14,1.39,1.91,1.43,2.58,2.85.5,1.08,1.39,1.52,1.25,2.2-.27,1.32-1.29,3.26,1.4,5.13,1.53,1.06,2.4-.48,4.11.53,3.25,1.93,4.39-.39,6.17-2.3s4-1.8,2.21-5A3.37,3.37,0,0,1,197.15,146.42Z"/><ellipse class="cls-21" cx="182.94" cy="150.14" rx="2.26" ry="1.85" transform="translate(-44.6 215.21) rotate(-55.33)"/><path class="cls-22" d="M182.74,151.41a.27.27,0,0,1-.12,0,1.23,1.23,0,0,1-.54-1.41,1.31,1.31,0,0,1,1.22-.9.27.27,0,0,1,0,.54.78.78,0,0,0-.7.53.7.7,0,0,0,.34.8.27.27,0,0,1-.2.49Z"/><path class="cls-23" d="M201,207s3.53,17.65,5.78,30.17c2.34,3.91,7.06,23.61,7,29.76l-10.2-.73s-6.2-18.24-7.73-24.05c-1.91-7.24-6.25-17.39-8.16-32l-.46-4.07Z"/><path class="cls-13" d="M179.69,211.57l12.6.51-1.41,25.85c1.4,4.25,3.09,23.34,1.69,29.26L182,266.44S176.27,228.94,179.69,211.57Z"/><path class="cls-8" d="M180.11,161.42s17.35-.35,19.52,1.69c8.08,7.61,2,31.57,9.74,67.91-2.32-.81-10.26-6.48-20-2.22-6.48,2.84-10.91,4-16.65,1.94-2.63-22.63,4.76-52.85,4.76-52.85Z"/><path class="cls-21" d="M147.48,168.45c1.12.07,2.51-.49,2.94.52l2.21-1.08.13-1.33c-1.9-3-6.54-3.91-7-4-1.19-.1-1.75-.23-1.84-.07s-.39,1.22,1.35,1.43c2.17.26.73,2-3.68.34-1.1-.41-3.18.12-2.43.93S142.37,168.14,147.48,168.45Z"/><path class="cls-8" d="M149.57,169c.48,3.35,5.81,18.61,10.24,20.56,2.54-1.89,3.27-6.17,2.54-9.17-1.36-5.62-9.59-13.82-9.59-13.82Z"/><path class="cls-8" d="M180.21,161.44s4.91,2,2.34,8.42-15.42,23-23,19.57C155.07,180.73,176.39,161.17,180.21,161.44Z"/><path class="cls-8" d="M182.82,161.55a16.19,16.19,0,0,1,10.28-2.35,6.68,6.68,0,0,1,.53,2.7Z"/><path class="cls-21" d="M105.89,148.84c-.82,1-1.46,2.15-3.15,2.12,0,0-1.45,3.82-3,6.81l-1.71-5.43a22.44,22.44,0,0,0,2.35-4.81c.1-.37.19-.74.29-1.11a4.39,4.39,0,0,1,1.32-2.65c1.54-1.32,3.28-3.86,3.64-3.93.62-.15.4,1.7-.56,2.62-1.53,1.47-1,2.12-1,2.12s1.61.38,1.91,1.14C106.14,146.06,106.85,147.69,105.89,148.84Z"/><path class="cls-21" d="M80.09,232.9l-8.64.32a97.08,97.08,0,0,0-2.08,12.6c-.38,4.79,1.25,12.66,1.25,18.9,0,1.15-.81,3-.94,3.84-.49,3.15,8.63,1.54,8.63,1.54-.57-.29-3-3.51-3.07-4.61C75,261.85,76.49,253.24,78,245.8,79.29,239.2,80.09,232.9,80.09,232.9Z"/><path class="cls-21" d="M55.48,229.26S53.72,240,53.27,245.79c-.38,4.79.7,11.84.7,18.08,0,1.15-.81,3-.94,3.84-.49,3.15,1.36.85,2.24,1.73a2,2,0,0,0,2.13.33l4.72.1s-.17-.25-1.18-.64a11.46,11.46,0,0,1-2.34-4.59c-.36-13.09,11-34.18,11-34.18Z"/><path class="cls-24" d="M58.19,269.32c-1.79.16-3-1-4.4-1.93.06,1.07,0,1.5,0,2.57a6.27,6.27,0,0,1,1.53,1.47.9.9,0,0,0,.66.37l4.09.32S58.77,269.26,58.19,269.32Z"/><path class="cls-19" d="M60.82,269.16s-.1.18-.43.08A16.44,16.44,0,0,1,56.87,267c-1-.7-2.31-1.78-3.16-1.68-.62.07-1.62,1.58-1.46,3a3,3,0,0,0,.85,1.78,9.3,9.3,0,0,1,1,3.08l.7,0s0-4.18,2.2-3.22c1.59.69,1.95,2.44,3.36,2.1,1.15-.37,2.54-1.1,2.3-1.93C62.49,269.68,62,269.53,60.82,269.16Z"/><path class="cls-24" d="M74.85,270.17c-1.79.16-3-1-4.4-1.93.06,1.07,0,1.5,0,2.57A6.28,6.28,0,0,1,72,272.29a.9.9,0,0,0,.66.37l4.46.26S75.43,270.12,74.85,270.17Z"/><path class="cls-19" d="M79.23,270.43a7.81,7.81,0,0,1-1-.35c-1.1.36-3.21-1.12-4.75-2.2-1-.7-2.35-1.8-3.2-1.7-.62.07-1.51,2.08-1.64,3a4.12,4.12,0,0,0,.47,2.07c.51,1.26,1.12,2.88,1.12,2.88l.7,0s0-4.18,2.2-3.22c1.59.69,1.8,2,3.79,2.06S82.45,271.51,79.23,270.43Z"/><path class="cls-21" d="M71.85,144.54a7.49,7.49,0,0,0-2.8-3.17l-.29-.09-12.12,2.66s4.61,9.31,4.85,9.54,7.29,7,7.29,7,3.51.88,4.83-2.08C76,153,73,146.83,71.85,144.54Z"/><path class="cls-3" d="M61.59,172.61l-8.09,1.17c-.28.7-3.79,12.79-2.95,15.45s6.67,8.67,10,10.07,3.5-3.78,3.5-3.78l-6.39-7.83Z"/><path class="cls-8" d="M87.67,203.25c-1.59-9.83-4.2-14.56-4.2-14.56-.74-5.06-1.16-14.12-2.61-17.26l-9.31-9.08-14.06,1.57s3.4,30.39,3.46,30.44c-5,8.57-7,17.23-8.8,22.37C49.41,224.5,43,232,43,232c6.25-2.5,14.8,5.68,21.95,6.58a49,49,0,0,0,15.31-.8,9.16,9.16,0,0,1,7.56,2.62C88.18,239.8,90,217.79,87.67,203.25Z"/><path class="cls-8" d="M98.76,148.34l-9.51,15.73S78.92,162.22,76,162c-4-.29-4.84.6-4.84.6s.81,11.89,7.26,12.2c-.46-1,12.1-1.6,15.76-4s9-17.4,9-17.63C99.34,150.76,98.76,148.34,98.76,148.34Z"/><path class="cls-25" d="M67.11,138.72c-3.47.65-8.24-3.2-13.07.81-6.33,5.26-1.27,11.71-5.83,15.57-3.91,3.31-18.57,9.58-9.53,17.32C35.17,173.53,33,183.12,43,183c-.83,2.86,4.79,9.22,13.64,2,4.7,7,12.72-3.13,12.54-9.86a25.36,25.36,0,0,0-1.94-7.84c6.73,3.6,4.79-11,2.83-17.89C72,149.2,77.67,136.75,67.11,138.72Z"/><circle class="cls-8" cx="20.32" cy="241.6" r="4.95" transform="translate(-203.48 148.35) rotate(-62.57)"/><circle class="cls-8" cx="29.94" cy="234.35" r="2.74" transform="translate(-191.86 152.98) rotate(-62.57)"/><circle class="cls-8" cx="351.75" cy="112.68" r="2.74" transform="translate(89.72 373) rotate(-62.58)"/><circle class="cls-8" cx="59.28" cy="87.86" r="2.74" transform="translate(-46 100.01) rotate(-62.57)"/><circle class="cls-8" cx="26.99" cy="123.68" r="2.74" transform="translate(-95.22 90.67) rotate(-62.58)"/><circle class="cls-8" cx="310.32" cy="76.07" r="2.74" transform="matrix(0.46, -0.89, 0.89, 0.46, 99.87, 316.47)"/><path class="cls-8" d="M34.4,136.38a3.56,3.56,0,1,1,2.32-4.46,3.56,3.56,0,0,1-2.32,4.46Zm.63,2a5.66,5.66,0,1,0-7.1-3.68,5.66,5.66,0,0,0,7.1,3.68Z"/><path class="cls-8" d="M258.59,179.89a2.33,2.33,0,1,1,1.51-2.92,2.33,2.33,0,0,1-1.51,2.92Zm.41,1.31a3.7,3.7,0,1,0-4.64-2.41A3.7,3.7,0,0,0,259,181.2Z"/><path class="cls-8" d="M142.88,241.09a2.33,2.33,0,1,1,1.52-2.92,2.33,2.33,0,0,1-1.52,2.92Zm.41,1.31a3.7,3.7,0,1,0-4.64-2.41,3.7,3.7,0,0,0,4.64,2.41Z"/><path class="cls-8" d="M302.08,91.45a3.46,3.46,0,1,1,2.26-4.35,3.47,3.47,0,0,1-2.26,4.35Zm.62,1.95a5.51,5.51,0,1,0-6.91-3.59,5.51,5.51,0,0,0,6.91,3.59Z"/><path class="cls-8" d="M303.37,194a2.78,2.78,0,1,1,1.81-3.49,2.78,2.78,0,0,1-1.81,3.49Zm.49,1.56a4.42,4.42,0,1,0-5.54-2.88,4.42,4.42,0,0,0,5.54,2.88Z"/><path class="cls-3" d="M314.57,163c-3.52,1.2-15,21.88-15,21.88l8.86.58,9.49-9.62Z"/><path d="M326.42,265.25c-3.28,4.37-11.33,1.69-11.06,7.6,12.24-.08,17.33,0,17.33,0a42,42,0,0,0-.54-5.85Z"/><path d="M344.74,265.37c-3.28,4.37-11.33,1.69-11.06,7.6,12.24-.08,17.33,0,17.33,0a42,42,0,0,0-.54-5.85Z"/><path class="cls-23" d="M319.38,198.3s-2,28.17-1.16,34.41,5,14.26,4.69,34.87c4,1,9.77,0,9.77,0s.86-23.31-3.36-33.72c1.72-10.11,7.22-33.27,7.22-33.27Z"/><path class="cls-13" d="M331.53,199.29s.18,31.11,2.15,37.07,5.78,10.23,9.34,30.53c4.1.2,10,.28,10,.28s-2.1-26.1-8.49-32C344.32,225,347,199.09,347,199.09Z"/><polygon class="cls-2" points="321.67 158.72 326.97 156.97 332.55 157.23 328.04 164.66 321.67 158.72"/><path class="cls-21" d="M323.57,162.18A7.35,7.35,0,0,0,331.8,161l-1.06-8.37L323,153.81Z"/><path class="cls-2" d="M334.61,159.82h0l-1.75-.27-.3-2.32-3.63,4.6-1.21.49-1.3-.15-4.73-3.45L322,161l-1.35.61h0l-4.92,2,5.89,28.49.18,9.47A49.42,49.42,0,0,0,344,199l-2.47-9.63-1.05-28.92Z"/><polygon class="cls-19" points="326.74 165.44 327.61 187.88 329.86 190.03 331.85 187.8 328.46 165.31 326.74 165.44"/><polygon class="cls-19" points="325.1 162.87 327.09 162.21 329.4 162.43 328.47 165.35 326.75 165.52 325.1 162.87"/><path class="cls-8" d="M321.34,159.8l3,25.12L324,219.64s-1,2.43-5,0L314.51,163Z"/><polygon class="cls-26" points="321.43 159.52 324.6 186.66 318.24 166.04 321.43 159.52"/><path class="cls-8" d="M332.73,157.47l5.16,62.46s11.67,2.6,15.13-.29L347.49,193l-7.31-35.64Z"/><polygon class="cls-26" points="332.63 157.39 334.98 184.73 337.31 162.74 332.63 157.39"/><ellipse class="cls-21" cx="324.23" cy="145.96" rx="8.33" ry="10.6" transform="translate(-1.56 3.52) rotate(-0.62)"/><circle cx="318.11" cy="147.19" r="0.86" transform="translate(-31.21 176.08) rotate(-29.56)"/><circle cx="324.12" cy="146.17" r="0.87" transform="translate(96.92 419.66) rotate(-74.56)"/><path class="cls-22" d="M320.35,146.6c-.29,1.51-.68,3.36-.68,3.36a2.34,2.34,0,0,0,2.64.47c-.83,0-1.72-.23-1.8-1.29S320.35,146.6,320.35,146.6Z"/><path class="cls-13" d="M325.75,144.74a.4.4,0,0,1-.49,0s-.87-.7-1.59-.17a.4.4,0,0,1-.47-.64,2.13,2.13,0,0,1,2.57.2.4.4,0,0,1,.05.56Z"/><path class="cls-13" d="M316.45,146.7a.4.4,0,0,0,.44-.23s.48-1,1.35-.85a.4.4,0,1,0,.15-.78,2.13,2.13,0,0,0-2.23,1.3.4.4,0,0,0,.2.53Z"/><path class="cls-13" d="M331.75,146.29c-.7-2-2.3-1-3.42-3.55s-2.07-4.5-4.43-3.18-3.17.94-4.39.7c-3.67-.72-3.61,5.25-3.61,5.25s-3.46-4-1.53-7.08c2.13-3.4,3.38-1.69,5.5-4.29s6.38-2.84,7.75-1.48,2,2.63,4.8,3,4.66,2,3.35,5.28,2.94,3.84.08,7.44c-1.11,1.4-3.5,2.48-4.08,2.1C331,150,332.21,147.59,331.75,146.29Z"/><path class="cls-13" d="M316.31,149.17a13,13,0,0,0,1.87,3.38c-.09-1.35,2.06-.58,3-.86,2.23-.67,5-3,6.82,0,2.93-.34,3-6.83,3-6.83,2.9,6.08.29,11.36-6.63,13.24C319.81,159.3,316.28,154,316.31,149.17Z"/><ellipse class="cls-21" cx="332.38" cy="146.15" rx="2.58" ry="2.11" transform="translate(39.42 360.66) rotate(-59.95)"/><path class="cls-22" d="M332.27,147.62a.31.31,0,0,1-.14,0,1.41,1.41,0,0,1-.75-1.56,1.5,1.5,0,0,1,1.31-1.14.31.31,0,0,1,0,.62.89.89,0,0,0-.75.67.8.8,0,0,0,.46.88.31.31,0,0,1-.18.58Z"/><path class="cls-22" d="M323,153.54a3.06,3.06,0,0,1-.55.2,3.79,3.79,0,0,1-2.69-.42.34.34,0,0,1,.36-.58h0a3.14,3.14,0,0,0,2.17.34,3.08,3.08,0,0,0,1.86-1.58.34.34,0,1,1,.59.34A4,4,0,0,1,323,153.54Z"/><polygon class="cls-8" points="327.09 162.21 331.42 165.27 333.74 158.77 332.55 157.23 327.09 162.21"/><polygon class="cls-8" points="327.09 162.21 324.42 165.76 320.94 160.52 321.67 158.72 327.09 162.21"/><g id="с"><path id="с-2" data-name="с" class="cls-27" d="M269.75,239.76h3.86a0,0,0,0,1,0,0v32.17a1.62,1.62,0,0,1-1.62,1.62h-.62a1.62,1.62,0,0,1-1.62-1.62V239.76A0,0,0,0,1,269.75,239.76Z"/><path id="с-3" data-name="с" class="cls-27" d="M283.3,239.76h3.86a0,0,0,0,1,0,0v32.17a1.62,1.62,0,0,1-1.62,1.62h-.62a1.62,1.62,0,0,1-1.62-1.62V239.76A0,0,0,0,1,283.3,239.76Z"/><path id="с-4" data-name="с" class="cls-27" d="M304.93,271.74a1.87,1.87,0,0,1-1.93,1.81h0a1.87,1.87,0,0,1-1.93-1.81v-32h3.86Z"/><path id="с-5" data-name="с" class="cls-27" d="M314.62,239.76h3.86a0,0,0,0,1,0,0v32.17a1.62,1.62,0,0,1-1.62,1.62h-.62a1.62,1.62,0,0,1-1.62-1.62V239.76A0,0,0,0,1,314.62,239.76Z"/><path id="с-6" data-name="с" class="cls-2" d="M295.19,189V229.7a.84.84,0,0,1-.84.84H269.11a4.61,4.61,0,0,0-4.61,4.61h0a4.61,4.61,0,0,0,4.61,4.61H299.8a4.61,4.61,0,0,0,4.61-4.61V189a4.61,4.61,0,0,0-4.61-4.61h0A4.61,4.61,0,0,0,295.19,189Z"/><rect id="с-7" data-name="с" class="cls-2" x="299.8" y="184.38" width="19.95" height="46.9"/><path id="с-8" data-name="с" class="cls-27" d="M315.14,189V229.7a.84.84,0,0,1-.84.84H289.07a4.61,4.61,0,0,0-4.61,4.61h0a4.61,4.61,0,0,0,4.61,4.61h30.69a4.61,4.61,0,0,0,4.61-4.61V189a4.61,4.61,0,0,0-4.61-4.61h0A4.61,4.61,0,0,0,315.14,189Z"/></g><g id="c"><path class="cls-3" d="M283.66,182.66c-5.09,1.54-7.62,12.25-9.78,23.46-2.93,3.84-6.06,5.95-10.65,10.48a15.72,15.72,0,0,0,6.4-.12s8.45.07,12.11-7.92c.84-1.83,1.12-5.51,1.6-7.14C283.55,196.29,283.66,182.66,283.66,182.66Z"/><path class="cls-21" d="M253.91,268l-4.58,1.16-1.87-4.08a27.7,27.7,0,0,0,.68-4.92l7.39,1A55.9,55.9,0,0,1,253.91,268Z"/><path class="cls-23" d="M245.83,270.43s-1.58-2.66-3.59-2.83c0,0-3.79.22-5.12,1.81-.42.5-.26,1.57-.09,2.25.1.43.46.89,1.58,1.24,1.65.52,3.88.84,8-.23,4.93-1.28,5.72-.75,7.54-1.34s1.28-2.92.77-5.16C254.91,266.18,253.53,268.93,245.83,270.43Z"/><path class="cls-13" d="M247.34,264.71a19.16,19.16,0,0,1-5.08,2c-1.61.37-5.9,1.2-5.21,4.06.1.43.46.89,1.58,1.24,1.65.52,3.88.84,8-.23,4.93-1.28,5.72-.75,7.54-1.34s1-3.23.5-5.47h0c0,.57-.31,2.07-3.73,3.41C249.91,268.77,250.75,264.27,247.34,264.71Z"/><path class="cls-28" d="M248,268.15a.39.39,0,0,1-.35-.29,2.06,2.06,0,0,0-1.85-1.5.39.39,0,0,1,0-.78,2.82,2.82,0,0,1,2.57,2.09.39.39,0,0,1-.28.47Z"/><path class="cls-28" d="M246.17,268.88a.39.39,0,0,1-.35-.29,2.06,2.06,0,0,0-1.85-1.5.39.39,0,0,1,0-.78,2.82,2.82,0,0,1,2.57,2.09.39.39,0,0,1-.28.47Z"/><path class="cls-21" d="M271.81,269.75l-4.49,1.48-2.15-3.94a17.84,17.84,0,0,0,.87-5.09l6.91.64A55.89,55.89,0,0,1,271.81,269.75Z"/><path class="cls-23" d="M279.25,218.67c-10.23,1.87-24.76,8.5-26.2,10-3,3.11-4.41,13.83-5.81,32.9l9,.6c3.31-14.9,6.41-21.4,6.92-27.45,0,0,7.85.54,19.65-4,5.82-2.25,11.89-4.87,10.14-10.12C291.53,216.39,289,216.89,279.25,218.67Z"/><path class="cls-13" d="M290.7,219.56c-8.5.88-19.84,10.61-21.27,12.11-3,3.11-3.33,13.75-4.73,32.83l8.91.82c1.44-9.88,5.66-21.21,5.65-28.46,0,0,8-1.73,20.32-4.51,6.75-1.52,8.78-2.57,10.07-7,.44-1.5,1-5,.36-5.75C307,216.19,298.74,218.73,290.7,219.56Z"/><path class="cls-23" d="M263.91,272.72s-1.77-2.55-3.78-2.57c0,0-3.76.48-5,2.17-.38.53-.15,1.58.07,2.25.13.42.53.85,1.67,1.13,1.69.4,3.93.56,8-.79,4.83-1.62,5.65-1.15,7.42-1.87s1.07-3,.4-5.2C272.67,267.84,271.49,270.68,263.91,272.72Z"/><path class="cls-13" d="M265,266.9a19.17,19.17,0,0,1-4.92,2.34c-1.58.48-5.8,1.61-4.91,4.42.13.42.53.86,1.67,1.13,1.69.4,3.93.56,8-.79,4.83-1.62,5.65-1.15,7.42-1.87s.79-3.29.12-5.5h0c0,.57-.16,2.08-3.49,3.66C267.87,270.78,268.38,266.22,265,266.9Z"/><path class="cls-28" d="M266.65,270.45a.39.39,0,0,1-.35-.29,2.06,2.06,0,0,0-1.85-1.5.39.39,0,0,1,0-.78A2.82,2.82,0,0,1,267,270a.39.39,0,0,1-.28.47Z"/><path class="cls-28" d="M264.84,271.17a.39.39,0,0,1-.35-.29,2.06,2.06,0,0,0-1.85-1.5.39.39,0,0,1,0-.78,2.82,2.82,0,0,1,2.57,2.09.39.39,0,0,1-.28.47Z"/><polygon id="v-2" class="cls-21" points="296.31 174.09 296.31 174.09 292.92 174.1 292.15 182.12 296.11 184.21 300.33 182.14 299.64 174.1 296.31 174.09"/><path class="cls-13" d="M296.63,173c3,.84,5.18-2.8,5.18-2.8a1.86,1.86,0,0,0,1.89-1.92,2.43,2.43,0,0,0,2.14-2.64c-.1-1.48-1.51-1.63-1.43-3.33.07-1.36,1.54-4.5-2.7-5.43a3.47,3.47,0,0,0-2.19-3.51c-3-1.23-4.12.55-5.55.67-1.6.14-4.7-1.8-5.69,1.7a4.29,4.29,0,0,0-3.48,1.15,3.78,3.78,0,0,0-.4,4.15,3.6,3.6,0,0,0-2.53,1.94,3.16,3.16,0,0,0,.77,3.48,3.29,3.29,0,0,0,1.31.71c.7.23.45,2.17,1,2.64a14.77,14.77,0,0,0,3,1.87Z"/><path class="cls-21" d="M302.19,168.25c-.2,5.61-4.59,10.45-9,10.3s-7.16-5.24-7-10.86,3.93-10,8.34-9.89S302.39,162.64,302.19,168.25Z"/><circle cx="288.05" cy="169.54" r="0.77" transform="translate(49.72 403.89) rotate(-75)"/><circle cx="294.33" cy="169.29" r="0.83" transform="translate(54.62 409.77) rotate(-75)"/><path class="cls-22" d="M291.24,169.71c-.7,1.12-1.58,2.49-1.58,2.49a2,2,0,0,0,2,1.2c-.66-.27-1.31-.72-1-1.6S291.24,169.71,291.24,169.71Z"/><path class="cls-13" d="M295.87,167.93l.08,0a.38.38,0,0,0,.11-.53,2,2,0,0,0-2.31-.9.38.38,0,0,0,.26.72c.81-.29,1.4.59,1.41.6A.38.38,0,0,0,295.87,167.93Z"/><path class="cls-13" d="M288.58,167.72a.32.32,0,0,0,.1-.55,1.58,1.58,0,0,0-1.16-.33,1.64,1.64,0,0,0-1.11.85.32.32,0,1,0,.54.33,1,1,0,0,1,.67-.55.92.92,0,0,1,.65.19A.32.32,0,0,0,288.58,167.72Z"/><path class="cls-13" d="M284.84,162.1l9.43-6.19,9.77,7-2.46,7.44c.26-3.57-2.07-2.76-3-4s-1.22-2.92-4.1-1.88c0,0-1.94-1.81-3.36.12-1.1,1.49-2.22,1-3.39.92-1.38-.11-1.26,1.27-2.09,1.1Z"/><ellipse class="cls-21" cx="302.43" cy="169.09" rx="2.39" ry="1.96" transform="translate(-23.3 287.22) rotate(-49.14)"/><path class="cls-22" d="M302.07,170.41a.29.29,0,0,1-.12-.06,1.31,1.31,0,0,1-.41-1.55,1.39,1.39,0,0,1,1.39-.81.29.29,0,0,1-.07.57.82.82,0,0,0-.8.48.74.74,0,0,0,.27.88.29.29,0,0,1-.27.49Z"/><path class="cls-8" d="M289.9,175.53a.25.25,0,0,1,.19-.43,18,18,0,0,0,4.76-.54.25.25,0,0,1,.28.38,3.17,3.17,0,0,1-5.22.59Z"/><path d="M294.1,171.18a2,2,0,0,1-2.06-1.54,1.75,1.75,0,0,1,.44-1.43,2.46,2.46,0,0,1,3-.48,1.75,1.75,0,0,1,.86,1.22,2.05,2.05,0,0,1-1.87,2.2A2.55,2.55,0,0,1,294.1,171.18Zm.21-3.29-.33,0a1.9,1.9,0,0,0-1.14.61,1.27,1.27,0,0,0-.33,1,1.74,1.74,0,0,0,3.37-.54,1.27,1.27,0,0,0-.63-.89A1.83,1.83,0,0,0,294.32,167.89Z"/><path d="M288.3,171.46a2.6,2.6,0,0,1-.43,0,2.41,2.41,0,0,1-1.44-.79,1.77,1.77,0,0,1-.43-1.45,2.08,2.08,0,0,1,2.5-1.51,2.41,2.41,0,0,1,1.44.79,1.77,1.77,0,0,1,.43,1.45h0a1.77,1.77,0,0,1-.88,1.23A2.34,2.34,0,0,1,288.3,171.46Zm-.23-3.34a1.53,1.53,0,0,0-1.6,1.15,1.29,1.29,0,0,0,.32,1.06,2,2,0,0,0,2.45.41,1.29,1.29,0,0,0,.65-.9h0a1.29,1.29,0,0,0-.32-1.06,1.93,1.93,0,0,0-1.16-.63Z"/><rect x="290.08" y="169.05" width="2.19" height="0.48"/><path d="M296.13,169.23a.24.24,0,0,1,0-.48c.24,0,3.06-.9,4.9-1.47a.24.24,0,1,1,.14.46c-4.85,1.48-5,1.49-5,1.49Zm0-.48h0Z"/><g id="v"><path class="cls-19" d="M310,219.78s-7.1.73-13.75.78a93,93,0,0,1-13.75-1.34s.89-12.21.8-16.91c-.13-5.39.35-12.53.35-19.65,0,0,4.72-.76,7.38-1.09l1.11-.12s1.52,3.18,8.12,0a8.33,8.33,0,0,1,1.26,0,56.23,56.23,0,0,1,7.25,1.21c0,7.1.29,14.06.19,19.44C309.26,206.91,310,219.78,310,219.78Z"/></g><path class="cls-8" d="M290.77,181.61c-.12.68-5.54,38-5.54,38l-2.71-.43,1.15-36.55A30.52,30.52,0,0,1,290.77,181.61Z"/><path class="cls-8" d="M308.77,182.66a35.18,35.18,0,0,0-7.25-1.21c0,.35-3,55.72-3,55.72l14.08-1.08Z"/><g id="c-2" data-name="c"><path class="cls-21" d="M292.51,198l-1.61-.93a3,3,0,0,0-3-2.34l.72,2.34s-1.27,1-4.29-.7c-3-.66-1.69,1.49-2.67,1.64-1.44.23,1.05,3.06,4,3.5,3.81.56,4.26-.22,4.26-.22l2.16.75Z"/><path id="c-3" data-name="c" class="cls-3" d="M307.41,200.49c-5.38-.38-14.56-3-14.56-3a8.68,8.68,0,0,0-1.06,5.25c8.36,7.33,20.94,9.7,24.8,7.93,3.52-1.61,1-23.06-7.81-28l-.31,0C305.43,187.82,307.41,200.49,307.41,200.49Z"/></g><path class="cls-29" d="M301.53,181.45h0a4.71,4.71,0,0,1-2,1.81,9.9,9.9,0,0,1-4.64.95,5.33,5.33,0,0,1-2.71-1,3.15,3.15,0,0,1-1.11-1.62c.43-.05.88-.12,1.17-.15,0,0,1.45,3.21,8.06,0A8.33,8.33,0,0,1,301.53,181.45Z"/></g><path class="cls-30" d="M337.33,220.55H96.07a2.47,2.47,0,0,1-2.47-2.47h0a2.47,2.47,0,0,1,2.47-2.47H337.33a2.47,2.47,0,0,1,2.47,2.47h0A2.47,2.47,0,0,1,337.33,220.55Z"/><rect class="cls-30" x="100.4" y="219.08" width="4.31" height="54.47" rx="1.81" ry="1.81"/><rect class="cls-30" x="332.07" y="219.08" width="4.31" height="54.47" rx="1.81" ry="1.81"/><path class="cls-15" d="M285.79,215.65H257.34l-5.62-17.85a1.28,1.28,0,0,1,1.22-1.66h25.77a1.28,1.28,0,0,1,1.22.9Z"/><path class="cls-9" d="M283.64,215.65H255.19l-5.62-17.85a1.28,1.28,0,0,1,1.22-1.66h25.77a1.28,1.28,0,0,1,1.22.9Z"/><ellipse class="cls-31" cx="265.07" cy="206.76" rx="1.89" ry="2.08" transform="translate(-46.42 80.31) rotate(-15.86)"/><path class="cls-15" d="M302,213.79H283.64v1.82h20.14A1.82,1.82,0,0,0,302,213.79Z"/><path class="cls-21" d="M315.46,197.2c1.27-.61,2.69-1,3.13-2.78,0,0,3.44-.92,7.05-1.72l-4.4-4c-1.43.48-4.06,2.26-5.67,2.3h-1.26a4.66,4.66,0,0,0-3.19.68c-4.24,3.12-5.9,2.59-6.07,3-.14.56,1,1.64,3.16.56a8.45,8.45,0,0,1,3.2-1.06s0,1.83.69,2.35C312.42,196.7,314,197.91,315.46,197.2Z"/><path class="cls-3" d="M319.62,188.53s11.26-5.43,19.81-7.19c-1.18-4.28.75-24.07.75-24.07s5.78,1.42,8.65,12.14S345.11,191,345.11,191,327.37,196,321,194.16C320,193.88,319.62,188.53,319.62,188.53Z"/><circle class="cls-8" cx="223.33" cy="189.84" r="9"/><path class="cls-32" d="M231.43,189.84a8.1,8.1,0,1,1-16.2,0Z"/><path class="cls-23" d="M232.28,195.26H215.45a.87.87,0,0,1-.87-.87h0a.87.87,0,0,1,.87-.87h16.83a.87.87,0,0,1,.87.87h0A.87.87,0,0,1,232.28,195.26Z"/><path class="cls-23" d="M208.85,215.67a.75.75,0,0,1-.71-1L215.43,195a.75.75,0,0,1,1.42.46l-7.29,19.65A.75.75,0,0,1,208.85,215.67Z"/><path class="cls-23" d="M238.53,215.67a.75.75,0,0,1-.71-.51l-7.64-19.65a.75.75,0,0,1,1.42-.48l7.64,19.65a.75.75,0,0,1-.71,1Z"/><path class="cls-23" d="M223.86,215.62a.75.75,0,0,1-.75-.75V194.4a.75.75,0,0,1,1.5,0v20.47A.75.75,0,0,1,223.86,215.62Z"/><rect class="cls-8" x="225.62" y="173.73" width="4.71" height="14.27" transform="translate(120.59 -89.6) rotate(29.92)"/><rect class="cls-8" x="230.74" y="171.07" width="2.06" height="6.41" rx="0.99" ry="0.99" transform="translate(-33.71 290.92) rotate(-60.66)"/><circle class="cls-32" cx="220.39" cy="186.11" r="0.61"/><circle class="cls-32" cx="223.33" cy="183.02" r="0.35"/><circle class="cls-32" cx="230.14" cy="178.53" r="0.35"/><circle class="cls-32" cx="228.63" cy="187.08" r="0.35"/><circle class="cls-32" cx="222.6" cy="188.22" r="0.52"/><circle class="cls-32" cx="227.44" cy="181" r="0.52"/><circle class="cls-32" cx="226.12" cy="186.11" r="0.64"/><path class="cls-8" d="M159.94,212.83l-7.48-14.3V187.75h0a.66.66,0,0,0,.66-.66v-.33a.66.66,0,0,0-.66-.66h-4a.66.66,0,0,0-.66.66v.33a.66.66,0,0,0,.66.66h0v10.77L141,212.83a1.82,1.82,0,0,0,1.35,2.73h16.24A1.82,1.82,0,0,0,159.94,212.83Z"/><path class="cls-9" d="M154.87,205.39h-8.81l-3.49,6.68a1.52,1.52,0,0,0,1.13,2.28h13.53a1.52,1.52,0,0,0,1.13-2.28Z"/><path class="cls-21" d="M150.19,184.55h.54a1.29,1.29,0,0,1,1.29,1.29v.25a0,0,0,0,1,0,0H148.9a0,0,0,0,1,0,0v-.25A1.29,1.29,0,0,1,150.19,184.55Z"/><path class="cls-8" d="M133.77,204.09l-6.39-14.37v-5.19h0c.31,0,.57-.34.57-.77v-.13c0-.42-.25-.77-.57-.77H124c-.31,0-.57.34-.57.77v.13c0,.42.25.77.57.77h0v5.19l-6.39,14.37c-.54,1.21.11,2.75,1.16,2.75h13.87C133.66,206.84,134.31,205.3,133.77,204.09Z"/><path class="cls-9" d="M130.3,199.11h-9.49l-1.88,4.22c-.45,1,.09,2.29,1,2.29h11.56c.87,0,1.41-1.28,1-2.29Z"/><circle class="cls-33" cx="123.7" cy="197.37" r="0.79"/><circle class="cls-33" cx="125.68" cy="195.14" r="0.45"/><circle class="cls-33" cx="127.87" cy="198.48" r="0.45"/><circle class="cls-33" cx="124.78" cy="192.66" r="0.45"/><path class="cls-23" d="M114.41,215.58h21a2.68,2.68,0,0,0,2.68-2.68h0a2.68,2.68,0,0,0-2.68-2.68h-21a2.68,2.68,0,0,0-2.68,2.68h0A2.68,2.68,0,0,0,114.41,215.58Z"/><path class="cls-23" d="M114.16,181.88h1.52a.17.17,0,0,1,.17.17v29a.78.78,0,0,1-.78.78h-.3a.78.78,0,0,1-.78-.78V182A.17.17,0,0,1,114.16,181.88Z" transform="translate(229.84 393.75) rotate(180)"/><path class="cls-23" d="M112.55,187.17h18.54a.82.82,0,0,0,.82-.82h0a.82.82,0,0,0-.82-.82H112.55a.82.82,0,0,0-.82.82h0A.82.82,0,0,0,112.55,187.17Z"/><circle class="cls-23" cx="114.83" cy="186.43" r="2.06"/><path class="cls-21" d="M142.92,195.5h.54a1.29,1.29,0,0,1,1.29,1.29V197a0,0,0,0,1,0,0h-3.11a0,0,0,0,1,0,0v-.25A1.29,1.29,0,0,1,142.92,195.5Z"/><path class="cls-8" d="M151.67,213.44,145,202.33v-4h0a.59.59,0,0,0,.59-.59v-.1A.59.59,0,0,0,145,197h-3.56a.59.59,0,0,0-.59.59v.1a.59.59,0,0,0,.59.59h0v4l-6.7,11.11a1.4,1.4,0,0,0,1.21,2.12h14.53A1.4,1.4,0,0,0,151.67,213.44Z"/><path class="cls-19" d="M147.13,207.66h-7.88l-3.13,5.18a1.17,1.17,0,0,0,1,1.77h12.11a1.17,1.17,0,0,0,1-1.77Z"/><path class="cls-21" d="M106.22,190.56h.54a1.29,1.29,0,0,1,1.29,1.29v.25a0,0,0,0,1,0,0h-3.11a0,0,0,0,1,0,0v-.25A1.29,1.29,0,0,1,106.22,190.56Z"/><path class="cls-8" d="M115.09,213.53l-6.79-11.47v-8.64h0a.6.6,0,0,0,.6-.6v-.13a.6.6,0,0,0-.6-.6h-3.61a.6.6,0,0,0-.6.6v.13a.6.6,0,0,0,.6.6h0v8.64l-6.79,11.47a1.45,1.45,0,0,0,1.23,2.19h14.74A1.45,1.45,0,0,0,115.09,213.53Z"/><path class="cls-32" d="M110.49,207.57h-8l-3.17,5.35a1.21,1.21,0,0,0,1,1.83h12.29a1.21,1.21,0,0,0,1-1.83Z"/><path class="cls-21" d="M235.91,191.65H235a.65.65,0,0,0-.65.65v1.59h2.24v-1.59A.65.65,0,0,0,235.91,191.65Z"/><path class="cls-8" d="M237.26,193.77h-3.65a.65.65,0,0,0-.64.64v.38a.65.65,0,0,0,.64.64h.29v16.35a1.54,1.54,0,0,0,3.08,0V195.43h.27a.65.65,0,0,0,.64-.64v-.38A.65.65,0,0,0,237.26,193.77Z"/><path class="cls-34" d="M234.26,204.38v7.3a1.18,1.18,0,0,0,2.36,0v-7.3Z"/><path class="cls-21" d="M248.83,191.65h-.95a.65.65,0,0,0-.65.65v1.59h2.24v-1.59A.65.65,0,0,0,248.83,191.65Z"/><path class="cls-8" d="M250.3,193.77h-3.65a.65.65,0,0,0-.64.64v.38a.65.65,0,0,0,.64.64h.3v16.35a1.54,1.54,0,1,0,3.08,0V195.43h.27a.65.65,0,0,0,.64-.64v-.38A.65.65,0,0,0,250.3,193.77Z"/><path class="cls-34" d="M247.26,203.18l0,8.5a1.18,1.18,0,0,0,2.36,0l0-8.5Z"/><path class="cls-8" d="M243.78,193.77h-3.65a.65.65,0,0,0-.64.64v.38a.65.65,0,0,0,.64.64h.29v16.35a1.54,1.54,0,0,0,3.08,0V195.43h.27a.65.65,0,0,0,.64-.64v-.38A.65.65,0,0,0,243.78,193.77Z"/><path class="cls-35" d="M240.8,200.7l0,11a1.18,1.18,0,0,0,2.36,0l0-11Z"/><path class="cls-21" d="M242.44,191.49h-.95a.65.65,0,0,0-.65.65v1.59h2.24v-1.59A.65.65,0,0,0,242.44,191.49Z"/><path class="cls-23" d="M254.63,197.9h-26a.32.32,0,0,1-.32-.32h0a.32.32,0,0,1,.32-.32h26a.32.32,0,0,1,.32.32h0A.32.32,0,0,1,254.63,197.9Z"/><rect class="cls-23" x="230.09" y="197.9" width="0.56" height="16.51"/><rect class="cls-23" x="252.6" y="197.9" width="0.56" height="16.51"/><path class="cls-23" d="M254,215.61h-24.8a.6.6,0,0,1-.6-.6h0a.6.6,0,0,1,.6-.6H254a.6.6,0,0,1,.6.6h0A.6.6,0,0,1,254,215.61Z"/></svg>