<?xml version="1.0" encoding="utf-8"?>
<!-- Generator: Adobe Illustrator 21.0.2, SVG Export Plug-In . SVG Version: 6.00 Build 0)  -->
<svg version="1.1" id="Layer_1" xmlns="http://www.w3.org/2000/svg" xmlns:xlink="http://www.w3.org/1999/xlink" x="0px" y="0px"
	 viewBox="0 0 401.2 343.9" style="enable-background:new 0 0 401.2 343.9;" xml:space="preserve">
<style type="text/css">
	.st0{fill:#004AAD;}
</style>
<g>
	<g>
		<path class="st0" d="M143.2,286.7c-5.1,0-9.5-0.8-13.2-2.3c-3.8-1.5-6.5-4-8.3-7.5c-1.8-3.4-2.7-7.9-2.7-13.4v-42.4H80.4v42.4
			c0,5.5-0.9,10-2.8,13.4c-1.9,3.4-4.6,5.9-8.3,7.5c-3.6,1.5-8.1,2.3-13.4,2.3h-6.9v3.3h101.2v-3.3H143.2z M195.5,53.8H4.6
			l-2.3,59.5h3.3l1-11.9c0.7-11,2.6-19.8,5.8-26.3c3.2-6.5,8.3-11.1,15.2-13.9c7-2.8,16-4.1,27.3-4.1h25.5v103.5H119V57.2h25.8
			c11.5,0,20.6,1.4,27.5,4.1c6.8,2.8,11.9,7.4,15.2,13.9c3.3,6.5,5.3,15.3,6,26.3l0.7,11.9h3.3L195.5,53.8z"/>
		<path class="st0" d="M395.6,231.5l-0.7,10.9c-0.9,11-3,19.8-6.3,26.3c-3.3,6.5-8.5,11.1-15.7,13.9c-7.2,2.8-16.7,4.1-28.6,4.1
			h-59.5v-65.6h-38.7v42.7c0,5.5-0.9,9.9-2.8,13.2c-1.9,3.3-4.6,5.7-8.3,7.3c-3.6,1.5-8.1,2.3-13.4,2.3h-6.9v3.3h182l2.3-58.6H395.6
			z M385.7,53.8h-171v3.3h6.9c5.3,0,9.8,0.7,13.4,2.1s6.4,3.8,8.3,7.1c1.9,3.3,2.8,7.6,2.8,12.9v81.4h38.7V57.2h50.6
			c11.2,0,20.3,1.4,27.1,4.1c6.8,2.8,11.8,7.4,15,13.9c3.2,6.5,5.2,15.3,6.1,26.3l0.7,10.9h3.3L385.7,53.8z"/>
	</g>
	<g>
		<path d="M74.7,167c-0.4,0.2-0.8,0.4-1,0.7c-0.3,0.5-0.6,0.8-0.9,1l-0.2,0.2l-0.9,0.9c-0.1,0-0.1,0-0.2-0.1l-0.2-0.2
			c0,0.2,0,0.4,0.1,0.4c-0.1,0.1-0.3,0.2-0.5,0.4c-0.2,0.2-0.3,0.4-0.4,0.5c-0.4,0.2-0.6,0.5-0.8,0.9l-0.2,0.1
			c-0.1,0.1-0.2,0.3-0.3,0.5c-0.1-0.1-0.3-0.2-0.3-0.2c-0.1,0.1-0.2,0.2-0.3,0.4c-0.1,0.2-0.2,0.4-0.3,0.4c-0.1,0-0.1,0-0.1,0.1
			c0,0.1,0,0.1-0.1,0.2c-0.1,0.1-0.3,0.3-0.7,0.5c-0.1,0.1-0.1,0.2-0.2,0.3c-0.1,0.1-0.1,0.2-0.2,0.3l-0.5,0.5h-0.3
			c-0.1,0.1-0.3,0.4-0.5,0.7c-0.3,0.3-0.5,0.5-0.5,0.7c-0.1,0.3-0.4,0.4-0.7,0.4c-0.1,0.1-0.4,0.5-0.7,0.9c-0.3,0.5-0.5,0.8-0.8,1
			l-0.3-0.2v0.4c-0.1,0-0.2,0.1-0.3,0.4c-0.1,0.3-0.3,0.3-0.5,0.3c-0.2,0.4-0.4,0.6-0.4,0.7c-0.1,0-0.2,0.1-0.2,0.3
			c-0.4,0.4-0.7,0.5-1,0.5v0.4c-0.1,0-0.3,0-0.3,0.1l-0.1,0.1v0.2c-0.2,0-0.3,0.1-0.1,0.2c-0.1,0.1-0.1,0.2-0.1,0.3
			c0,0.1,0,0.2-0.1,0.3l-0.3,0.1c-0.1,0.5-0.3,0.8-0.5,0.9h-0.1c-0.1-0.1-0.1-0.1-0.2-0.1c0,0.1-0.1,0.2-0.2,0.3
			c0,0.1,0,0.2-0.1,0.2l0.1,0.1h0.2v0.1c-0.1,0.1-0.2,0.2-0.4,0.3v-0.2l-0.2,0.1c-0.1,0-0.2,0-0.2,0.1c-0.4,0.4-0.7,0.8-0.9,1.2
			c0,0.1-0.1,0.3-0.4,0.4c-0.1,0.1-0.2,0.3-0.4,0.7c-0.1,0.1-0.2,0.1-0.4,0.1l-0.2,0.3c-0.1,0.3-0.2,0.4-0.4,0.4
			c-0.1,0.4-0.3,0.7-0.4,0.9c-0.1,0.1-0.2,0.2-0.4,0.4c-0.2,0.2-0.4,0.3-0.4,0.4l-0.3,0.7c-0.1,0.1-0.4,0.3-0.7,0.5
			c-0.2,0.2-0.4,0.4-0.5,0.4c0,0.1-0.1,0.3-0.2,0.5c-0.1,0.2-0.3,0.4-0.3,0.4c0,0.1-0.1,0.2-0.2,0.3c-0.3,0.1-0.5,0.3-0.7,0.8
			c-0.1-0.1-0.2-0.1-0.3-0.1c-0.3,0.9-0.7,1.6-1.2,2c0,0.1-0.1,0.2-0.2,0.3c-0.1,0.1-0.2,0.3-0.3,0.4l0.2,0.1c0.1,0,0.1,0,0.1,0.1
			c-0.1,0.1-0.3,0.3-0.4,0.3c0,0.1,0,0.1,0.1,0.2h-0.1l-0.2,0.1c-0.2,0.1-0.5,0.4-0.8,0.7c-0.3,0.3-0.5,0.5-0.7,0.6v0.8
			c-0.1,0-0.1,0-0.1,0.1c0,0,0,0.1-0.1,0.1l-0.3,0.5c-0.1,0.2-0.2,0.4-0.3,0.4h-0.1l-0.3,0.7c-0.7,0.3-1.1,0.7-1.2,1.1
			c0.1,0.1,0.1,0.4,0.1,0.7c-0.1,0-0.2,0-0.3,0.1c-0.1,0-0.2,0.1-0.3,0.1c-0.1,0.1-0.1,0.2-0.1,0.3v0.2c0,0.1-0.1,0.3-0.4,0.6
			c-0.3,0.3-0.3,0.6-0.3,0.9c-0.2,0.1-0.5,0.7-1,1.5c-0.1,0.1-0.1,0.3,0,0.4c-0.1,0.1-0.2,0.3-0.3,0.4l-0.3,1
			c0.1,0.2,0.4,0.3,0.8,0.3c0.9,0,1.7-0.1,2.2-0.3c0.2,0,0.4,0,0.5-0.1c0.9-0.1,1.6-0.3,2.2-0.4c0.5-0.2,1.2-0.5,2.1-1
			c0.4-0.2,0.8-0.4,1.2-0.4c0.1,0,0.2-0.1,0.4-0.2c0.2-0.1,0.4-0.2,0.4-0.2c0.1,0,0.3-0.1,0.5-0.2c0.2-0.1,0.4-0.2,0.4-0.2
			c0.1-0.1,0.2-0.1,0.3-0.1c0.3-0.1,0.7-0.2,1.1-0.5c0.5-0.3,0.9-0.4,1.1-0.5c0-0.1,0.1-0.2,0.2-0.2c0.1,0,0.1,0,0.2-0.1l0.7-0.3
			c0.1,0,0.1,0,0.1-0.1c0.1-0.1,0.4-0.2,0.7-0.4l0.8-0.5l0.3-0.2l0.4-0.2c0,0.1,0.1,0.2,0.2,0.3c0.1-0.1,0.3-0.2,0.5-0.3
			c0.2-0.1,0.4-0.3,0.5-0.3c0.2-0.2,0.5-0.3,0.8-0.3v-0.2l1.1-0.5c0.1,0.1,0.1,0.1,0,0.2c0,0.1-0.3,0.2-0.9,0.4c0,0.2,0,0.4-0.1,0.5
			h-0.1c-0.1,0.1-0.3,0.2-0.4,0.3c-0.1,0.1-0.3,0.2-0.3,0.2l-0.1-0.1h-0.2v0.4c-0.4,0.1-0.6,0.3-0.8,0.7l-0.2,0.1l-0.4,0.4
			c-0.4,0.2-0.8,0.5-1.1,0.8c-0.3,0.1-0.7,0.4-1.1,0.7l-0.9,0.4c-0.1,0-0.2,0-0.3-0.1c-0.1,0-0.3-0.1-0.4-0.1
			c-0.1,0.1-0.2,0.2-0.3,0.4c-0.1,0.2-0.2,0.3-0.2,0.4c-0.2,0-0.4,0-0.4,0.1c-0.1,0.2-0.5,0.4-1.2,0.5c-0.1,0.1-0.3,0.3-0.7,0.3
			c0,0.1-0.1,0.2-0.4,0.2c-0.1,0.1-0.3,0.2-0.5,0.3c-0.2,0.1-0.3,0.2-0.4,0.3c-0.7,0.1-1.3,0.3-1.6,0.5c-0.6,0.3-1.1,0.5-1.4,0.5h-1
			c-0.1,0-0.1,0.1-0.1,0.4h-0.1c-0.6,0.1-1,0.1-1.3,0c-0.3,0-0.4,0.1-0.4,0.2c-0.2,0.1-0.5,0.2-0.8,0.2c-0.1,0-0.5,0.1-1,0.4
			c-0.1-0.1-0.3-0.1-0.7-0.1c-0.1-0.1-0.3-0.2-0.5-0.2c-0.4,0-0.8-0.1-1.2-0.3c-0.1-0.8-0.3-1.4-0.5-1.9c0.1-0.1,0.2-0.2,0.3-0.4
			c-0.1-0.3,0-0.7,0.2-1.1c0-0.1,0.3-0.8,0.9-2.1c0.3-0.4,0.7-1.1,1.1-2.1l0.2-0.2c0.1-0.1,0.1-0.3,0.2-0.3c0-0.4,0.2-0.7,0.5-0.9
			l0.2-0.2l0.8-1.5c0.1-0.1,0.2-0.2,0.3-0.4c0.1-0.2,0.2-0.4,0.3-0.4c0.4-0.4,0.8-1,1.4-1.7c0.1-0.1,0.1-0.2,0.1-0.4
			c0.1-0.1,0.2-0.1,0.3-0.2c0.1-0.1,0.2-0.2,0.3-0.3c0.1-0.1,0.1-0.2,0.2-0.3h0.2c0-0.1,0.1-0.3,0.3-0.8c0.2-0.1,0.3-0.3,0.3-0.5
			l1.2-1.2c0.1-0.3,0.3-0.5,0.5-0.8c0-0.1,0-0.1,0.1-0.2c0.1-0.2,0.3-0.5,0.5-1H50c0.4-0.3,0.8-0.6,1-1c0.1-0.1,0.2-0.3,0.5-0.6
			c0.3-0.3,0.4-0.5,0.5-0.6l0.1-0.2l0.1-0.2c0-0.1,0.1-0.2,0.3-0.3c0.2-0.1,0.3-0.3,0.4-0.4c0.1-0.1,0.2-0.3,0.4-0.5l0.4-0.4
			c0.1,0,0.2,0,0.3,0.1V186c0-0.1,0.1-0.2,0.2-0.3c0.1-0.1,0.3-0.2,0.3-0.4c0.1,0,0.1,0,0.1,0.1c0,0,0,0.1,0.1,0.1
			c0.1-0.1,0.1-0.2,0.2-0.4c0-0.2,0.1-0.4,0.1-0.5l0.7-0.3c0.1-0.1,0.2-0.2,0.3-0.3c0.1-0.1,0.2-0.3,0.3-0.3
			c0.1-0.1,0.2-0.1,0.3-0.2c0.2-0.2,0.3-0.4,0.2-0.4l0.5-0.5c0.1-0.1,0.1-0.1,0.1-0.2l0.1-0.2h0.5l-0.1-0.2v-0.2
			c0.1,0,0.4-0.3,0.9-0.8c-0.1-0.1-0.1-0.1,0-0.1c0.3-0.1,0.4-0.3,0.4-0.5c0.4-0.4,0.7-0.6,0.9-0.8c0.1-0.1,0.2-0.3,0.4-0.5
			c0.2-0.2,0.3-0.4,0.5-0.4c0.1-0.2,0.3-0.5,0.8-0.8c0.1-0.4,0.5-0.8,1-1.3c0.5-0.5,0.9-0.8,0.9-0.9h0.3c-0.1,0-0.1-0.1-0.1-0.2
			c0.1-0.3,0.3-0.5,0.5-0.8c0-0.2,0.1-0.3,0.4-0.3c0.1-0.2,0.4-0.5,0.8-0.9h0.3L66,173c0.1-0.1,0.1-0.3,0.1-0.3
			c0-0.1,0.1-0.1,0.4-0.2l0.1-0.1c0.1-0.3,0.3-0.4,0.3-0.4c0-0.1,0.1-0.2,0.4-0.2v-0.2h0.3v-0.3l0.1-0.1c0.1-0.1,0.2-0.3,0.2-0.3
			l0.1-0.1h0.2c0.1-0.1,0.2-0.3,0.3-0.4c0.1-0.1,0.2-0.2,0.3-0.4h-0.1v-0.1h0.3c0.1-0.1,0.7-0.8,1.9-2c0.2-0.1,0.5-0.4,0.8-0.7
			l0.2-0.2c0.1,0,0.2-0.1,0.2-0.2c0.5-0.5,0.8-0.8,1-0.9c0.1-0.1,0.1-0.1,0.2-0.1c0.1-0.1,0.3-0.1,0.3-0.1c0-0.2,0-0.4-0.1-0.4
			c1.2-0.6,2-1.3,2.5-2.2c0,0.1,0,0.1,0.1,0.1c0.6-0.7,1.1-1.2,1.5-1.5c0-0.1,0-0.1,0.1-0.1s0.1,0,0.1-0.1v-0.1
			c0.4-0.3,0.7-0.5,0.8-0.5c0.4-0.2,0.6-0.4,0.7-0.5l0.4-0.4c0.2,0,0.4-0.1,0.7-0.4l0.1-0.1l0.7-0.3c0-0.1,0.2-0.3,0.5-0.4
			c-0.1-0.1,0-0.2,0.1-0.3v-0.1c0.3,0,0.5-0.2,0.8-0.5c0.1-0.2,0.4-0.3,0.7-0.3c-0.1,0-0.1-0.1-0.1-0.2c0.1-0.1,0.2-0.2,0.3-0.3
			c0.1-0.1,0.3-0.2,0.3-0.3c-0.1-0.1-0.1-0.1,0-0.2c0.4-0.2,0.6-0.4,0.7-0.5c0.1-0.1,0.3-0.2,0.4-0.2l0.2-0.2h0.2
			c0.1,0.1,0.1,0.1,0.2,0.1V155c0.1,0.1,0.2,0.2,0.2,0.3h0.9c0,0.1-0.1,0.4-0.2,0.7c0,0.1,0,0.1,0.1,0.2l0.2,0.2
			c-0.1,0.5-0.5,1-1.2,1.5c-0.1,0.1-0.3,0.2-0.5,0.4c-0.2,0.2-0.4,0.3-0.5,0.5h-0.1c-0.1,0.1-0.2,0.2-0.4,0.3
			c-0.2,0.1-0.3,0.2-0.5,0.3v0.1c-0.4,0.1-0.7,0.2-0.8,0.2c0,0.1,0,0.2-0.1,0.3c0,0.1-0.1,0.2-0.2,0.3l-0.1,0.1
			c-0.4,0-0.5,0.1-0.5,0.3c-0.1,0.1-0.3,0.2-0.5,0.4c-0.2,0.2-0.4,0.3-0.5,0.4c-0.1,0-0.2,0.1-0.2,0.3c-0.1-0.1-0.1-0.1-0.2-0.1
			c-0.2,0.4-0.4,0.6-0.5,0.7c-0.2,0.1-0.5,0.4-0.8,0.8h-0.8l-0.2,0.2l0.1,0.1c0,0.1,0,0.2,0.1,0.2c-0.4,0.4-0.7,0.8-0.9,1l-0.1,0.1
			l-0.1,0.1c-0.1,0.1-0.1,0.1-0.2,0.1c-0.1,0.1-0.2,0.3-0.5,0.4c-0.3,0.1-0.4,0.3-0.4,0.4c-0.2,0.1-0.4,0.2-0.4,0.4h-0.3v0.3
			c-0.1,0.1-0.2,0.1-0.4,0.1C74.6,166.7,74.6,166.8,74.7,167z"/>
		<path d="M61.9,209.7h-0.2c-0.1,0-0.2,0-0.2-0.1c-0.4,0-0.8,0-1.1-0.1c-0.4,0-0.9-0.3-1.3-0.9c0-0.1-0.1-0.1-0.2-0.1
			c-0.1-0.1-0.2-0.3-0.2-0.4c-0.1,0-0.2-0.1-0.3-0.2l-0.1-0.1v-0.1v-0.4v-1c0-0.3,0-0.5,0.1-0.8V205c0.1-0.3,0.3-0.7,0.5-1.3
			c0.1,0,0.1-0.1,0.2-0.2c0.1-0.1,0.1-0.2,0.2-0.2c0.1-0.1,0.2-0.3,0.2-0.3l0.2-0.1l-0.1-0.3l1-1.4h0.2v-0.2c0.6-0.4,1-0.9,1.3-1.3
			c0.6-0.4,1-0.8,1.3-1.1l0.2-0.2h0.1c0.1-0.1,0.1-0.1,0.2-0.1c0-0.1,0.1-0.1,0.2-0.1l0.2-0.2c0.1,0,0.2,0,0.3-0.1
			c0.1-0.1,0.2-0.1,0.3-0.2c0.1-0.1,0.2-0.3,0.4-0.4c0.2-0.1,0.3-0.2,0.4-0.3c0.5-0.1,0.8-0.3,0.8-0.5c0.1,0,0.2,0,0.3-0.1h0.1
			l0.5-0.4c0.4-0.2,1-0.5,1.7-1h0.1c0.1-0.1,0.3-0.2,0.4-0.2h0.2c0.3-0.3,0.7-0.5,1.3-0.7c0.1-0.1,0.2-0.1,0.3-0.2
			c0.1,0,0.3-0.1,0.4-0.2c0.1-0.1,0.2-0.1,0.2-0.2c0.1-0.1,0.2-0.1,0.4-0.2c0.2-0.1,0.3-0.1,0.5-0.1c0.2-0.1,0.4-0.1,0.4-0.1
			l0.2-0.1l0.2-0.1c0.1-0.1,0.3-0.1,0.3-0.1c0.1,0,0.1,0,0.2-0.1c0.1-0.1,0.3-0.1,0.5-0.1h0.1c0.1,0,0.1,0,0.2-0.1h0.2
			c0.2-0.2,0.5-0.3,1-0.3h0.4c0.1-0.1,0.3-0.1,0.4-0.1h0.1h0.2c0.3-0.2,0.7-0.3,1.3-0.3h0.1c0.1,0,0.3,0,0.4-0.1h0.2l0.3,0.1
			l0.8-0.2l1.2,0.2l0.4,0.4l0.1,0.7l-0.3,0.2c-0.1,0.3-0.2,0.5-0.4,0.5c0,0.2,0,0.3-0.1,0.3l-0.1,0.2l-0.1,0.2
			c-0.1,0-0.2,0.1-0.2,0.3l-0.1,0.1h-0.1c-0.1,0.1-0.2,0.1-0.2,0.2c0,0.2-0.2,0.4-0.7,0.7h-0.1c-0.1,0-0.1,0-0.2,0.1
			c-0.1,0.1-0.2,0.1-0.3,0.1c0,0.1-0.1,0.2-0.3,0.3l-0.2,0.1c-0.2,0-0.3,0.1-0.3,0.2c-0.1,0.2-0.3,0.4-0.8,0.5h-0.1l-0.3-0.1
			l0.2,0.3c-0.3,0.1-0.6,0.2-1,0.2c-0.2,0.4-0.5,0.5-0.9,0.5h-0.2v0.3h-1.7v0.3h-0.1c-0.3,0-0.6,0.1-0.9,0.4c0,0.1-0.1,0.2-0.3,0.4
			h-0.8l-0.5,0.2h-0.4l-0.3,0.3l-1.9,0.3l-0.8,0.3l-0.1-0.1h-0.9l-0.4,0.2h-1.1l-1-0.3l-0.1,0.1h-0.4c0,0.1,0,0.1-0.1,0.1l-0.3,0.1
			c0,0.2-0.1,0.4-0.4,0.5l-0.3,0.3c-0.1,0.1-0.2,0.2-0.3,0.4c-0.1,0-0.2,0.1-0.2,0.2c0,0.7-0.2,1.1-0.7,1.3
			c-0.3,0.1-0.4,0.3-0.2,0.5c-0.1,0.4-0.3,0.9-0.4,1.6l-0.2,0.2c-0.1,0.8-0.1,1.4,0.1,1.7c0.1,0.1,0.4,0.2,0.7,0.2h0.3l0.1,0.1h0.7
			c0.1,0,0.4,0,0.7-0.1c0.3,0,0.5-0.1,0.7-0.1c0.6-0.1,1.1-0.2,1.4-0.2h0.2c0.1-0.1,0.1-0.1,0.2-0.1l0.7,0.1l2-0.9h0.3h0.1
			c0.1-0.1,0.3-0.1,0.3-0.1c0.1,0,0.3,0,0.3,0.1c0.1-0.1,0.3-0.3,0.8-0.5c0.4-0.1,0.6-0.2,0.7-0.3c0.3-0.3,0.5-0.4,0.8-0.4h0.2
			c0.1-0.1,0.2-0.1,0.4-0.1c0.1-0.1,0.1-0.1,0.1-0.2l0.2-0.1c0.1-0.1,0.3-0.3,0.5-0.3c0-0.1,0.1-0.1,0.4-0.1c0-0.1,0.1-0.1,0.2-0.2
			h0.1l0.1,0.1l1.7-0.9l0.2,0.2l0.2-0.5h0.2h0.1h0.1c0.1-0.1,0.1-0.1,0.2-0.1h0.1h0.1c0-0.1,0-0.1,0.1-0.1s0.1,0,0.2-0.1h0.1
			c0.1-0.1,0.3-0.3,0.7-0.4c0.1,0,0.2,0,0.3-0.1c0.1,0,0.2-0.1,0.3-0.2l0.2,0.2l0.3-0.3l0.8-0.5h0.2l0.1-0.1
			c0.1-0.1,0.3-0.1,0.4-0.1c0.1-0.1,0.3-0.3,0.4-0.3c0.2,0,0.4,0,0.4-0.1c0.1-0.1,0.3-0.2,0.3-0.2c0.1-0.1,0.2-0.1,0.3-0.1
			c0.1,0,0.1,0,0.1-0.1l0.7-0.2H83l0.5-0.3l0.3,0.7l-0.7,0.2c-0.4,0.2-0.7,0.3-0.8,0.3h-0.1c-0.1,0.1-0.3,0.2-0.7,0.4
			c-0.7,0.5-1,0.8-1.1,0.9c-0.1,0.1-0.5,0.3-1,0.5c-0.1,0.1-0.2,0.2-0.4,0.3c-0.2,0.1-0.3,0.2-0.4,0.3h-0.1l-1,0.1l-0.1,0.3
			c-0.2,0.1-0.4,0.1-0.4,0.1c-0.4,0.2-0.8,0.4-1.3,0.5l-0.2,0.4c-0.4,0.2-0.7,0.3-0.8,0.3c-0.9,0.5-1.7,0.8-2.4,0.9l0.2,0.3h-0.1
			c-0.1,0.1-0.2,0.1-0.3,0.2c-0.1,0.1-0.2,0.1-0.3,0.1c-0.7,0.4-1.3,0.6-1.7,0.7l-0.2,0.4H70h-0.3c-0.3,0.1-0.7,0.3-1.1,0.4h-0.4H68
			c-0.1,0.3-0.7,0.5-1.5,0.5l-0.2,0.1h-0.3c-0.4,0.1-0.8,0.2-1.2,0.2h-0.3l-0.1,0.1c-0.2,0-0.4,0-0.4,0.1c-0.1,0-0.4,0-0.7,0.1
			c-0.3,0-0.6,0.1-0.7,0.1h-0.1H61.9z M67.3,197.8l-0.1,0.1c0,0.1-0.1,0.1-0.2,0.1c-0.1,0.1-0.4,0.3-0.7,0.8l-0.2,0.2
			c0.1,0,0.1,0,0.2-0.1h0.2h0.2c0.1,0.1,0.1,0.1,0.2,0.1c0.1,0,0.2,0,0.3-0.1c0.1,0,0.3,0,0.4-0.1c0.1,0,0.2-0.1,0.3-0.2
			c0.1-0.1,0.2-0.1,0.3-0.1c0.2-0.1,0.5-0.2,0.8-0.3l0.9-0.2l0.4-0.1h0.3l0.1,0.1c0.4-0.1,0.6-0.3,0.7-0.4c0.6-0.3,1.1-0.4,1.4-0.4
			H73l0.4-0.3h0.2c0.1,0,0.1,0,0.2-0.1c0.1,0,0.3,0,0.3-0.1c0.1,0,0.1,0,0.1-0.1c0,0,0-0.1,0.1-0.1c0.1-0.1,0.5-0.2,1.1-0.4
			c0.1,0,0.3-0.1,0.5-0.2l0.2-0.2l0.2-0.2l0.2,0.2l0.2-0.1l0.3-0.3c0.1-0.1,0.3-0.3,0.5-0.3c0-0.1,0.1-0.2,0.3-0.3
			c0.2-0.3,0.6-0.6,1.2-0.9l0.2-0.7h-0.1c-0.2,0-0.3,0-0.3,0.1l-0.1,0.1h-0.1h-0.1c-0.1-0.1-0.1-0.1-0.2-0.1s-0.2,0-0.3,0.1h-0.4
			h-0.1c-0.1,0-0.3,0.1-0.8,0.2c-0.1,0-0.2,0-0.3,0.1h-0.2c-0.1,0.1-0.2,0.1-0.4,0.1c-0.2,0-0.4,0-0.4,0.1c-0.4,0-0.7,0.1-0.9,0.3
			c-0.4,0.1-0.7,0.3-0.8,0.4h-0.4l-0.1,0.1c-0.1,0.1-0.1,0.1-0.2,0.1s-0.1,0-0.1,0.1c-0.1,0.1-0.1,0.1-0.2,0.1
			c-0.7,0.3-1.2,0.4-1.4,0.4l-0.3,0.3c-0.1,0.1-0.4,0.3-0.7,0.5c-0.2,0-0.5,0.1-0.8,0.2c-0.1,0-0.2,0-0.3,0.1s-0.2,0.1-0.3,0.1
			l-0.1-0.1l-0.3,0.2h-0.3l-0.2,0.3C67.9,197.3,67.6,197.5,67.3,197.8z M83.8,200.1l0.4-0.3l0.1,0.5h-0.1
			C84.1,200.3,83.9,200.3,83.8,200.1z"/>
		<path d="M93.6,196.8h0.1l0.3-0.3c0.1,0,0.3-0.1,0.5-0.2c0.3-0.1,0.5-0.2,0.7-0.3h0.1c0.1-0.1,0.4-0.3,1-0.5l0.9-0.2
			c0.3-0.1,0.7-0.3,1.3-0.4c0.5-0.1,0.9-0.2,0.9-0.2c0.1-0.1,0.6-0.2,1.4-0.3c0.2-0.1,0.5-0.2,0.8-0.2h0.5h0.1c0.3,0,0.5,0,0.7-0.1
			h0.4c0.4,0,0.7,0.1,1,0.4v0.3c0,0.1,0,0.3-0.1,0.3c0.4-0.2,0.6-0.5,0.4-0.9l0.9-0.9c-0.1,0-0.1-0.1,0-0.2c0.2-0.1,0.4-0.2,0.7-0.4
			c0.1,0.1,0.2,0.3,0.4,0.4c0.2,0.1,0.4,0.2,0.4,0.4c0,0.1-0.1,0.3-0.2,0.6c-0.1,0.3-0.2,0.5-0.2,0.6c-0.1,0.1-0.4,0.6-0.9,1.4
			c-0.1,0-0.3,0.1-0.4,0.2v0.2c-0.4,0.5-0.6,0.8-0.7,0.9c-0.6,0.2-1,0.7-1.2,1.3l-0.5,0.5l-0.7,0.7c-0.1,0.1-0.3,0.4-0.5,0.7
			c-0.2,0.3-0.4,0.6-0.6,0.8c-0.2,0.3-0.3,0.5-0.5,0.8c-0.1,0.1-0.2,0.2-0.3,0.5c-0.1,0.3-0.3,0.5-0.3,0.6c-0.5,0.6-0.8,1.2-0.9,1.9
			c-0.2,0.2-0.3,0.5-0.3,1v0.5c0.1,0.4,0.3,0.5,0.5,0.5c0.1,0,0.4,0.1,0.9,0.2c0.4,0.4,0.8,0.4,1.3,0c0,0.2,0.1,0.4,0.2,0.4
			c0.5-0.3,1.3-0.6,2.5-0.9v0.4c0.1-0.1,0.2-0.2,0.4-0.3c0.2-0.1,0.3-0.2,0.4-0.3c0.1,0,0.3,0,0.4-0.1c0.1-0.1,0.3-0.3,0.4-0.3
			c0.4-0.1,0.8-0.2,1.2-0.2c0.1,0,0.4-0.1,1.1-0.3c0.6-0.4,1.2-0.7,1.9-0.8l0.1-0.1c0.4-0.1,0.8-0.2,1.3-0.5s0.9-0.4,1.1-0.5
			c0.4-0.1,0.6-0.3,0.8-0.3c0.2-0.1,0.6-0.3,1.2-0.5c0.6-0.2,1-0.3,1.2-0.5h0.1v0.5c-0.7,0.4-1.3,0.8-1.9,1.1
			c-0.2,0.4-0.7,0.7-1.3,0.9h-0.1l-0.1,0.1c-0.7,0.5-1.1,0.8-1.4,0.9c-0.2,0.1-0.5,0.3-0.8,0.4c-0.3,0.1-0.6,0.2-0.7,0.3l-0.7,0.3
			c-0.2,0-0.4,0.1-0.5,0.2H108c-0.1,0-0.2,0.1-0.4,0.2c-0.2,0.1-0.3,0.2-0.4,0.2c0,0.1,0,0.1-0.1,0.1l-0.1,0.2c-0.1,0-0.3,0-0.3-0.1
			l-0.2,0.2c-0.2,0-0.3-0.1-0.3-0.2l-0.1,0.2c-0.1,0-0.2,0-0.3,0.1c-0.1,0-0.3,0.1-0.4,0.1c-0.1,0-0.2,0.1-0.3,0.2
			c-0.5,0.1-0.9,0.3-1.1,0.5c-0.9,0.1-1.3,0.2-1.4,0.2c-0.4,0.2-0.8,0.3-1.1,0.1c-0.6,0.4-1.3,0.4-2.2,0.2h-0.1h-0.4
			c-0.3-0.1-0.5-0.2-0.5-0.2c-0.1-0.1-0.4-0.3-0.7-0.3l-0.2-0.2c-0.1-0.1-0.1-0.3-0.1-0.3c0-0.1-0.1-0.2-0.2-0.3
			c-0.1-0.1-0.2-0.3-0.2-0.3v-0.4c-0.1-0.8,0-1.5,0.3-2.1c0-0.4,0.1-0.8,0.3-1.1c0-0.1,0.1-0.4,0.3-0.7c0.2-0.3,0.4-0.6,0.4-0.8
			c0.1-0.1,0.2-0.3,0.4-0.4c0.2-0.1,0.3-0.3,0.3-0.3c0-0.1,0-0.2,0.1-0.4c0-0.2,0.1-0.3,0.2-0.4c0.2-0.2,0.5-0.6,0.9-1.1
			c0.4-0.5,0.7-0.9,0.9-1.2c-0.4-0.1-0.7,0.1-0.9,0.4c-0.1,0-0.1,0-0.2,0.1l-0.2,0.2c-0.4,0.4-0.6,0.6-0.8,0.7
			c-0.2,0-0.5,0.1-0.8,0.4l-0.3,0.3c-0.1,0.1-0.3,0.3-0.4,0.3c-0.1,0.1-0.2,0.2-0.4,0.4c-0.2,0.2-0.4,0.3-0.5,0.4
			c-0.1,0.1-0.4,0.3-0.7,0.6c-0.3,0.3-0.6,0.5-0.7,0.6c-0.1,0.1-0.2,0.2-0.4,0.3c-0.2,0.1-0.4,0.2-0.4,0.3H94
			c-0.1,0.1-0.2,0.3-0.4,0.3c-0.2,0.1-0.3,0.1-0.4,0.2c-0.4,0.2-0.7,0.5-0.9,0.8c-0.2,0-0.5,0.1-0.7,0.3c-0.3,0.2-0.5,0.3-0.6,0.4
			l-0.2,0.1l-0.4,0.2h-0.3c-0.2,0.2-0.4,0.4-0.4,0.5c-0.3,0.1-0.6,0.3-0.9,0.3c-0.7,0.7-1.5,1.1-2.4,1.1c-0.1,0.1-0.2,0.1-0.3,0.2
			c-0.1,0.1-0.2,0.1-0.3,0.2h-0.3c-0.4,0.1-0.7,0.3-0.9,0.4c-0.1,0.1-0.3,0.1-0.5,0.1c-0.2,0.1-0.5,0.1-0.8,0.2s-0.6,0.1-0.8,0.2
			l-0.2-0.1c-0.1,0.1-0.1,0.2-0.2,0.3l-0.1,0.1c-0.1-0.1-0.3-0.3-0.4-0.3c0,0.1-0.1,0.2-0.3,0.2h-0.8l-0.1,0.1
			c-0.2-0.1-0.6-0.2-1.2-0.3c-0.4-0.2-0.5-0.8-0.5-1.9c0.4-0.5,0.7-1,1-1.5c0.5-0.7,0.9-1,1.1-1.1c0-0.2,0.1-0.4,0.3-0.5
			c0.1,0.1,0.2,0,0.3-0.1c0.1-0.1,0.3-0.2,0.3-0.2c0.2-0.1,0.4-0.3,0.7-0.7l0.2,0.1c0.4-0.2,0.7-0.5,1-1c0.1-0.1,0.2-0.1,0.3-0.2
			c0.1-0.1,0.3-0.3,0.7-0.5c0.4-0.3,0.7-0.5,0.9-0.7l0.3-0.2c0.2-0.1,0.4-0.2,0.5-0.3c0.1-0.1,0.3-0.1,0.3-0.1
			c0.4-0.1,0.5-0.3,0.5-0.3c0.2-0.2,0.4-0.4,0.5-0.4c0.7-0.4,1-0.6,1.1-0.7h0.4v-0.1c0.1-0.1,0.3-0.3,0.8-0.5
			c0.1-0.1,0.2-0.1,0.3-0.2c0.1-0.1,0.3-0.1,0.3-0.2c0.2-0.1,0.5-0.1,0.8-0.1c0-0.1,0.3-0.4,1-0.7c0.1-0.1,0.3-0.2,0.6-0.3
			c0.3-0.1,0.4-0.2,0.5-0.2H93.6z M100.5,197.4l0.3-0.1c0.1,0,0.4-0.1,1-0.4v-0.2l0.5-0.3c0.4-0.3,0.6-0.6,0.8-0.9h-0.2
			c-0.1,0.1-0.3,0.2-0.6,0.3c-0.3,0.1-0.5,0.2-0.6,0.3c-0.1,0-0.2,0-0.2-0.1c-0.1,0.1-0.4,0.1-0.8,0.2c-0.4,0.1-0.6,0.1-0.8,0.2
			c-0.2,0-0.5,0-0.9,0.1c-0.4,0.1-0.7,0.1-0.9,0.1c-0.7,0.5-1.1,0.7-1.4,0.7c-0.1,0.1-0.4,0.2-0.9,0.3c-0.1,0.1-0.3,0.1-0.5,0.2
			c-0.2,0.1-0.4,0.1-0.5,0.2c-0.7,0.3-1.2,0.5-1.5,0.7c-0.4,0.3-0.7,0.4-0.9,0.4l-0.7,0.3c-0.2,0.1-0.4,0.1-0.4,0.2
			c-0.3,0.3-0.6,0.4-0.9,0.4c-0.1,0.1-0.4,0.2-0.8,0.4c-0.4,0.2-0.7,0.4-1,0.5c-0.3,0.2-0.6,0.4-0.9,0.5c-0.1,0.1-0.4,0.2-0.7,0.4
			c-0.3,0.2-0.6,0.3-0.7,0.4c-1.2,0.9-2,1.5-2.3,1.6c-0.1,0.1-0.2,0.1-0.3,0.2l-0.2,0.2c-0.2,0.2-0.7,0.6-1.3,1.1
			c-0.7,0.5-1.1,1-1.4,1.4v0.3c-0.1,0-0.2,0.1-0.2,0.2c0,0.1,0.1,0.2,0.2,0.3l0.3-0.1l0.4,0.2h0.4c0.2,0,0.4,0,0.4-0.1l0.2,0.2
			c0.3-0.1,0.5-0.3,0.8-0.3c0-0.1-0.1-0.1-0.2-0.2l-0.1-0.2c0.1-0.1,0.1-0.2,0.2-0.3h0.7c0.1-0.1,0.3-0.2,0.3-0.2
			c0.1,0.1,0.3,0,0.7-0.1c0.1,0,0.3,0,0.6-0.1c0.3-0.1,0.5-0.1,0.6,0c0.1-0.1,0.3-0.2,0.4-0.2h0.4c0.4-0.1,0.8-0.3,1.2-0.7
			c0,0.1,0,0.1,0.1,0.1s0.1,0,0.2,0.1c0.9-0.7,1.6-1.1,1.9-1.1l0.2-0.3c1.2-0.5,1.8-0.8,2-1c0-0.1,0.1-0.1,0.2-0.1
			c0.1,0,0.4-0.2,0.9-0.5c0.1-0.1,0.3-0.2,0.3-0.2c0.4-0.2,0.9-0.5,1.3-1c0-0.1,0.2-0.2,0.5-0.2l0.4-0.4c0.1-0.1,0.4-0.3,0.7-0.5
			c0.3-0.2,0.5-0.3,0.7-0.5c0.4-0.3,0.6-0.5,0.7-0.7c0-0.1,0.1-0.2,0.2-0.3c0.1-0.1,0.3-0.2,0.3-0.2c0.2-0.1,0.4-0.2,0.7-0.4h0.3
			l0.4-0.7C100.1,197.6,100.2,197.5,100.5,197.4z"/>
		<path d="M119.1,199.6c0,0.1-0.1,0.3-0.2,0.4c-0.1,0-0.2,0-0.2,0.1c0,0.1,0,0.3-0.1,0.3c-0.2,0.1-0.5,0.4-0.8,0.7v0.9
			c0.1-0.1,0.5-0.4,1.2-0.9h0.1l0.1-0.2l0.1-0.2c0.7-0.4,1.6-1,2.5-1.7c0.1,0,0.1,0,0.1,0.1l0.2,0.1c0-0.2,0.1-0.4,0.4-0.5l0.3-0.1
			c0.1-0.1,0.7-0.5,1.9-1.3c0.7-0.3,1.3-0.5,1.6-0.8c0.4-0.2,0.8-0.3,1-0.2c0.1-0.1,0.3-0.1,0.3-0.1c0.1,0,0.1,0,0.2,0.1
			c0.1-0.4,0.5-0.7,1.4-1l0.2,0.2c0-0.1,0.1-0.2,0.2-0.3c0.1,0,0.3-0.1,0.8-0.2c0.4-0.1,0.7-0.1,0.8,0.1c0.1-0.1,0.4-0.1,0.8-0.1
			h0.8c0.2,0,0.4,0.1,0.7,0.3h0.4c0,0.1,0.1,0.2,0.2,0.2h0.3c0.1,0,0.2,0.1,0.3,0.2c0.1,0.1,0.3,0.2,0.3,0.2
			c0.1,0.3,0.3,0.5,0.3,0.5h0.2l0.3,0.7c0.1,0.1,0.2,0.3,0.1,0.5c0.1,0.1,0.1,0.2,0,0.4l-0.4-0.4v-0.4c-0.2-0.3-0.5-0.4-0.9-0.4
			c-0.1,0-0.3,0-0.4-0.1c-0.1,0-0.3-0.1-0.4-0.1c-0.6-0.2-1.2-0.3-1.7-0.3c-0.4,0-0.7,0.1-1,0.2c-1.6,0.4-2.8,0.8-3.5,1.2
			c-0.4,0.1-0.7,0.3-1.1,0.5c-0.4,0.3-1.2,0.7-2.2,1.3c-0.5,0.3-1,0.7-1.4,1.1c-0.4,0.2-0.8,0.5-1,0.8c-0.1,0.1-0.3,0.1-0.5,0.1
			l-0.2,0.2c-0.4,0.1-0.8,0.4-1.4,0.8c-0.6,0.4-0.9,0.6-1.1,0.7l-1.6,1.3c-0.6,0.3-0.9,0.5-1.1,0.8l-1.3,1c-0.1,0.1-0.1,0.1-0.2,0.1
			c-0.2,0.1-0.4,0.3-0.6,0.5c-0.2,0.2-0.4,0.5-0.7,0.7l-0.6,0.6l-0.4,0.4c-0.2,0.2-0.3,0.3-0.5,0.4c-0.1,0.1-0.3,0.2-0.3,0.4
			c-0.1,0.1-0.3,0.3-0.4,0.5c-0.1,0.2-0.3,0.3-0.4,0.5c0,0.1,0,0.1-0.1,0.2c-0.1,0-0.1,0.1-0.1,0.2c-0.4-0.1-0.7-0.3-0.8-0.3
			c-0.1-0.2-0.2-0.4-0.5-0.5c-0.3-0.1-0.4-0.3-0.5-0.4c0.1-0.1,0.2-0.2,0.4-0.4c0.2-0.2,0.3-0.4,0.5-0.5c0.1-0.3,0.3-0.5,0.4-0.8
			c0.1-0.2,0.3-0.4,0.5-0.5l0.2-0.2l0.1-0.2c0.1-0.1,0.1-0.3,0.1-0.4c0.3-0.1,0.9-0.8,1.7-2.1c0.4-0.4,0.8-0.9,1-1.4l0.2-0.2
			c0.1-0.1,0.2-0.2,0.3-0.3c0.1-0.1,0.2-0.3,0.3-0.3l0.7-0.7c0.7-0.7,1.1-1.2,1.4-1.5h-0.1c0-0.1,0.1-0.2,0.3-0.3
			c0.2-0.1,0.3-0.3,0.3-0.3l0.4-0.4c0.4-0.1,0.6-0.4,0.7-0.7c0.2,0,0.4-0.2,0.7-0.7c0.2-0.2,0.4-0.4,0.4-0.5
			c0.4-0.1,0.7-0.3,0.7-0.5l0.4-0.4c0.4-0.4,0.8-0.8,1.2-1.2c0.1,0,0.2-0.1,0.3-0.2c0.3-0.4,0.7-0.7,1.1-0.8c0-0.1,0-0.3,0.1-0.5
			s0.1-0.3,0.1-0.4c0.6-0.4,0.9-0.7,1.1-0.9c0.1,0,0.1,0,0.1-0.1c0.1-0.2,0.3-0.5,0.5-0.8l0.2-0.2c0.1,0,0.2,0,0.3,0.1
			c0.1,0.1,0.2,0.1,0.3,0.2c0.1,0.3,0.3,0.5,0.3,0.8c0,0.4-0.1,0.8-0.3,1c0,0.4-0.1,0.8-0.4,1c-0.1,0.1-0.3,0.3-0.4,0.5
			c-0.1,0.3-0.3,0.5-0.3,0.5h-0.2c-0.1,0.1-0.2,0.2-0.2,0.3c-0.7,0.1-1.1,0.4-1.2,0.8c-0.1,0-0.2,0-0.3-0.1
			c-0.1,0.1-0.2,0.3-0.2,0.8c-0.1,0-0.3,0.1-0.5,0.4c-0.3,0-0.5,0.1-0.7,0.3c-0.1,0.1-0.2,0.1-0.3,0.1c0,0.3-0.2,0.6-0.5,1
			c-0.1,0.1-0.1,0.2-0.2,0.3c-0.1,0.1-0.1,0.2-0.2,0.3c-0.1,0-0.1,0-0.2,0.1c0,0.1-0.1,0.3-0.2,0.4L119.1,199.6z"/>
		<path d="M130.2,210l-0.7,0.1c-0.1,0-0.3-0.1-0.3-0.2c0.1-0.1,0.1-0.1,0.1-0.2c-0.1-0.1-0.1-0.2-0.1-0.3v-0.2l0.4-1l0.5-0.2
			l0.1-0.3h0.2l0.1-0.3l0.5-0.2c0.1-0.1,0.2-0.3,0.2-0.4c0.1-0.3,0.3-0.4,0.4-0.4c0.2-0.4,0.7-1,1.4-1.6c0.4-0.6,0.7-0.9,0.9-1v-0.1
			l0.1-0.2l0.4-0.4c0.1,0,0.2-0.1,0.3-0.2c0-0.1,0.1-0.2,0.2-0.3c0.1-0.1,0.2-0.2,0.2-0.3c0.1-0.1,0.2-0.2,0.3-0.3
			c0.1-0.1,0.2-0.3,0.3-0.3c0.1-0.1,0.2-0.1,0.3-0.2c0-0.1,0-0.2,0.1-0.2l0.1-0.1l0.2-0.4l0.2-0.3c0.3,0,0.4-0.1,0.4-0.3
			c0-0.2,0.1-0.3,0.3-0.3l0.2-0.1l0.4-0.4c0.1-0.1,0.1-0.1,0.1-0.2c0.1-0.1,0.2-0.1,0.3-0.2c0.1-0.1,0.2-0.1,0.3-0.2l0.1-0.1
			c0.1-0.1,0.1-0.2,0.2-0.3l0.1-0.1c0.4-0.2,0.7-0.4,0.9-0.7l0.2-0.2c0.1-0.1,0.1-0.3,0.2-0.3l0.4-0.2l0.5-0.5c0.1,0,0.1,0,0.1-0.1
			c0.1-0.1,0.1-0.1,0.2-0.1l0.1-0.1c0.1-0.3,0.4-0.4,0.8-0.4l1.1-1.2h0.3l0.4-0.2l0.2,0.4h0.2v0.3l-0.3,0.7l-0.1,0.1v0.1v0.2
			l-0.4,0.2c-0.1,0.1-0.3,0.3-0.3,0.4c-0.1,0.1-0.2,0.2-0.4,0.3v0.1c-0.1,0-0.3,0.1-0.4,0.3c-0.1,0.1-0.1,0.1-0.2,0.1l-0.2,0.2h-0.1
			l-0.3-0.2l-0.7,1c-0.5,0.3-0.8,0.5-0.8,0.5l-0.1,0.2c-0.2,0.1-0.4,0.3-0.7,0.7c-0.1,0-0.2,0.1-0.3,0.2c-0.1,0.1-0.2,0.2-0.3,0.3
			l-0.2,0.2l-0.4,0.3l-0.3,0.3l-0.2,0.1c0,0.1,0,0.1-0.1,0.2l-0.2,0.2c-0.1,0.1-0.3,0.2-0.4,0.3c-0.1,0-0.2,0-0.2,0.1v0.1
			c0,0.1,0,0.2-0.1,0.2v0.1l-0.1,0.1L137,202c0,0.1-0.1,0.3-0.2,0.3c-0.1,0.1-0.2,0.3-0.2,0.3c-0.4,0.4-0.7,0.8-0.8,1.2h-0.1
			l-0.2,0.1c-0.1,0-0.2,0.1-0.3,0.2l-0.2,0.1c0,0.1,0,0.3-0.1,0.3l-0.2,0.1l0.2,0.3l0.2-0.3l0.4-0.1l0.4-0.5c0.1,0,0.2,0,0.3-0.1
			c0.2,0,0.4,0,0.4-0.1c0.2-0.1,0.3-0.2,0.3-0.3l0.1-0.2h0.2c0.1-0.1,0.1-0.1,0.2-0.1l0.2-0.2l0.4-0.3l0.7-0.5l0.1-0.1
			c0.3,0,0.4-0.1,0.4-0.4l0.3-0.1c0.1-0.1,0.1-0.1,0.2-0.1c0.1,0,0.2,0,0.2-0.1l0.8-0.8c0.2-0.1,0.4-0.3,0.4-0.3
			c0-0.1,0.1-0.2,0.2-0.3l0.1,0.2l0.1-0.1c0.1,0,0.1,0,0.1-0.1c0.1-0.1,0.3-0.2,0.3-0.2s0.1,0,0.2-0.1l0.2-0.2c0.1,0,0.1,0,0.2-0.1
			l0.1-0.1c0.1-0.1,0.2-0.2,0.3-0.2l0.8-0.8c0.1-0.1,0.3-0.2,0.3-0.3c0.1-0.1,0.2-0.3,0.3-0.3l0.1,0.2l0.4-0.4l0.1-0.1l0.4-0.7
			l0.4,0.1l0.3-0.3l0.2,0.2c0.2-0.5,0.6-0.9,1.1-1.1l0.4-0.4l0.2,0.1l0.1-0.2l0.8-0.3l0.2,0.3l0.3-0.1l0.2,0.2l0.2-0.2l0.8,0.3v0.5
			l0.1,0.3c0.1,0.3,0.2,0.5,0.2,0.8v0.1v0.2c-0.1,0.1-0.1,0.2-0.1,0.4l-0.1,0.2v0.4l-0.1,0.3v1.2l-0.3,0.4l0.1,0.7
			c0,0.1,0,0.2-0.1,0.2c0,0.2,0,0.4-0.1,0.5c0.1,0.1,0,0.3-0.1,0.8v0.4v0.2l-0.3,0.7c0,0.1,0,0.1,0.1,0.2v0.5v0.2
			c0,0.1,0,0.1-0.1,0.2c0.1,0.4,0,0.6-0.1,0.8l0.1,0.1c0.1,0.1,0.1,0.1,0.1,0.2c0.1,0.1,0.2,0.3,0.2,0.4c0.1,0.3,0.3,0.5,0.4,0.5
			c0,0.1,0.1,0.2,0.2,0.3c0.1,0.1,0.3,0.2,0.3,0.3l0.1,0.1h0.1l1.5,0.4c0.1-0.1,0.3-0.1,0.5-0.1h0.3h0.3h0.3
			c0.5-0.3,1.2-0.4,2.1-0.4h0.4l0.3-0.1l2.7-0.8l0.5-0.4v0.1h0.2c0.1,0,0.1,0,0.1-0.1c0.3-0.1,0.5-0.2,0.8-0.4l0.2-0.1
			c0.1,0,0.2,0,0.2-0.1l0.2-0.1c0.1,0,0.1,0,0.2-0.1c0.1,0,0.1-0.1,0.2-0.1l0.7-0.2c0.1,0,0.2,0,0.3-0.1l0.1-0.1
			c0.1-0.1,0.3-0.1,0.3-0.2v-0.1l0.1-0.1l0.4,0.2l-0.1-0.1c0.1-0.3,0.6-0.5,1.3-0.7c0.1,0,0.1,0,0.1-0.1l0.3-0.2l0.1-0.1l0.3,0.4
			c-0.3,0.5-0.8,0.8-1.5,0.8l-0.2,0.2h-0.3l0.1,0.4H165l-0.1,0.1h-0.2h-0.1l-0.2,0.1c-0.1,0.1-0.2,0.1-0.2,0.2s0,0.1-0.1,0.1
			l-0.1,0.2l-0.2,0.1l-0.4,0.2c-0.2,0-0.4,0-0.4,0.1l-0.3,0.1l-0.2,0.4l-0.2-0.1l-0.1,0.1v0.1c-0.3,0.1-0.5,0.2-0.5,0.2l-0.3-0.2
			v0.3L160,208h-0.2l-0.2,0.2h-0.2l-0.3,0.3c0,0.1,0,0.1-0.1,0.1c-0.1,0-0.3,0.1-0.4,0.2c-0.1,0.1-0.2,0.2-0.4,0.3h-0.1
			c-0.1,0-0.1,0-0.1-0.1c0,0,0-0.1-0.1-0.1h-0.1l-0.2,0.1h-0.2v0.1l-0.2,0.1h-0.3c-0.4,0-0.6,0-0.7,0.1c-0.1,0.1-0.4,0.2-0.7,0.2
			c-0.1,0-0.3,0-0.6,0.1c-0.3,0-0.4,0.1-0.5,0.1h-0.3h-0.1h-0.2h-0.1h-0.1h-0.2h-0.2h-0.8c-0.4,0-0.6,0-0.7-0.1l-0.3-0.1h-0.4
			l-0.5-0.4H150c0-0.4-0.1-0.5-0.4-0.5c-0.1-0.1-0.3-0.3-0.3-0.4c0-0.1-0.1-0.2-0.3-0.4c0-0.1,0-0.2-0.1-0.3
			c-0.1-0.1-0.1-0.2-0.1-0.3c-0.2-0.1-0.3-0.3-0.3-0.7v-0.3c-0.1-0.5-0.1-0.8,0-1v-0.1c-0.1-0.1-0.1-0.1,0-0.2v-0.2l-0.1-0.3
			c0.4-0.6,0.4-1,0.2-1.2c0.1-0.5,0.2-0.8,0.1-1c0.1-0.1,0.2-0.4,0.2-0.9V201c0-0.1,0-0.2,0.1-0.4c0-0.2,0.1-0.4,0.1-0.4V200
			c-0.1-0.1-0.1-0.3-0.1-0.3c0.3-0.2,0.4-0.5,0.2-1l0.1-0.3c0.1-0.2,0.1-0.5,0.1-0.9v-0.7v-0.4l-0.1,0.1c-0.1,0-0.2,0-0.2,0.1
			c-0.1,0.1-0.3,0.2-0.5,0.3c-0.1,0.1-0.4,0.4-1.1,0.7l-0.4,0.4c-0.1,0.1-0.3,0.3-0.4,0.3l-0.9,0.4c-0.1,0-0.2,0-0.2,0.1v0.1
			c-0.5,0.4-0.8,0.5-0.9,0.5l-0.1,0.1c-0.3,0.4-0.5,0.6-0.8,0.8l-0.3,0.3l-0.5,0.1c0,0.2-0.1,0.4-0.4,0.5c0,0.1-0.1,0.2-0.3,0.4
			l-0.2,0.1c-0.1,0-0.2,0.1-0.3,0.2c-0.1,0.1-0.2,0.1-0.3,0.1c-0.4,0.6-0.8,0.9-1.1,1h-0.2l-0.1,0.1c-0.1,0.1-0.1,0.1-0.2,0.1
			l-0.1,0.2c-0.1,0.1-0.1,0.3-0.1,0.4l-0.9,0.7c-0.6,0.1-0.9,0.4-0.9,0.7h-0.3v0.2c-0.1,0.1-0.3,0.3-0.5,0.5l-0.2,0.2l-0.2,0.2
			c-0.4,0.1-0.6,0.2-0.7,0.3c-0.5,0.1-0.8,0.4-0.8,0.9l-0.9,0.4l-0.2,0.3h-0.1l-0.4,0.4c-0.1,0.1-0.3,0.2-0.6,0.3
			c-0.3,0.1-0.5,0.3-0.6,0.3l-0.1,0.1l-0.3,0.3c-0.2,0-0.4,0-0.4,0.1c0,0.1,0,0.1-0.1,0.2l-0.5-0.3L130.2,210z"/>
		<path d="M226.3,164.1c0.1,0.1,0.3,0.2,0.3,0.3c0.1,0,0.1,0.1,0.2,0.2c0.1,0.1,0.1,0.2,0.2,0.2c-0.1,0.3-0.2,0.7-0.4,1.1
			c-0.7,1.3-1.2,2.3-1.7,2.9c0,0.1-0.1,0.2-0.4,0.3c-0.1,0.2-0.3,0.4-0.5,0.6c-0.3,0.2-0.5,0.3-0.5,0.4c-0.1,0.3-0.2,0.5-0.2,0.7
			c-0.2,0.6-0.6,1.1-1.2,1.4c-0.1,0.2-0.4,0.6-0.9,1.1c0,0.1-0.1,0.1-0.3,0.2c-0.2,0-0.3,0.1-0.3,0.2c-0.4,0.2-0.9,0.7-1.3,1.5
			c0,0.1,0,0.1-0.1,0.1l-0.3,0.1c-0.4,0.6-0.8,0.9-1.2,1c-0.1,0.1-0.1,0.2-0.1,0.3c0,0.1,0,0.2-0.1,0.3c-0.2,0.1-0.6,0.4-1.2,0.9
			c-0.1,0-0.2,0.1-0.3,0.2l-0.2,0.2l-2,1.6v0.1c-0.1,0-0.2,0.1-0.4,0.2c-0.2,0.1-0.3,0.2-0.4,0.3c-0.4,0.2-0.6,0.4-0.7,0.5l-0.2,0.2
			c-0.1,0.1-0.3,0.1-0.3,0.2c-0.1,0-0.1,0-0.1,0.1c0,0,0,0.1-0.1,0.1c-0.4,0.1-0.8,0.3-1.1,0.8l-1,0.3l-0.3,0.7
			c-0.5,0.1-0.8,0.3-0.8,0.4c-0.8,0.5-1.3,0.8-1.4,0.8c-0.1,0.1-0.3,0.3-0.7,0.4l-0.3,0.3l-0.1,0.1h-0.2v0.3
			c0.4,0.1,0.9,0.1,1.7,0.1c0.1,0,0.3,0,0.5-0.1c0.1,0.1,0.2,0.1,0.4,0.1c0.2,0,0.4,0,0.4,0.1c0.3-0.1,0.7-0.1,1.2-0.1
			c0.1,0,0.1,0,0.1,0.1s0,0.1,0.1,0.2c0-0.1,0-0.2,0.1-0.2l0.4-0.2c0.1,0.1,0.4,0.1,0.8,0.1h1.4h0.4c0.1,0,0.2,0,0.3-0.1
			c0.1,0,0.2-0.1,0.3-0.1c0.1,0,0.1,0,0.1,0.1c0,0,0,0.1,0.1,0.1c0.7-0.1,1.4,0,2.1,0.1l0.9-0.2l0.3,0.1h0.9h0.8
			c0.3,0,0.5,0,0.7-0.1h1.2c0.1,0.1,0.5,0.1,1.2,0.1c0.1,0.1,0.3,0.1,0.3,0c0.5,0,0.9,0.1,1.2,0.3c0.2,0.1,0.5,0.1,0.9,0.1
			c0.2,0,0.3,0.1,0.1,0.4c-0.2,0.1-0.4,0-0.7-0.2c-0.5,0-0.9,0.1-1.2,0.2c-0.2-0.1-0.4-0.3-0.4-0.3l-0.3,0.2c-0.1,0-0.3,0-0.4,0.1
			c-0.1,0-0.3,0.1-0.3,0.1h-0.8c-0.1,0-0.3,0.1-0.5,0.3c-0.7,0-1.1,0-1.4,0.1l-0.7-0.3c-0.1,0-0.2,0-0.4,0.1c-0.2,0-0.3,0.1-0.4,0.2
			h-0.2c-0.1-0.1-0.2-0.1-0.5-0.1h-0.6c-0.1,0-0.3,0-0.4,0.1c-0.1,0-0.3,0.1-0.4,0.1h-0.7c0,0.1,0,0.1-0.1,0.2
			c-0.1-0.1-0.1-0.1-0.2-0.1c-0.5,0-1-0.1-1.4-0.2c-0.2,0.1-0.5,0.1-0.9-0.1c-0.1,0-0.2,0.1-0.2,0.2c0,0.1,0,0.1-0.1,0.1h-1.3
			c-0.2-0.1-0.3-0.1-0.3,0h-2c-0.2,0-0.3,0.1-0.3,0.3c-0.1-0.1-0.3-0.1-0.3-0.1l-0.2-0.1c-0.1,0-0.1,0-0.2,0.1
			c-0.1,0.1-0.1,0.1-0.2,0.1c-0.2,0.1-0.5,0.1-0.9,0.1h-1.2h-0.5c-0.7,0-1.1,0-1.4,0.1h-0.2c-0.1,0.1-0.2,0.1-0.3,0.2
			c-0.1,0.1-0.2,0.1-0.3,0.1c-0.4,0.1-0.7,0.4-1.1,0.9c-0.4,0-0.7,0-0.9,0.1c-0.1,0.1-0.2,0.3-0.4,0.4c-0.2,0.1-0.4,0.2-0.4,0.3
			c-0.3,0.1-0.7,0.3-1.1,0.8c-0.1,0.1-0.4,0.1-0.9,0.1l-0.2,0.4c-0.4,0.1-0.9,0.5-1.6,1.1c-0.1,0.1-0.2,0.2-0.4,0.3
			c-0.2,0.1-0.3,0.3-0.4,0.4l-0.2,0.2l-0.2,0.1c-0.1,0.1-0.3,0.2-0.5,0.4c-0.2,0.2-0.4,0.4-0.5,0.4c-0.3,0.4-0.9,1-1.7,1.9l-0.1,0.1
			c-0.1,0.1-0.1,0.1-0.1,0.2c-0.6,0.1-0.9,0.5-1.1,1.2l-0.3,0.3c-0.1,0.1-0.1,0.2-0.2,0.3c-0.1,0.1-0.1,0.2-0.2,0.3
			c-0.1,0.1-0.1,0.1-0.1,0.2c-0.1,0.3-0.3,0.4-0.4,0.4c-0.2,0.1-0.5,0.4-0.8,0.7c-0.3,0.3-0.5,0.5-0.7,0.6v0.4l-0.3,0.3
			c-0.1,0-0.4,0.3-0.9,0.8c-0.6,0.7-1,1.2-1.2,1.5c-0.2,0.2-0.5,0.5-0.8,1c-0.3,0.4-0.5,0.7-0.5,0.8c-0.4,0.8-0.6,1.3-0.7,1.5
			c0,0.1-0.1,0.3-0.2,0.5c-0.1,0.3-0.2,0.5-0.3,0.7c-0.1,0.1-0.3,0.4-0.3,0.7c-0.1,0.3-0.1,0.5-0.2,0.6c0.2,0.4,0.5,0.6,0.9,0.8h0.2
			c0.2,0.2,0.8,0.3,1.7,0.1c0.4,0.2,0.8,0.2,1.1,0c0.2-0.1,0.6-0.1,1.1-0.1c0.3,0,0.6-0.1,1-0.3l1.6-0.3c0.3-0.1,0.5-0.3,0.5-0.4
			c0.1-0.1,0.4-0.1,0.8-0.2c0.4-0.1,0.6-0.1,0.8-0.2c0.2-0.2,0.5-0.3,0.8-0.3c0.1,0,0.2-0.1,0.3-0.2c0.1-0.1,0.2-0.2,0.3-0.2
			c0.1,0,0.3,0,0.4-0.1c0.1-0.1,0.2-0.1,0.3-0.1l0.2-0.1c0.1-0.1,0.2-0.2,0.5-0.3c0.3-0.1,0.5-0.2,0.6-0.3c0.7-0.1,1.2-0.4,1.6-0.9
			c0.3,0,0.7-0.1,1.1-0.3c0.5-0.3,1-0.5,1.5-0.8c0.1-0.1,0.4-0.2,0.7-0.3c0.3-0.1,0.5-0.2,0.7-0.3c0.1-0.1,0.1-0.1,0.2-0.1
			c0.1-0.1,0.3-0.1,0.3-0.1c0.1-0.1,0.2-0.1,0.4-0.2c0.2-0.1,0.3-0.1,0.4-0.2c0-0.1,0.1-0.1,0.3-0.1c0.1,0,0.1,0,0.1,0.1l0.2,0.1
			c0.3-0.6,0.8-0.8,1.6-0.7c0-0.1,0.1-0.3,0.3-0.3v0.1c0.1,0,0.3,0.1,0.3,0.3c-0.2,0.2-0.6,0.4-1.2,0.5c-0.1,0-0.3,0-0.4,0.1
			c-0.1,0-0.2,0.1-0.3,0.2c-0.1,0.1-0.2,0.1-0.3,0.1v0.3h-0.5l-0.2,0.1l-0.1,0.1h-0.1c-0.3,0.1-0.7,0.2-1.3,0.2
			c-0.1,0.5-0.4,0.9-0.7,1.1c-0.1-0.1-0.3-0.2-0.4-0.3c-0.1,0.1-0.1,0.3,0,0.4c0-0.1-0.1-0.1-0.4-0.1c-0.1,0.1-0.1,0.2-0.1,0.4h-0.3
			l-0.1,0.1l-0.5,0.5l-0.4-0.2l-0.1,0.2l-0.1,0.2h-0.3l-0.4,0.2c-0.1,0.1-0.3,0.1-0.5,0.2s-0.3,0.1-0.4,0.2c-0.1,0-0.1,0-0.2-0.1
			c-0.2,0.1-0.5,0.3-1,0.6c-0.4,0.3-0.8,0.5-1,0.6h-0.2h-0.3c-0.2,0.4-0.6,0.7-1.2,0.8c-0.5,0.1-0.8,0.3-0.9,0.3
			c-0.1,0.1-0.2,0.1-0.4,0.2l-0.3,0.1c-0.3,0.3-0.5,0.3-0.8-0.1l-0.2,0.4c-0.2,0.3-0.6,0.4-1.2,0.4c-0.9,0.1-1.4,0.3-1.5,0.4
			c-0.3,0.2-0.7,0.3-1.1,0.3c-0.8,0.1-1.5,0.1-2-0.1c-0.1-0.1-0.2-0.1-0.3-0.1c-0.3,0-0.5-0.1-0.7-0.2c-0.1-0.1-0.3-0.2-0.8-0.3
			c-0.1-0.2-0.3-0.5-0.6-0.8c-0.3-0.3-0.5-0.5-0.6-0.7c0-0.3,0-0.5-0.1-0.7v-0.3c0-0.1,0-0.3,0.1-0.3s0.1-0.2,0.2-0.4
			c0.1-0.2,0.2-0.4,0.3-0.6c0.1-0.2,0.2-0.3,0.3-0.5v-0.3c0.1-0.1,0.2-0.3,0.4-0.8c0.4-0.7,0.7-1,0.8-1.1l1-2
			c0.1-0.1,0.3-0.3,0.5-0.6c0.2-0.3,0.4-0.5,0.4-0.6l0.7-1c0.1-0.1,0.3-0.3,0.5-0.7c0.3-0.4,0.5-0.6,0.8-0.8
			c0.2-0.1,0.5-0.4,0.8-0.8c0.3-0.4,0.5-0.7,0.7-0.9c0.2-0.1,0.5-0.5,0.9-1c0.1-0.1,0.2-0.2,0.4-0.3c0.2-0.1,0.3-0.3,0.5-0.3
			c0-0.1,0-0.1,0.1-0.1c0.1-0.1,0.2-0.2,0.2-0.3l0.2-0.2l0.1-0.1c0.1-0.1,0.1-0.1,0-0.2c0.1-0.1,0.3-0.2,0.4-0.2
			c0.2,0,0.3-0.1,0.3-0.3c0.1-0.1,0.2-0.3,0.5-0.5c0.3-0.2,0.4-0.3,0.4-0.4c0.3-0.2,0.5-0.5,0.7-0.9c-0.1-0.2-0.4-0.6-0.7-1.2
			c0-0.1,0.1-0.2,0.2-0.3c0.1-0.1,0.2-0.3,0.2-0.3c0.1-0.2,0.5-0.4,1.3-0.5c0.1-0.1,0.4-0.1,0.8-0.2c0.4-0.1,0.7-0.2,0.9-0.3h0.5
			c0.3-0.1,0.7-0.4,1.1-0.8c0.4-0.4,0.8-0.7,1-0.8c-0.1-0.1-0.1-0.2,0-0.3h-2.1c-0.1,0-0.2,0-0.3,0.1h-2.7c-0.1,0.1-0.3,0.2-0.4,0.3
			h-1.2l-0.1,0.1c-0.3-0.1-0.7,0-1.2,0.1c-0.5,0.1-0.8,0.2-1,0.2c-0.1,0-0.4,0.1-0.7,0.2c-0.3,0.1-0.5,0.2-0.7,0.3
			c-0.5-0.2-0.9-0.3-1.3-0.2c-0.4,0-0.7-0.1-0.8-0.3c-0.1-0.1-0.1-0.1-0.1-0.2c-0.1-0.1-0.1-0.3-0.1-0.3c-0.1-0.1-0.3-0.3-0.7-0.4
			l0.3-0.7c0.1-0.1,0.5-0.1,1.2-0.1c0.3-0.2,0.6-0.4,1-0.4h1.2c0.6,0,1,0,1.3,0.1c0.4,0,0.7,0,1-0.1c0.1-0.1,0.6-0.1,1.4-0.1
			c0.1,0,0.3,0,0.5-0.1c0.3,0,0.5-0.1,0.7-0.2h0.1c0.3,0.1,0.8,0.1,1.4,0.1h1.6c0.1-0.1,0.3-0.1,0.4-0.1c0.1,0,0.3,0.1,0.3,0.1
			c0.2-0.1,0.4-0.1,0.7,0h0.1h0.9c0.2,0.1,0.5,0,0.8-0.1h0.5l0.4-0.4c0.1-0.1,0.2-0.2,0.3-0.3l0.2-0.2l1.4-1.4l0.3-0.3l0.1-0.1
			c0.1-0.1,0.1-0.1,0.1-0.2c0.3-0.1,0.7-0.5,1.2-1.1c0.4-0.1,0.8-0.3,1.2-0.8v-0.1c0-0.1,0-0.1,0.1-0.1c0.1,0.1,0.3,0,0.3-0.1
			c0.1-0.1,0.3-0.2,0.3-0.2c0.1-0.3,0.3-0.6,0.8-0.9c0.1,0,0.1,0,0.2-0.1c0.1-0.3,0.4-0.4,0.7-0.4c0.1-0.4,0.5-0.8,1.1-1.1
			c0.1,0,0.3-0.3,0.7-0.9c0.2-0.1,0.4-0.2,0.7-0.4c0.2-0.2,0.4-0.4,0.5-0.4c0.1,0,0.2-0.1,0.3-0.2c0.1-0.1,0.2-0.2,0.3-0.2
			c0.1-0.1,0.2-0.1,0.3-0.2c0.1,0,0.2-0.1,0.3-0.3l0.1-0.2c0.1-0.1,0.2-0.1,0.2-0.2c0.1,0,0.3-0.1,0.4-0.4c0.6-0.4,0.9-0.7,1.1-0.9
			c0.1,0,0.2-0.1,0.3-0.2l0.3-0.3c0.7-0.7,1.2-1.1,1.5-1.2c0.1-0.3,0.5-0.6,1-1c0.2-0.1,0.3-0.1,0.3-0.2c0.1-0.1,0.2-0.3,0.4-0.5
			c0.2-0.2,0.4-0.3,0.4-0.5c0.1,0,0.2-0.1,0.4-0.3c0.1,0,0.2-0.1,0.4-0.2c0.2-0.1,0.3-0.3,0.5-0.3c0.3-0.3,0.5-0.4,0.7-0.4
			c0.1,0,0.3-0.1,0.3-0.2c0.1-0.1,0.2-0.3,0.3-0.3c0-0.1,0.1-0.2,0.2-0.3c0.1-0.1,0.2-0.2,0.2-0.3c0.1-0.1,0.4-0.2,0.7-0.4
			c0.3-0.2,0.5-0.4,0.7-0.4l0.9-0.7h0.2c0.1,0,0.2-0.1,0.3-0.2c0.1-0.1,0.2-0.2,0.4-0.3c0.1-0.3,0.5-0.6,1.3-0.9
			c0.3,0,0.5-0.2,0.8-0.5h0.9C226.1,164,226.1,164.1,226.3,164.1z M221.5,168.4l-0.1,0.2c-0.1,0.1-0.1,0.1-0.2,0.1
			c-0.3,0.2-0.6,0.5-1,1c-0.1,0-0.4,0.1-1,0.2c0,0.1,0,0.3,0.1,0.3l-0.2,0.2c-0.4,0.1-0.6,0.3-0.8,0.5c-0.3,0.2-0.4,0.4-0.4,0.4
			c-0.1,0.1-0.2,0.3-0.5,0.4c-0.3,0.1-0.4,0.3-0.5,0.3c-0.4,0.4-0.6,0.6-0.8,0.7l-0.1-0.1h-0.1c-0.4,0.4-0.7,0.7-0.7,0.9
			c-0.1,0.1-0.3,0.2-0.3,0.3c-0.1,0.1-0.1,0.3-0.2,0.3h-0.1l-1.1,1.1c-0.1,0-0.1,0-0.2,0.1c0,0.1-0.1,0.1-0.2,0.1
			c-0.2,0.1-0.5,0.3-0.8,0.5l-0.3,0.3c-0.3,0.3-0.5,0.5-0.8,0.7v0.2c-0.3,0.1-0.7,0.4-1.1,0.8c-0.5,0.4-0.8,0.6-0.9,0.7
			c-0.3,0.3-0.5,0.5-0.8,0.7l-0.1,0.1l-0.1,0.1h-0.2c-0.1,0.1-0.4,0.4-0.8,0.7c-0.4,0.3-0.6,0.5-0.8,0.7c-0.2,0.4-0.5,0.7-0.9,0.9
			c-0.3,0.1-0.4,0.3-0.4,0.5c-0.3,0.2-0.5,0.3-0.8,0.3c0,0.1,0,0.2-0.1,0.3c0,0.1-0.1,0.2-0.2,0.3h-0.4c0,0.2-0.1,0.3-0.2,0.3
			c0,0.2-0.1,0.3-0.2,0.3c-0.3,0-0.5,0.2-0.8,0.5l-0.2,0.2c-0.1,0.1-0.3,0.1-0.3,0.2l-0.3,0.7l0.1,0.1c0.1-0.1,0.3-0.2,0.6-0.3
			c0.3-0.1,0.5-0.2,0.6-0.3c0-0.1,0.1-0.2,0.2-0.3l0.4-0.2c0.1-0.1,0.4-0.3,0.8-0.5l0.8-0.4c0.6-0.4,1.3-0.9,2.3-1.5
			c0.7-0.4,1.2-0.8,1.4-1.2h0.2c0.1-0.1,0.1-0.1,0.2-0.1c0.2-0.1,0.4-0.2,0.6-0.3c0.2-0.1,0.4-0.3,0.6-0.5c0.2-0.2,0.4-0.3,0.5-0.4
			c0.4-0.4,0.8-0.7,1.1-0.9c0-0.1,0.1-0.2,0.3-0.4c0.1,0,0.2-0.1,0.3-0.2c0.1-0.1,0.3-0.2,0.3-0.2c0.5-0.4,1.2-0.9,2.1-1.6
			c0.1-0.1,0.2-0.2,0.3-0.4c0.1-0.2,0.3-0.3,0.4-0.5c0.7-0.6,1.3-1.1,1.6-1.4c0.1-0.1,0.4-0.3,0.8-0.8c0.4-0.4,0.7-0.7,1-0.9
			l0.2-0.3c0.1-0.1,0.3-0.2,0.4-0.2v-0.3c0.7-0.5,1.2-1.1,1.7-1.7c0-0.1,0.1-0.2,0.2-0.3c0.1-0.1,0.2-0.2,0.3-0.4
			c0.1-0.2,0.2-0.3,0.4-0.5l0.4-0.2c0.1-0.4,0.3-0.8,0.4-1c0-0.1,0-0.1-0.1-0.1l-0.1-0.2l-0.7,0.4c-0.1,0.1-0.1,0.2-0.1,0.4
			C222.1,167.9,221.8,168.1,221.5,168.4z"/>
		<path d="M216.8,202.1c-0.1,0.2-0.3,0.4-0.4,0.4c-0.1,0.1-0.4,0.4-0.9,0.7c0,0.1-0.1,0.2-0.2,0.3c-0.1,0.1-0.3,0.2-0.5,0.4
			s-0.4,0.3-0.5,0.4c-0.1,0.1-0.3,0.2-0.5,0.5c-0.2,0.3-0.4,0.4-0.5,0.5c-0.4,0.4-0.7,0.6-0.9,0.8c-0.1,0.1-0.3,0.3-0.4,0.3l-1.6,1
			c-0.1,0.1-0.2,0.2-0.4,0.3c-0.2,0.1-0.4,0.2-0.4,0.3l-0.7,0.4h-0.2c-0.1,0.1-0.4,0.3-0.8,0.4c-0.4,0.1-0.6,0.3-0.8,0.5
			c-0.7,0-1.2,0.1-1.7,0.4c-0.2,0.2-0.4,0.3-0.5,0.1c-0.6,0.3-1.1,0.4-1.4,0.4c-0.3,0-0.5,0.1-0.5,0.3h-0.5c-0.2,0.1-0.5,0.1-1,0.1
			h-0.2c-0.1-0.1-0.2-0.2-0.2-0.1c-0.1,0.1-0.3,0.1-0.5,0c-0.2-0.1-0.3-0.1-0.4-0.1c-0.1,0-0.3,0-0.4-0.1l-0.5-0.5
			c-0.3-0.3-0.5-0.4-0.6-0.5c-0.4-0.5-0.5-0.9-0.3-1.3v-0.4c0.1-0.2,0.3-0.6,0.5-1.2c0.1-0.2,0.3-0.6,0.8-1.2
			c0.2-0.1,0.4-0.4,0.5-0.8c0.1-0.4,0.4-0.7,0.7-0.9c0.1-0.3,0.2-0.5,0.2-0.5c0-0.1,0.1-0.2,0.3-0.2c0.1,0,0.1-0.1,0.1-0.2v-0.2
			c0.1,0,0.2-0.1,0.2-0.2c0.4-0.2,0.6-0.4,0.7-0.7c0.2-0.1,0.3-0.1,0.3-0.2l0.2-0.4c0.4-0.4,0.7-0.8,0.9-1c0.2-0.2,0.4-0.5,0.5-0.8
			c0.1,0,0.3-0.1,0.5-0.2c0-0.1,0-0.3,0.1-0.4c0.1-0.1,0.4-0.2,0.8-0.5c0.4-0.3,0.7-0.4,1-0.5v-0.3c0.4-0.3,0.8-0.5,1.1-0.7
			c0-0.1,0.1-0.2,0.2-0.3l0.2-0.2c0.2-0.1,0.4-0.3,0.4-0.4c0.1-0.1,0.4-0.3,0.7-0.5c0.1,0,0.3-0.1,0.4-0.2c0.1-0.1,0.2-0.2,0.4-0.2
			c0.1,0,0.2-0.1,0.2-0.2c0.1-0.1,0.2-0.2,0.2-0.3c0.1,0.1,0.2,0.1,0.4,0.1c0.1-0.1,0.1-0.3,0.1-0.5c0.1,0,0.3,0,0.4,0.1
			c0.1-0.1,0.5-0.4,1.1-0.9l0.2-0.4v0.4c0.3-0.2,0.4-0.4,0.4-0.4c0.1-0.1,0.3-0.2,0.6-0.3c0.3-0.1,0.4-0.2,0.5-0.2
			c0.1,0,0.1-0.1,0.1-0.2h0.1c0.2-0.1,0.5-0.1,0.8-0.2c0.3,0,0.6-0.1,0.7-0.2c0-0.1,0.1-0.1,0.3-0.1h0.4c0-0.1,0.1-0.3,0.2-0.3
			l0.4,0.2c0.4-0.1,0.9-0.1,1.3,0c0-0.1,0-0.1,0.1-0.1l0.2-0.1c0.1,0.1,0.2,0.1,0.3,0.2l0.4,0.2c0-0.1,0-0.1,0.1-0.1
			c0.1,0,0.1,0,0.2-0.1c0.1,0.1,0.1,0.2,0.2,0.4c0,0.2,0.1,0.4,0.3,0.4c-0.2,0.4-0.4,0.6-0.7,0.8c-0.7-0.2-1.4-0.1-2,0.3
			c-0.1,0-0.2,0-0.3,0.1c-0.1,0-0.2,0.1-0.3,0.1c-0.1,0.1-0.1,0.2-0.2,0.3c0-0.1-0.1-0.1-0.3-0.2c0,0.2,0,0.3-0.1,0.3v0.1h-0.4
			c-0.1,0.1-0.3,0.1-0.7,0.1c-0.1,0.1-0.1,0.3-0.2,0.3c-0.1,0.1-0.4,0.1-0.7,0.1c-0.1,0.1-0.5,0.4-1.1,0.7c0.1,0.1,0.1,0.2,0.1,0.3
			c0.2,0,0.4,0,0.7,0.1c0.1-0.1,0.4-0.3,1-0.4h0.9v-0.3c0.8,0.2,1.4,0.3,1.7,0.3c0.1,0,0.2,0.1,0.4,0.2c0.2,0.1,0.3,0.2,0.5,0.2
			c0.4,0.4,0.6,0.7,0.8,0.9c0.1,0.3,0.1,0.7,0.1,1.3c-0.3,0.4-0.4,0.8-0.4,1.3c-0.1,0.1-0.2,0.3-0.3,0.5c0,0.2-0.1,0.4-0.2,0.4v0.2
			c-0.4,0.3-0.7,0.5-0.9,0.8c-0.1,0.3-0.3,0.5-0.5,0.8C217.1,201.7,216.9,201.8,216.8,202.1z M199.8,208.9c0.7,0.2,1.1,0.3,1.3,0.2
			h0.8c0.4-0.1,0.8-0.2,1.4-0.3c0.1-0.1,0.5-0.2,0.9-0.3c0.5-0.1,0.8-0.2,0.9-0.3c0.1-0.1,0.4-0.2,0.7-0.3c0.3-0.1,0.6-0.2,0.7-0.3
			c0.1-0.1,0.4-0.3,0.7-0.5c0.2,0,0.5-0.1,0.8-0.3c0.3-0.2,0.6-0.3,0.7-0.3v-0.1c0.1-0.1,0.4-0.3,0.7-0.4c0.5-0.1,0.8-0.4,0.9-0.7
			l0.2-0.1c0,0.1,0.1,0.1,0.2,0.1c0.1-0.2,0.3-0.4,0.6-0.6s0.5-0.3,0.6-0.5h0.3l-0.1-0.2c0.2-0.1,0.4-0.2,0.5-0.3l0.2-0.1
			c0.1-0.1,0.3-0.2,0.5-0.3c0.2-0.1,0.3-0.3,0.4-0.3c0-0.1,0.1-0.1,0.2-0.1c0-0.1,0-0.1,0.1-0.2l0.1-0.2c0.1-0.1,0.3-0.4,0.6-0.7
			c0.3-0.3,0.5-0.5,0.6-0.7c0.1-0.1,0.3-0.4,0.6-0.7c0.3-0.3,0.5-0.6,0.6-0.7c0.1-0.1,0.2-0.3,0.2-0.4c0.1-0.1,0.3-0.3,0.4-0.7
			l0.2-0.4c0.1-0.1,0.1-0.2,0.2-0.5c0.1-0.3,0.1-0.5,0.2-0.6c-0.1-0.1-0.2-0.3-0.2-0.5c-0.1,0-0.2,0-0.2-0.1c-0.1,0-0.1,0-0.2-0.1
			c0-0.1-0.1-0.1-0.2-0.1c-0.4,0-0.7,0-0.9-0.1c-0.2,0.1-0.4,0.2-0.4,0.4l-0.2-0.2c-0.2,0-0.4,0-0.4,0.1c-0.1,0-0.2,0.1-0.3,0.2
			c-0.1,0.2-0.2,0.3-0.3,0.2c-0.1,0-0.2,0-0.4-0.1c-0.2,0-0.3-0.1-0.4-0.2c-0.3,0.3-0.5,0.5-0.8,0.5c-0.1-0.1-0.3-0.3-0.4-0.3
			c-0.4,0-0.8-0.1-1-0.2v-0.4l0.4-0.4l-0.2-0.1c-0.4,0.2-0.6,0.4-0.7,0.4c-0.2,0.1-0.4,0.2-0.5,0.3c-0.5,0.1-0.9,0.3-1.1,0.5
			c-0.1-0.1-0.1,0-0.2,0.1c-0.1,0.1-0.1,0.1-0.2,0.1c-0.1,0-0.3,0.1-0.5,0.2c-0.2,0.1-0.3,0.2-0.4,0.2c-0.4,0.2-1,0.7-1.6,1.3
			l-0.1,0.1c-0.1,0.1-0.4,0.4-0.8,0.8c-0.4,0.4-0.7,0.6-0.9,0.8c-0.2,0.1-0.4,0.4-0.4,0.8c-0.1,0-0.2,0-0.3,0.1
			c-0.6,0.4-1.2,1.1-1.7,2c0,0.1-0.1,0.2-0.2,0.2c-0.4,0.6-0.7,1-0.9,1.3l-0.4,0.4c0,0.1-0.1,0.2-0.2,0.4c-0.1,0.2-0.2,0.3-0.2,0.4
			v0.3c-0.5,0.3-0.8,1-1,2.1C199.3,208.7,199.5,208.8,199.8,208.9z"/>
		<path d="M252.3,207.8l-0.2,0.1l-0.2,0.2h-0.1h-0.7h-1.9h-0.2h-0.2h-1.2c-0.1,0.1-0.3,0.2-0.5,0.2c-0.1,0-0.2,0-0.2-0.1
			c-0.1,0.2-0.2,0.4-0.4,0.4c-0.2,0-0.4,0-0.4-0.1c-0.4,0.4-0.8,0.5-1.4,0.4l-0.1,0.1h-0.2c-0.1,0-0.2,0-0.3,0.1
			c-0.1,0-0.3,0.1-0.4,0.1c-0.1,0.1-0.2,0.2-0.2,0.3h-0.8c-0.1,0.1-0.3,0.2-0.4,0.3c-0.7,0.1-1.3,0.3-1.6,0.5H240
			c-0.2,0-0.4,0-0.7,0.1c-0.2,0.1-0.4,0.1-0.4,0.2l-0.1-0.1l-0.1,0.2l-0.1,0.1c-0.2,0-0.4,0.1-0.5,0.2c-0.1,0-0.2,0-0.4,0.1
			c-0.2,0-0.3,0.1-0.4,0.2c-0.1,0-0.2,0.1-0.3,0.2c-0.1,0.1-0.3,0.2-0.3,0.2v0.1c-0.7,0.1-1.2,0.4-1.5,0.7h-0.3l-0.4,0.4
			c0-0.1,0-0.1-0.1,0c-0.1,0.1-0.1,0.1-0.2,0.1c-0.3,0-0.5,0.1-0.7,0.2c-0.1,0-0.3,0-0.5,0.1c0,0.2-0.1,0.4-0.3,0.7
			c-0.3,0-0.7,0.3-1.3,0.9c-0.1,0-0.2,0-0.3,0.1l-0.4,0.2c-0.1,0-0.4,0.3-0.9,0.8c-0.4,0.4-0.7,0.7-0.8,0.9c-0.1,0-0.1,0-0.2,0.1
			c-0.1,0-0.1,0.1-0.2,0.1h-0.1c0,0.1-0.1,0.3-0.4,0.5c0,0.1-0.1,0.3-0.4,0.7l-0.1,0.2c-0.2,0.3-0.4,0.7-0.5,1.1l0.1,0.1v0.3h-0.4
			l-0.3,0.3c-0.1,0.1-0.3,0.3-0.4,0.3c-0.1,0-0.1,0-0.1-0.1c-0.1,0.3-0.4,0.5-0.7,0.7c-0.1,0.1-0.1,0.2-0.2,0.4
			c-0.1,0.2-0.2,0.3-0.3,0.4c0.1,0.1,0.1,0.2,0,0.2l-0.2,0.1c0,0.1-0.1,0.3-0.4,0.5h0.2v0.1c0,0.1,0,0.2-0.1,0.2
			c-0.1,0.1-0.3,0.2-0.5,0.3c-0.3,0.1-0.5,0.3-0.7,0.4v0.1l-0.1,0.1c-0.1,0.1-0.1,0.1-0.2,0.1s-0.1,0.1-0.1,0.2c0,0.1,0,0.2-0.1,0.2
			c-0.4,0.3-0.8,0.5-1,0.8l-0.3,0.7c-0.1,0-0.3,0-0.3-0.1c-0.1,0.2-0.2,0.5-0.5,0.9c-0.3,0.4-0.4,0.7-0.5,0.9h-0.3
			c-0.9,0.7-1.4,1.4-1.5,2c0,0.1-0.1,0.2-0.3,0.4c-0.2,0.2-0.4,0.3-0.5,0.5c-0.1,0.1-0.1,0.3-0.1,0.7c-0.4,0.3-0.7,0.4-0.9,0.4h-0.2
			c-0.2,0.5-0.7,1.3-1.3,2.3c-0.1,0-0.4,0.2-0.9,0.7l-0.1,0.2l-0.3,0.3v0.1c-0.1,0.1-0.2,0.2-0.4,0.4c-0.2,0.2-0.3,0.4-0.5,0.5
			c-0.1,0.1-0.3,0.3-0.4,0.3h-0.3c-0.1,0.4-0.3,0.8-0.4,1c-0.1,0-0.1,0-0.2-0.1c-0.2,0.1-0.4,0.4-0.5,0.8c-0.1,0.2-0.2,0.5-0.4,1
			c-0.1,0-0.3,0.1-0.4,0.2c-0.1,0.1-0.3,0.3-0.4,0.5c-0.1,0-0.4,0.3-0.8,0.8c0,0.1,0,0.3-0.1,0.4c-0.1-0.1-0.2-0.3-0.2-0.3
			c-0.1,0.2-0.2,0.4-0.4,0.4c0,0.1-0.1,0.1-0.3,0.2c0.1,0.1,0.1,0.3,0.1,0.8h-0.3v0.3c-0.1,0-0.2,0-0.3,0.1c-0.1,0-0.2,0.1-0.3,0.1
			v0.2c0,0.1,0.1,0.3,0.2,0.3c-0.1,0.1-0.1,0.2-0.2,0.3l-0.1,0.1c-0.2,0.1-0.4,0.3-0.4,0.5c0,0.1-0.1,0.1-0.2,0.2
			c-0.1,0-0.3,0-0.3-0.1c-0.1,0.1-0.3,0.3-0.3,0.4c-0.2,0-0.5,0.2-0.8,0.7c-0.4,0.5-0.6,0.8-0.7,0.9c-0.2,0.1-0.3,0.3-0.2,0.3
			c-0.1,0.1-0.1,0.3,0,0.3c-0.1-0.1-0.3-0.1-0.5-0.1c0.1,0.1,0.2,0.2,0.2,0.3c0,0.1-0.1,0.2-0.2,0.3l-0.3,0.3
			c-0.1,0.1-0.2,0.1-0.4,0.2c-0.2,0.1-0.3,0.1-0.4,0.2c-0.1,0-0.1,0-0.2-0.1v0.2h-0.4v-0.1c0-0.1,0-0.1-0.1-0.2
			c-0.4-0.1-0.6-0.2-0.7-0.3c-0.1-0.2-0.2-0.6-0.3-1.2v-0.3v-0.5c0-0.2,0-0.3-0.1-0.4c0.1-0.2,0.1-0.5,0.1-0.9c0-0.4,0-0.7,0.1-0.9
			l0.1-0.1c0.1-0.1,0.1-0.1,0-0.2c0.4-0.7,0.7-1.3,0.8-1.6c0.1-0.1,0.3-0.5,0.7-1.1l0.2-0.2l0.2-0.2c0-0.3,0-0.5,0.1-0.8
			c0.1-0.2,0.4-0.5,0.7-0.8c0.1,0,0.2-0.1,0.3-0.4c0.1-0.3,0.3-0.4,0.5-0.5h-0.1c0.3-0.4,0.5-0.7,0.5-0.9l0.2-0.1
			c0-0.1,0.2-0.4,0.7-1.1c0.1-0.1,0.3-0.4,0.5-0.7v-0.2c0.2-0.4,0.5-0.8,0.8-1.1c0-0.1,0.3-0.4,0.8-0.9c0-0.1,0.1-0.1,0.2-0.1
			c0.2-0.4,0.5-0.8,0.9-1.2h0.1c0.4-0.4,0.7-0.8,0.9-1.2c0.1-0.1,0.3-0.4,0.6-0.7c0.3-0.3,0.4-0.5,0.5-0.5c0.1,0,0.1,0,0.2-0.1
			c0.1,0,0.2,0,0.2-0.1c0.1,0,0.2,0.1,0.3,0.2c0-0.1,0.1-0.3,0.4-0.5c-0.1-0.1-0.1-0.3-0.1-0.5c0.6-0.7,1-1,1.2-1.1
			c0.2-0.2,0.4-0.4,0.4-0.5c0.1-0.1,0.3-0.2,0.5-0.4c0.3-0.2,0.5-0.4,0.5-0.5l0.2-0.2c0.3-0.1,0.7-0.4,1.1-0.9
			c0.1-0.1,0.2-0.2,0.3-0.3c0.1-0.1,0.3-0.2,0.3-0.3c0.1,0,0.2-0.2,0.4-0.5c0.1,0,0.2,0,0.3-0.1c0.1-0.1,0.2-0.1,0.3-0.2
			c0.1,0,0.1,0,0.1-0.1l0.3-0.3c0.1-0.1,0.6-0.5,1.3-1.1h0.1c0.1-0.3,0.4-0.5,0.9-0.5c0.3-0.6,0.9-1.1,1.9-1.5
			c0.1-0.1,0.2-0.2,0.4-0.3c0.2-0.6,0.6-0.9,1.2-0.9c0.1-0.1,0.3-0.4,0.5-0.7c0.4-0.2,0.7-0.3,0.8-0.3c0.1-0.1,0.5-0.4,1.1-0.7
			c0.2-0.1,0.5-0.4,1-0.9c0.1-0.1,0.3-0.1,0.4-0.1c0.1-0.1,0.3-0.2,0.5-0.4c0.1-0.1,0.2-0.1,0.3-0.2c0.1-0.1,0.3-0.1,0.4-0.1
			c0.1-0.1,0.2-0.3,0.2-0.3v0.1c0.3-0.2,0.5-0.3,0.7-0.3c0.1,0,0.3-0.1,0.5-0.3h0.1l0.2,0.1c0.1-0.1,0.1-0.2,0.1-0.4l0.4-0.4
			c0.1,0,0.1-0.1,0.2-0.2c0.1-0.4,0.3-0.7,0.7-0.7c0-0.1,0-0.1,0.1-0.1l0.1-0.2c0.1-0.1,0.2-0.3,0.4-0.4c0.2-0.1,0.3-0.3,0.4-0.4
			c0.1-0.5,0.4-0.8,0.8-0.8l0.2-0.3h0.2c0.1-0.1,0.1-0.4,0.1-0.8c0.1,0,0.4-0.1,0.7-0.4c0.1-0.7,0.5-1.3,1.3-1.7v-0.2h0.2l0.3-0.7
			c0.4-0.4,0.7-0.6,0.9-0.7c0-0.1,0.1-0.3,0.3-0.5l0.1,0.1c0.1,0.1,0.1,0.1,0.1,0.2c0-0.1,0-0.1,0.1-0.1l0.1-0.2
			c-0.1-0.1-0.2-0.2-0.1-0.2c0-0.1,0.1-0.2,0.3-0.4h0.3c0.1-0.1,0.1-0.3,0.1-0.5l-0.1-0.3c0.1,0,0.2,0,0.3-0.1
			c0.1-0.1,0.3-0.1,0.3-0.1c-0.1-0.2,0-0.4,0.2-0.5c0.2-0.1,0.3-0.2,0.3-0.3h0.2c0-0.6,0.3-0.9,0.8-1.1c0.1-0.1,0.1-0.2,0.1-0.3
			l0.3,0.3v-0.3c0-0.1,0-0.1-0.1-0.1c0-0.1,0-0.2,0.1-0.3l0.2-0.1h-0.1c0.2-0.4,0.5-0.7,1-1c0,0.1,0.1,0.1,0.2,0.1
			c0-0.1,0-0.1,0.1-0.1c0-0.1,0.1-0.1,0.2-0.1l-0.2-0.4c0.1,0,0.3-0.1,0.4-0.2v-0.2h0.4v-0.2l0.4-0.2c0.1,0,0.2-0.2,0.3-0.5v0.1
			l0.1,0.1c0.1,0,0.1-0.1,0.1-0.3v-0.4h-0.1c-0.1,0-0.2,0.1-0.3,0.3c-0.1,0.2-0.2,0.3-0.3,0.3H243c-0.1,0.2-0.3,0.4-0.5,0.6
			c-0.3,0.2-0.5,0.3-0.5,0.4h-0.3c-0.1,0.1-0.2,0.3-0.4,0.4c-0.2,0.1-0.3,0.3-0.3,0.3c-0.4,0.1-0.7,0.3-0.9,0.4
			c-0.1,0-0.2,0-0.3,0.1c-0.1,0.1-0.1,0.2-0.1,0.3c-0.7,0.5-1,0.8-1.1,1l-0.2-0.2h-0.2v0.3c-0.1,0-0.1,0-0.2,0.1l-0.7,0.3
			c-0.1,0-0.1,0.1-0.1,0.3c0,0.1-0.1,0.1-0.4,0.1c-0.1,0-0.2,0-0.3,0.1c-0.1,0.1-0.2,0.1-0.3,0.2c-0.1,0-0.2,0.1-0.4,0.1
			c-0.1,0.1-0.2,0.3-0.5,0.4c-0.3,0.1-0.4,0.3-0.5,0.3c-0.1,0.1-0.2,0.1-0.3,0.2c-0.1,0.1-0.2,0.1-0.3,0.2c-0.1-0.1-0.2-0.1-0.3,0.1
			c-0.1,0.1-0.3,0.2-0.3,0.2v0.3c-0.1,0.1-0.3,0.2-0.6,0.3c-0.3,0.1-0.6,0.2-0.7,0.4c0.1,0.1,0.1,0.1,0,0.2l-1,0.3
			c-0.1,0-0.2,0-0.3,0.1c-0.1,0.1-0.3,0.1-0.3,0.1c-0.1,0.1-0.2,0.1-0.4,0.2c-0.2,0-0.4,0.1-0.4,0.1v0.3c-0.2,0.1-0.4,0.2-0.7,0.2
			c-0.1,0-0.3,0.1-0.8,0.3l-0.2-0.2l-0.5,0.9h-0.9c-0.1,0.1-0.3,0.2-0.5,0.4c0-0.1,0-0.2-0.1-0.2c-0.1,0.1-0.2,0.2-0.2,0.4v0.1
			c-0.4,0.2-0.8,0.4-1.1,0.4c-0.1,0.1-0.3,0.2-0.5,0.4c-0.1-0.1-0.2-0.1-0.2,0c-0.3,0.2-0.8,0.3-1.4,0.3c-0.1,0-0.1,0-0.1,0.1v0.1
			c-0.6,0-0.9,0-1.1,0.1c-0.4,0-0.7,0.1-0.8,0.3l-0.1,0.1c-0.4-0.1-0.7-0.1-1,0.2c0-0.1,0-0.1-0.1-0.2c0,0.1-0.1,0.2-0.3,0.2h-0.4
			h-0.7h-0.7c-0.2,0-0.4-0.1-0.4-0.3c-0.2-0.2-0.3-0.4-0.3-0.7c-0.1-0.7-0.1-1.1,0.2-1.3v-0.3l0.3-0.1c0-0.1,0.1-0.3,0.2-0.8
			c0.1-0.3,0.3-0.5,0.3-0.5c-0.1-0.1-0.1-0.2,0.1-0.3c0.1-0.1,0.2-0.3,0.2-0.3c0.3,0,0.4-0.1,0.4-0.3c0.1-0.1,0.5-0.5,1.2-1
			c0-0.4,0.2-0.7,0.7-0.7c0.1-0.1,0.1-0.2,0.1-0.3c0.3-0.1,0.5-0.1,0.8,0c0.1,0,0.1-0.1,0-0.2l0.4-0.2v-0.4l0.2,0.2
			c0.1-0.1,0.1-0.2,0.1-0.3c0.1-0.2,0.3-0.4,0.4-0.4v-0.2c0.1-0.1,0.4-0.3,0.9-0.7l0.3,0.1v-0.4c0.6-0.3,0.9-0.5,0.9-0.5
			c0.1,0,0.2,0.1,0.2,0.3l0.1-0.3v-0.2c0-0.1,0-0.1,0.1-0.2c0.2,0,0.4,0,0.7-0.1v-0.2c0.2,0,0.4,0,0.4,0.1c0.6-0.4,0.9-0.8,1-1
			c0.4,0,0.5-0.1,0.5-0.3l1-0.7c0.1,0,0.2,0,0.3-0.1h0.2c0.1-0.1,0.2-0.2,0.3-0.4c0.1-0.2,0.3-0.3,0.4-0.3c0.1,0,0.3-0.1,0.5-0.1
			l0.1-0.1l0.1-0.1l0.1,0.1h0.2c0.2-0.4,0.5-0.6,0.9-0.5l0.2-0.1c0.1-0.1,0.3-0.3,0.6-0.4c0.3-0.1,0.5-0.3,0.6-0.3l0.1-0.2h0.7
			c0.1-0.2,0.3-0.3,0.7-0.3c0.3-0.2,0.5-0.3,0.5-0.3h0.4l0.2-0.4c0.1,0,0.2,0,0.3-0.1c0.1,0,0.2-0.1,0.3-0.1c0,0.1,0.1,0.1,0.3,0.1
			h0.3c0.1-0.1,0.3-0.2,0.3-0.3l0.3,0.1c0.1-0.1,0.3-0.2,0.4-0.3c0.1,0.1,0.5,0,1.2-0.3c0,0.1,0,0.1,0.1,0.1h0.5h0.3
			c0.1,0,0.1,0,0.2-0.1h0.8c0.1,0,0.4,0.1,0.7,0.3c0.3,0.2,0.5,0.3,0.8,0.3c0.2,0.2,0.4,0.5,0.5,0.9l-0.2,0.2c0,0.1,0,0.1-0.1,0.2
			c-0.1-0.1-0.1-0.1-0.2-0.1c-0.1,0.1-0.2,0.3-0.1,0.3c0,0.3-0.1,0.7-0.4,1.1l-0.1,0.2c-0.1,0.1-0.1,0.3-0.2,0.3
			c-0.5,0.5-0.9,0.8-1.3,0.9v0.2l0.2,0.2l-0.3-0.1c0,0.4-0.2,0.5-0.5,0.5c-0.1,0.1-0.2,0.3-0.2,0.4c0,0.1,0.1,0.1,0.2,0.1
			c0.3-0.3,0.5-0.4,0.5-0.4c0.1-0.2,0.3-0.3,0.5-0.3c0.2-0.1,0.3-0.3,0.3-0.4c0.2-0.1,0.5-0.2,0.8-0.3c0-0.1,0.1-0.2,0.3-0.3
			c0.1-0.1,0.2-0.2,0.4-0.3c0.2-0.1,0.3-0.2,0.4-0.3l0.1,0.1c0.1,0,0.1-0.1,0.2-0.2c0.1-0.1,0.2-0.2,0.3-0.3
			c0.2-0.4,0.4-0.6,0.7-0.7V195c0.1-0.1,0.3-0.1,0.5-0.1c-0.1-0.1-0.1-0.1,0-0.2c0.1-0.1,0.1-0.1,0-0.2h0.3l0.1-0.1h0.2v-0.2
			c0.3-0.1,0.6-0.3,0.9-0.8l0.1-0.1h0.3c0.8,0.5,1.2,0.8,1.3,0.8c0.1,0.3,0.1,0.5,0,0.8l-0.1,0.1v0.2c0,0.3-0.1,0.5-0.2,0.7
			c-0.3,0.1-0.4,0.1-0.4,0.2l-0.1,0.1h-0.2c0,0.4-0.2,0.7-0.5,1.1l-0.7,0.4c-0.1,0.1-0.3,0.3-0.4,0.5c-0.1,0.2-0.3,0.3-0.3,0.4
			l-0.8,0.5c0,0.1,0,0.1-0.1,0.2c-0.1,0.1-0.1,0.1-0.1,0.2c-0.1,0.1-0.4,0.3-0.7,0.5c-0.2,0.2-0.5,0.4-0.8,0.7l-0.5,0.5
			c0,0.1,0,0.2-0.1,0.3c-0.1,0.1-0.1,0.2-0.2,0.3c-0.1,0.1-0.1,0.1-0.1,0.2c0,0.1-0.1,0.2-0.3,0.3c-0.2,0.1-0.3,0.3-0.3,0.4
			l-0.2-0.1c-0.1,0.1-0.2,0.3-0.2,0.5h-0.3c-0.1,0.1-0.1,0.2-0.2,0.3c-0.1,0.2-0.1,0.4-0.2,0.4c-0.3,0.1-0.5,0.3-0.8,0.3v0.3
			c-0.1,0.1-0.4,0.3-0.7,0.5c-0.1,0.1-0.2,0.1-0.3,0.2c-0.1,0.1-0.2,0.1-0.3,0.1c-0.5,0.8-0.8,1.3-0.9,1.6c-0.1,0.1-0.1,0.1-0.2,0.1
			c-0.1,0.1-0.3,0.4-0.5,0.8c-0.2,0.4-0.4,0.6-0.5,0.8c-0.1,0.3-0.3,0.5-0.3,0.5l-0.2,0.2c-0.1,0.1-0.1,0.3-0.2,0.3
			c-0.2,0-0.3,0.1-0.3,0.2c0,0.1-0.1,0.3-0.4,0.5c0.1,0.1,0.2,0.3,0.2,0.3l0.3,0.1l0.1-0.1h0.3c0.1,0,0.2-0.1,0.5-0.2
			c0.3-0.1,0.5-0.3,0.6-0.4c0.1-0.1,0.2-0.1,0.4-0.1c0.3,0,0.5,0,0.7-0.1h0.1v-0.1c0.3-0.1,0.6-0.2,0.9-0.3c0.4-0.2,0.7-0.4,0.8-0.4
			c0,0.1,0,0.1,0.1,0.2v0.1c0.1,0,0.2-0.1,0.4-0.2c0.2-0.1,0.3-0.2,0.5-0.2l0.7-0.3c0.2,0,0.3,0,0.3,0.1c0.1-0.1,0.2-0.1,0.3-0.2
			l0.1-0.1l0.3,0.1c0.1,0,0.2-0.1,0.3-0.2c0.1-0.1,0.4-0.2,0.9-0.2c0.3-0.1,0.7-0.3,1.3-0.4c0.5-0.1,0.9-0.2,1-0.2v0.4h0.3l0.1-0.2
			v-0.2c0.1,0,0.2,0,0.3-0.1c0.1,0,0.2-0.1,0.3-0.1l0.2-0.1h0.4h1l0.2-0.1c0.1-0.1,0.3-0.1,0.3-0.1s0.3,0.1,0.8,0.2
			c0.1-0.1,0.2-0.1,0.4-0.2c0.2,0,0.3-0.1,0.4-0.1c0.1,0.1,0.2,0.2,0.5,0.2h0.5l0.2-0.2l0.4,0.2c0,0.1,0,0.1,0.1,0.1l0.2,0.1h0.2
			C252.1,207.8,252.2,207.8,252.3,207.8z M226.3,217.7c0-0.1,0-0.2,0.1-0.3l-0.8,0.5c-0.7,0.5-1.1,0.8-1.2,0.8l-0.2,0.2
			c0,0.1,0,0.1-0.1,0.1c-0.1,0.1-0.2,0.1-0.3,0.1c-0.1,0.1-0.2,0.2-0.3,0.4l-0.1,0.1l-0.2,0.2c-0.1,0-0.4,0.1-0.7,0.3
			c-0.3,0.2-0.5,0.3-0.7,0.3c-0.2,0.5-0.5,0.9-0.9,1.1c-0.1,0-0.3,0-0.4-0.1c0,0.1,0,0.1-0.1,0.2c0,0.1-0.1,0.1-0.1,0.2
			c0,0.1-0.1,0.2-0.4,0.3c-0.3,0.1-0.4,0.3-0.5,0.4h-0.4c0,0.1,0.1,0.2,0.2,0.2c-0.2,0.2-0.7,0.5-1.4,1c-0.4,0.5-0.8,0.9-1.2,1.1
			l-0.2-0.1c-0.1,0.1-0.1,0.2-0.2,0.4l-0.1,0.3c-0.4,0.2-0.6,0.4-0.7,0.7l-0.5,0.5h-0.3c-0.1,0.2-0.3,0.5-0.8,1l-0.3-0.1
			c0,0.2-0.1,0.5-0.4,1c-0.2,0-0.3,0-0.3,0.1c-0.1,0.1-0.2,0.2-0.4,0.3l-0.4,0.4c-0.4,0.4-0.7,0.6-0.9,0.7h-0.1
			c0.1,0.4,0,0.6-0.3,0.8c-0.1,0.4-0.2,0.7-0.2,0.8l-0.2,0.1c-0.3,0.4-0.5,0.6-0.8,0.8l-0.5,0.5v0.3l-0.1,0.2h-0.1l-0.3,0.3
			c0,0.3,0,0.5-0.1,0.5c0,0.1,0,0.1-0.1,0.2c-0.1,0.1-0.1,0.2-0.2,0.3c-0.1,0.1-0.1,0.2-0.2,0.3c0,0.1-0.1,0.2-0.2,0.3
			c-0.1,0.1-0.2,0.3-0.2,0.4h-0.5c0,0.1,0,0.3,0.1,0.4c0,0.1,0.1,0.2,0.1,0.3c-0.1,0.1-0.3,0.3-0.4,0.5c-0.1,0.2-0.3,0.3-0.3,0.4
			c-0.2,0-0.4,0-0.4-0.1l-0.1,0.1c0.1,0,0.2,0.1,0.2,0.3v0.1h-0.3c0.1,0.4-0.2,1-0.8,1.7c-0.1,0.1-0.3,0.2-0.3,0.2
			c-0.4,0.4-0.5,0.9-0.5,1.5c0-0.1,0-0.1-0.1-0.2c0,0.1,0,0.1-0.1,0.2s-0.1,0.1-0.1,0.2c-0.1,0.1-0.1,0.3-0.1,0.5
			c0,0.1-0.1,0.2-0.3,0.2h-0.1c-0.3,0.3-0.4,0.8-0.2,1.4c1-0.9,1.6-1.5,1.7-1.7c0.9-0.9,1.4-1.5,1.5-1.6c0.4-0.1,0.7-0.3,0.9-0.4
			v-0.5c0.4-0.3,0.7-0.6,0.9-0.9c0.4-0.6,0.9-1.1,1.5-1.5l0.8-0.8c0.1,0.1,0.2,0.1,0.4,0.1c0.2-0.7,0.3-1.1,0.3-1.2h0.3l0.2-0.1
			l-0.1-0.2l0.2-0.2c0.1-0.1,0.1-0.1,0-0.1c0.4-0.2,0.7-0.5,0.9-0.9c0.1,0,0.2-0.1,0.3-0.2c0.1-0.1,0.2-0.2,0.3-0.2
			c0-0.1,0-0.2,0.1-0.3l0.1-0.2c0.1,0,0.2,0,0.3,0.1v-0.3c0.1-0.1,0.2-0.2,0.3-0.3c0.1-0.1,0.3-0.2,0.3-0.2l-0.1-0.4l0.2-0.2
			l0.1-0.1c0.1-0.1,0.3-0.3,0.5-0.7c0.1,0,0.2-0.1,0.3-0.2l0.3-0.3c0.4-0.5,0.5-0.8,0.5-0.9l0.4-0.4h0.2c0-0.1,0-0.3,0.1-0.3
			c0.1-0.1,0.2-0.3,0.3-0.4c0.1-0.1,0.2-0.2,0.2-0.3c0.3-0.1,0.5-0.1,0.7,0c0-0.3,0-0.5,0.1-0.8l0.3-0.1c0-0.1,0.1-0.3,0.3-0.6
			s0.3-0.5,0.4-0.6h0.5v-0.3l0.2-0.1c0,0.1,0,0.1,0.1,0.1c0.1-0.2,0.3-0.5,0.5-0.8c0.1-0.4,0.3-0.7,0.5-1c0.1-0.1,0.2-0.1,0.3-0.1
			c0-0.1,0.1-0.1,0.2-0.1v-0.4l0.1-0.2c0.4-0.1,0.7-0.5,0.9-1l0.1-0.1h0.2c-0.1-0.1,0.1-0.4,0.5-0.7c0.1-0.3,0.4-0.5,0.7-0.8
			c0.1,0,0.2,0.1,0.3,0.2c0-0.1,0-0.1,0.1-0.1v-0.2l-0.1-0.2l0.1-0.1c0.1,0,0.3,0,0.4,0.1c0.1-0.1,0.2-0.1,0.3-0.1l-0.3-0.3
			c0-0.1,0.1-0.2,0.2-0.3c0.1-0.1,0.2-0.2,0.2-0.3c0.1,0,0.3,0,0.3-0.1v-0.2c0-0.1,0-0.1,0.1-0.1c0.1-0.4,0.4-0.7,0.7-0.7V217.7z
			 M225.7,205.9l-0.4,0.3h-0.7c-0.1,0-0.2,0-0.3,0.1c-0.1-0.1-0.1-0.1-0.2,0c-0.1,0.1-0.1,0.1-0.2,0.1l-0.2-0.2l-0.1,0.1
			c-0.6-0.1-1.1-0.3-1.4-0.4c-0.1-0.3-0.3-0.4-0.4-0.4c-0.1-0.1-0.1-0.3-0.1-0.5c0-0.2,0-0.4-0.1-0.5h-0.1c-0.1,0.1-0.1,0.3-0.1,0.3
			v0.2c-0.2,0.1-0.4,0.3-0.4,0.3l-0.7,0.3c0,0.1-0.1,0.4-0.2,0.7c-0.1,0-0.3,0.1-0.4,0.2c-0.1,0.4-0.3,0.6-0.4,0.8
			c-0.1,0.3-0.3,0.5-0.5,0.7c-0.1,0.1-0.1,0.2-0.1,0.3h0.1c0.3,0,0.4,0,0.4-0.1l0.4,0.1l0.1-0.1c0.1,0.1,0.4,0.1,0.7,0.1h0.3
			c0.2-0.4,0.6-0.5,1.1-0.3c0.6,0,1.2-0.2,1.7-0.7v0.2c0.1-0.1,0.4-0.2,0.7-0.3c0.3-0.1,0.5-0.2,0.7-0.3c0-0.1,0-0.1,0.1-0.2
			c0.1-0.1,0.1-0.1,0.1-0.2l0.2,0.2h0.1C225.6,206.4,225.8,206.1,225.7,205.9z M239.2,197.2c-0.1-0.3,0.1-0.5,0.4-0.8
			c0.1-0.1,0.1-0.3,0.2-0.3l0.3-0.3c0.1,0,0.3,0,0.4,0.1v-0.3v-0.3c0.1-0.1,0.2-0.4,0.2-0.7h-0.3l-0.3-0.1c-0.1,0.1-0.2,0.1-0.3,0.2
			c0-0.1,0-0.2-0.1-0.2c-0.1,0.1-0.4,0.1-0.9,0.1h-0.8c-0.1,0.1-0.2,0.3-0.4,0.4c-0.2,0.1-0.3,0.2-0.3,0.3c-0.2,0-0.6,0.1-1.2,0.2
			c-0.4,0-0.8,0-1,0.1l-0.1,0.2c-0.1,0.1-0.2,0.3-0.2,0.3c-0.6,0-1.2,0.3-2,0.8h-0.5h-0.4c-0.8,0.7-1.3,1.1-1.5,1.4v0.5l-0.2-0.4
			h-0.5c-0.1,0.3-0.3,0.4-0.5,0.4c-0.4,0-0.6,0.1-0.7,0.3c-0.1,0.1-0.1,0.1-0.2,0.1c-0.1,0.1-0.2,0.1-0.4,0.2
			c-0.2,0.1-0.4,0.1-0.4,0.1c-0.1,0-0.2,0.1-0.4,0.2c-0.2,0.1-0.4,0.3-0.4,0.3v0.2h-0.2c-0.2,0.2-0.3,0.4-0.3,0.4
			c-0.1,0.3-0.3,0.4-0.5,0.4v0.1c-0.1,0.1-0.2,0.1-0.4,0.2c-0.2,0.1-0.4,0.1-0.4,0.2l-0.4,0.4c-0.2,0.2-0.3,0.3-0.4,0.5
			c0,0.1,0,0.3,0.1,0.4l-0.4,0.1v0.2c-0.1,0.1-0.1,0.2-0.2,0.3c-0.1,0.1-0.1,0.3-0.2,0.3l-0.1,0.3c0.1,0.1,0.1,0.1,0.1,0.2
			c0.1,0,0.3,0,0.3-0.1l-0.1,0.2h0.4c0.4,0.1,1,0.1,1.9,0l0.2-0.2c0.1,0,0.2,0.1,0.3,0.2c0.1-0.2,0.1-0.3,0.2-0.3
			c0.1-0.1,0.4-0.1,0.7-0.1c0.1,0,0.1,0,0.1-0.1l0.1-0.2c0.1,0.1,0.2,0.3,0.2,0.3c0.2,0,0.7-0.1,1.3-0.3c0.1-0.1,0.2-0.3,0.2-0.4
			c0.1,0.1,0.4,0.2,0.8,0.4c0.1-0.3,0.5-0.6,1-1l0.4,0.2c0-0.1,0.1-0.3,0.3-0.4c0.2-0.1,0.3-0.3,0.3-0.4c0.2-0.1,0.5-0.2,0.8-0.3
			v-0.1h0.2l0.3-0.3h0.3c0.1-0.2,0.5-0.4,1-0.5v-0.2c0.1-0.1,0.1-0.1,0.2-0.1l0.7-0.7l0.1,0.1c0.1-0.1,0.2-0.1,0.3-0.2
			c0.1-0.1,0.2-0.1,0.3-0.1c0.1,0,0.3,0,0.3-0.1c0-0.1,0-0.1,0.1-0.2c0-0.1,0.1-0.1,0.1-0.2c0.6,0,0.9-0.1,1-0.4
			c0.1-0.1,0.1-0.2,0-0.3c0.1-0.1,0.3-0.1,0.5-0.1l0.1-0.3h0.2v-0.4h0.3l0.3-0.3c0.1,0,0.1,0,0.2,0.1h0.1
			C239.1,197.3,239.2,197.2,239.2,197.2z"/>
		<path d="M248.9,209.7h-0.2c-0.1,0-0.2,0-0.2-0.1c-0.4,0-0.8,0-1.1-0.1c-0.4,0-0.9-0.3-1.3-0.9c0-0.1-0.1-0.1-0.2-0.1
			c-0.1-0.1-0.2-0.3-0.2-0.4c-0.1,0-0.2-0.1-0.3-0.2l-0.1-0.1v-0.1v-0.4v-1c0-0.3,0-0.5,0.1-0.8V205c0.1-0.3,0.3-0.7,0.5-1.3
			c0.1,0,0.1-0.1,0.2-0.2c0.1-0.1,0.1-0.2,0.2-0.2c0.1-0.1,0.2-0.3,0.2-0.3l0.2-0.1l-0.1-0.3l1-1.4h0.2v-0.2c0.6-0.4,1-0.9,1.3-1.3
			c0.6-0.4,1-0.8,1.3-1.1l0.2-0.2h0.1c0.1-0.1,0.1-0.1,0.2-0.1c0-0.1,0.1-0.1,0.2-0.1l0.2-0.2c0.1,0,0.2,0,0.3-0.1
			c0.1-0.1,0.2-0.1,0.3-0.2c0.1-0.1,0.2-0.3,0.4-0.4c0.2-0.1,0.3-0.2,0.4-0.3c0.5-0.1,0.8-0.3,0.8-0.5c0.1,0,0.2,0,0.3-0.1h0.1
			l0.5-0.4c0.4-0.2,1-0.5,1.7-1h0.1c0.1-0.1,0.3-0.2,0.4-0.2h0.2c0.3-0.3,0.7-0.5,1.3-0.7c0.1-0.1,0.2-0.1,0.3-0.2
			c0.1,0,0.3-0.1,0.4-0.2c0.1-0.1,0.2-0.1,0.2-0.2c0.1-0.1,0.2-0.1,0.4-0.2c0.2-0.1,0.3-0.1,0.5-0.1c0.2-0.1,0.4-0.1,0.4-0.1
			l0.2-0.1l0.2-0.1c0.1-0.1,0.3-0.1,0.3-0.1c0.1,0,0.1,0,0.2-0.1c0.1-0.1,0.3-0.1,0.5-0.1h0.1c0.1,0,0.1,0,0.2-0.1h0.2
			c0.2-0.2,0.5-0.3,1-0.3h0.4c0.1-0.1,0.3-0.1,0.4-0.1h0.1h0.2c0.3-0.2,0.7-0.3,1.3-0.3h0.1c0.1,0,0.3,0,0.4-0.1h0.2l0.3,0.1
			l0.8-0.2l1.2,0.2l0.4,0.4l0.1,0.7l-0.3,0.2c-0.1,0.3-0.2,0.5-0.4,0.5c0,0.2,0,0.3-0.1,0.3l-0.1,0.2l-0.1,0.2
			c-0.1,0-0.2,0.1-0.2,0.3l-0.1,0.1H268c-0.1,0.1-0.2,0.1-0.2,0.2c0,0.2-0.2,0.4-0.7,0.7h-0.1c-0.1,0-0.1,0-0.2,0.1
			c-0.1,0.1-0.2,0.1-0.3,0.1c0,0.1-0.1,0.2-0.3,0.3l-0.2,0.1c-0.2,0-0.3,0.1-0.3,0.2c-0.1,0.2-0.3,0.4-0.8,0.5h-0.1l-0.3-0.1
			l0.2,0.3c-0.3,0.1-0.6,0.2-1,0.2c-0.2,0.4-0.5,0.5-0.9,0.5h-0.2v0.3h-1.7v0.3h-0.1c-0.3,0-0.6,0.1-0.9,0.4c0,0.1-0.1,0.2-0.3,0.4
			h-0.8l-0.5,0.2h-0.4l-0.3,0.3l-1.9,0.3l-0.8,0.3l-0.1-0.1h-0.9l-0.4,0.2h-1.1l-1-0.3l-0.1,0.1h-0.4c0,0.1,0,0.1-0.1,0.1l-0.3,0.1
			c0,0.2-0.1,0.4-0.4,0.5l-0.3,0.3c-0.1,0.1-0.2,0.2-0.3,0.4c-0.1,0-0.2,0.1-0.2,0.2c0,0.7-0.2,1.1-0.7,1.3
			c-0.3,0.1-0.4,0.3-0.2,0.5c-0.1,0.4-0.3,0.9-0.4,1.6l-0.2,0.2c-0.1,0.8-0.1,1.4,0.1,1.7c0.1,0.1,0.4,0.2,0.7,0.2h0.3l0.1,0.1h0.7
			c0.1,0,0.4,0,0.7-0.1c0.3,0,0.5-0.1,0.7-0.1c0.6-0.1,1.1-0.2,1.4-0.2h0.2c0.1-0.1,0.1-0.1,0.2-0.1l0.7,0.1l2-0.9h0.3h0.1
			c0.1-0.1,0.3-0.1,0.3-0.1c0.1,0,0.3,0,0.3,0.1c0.1-0.1,0.3-0.3,0.8-0.5c0.4-0.1,0.6-0.2,0.7-0.3c0.3-0.3,0.5-0.4,0.8-0.4h0.2
			c0.1-0.1,0.2-0.1,0.4-0.1c0.1-0.1,0.1-0.1,0.1-0.2l0.2-0.1c0.1-0.1,0.3-0.3,0.5-0.3c0-0.1,0.1-0.1,0.4-0.1c0-0.1,0.1-0.1,0.2-0.2
			h0.1l0.1,0.1l1.7-0.9l0.2,0.2l0.2-0.5h0.2h0.1h0.1c0.1-0.1,0.1-0.1,0.2-0.1h0.1h0.1c0-0.1,0-0.1,0.1-0.1c0.1,0,0.1,0,0.2-0.1h0.1
			c0.1-0.1,0.3-0.3,0.7-0.4c0.1,0,0.2,0,0.3-0.1c0.1,0,0.2-0.1,0.3-0.2l0.2,0.2l0.3-0.3l0.8-0.5h0.2l0.1-0.1
			c0.1-0.1,0.3-0.1,0.4-0.1c0.1-0.1,0.3-0.3,0.4-0.3c0.2,0,0.4,0,0.4-0.1c0.1-0.1,0.3-0.2,0.3-0.2c0.1-0.1,0.2-0.1,0.3-0.1
			c0.1,0,0.1,0,0.1-0.1l0.7-0.2h0.1l0.5-0.3l0.3,0.7l-0.7,0.2c-0.4,0.2-0.7,0.3-0.8,0.3h-0.1c-0.1,0.1-0.3,0.2-0.7,0.4
			c-0.7,0.5-1,0.8-1.1,0.9c-0.1,0.1-0.5,0.3-1,0.5c-0.1,0.1-0.2,0.2-0.4,0.3c-0.2,0.1-0.3,0.2-0.4,0.3h-0.1l-1,0.1l-0.1,0.3
			c-0.2,0.1-0.4,0.1-0.4,0.1c-0.4,0.2-0.8,0.4-1.3,0.5l-0.2,0.4c-0.4,0.2-0.7,0.3-0.8,0.3c-0.9,0.5-1.7,0.8-2.4,0.9l0.2,0.3h-0.1
			c-0.1,0.1-0.2,0.1-0.3,0.2c-0.1,0.1-0.2,0.1-0.3,0.1c-0.7,0.4-1.3,0.6-1.7,0.7l-0.2,0.4H257h-0.3c-0.3,0.1-0.7,0.3-1.1,0.4h-0.4
			H255c-0.1,0.3-0.7,0.5-1.5,0.5l-0.2,0.1h-0.3c-0.4,0.1-0.8,0.2-1.2,0.2h-0.3l-0.1,0.1c-0.2,0-0.4,0-0.4,0.1c-0.1,0-0.4,0-0.7,0.1
			c-0.3,0-0.6,0.1-0.7,0.1h-0.1H248.9z M254.3,197.8l-0.1,0.1c0,0.1-0.1,0.1-0.2,0.1c-0.1,0.1-0.4,0.3-0.7,0.8l-0.2,0.2
			c0.1,0,0.1,0,0.2-0.1h0.2h0.2c0.1,0.1,0.1,0.1,0.2,0.1c0.1,0,0.2,0,0.3-0.1c0.1,0,0.3,0,0.4-0.1c0.1,0,0.2-0.1,0.3-0.2
			c0.1-0.1,0.2-0.1,0.3-0.1c0.2-0.1,0.5-0.2,0.8-0.3l0.9-0.2l0.4-0.1h0.3l0.1,0.1c0.4-0.1,0.6-0.3,0.7-0.4c0.6-0.3,1.1-0.4,1.4-0.4
			h0.1l0.4-0.3h0.2c0.1,0,0.1,0,0.2-0.1c0.1,0,0.3,0,0.3-0.1c0.1,0,0.1,0,0.1-0.1c0,0,0-0.1,0.1-0.1c0.1-0.1,0.5-0.2,1.1-0.4
			c0.1,0,0.3-0.1,0.5-0.2l0.2-0.2l0.2-0.2l0.2,0.2l0.2-0.1l0.3-0.3c0.1-0.1,0.3-0.3,0.5-0.3c0-0.1,0.1-0.2,0.3-0.3
			c0.2-0.3,0.6-0.6,1.2-0.9l0.2-0.7h-0.1c-0.2,0-0.3,0-0.3,0.1l-0.1,0.1h-0.1h-0.1c-0.1-0.1-0.1-0.1-0.2-0.1c-0.1,0-0.2,0-0.3,0.1
			h-0.4h-0.1c-0.1,0-0.3,0.1-0.8,0.2c-0.1,0-0.2,0-0.3,0.1h-0.2c-0.1,0.1-0.2,0.1-0.4,0.1c-0.2,0-0.4,0-0.4,0.1
			c-0.4,0-0.7,0.1-0.9,0.3c-0.4,0.1-0.7,0.3-0.8,0.4h-0.4l-0.1,0.1c-0.1,0.1-0.1,0.1-0.2,0.1s-0.1,0-0.1,0.1
			c-0.1,0.1-0.1,0.1-0.2,0.1c-0.7,0.3-1.2,0.4-1.4,0.4l-0.3,0.3c-0.1,0.1-0.4,0.3-0.7,0.5c-0.2,0-0.5,0.1-0.8,0.2
			c-0.1,0-0.2,0-0.3,0.1c-0.1,0.1-0.2,0.1-0.3,0.1l-0.1-0.1l-0.3,0.2h-0.3l-0.2,0.3C254.9,197.3,254.6,197.5,254.3,197.8z
			 M270.8,200.1l0.4-0.3l0.1,0.5h-0.1C271.1,200.3,270.9,200.3,270.8,200.1z"/>
		<path d="M313.9,164.1c0.1,0.1,0.3,0.2,0.3,0.3c0.1,0,0.1,0.1,0.2,0.2c0.1,0.1,0.1,0.2,0.2,0.2c-0.1,0.3-0.2,0.7-0.4,1.1
			c-0.7,1.3-1.2,2.3-1.7,2.9c0,0.1-0.1,0.2-0.4,0.3c-0.1,0.2-0.3,0.4-0.5,0.6c-0.3,0.2-0.5,0.3-0.5,0.4c-0.1,0.3-0.2,0.5-0.2,0.7
			c-0.2,0.6-0.6,1.1-1.2,1.4c-0.1,0.2-0.4,0.6-0.9,1.1c0,0.1-0.1,0.1-0.3,0.2c-0.2,0-0.3,0.1-0.3,0.2c-0.4,0.2-0.9,0.7-1.3,1.5
			c0,0.1,0,0.1-0.1,0.1l-0.3,0.1c-0.4,0.6-0.8,0.9-1.2,1c-0.1,0.1-0.1,0.2-0.1,0.3c0,0.1,0,0.2-0.1,0.3c-0.2,0.1-0.6,0.4-1.2,0.9
			c-0.1,0-0.2,0.1-0.3,0.2l-0.2,0.2l-2,1.6v0.1c-0.1,0-0.2,0.1-0.4,0.2c-0.2,0.1-0.3,0.2-0.4,0.3c-0.4,0.2-0.6,0.4-0.7,0.5l-0.2,0.2
			c-0.1,0.1-0.3,0.1-0.3,0.2c-0.1,0-0.1,0-0.1,0.1c0,0,0,0.1-0.1,0.1c-0.4,0.1-0.8,0.3-1.1,0.8l-1,0.3l-0.3,0.7
			c-0.5,0.1-0.8,0.3-0.8,0.4c-0.8,0.5-1.3,0.8-1.4,0.8c-0.1,0.1-0.3,0.3-0.7,0.4l-0.3,0.3l-0.1,0.1h-0.2v0.3
			c0.4,0.1,0.9,0.1,1.7,0.1c0.1,0,0.3,0,0.5-0.1c0.1,0.1,0.2,0.1,0.4,0.1c0.2,0,0.4,0,0.4,0.1c0.3-0.1,0.7-0.1,1.2-0.1
			c0.1,0,0.1,0,0.1,0.1s0,0.1,0.1,0.2c0-0.1,0-0.2,0.1-0.2l0.4-0.2c0.1,0.1,0.4,0.1,0.8,0.1h1.4h0.4c0.1,0,0.2,0,0.3-0.1
			c0.1,0,0.2-0.1,0.3-0.1c0.1,0,0.1,0,0.1,0.1c0,0,0,0.1,0.1,0.1c0.7-0.1,1.4,0,2.1,0.1l0.9-0.2l0.3,0.1h0.9h0.8
			c0.3,0,0.5,0,0.7-0.1h1.2c0.1,0.1,0.5,0.1,1.2,0.1c0.1,0.1,0.3,0.1,0.3,0c0.5,0,0.9,0.1,1.2,0.3c0.2,0.1,0.5,0.1,0.9,0.1
			c0.2,0,0.3,0.1,0.1,0.4c-0.2,0.1-0.4,0-0.7-0.2c-0.5,0-0.9,0.1-1.2,0.2c-0.2-0.1-0.4-0.3-0.4-0.3l-0.3,0.2c-0.1,0-0.3,0-0.4,0.1
			c-0.1,0-0.3,0.1-0.3,0.1h-0.8c-0.1,0-0.3,0.1-0.5,0.3c-0.7,0-1.1,0-1.4,0.1l-0.7-0.3c-0.1,0-0.2,0-0.4,0.1c-0.2,0-0.3,0.1-0.4,0.2
			h-0.2c-0.1-0.1-0.2-0.1-0.5-0.1h-0.6c-0.1,0-0.3,0-0.4,0.1c-0.1,0-0.3,0.1-0.4,0.1h-0.7c0,0.1,0,0.1-0.1,0.2
			c-0.1-0.1-0.1-0.1-0.2-0.1c-0.5,0-1-0.1-1.4-0.2c-0.2,0.1-0.5,0.1-0.9-0.1c-0.1,0-0.2,0.1-0.2,0.2c0,0.1,0,0.1-0.1,0.1h-1.3
			c-0.2-0.1-0.3-0.1-0.3,0h-2c-0.2,0-0.3,0.1-0.3,0.3c-0.1-0.1-0.3-0.1-0.3-0.1l-0.2-0.1c-0.1,0-0.1,0-0.2,0.1
			c-0.1,0.1-0.1,0.1-0.2,0.1c-0.2,0.1-0.5,0.1-0.9,0.1h-1.2h-0.5c-0.7,0-1.1,0-1.4,0.1h-0.2c-0.1,0.1-0.2,0.1-0.3,0.2
			s-0.2,0.1-0.3,0.1c-0.4,0.1-0.7,0.4-1.1,0.9c-0.4,0-0.7,0-0.9,0.1c-0.1,0.1-0.2,0.3-0.4,0.4c-0.2,0.1-0.4,0.2-0.4,0.3
			c-0.3,0.1-0.7,0.3-1.1,0.8c-0.1,0.1-0.4,0.1-0.9,0.1l-0.2,0.4c-0.4,0.1-0.9,0.5-1.6,1.1c-0.1,0.1-0.2,0.2-0.4,0.3
			c-0.2,0.1-0.3,0.3-0.4,0.4l-0.2,0.2l-0.2,0.1c-0.1,0.1-0.3,0.2-0.5,0.4c-0.2,0.2-0.4,0.4-0.5,0.4c-0.3,0.4-0.9,1-1.7,1.9l-0.1,0.1
			c-0.1,0.1-0.1,0.1-0.1,0.2c-0.6,0.1-0.9,0.5-1.1,1.2l-0.3,0.3c-0.1,0.1-0.1,0.2-0.2,0.3c-0.1,0.1-0.1,0.2-0.2,0.3
			c-0.1,0.1-0.1,0.1-0.1,0.2c-0.1,0.3-0.3,0.4-0.4,0.4c-0.2,0.1-0.5,0.4-0.8,0.7c-0.3,0.3-0.5,0.5-0.7,0.6v0.4l-0.3,0.3
			c-0.1,0-0.4,0.3-0.9,0.8c-0.6,0.7-1,1.2-1.2,1.5c-0.2,0.2-0.5,0.5-0.8,1c-0.3,0.4-0.5,0.7-0.5,0.8c-0.4,0.8-0.6,1.3-0.7,1.5
			c0,0.1-0.1,0.3-0.2,0.5c-0.1,0.3-0.2,0.5-0.3,0.7c-0.1,0.1-0.3,0.4-0.3,0.7c-0.1,0.3-0.1,0.5-0.2,0.6c0.2,0.4,0.5,0.6,0.9,0.8h0.2
			c0.2,0.2,0.8,0.3,1.7,0.1c0.4,0.2,0.8,0.2,1.1,0c0.2-0.1,0.6-0.1,1.1-0.1c0.3,0,0.6-0.1,1-0.3l1.6-0.3c0.3-0.1,0.5-0.3,0.5-0.4
			c0.1-0.1,0.4-0.1,0.8-0.2c0.4-0.1,0.6-0.1,0.8-0.2c0.2-0.2,0.5-0.3,0.8-0.3c0.1,0,0.2-0.1,0.3-0.2c0.1-0.1,0.2-0.2,0.3-0.2
			c0.1,0,0.3,0,0.4-0.1c0.1-0.1,0.2-0.1,0.3-0.1l0.2-0.1c0.1-0.1,0.2-0.2,0.5-0.3c0.3-0.1,0.5-0.2,0.6-0.3c0.7-0.1,1.2-0.4,1.6-0.9
			c0.3,0,0.7-0.1,1.1-0.3c0.5-0.3,1-0.5,1.5-0.8c0.1-0.1,0.4-0.2,0.7-0.3c0.3-0.1,0.5-0.2,0.7-0.3c0.1-0.1,0.1-0.1,0.2-0.1
			c0.1-0.1,0.3-0.1,0.3-0.1c0.1-0.1,0.2-0.1,0.4-0.2c0.2-0.1,0.3-0.1,0.4-0.2c0-0.1,0.1-0.1,0.3-0.1c0.1,0,0.1,0,0.1,0.1l0.2,0.1
			c0.3-0.6,0.8-0.8,1.6-0.7c0-0.1,0.1-0.3,0.3-0.3v0.1c0.1,0,0.3,0.1,0.3,0.3c-0.2,0.2-0.6,0.4-1.2,0.5c-0.1,0-0.3,0-0.4,0.1
			c-0.1,0-0.2,0.1-0.3,0.2c-0.1,0.1-0.2,0.1-0.3,0.1v0.3h-0.5l-0.2,0.1l-0.1,0.1h-0.1c-0.3,0.1-0.7,0.2-1.3,0.2
			c-0.1,0.5-0.4,0.9-0.7,1.1c-0.1-0.1-0.3-0.2-0.4-0.3c-0.1,0.1-0.1,0.3,0,0.4c0-0.1-0.1-0.1-0.4-0.1c-0.1,0.1-0.1,0.2-0.1,0.4h-0.3
			l-0.1,0.1l-0.5,0.5l-0.4-0.2l-0.1,0.2l-0.1,0.2h-0.3l-0.4,0.2c-0.1,0.1-0.3,0.1-0.5,0.2c-0.2,0.1-0.3,0.1-0.4,0.2
			c-0.1,0-0.1,0-0.2-0.1c-0.2,0.1-0.5,0.3-1,0.6c-0.4,0.3-0.8,0.5-1,0.6h-0.2h-0.3c-0.2,0.4-0.6,0.7-1.2,0.8
			c-0.5,0.1-0.8,0.3-0.9,0.3c-0.1,0.1-0.2,0.1-0.4,0.2l-0.3,0.1c-0.3,0.3-0.5,0.3-0.8-0.1l-0.2,0.4c-0.2,0.3-0.6,0.4-1.2,0.4
			c-0.9,0.1-1.4,0.3-1.5,0.4c-0.3,0.2-0.7,0.3-1.1,0.3c-0.8,0.1-1.5,0.1-2-0.1c-0.1-0.1-0.2-0.1-0.3-0.1c-0.3,0-0.5-0.1-0.7-0.2
			c-0.1-0.1-0.3-0.2-0.8-0.3c-0.1-0.2-0.3-0.5-0.6-0.8c-0.3-0.3-0.5-0.5-0.6-0.7c0-0.3,0-0.5-0.1-0.7v-0.3c0-0.1,0-0.3,0.1-0.3
			c0.1-0.1,0.1-0.2,0.2-0.4c0.1-0.2,0.2-0.4,0.3-0.6c0.1-0.2,0.2-0.3,0.3-0.5v-0.3c0.1-0.1,0.2-0.3,0.4-0.8c0.4-0.7,0.7-1,0.8-1.1
			l1-2c0.1-0.1,0.3-0.3,0.5-0.6c0.2-0.3,0.4-0.5,0.4-0.6l0.7-1c0.1-0.1,0.3-0.3,0.5-0.7c0.3-0.4,0.5-0.6,0.8-0.8
			c0.2-0.1,0.5-0.4,0.8-0.8c0.3-0.4,0.5-0.7,0.7-0.9c0.2-0.1,0.5-0.5,0.9-1c0.1-0.1,0.2-0.2,0.4-0.3c0.2-0.1,0.3-0.3,0.5-0.3
			c0-0.1,0-0.1,0.1-0.1c0.1-0.1,0.2-0.2,0.2-0.3l0.2-0.2l0.1-0.1c0.1-0.1,0.1-0.1,0-0.2c0.1-0.1,0.3-0.2,0.4-0.2
			c0.2,0,0.3-0.1,0.3-0.3c0.1-0.1,0.2-0.3,0.5-0.5c0.3-0.2,0.4-0.3,0.4-0.4c0.3-0.2,0.5-0.5,0.7-0.9c-0.1-0.2-0.4-0.6-0.7-1.2
			c0-0.1,0.1-0.2,0.2-0.3c0.1-0.1,0.2-0.3,0.2-0.3c0.1-0.2,0.5-0.4,1.3-0.5c0.1-0.1,0.4-0.1,0.8-0.2c0.4-0.1,0.7-0.2,0.9-0.3h0.5
			c0.3-0.1,0.7-0.4,1.1-0.8c0.4-0.4,0.8-0.7,1-0.8c-0.1-0.1-0.1-0.2,0-0.3h-2.1c-0.1,0-0.2,0-0.3,0.1h-2.7c-0.1,0.1-0.3,0.2-0.4,0.3
			h-1.2l-0.1,0.1c-0.3-0.1-0.7,0-1.2,0.1c-0.5,0.1-0.8,0.2-1,0.2c-0.1,0-0.4,0.1-0.7,0.2c-0.3,0.1-0.5,0.2-0.7,0.3
			c-0.5-0.2-0.9-0.3-1.3-0.2c-0.4,0-0.7-0.1-0.8-0.3c-0.1-0.1-0.1-0.1-0.1-0.2c-0.1-0.1-0.1-0.3-0.1-0.3c-0.1-0.1-0.3-0.3-0.7-0.4
			l0.3-0.7c0.1-0.1,0.5-0.1,1.2-0.1c0.3-0.2,0.6-0.4,1-0.4h1.2c0.6,0,1,0,1.3,0.1c0.4,0,0.7,0,1-0.1c0.1-0.1,0.6-0.1,1.4-0.1
			c0.1,0,0.3,0,0.5-0.1c0.3,0,0.5-0.1,0.7-0.2h0.1c0.3,0.1,0.8,0.1,1.4,0.1h1.6c0.1-0.1,0.3-0.1,0.4-0.1c0.1,0,0.3,0.1,0.3,0.1
			c0.2-0.1,0.4-0.1,0.7,0h0.1h0.9c0.2,0.1,0.5,0,0.8-0.1h0.5l0.4-0.4c0.1-0.1,0.2-0.2,0.3-0.3l0.2-0.2l1.4-1.4l0.3-0.3l0.1-0.1
			c0.1-0.1,0.1-0.1,0.1-0.2c0.3-0.1,0.7-0.5,1.2-1.1c0.4-0.1,0.8-0.3,1.2-0.8v-0.1c0-0.1,0-0.1,0.1-0.1c0.1,0.1,0.3,0,0.3-0.1
			c0.1-0.1,0.3-0.2,0.3-0.2c0.1-0.3,0.3-0.6,0.8-0.9c0.1,0,0.1,0,0.2-0.1c0.1-0.3,0.4-0.4,0.7-0.4c0.1-0.4,0.5-0.8,1.1-1.1
			c0.1,0,0.3-0.3,0.7-0.9c0.2-0.1,0.4-0.2,0.7-0.4c0.2-0.2,0.4-0.4,0.5-0.4c0.1,0,0.2-0.1,0.3-0.2c0.1-0.1,0.2-0.2,0.3-0.2
			c0.1-0.1,0.2-0.1,0.3-0.2c0.1,0,0.2-0.1,0.3-0.3l0.1-0.2c0.1-0.1,0.2-0.1,0.2-0.2c0.1,0,0.3-0.1,0.4-0.4c0.6-0.4,0.9-0.7,1.1-0.9
			c0.1,0,0.2-0.1,0.3-0.2l0.3-0.3c0.7-0.7,1.2-1.1,1.5-1.2c0.1-0.3,0.5-0.6,1-1c0.2-0.1,0.3-0.1,0.3-0.2c0.1-0.1,0.2-0.3,0.4-0.5
			c0.2-0.2,0.4-0.3,0.4-0.5c0.1,0,0.2-0.1,0.4-0.3c0.1,0,0.2-0.1,0.4-0.2c0.2-0.1,0.3-0.3,0.5-0.3c0.3-0.3,0.5-0.4,0.7-0.4
			c0.1,0,0.3-0.1,0.3-0.2c0.1-0.1,0.2-0.3,0.3-0.3c0-0.1,0.1-0.2,0.2-0.3c0.1-0.1,0.2-0.2,0.2-0.3c0.1-0.1,0.4-0.2,0.7-0.4
			c0.3-0.2,0.5-0.4,0.7-0.4l0.9-0.7h0.2c0.1,0,0.2-0.1,0.3-0.2c0.1-0.1,0.2-0.2,0.4-0.3c0.1-0.3,0.5-0.6,1.3-0.9
			c0.3,0,0.5-0.2,0.8-0.5h0.9C313.7,164,313.8,164.1,313.9,164.1z M309.1,168.4l-0.1,0.2c-0.1,0.1-0.1,0.1-0.2,0.1
			c-0.3,0.2-0.6,0.5-1,1c-0.1,0-0.4,0.1-1,0.2c0,0.1,0,0.3,0.1,0.3l-0.2,0.2c-0.4,0.1-0.6,0.3-0.8,0.5c-0.3,0.2-0.4,0.4-0.4,0.4
			c-0.1,0.1-0.2,0.3-0.5,0.4c-0.3,0.1-0.4,0.3-0.5,0.3c-0.4,0.4-0.6,0.6-0.8,0.7l-0.1-0.1h-0.1c-0.4,0.4-0.7,0.7-0.7,0.9
			c-0.1,0.1-0.3,0.2-0.3,0.3c-0.1,0.1-0.1,0.3-0.2,0.3h-0.1l-1.1,1.1c-0.1,0-0.1,0-0.2,0.1c0,0.1-0.1,0.1-0.2,0.1
			c-0.2,0.1-0.5,0.3-0.8,0.5l-0.3,0.3c-0.3,0.3-0.5,0.5-0.8,0.7v0.2c-0.3,0.1-0.7,0.4-1.1,0.8c-0.5,0.4-0.8,0.6-0.9,0.7
			c-0.3,0.3-0.5,0.5-0.8,0.7l-0.1,0.1l-0.1,0.1h-0.2c-0.1,0.1-0.4,0.4-0.8,0.7s-0.6,0.5-0.8,0.7c-0.2,0.4-0.5,0.7-0.9,0.9
			c-0.3,0.1-0.4,0.3-0.4,0.5c-0.3,0.2-0.5,0.3-0.8,0.3c0,0.1,0,0.2-0.1,0.3c0,0.1-0.1,0.2-0.2,0.3h-0.4c0,0.2-0.1,0.3-0.2,0.3
			c0,0.2-0.1,0.3-0.2,0.3c-0.3,0-0.5,0.2-0.8,0.5l-0.2,0.2c-0.1,0.1-0.3,0.1-0.3,0.2l-0.3,0.7l0.1,0.1c0.1-0.1,0.3-0.2,0.6-0.3
			c0.3-0.1,0.5-0.2,0.6-0.3c0-0.1,0.1-0.2,0.2-0.3l0.4-0.2c0.1-0.1,0.4-0.3,0.8-0.5l0.8-0.4c0.6-0.4,1.3-0.9,2.3-1.5
			c0.7-0.4,1.2-0.8,1.4-1.2h0.2c0.1-0.1,0.1-0.1,0.2-0.1c0.2-0.1,0.4-0.2,0.6-0.3c0.2-0.1,0.4-0.3,0.6-0.5c0.2-0.2,0.4-0.3,0.5-0.4
			c0.4-0.4,0.8-0.7,1.1-0.9c0-0.1,0.1-0.2,0.3-0.4c0.1,0,0.2-0.1,0.3-0.2c0.1-0.1,0.3-0.2,0.3-0.2c0.5-0.4,1.2-0.9,2.1-1.6
			c0.1-0.1,0.2-0.2,0.3-0.4c0.1-0.2,0.3-0.3,0.4-0.5c0.7-0.6,1.3-1.1,1.6-1.4c0.1-0.1,0.4-0.3,0.8-0.8c0.4-0.4,0.7-0.7,1-0.9
			l0.2-0.3c0.1-0.1,0.3-0.2,0.4-0.2v-0.3c0.7-0.5,1.2-1.1,1.7-1.7c0-0.1,0.1-0.2,0.2-0.3c0.1-0.1,0.2-0.2,0.3-0.4
			c0.1-0.2,0.2-0.3,0.4-0.5l0.4-0.2c0.1-0.4,0.3-0.8,0.4-1c0-0.1,0-0.1-0.1-0.1l-0.1-0.2l-0.7,0.4c-0.1,0.1-0.1,0.2-0.1,0.4
			C309.8,167.9,309.4,168.1,309.1,168.4z"/>
		<path d="M312.1,209.4c-0.4-0.1-0.6-0.2-0.7-0.2c-0.1-0.1-0.2-0.2-0.4-0.4c-0.2-0.2-0.4-0.3-0.5-0.5c-0.1,0-0.1,0-0.1-0.1
			c-0.1-0.1-0.4-0.4-0.9-0.9c0.1-0.4,0-0.7-0.3-1.1c-0.1-1-0.3-1.9-0.4-2.5c0.1-0.2,0.1-0.4,0.2-0.4c0.1-0.1,0.1-0.4,0.1-0.7
			c0-0.7,0.1-1.3,0.4-2.1v-0.3V200c0.1-0.1,0.3-0.4,0.4-0.8c0.1-0.4,0.3-0.6,0.3-0.8c0.1-0.7,0.2-1.2,0.1-1.6c0.1-0.4,0.2-0.8,0.2-1
			c-0.1,0.1-0.4,0.3-0.7,0.4c-0.1,0.1-0.3,0.4-0.5,0.7c-0.2,0.3-0.4,0.5-0.5,0.7c0,0.1-0.1,0.2-0.3,0.3c-0.2,0.1-0.3,0.2-0.3,0.3
			c-0.1,0.1-0.2,0.2-0.3,0.4c0.1-0.1,0-0.1-0.1-0.1c-0.8,0.7-1.2,1.2-1.2,1.5c-0.1,0-0.3,0-0.4-0.1c-0.4,0.5-0.7,0.8-1.1,1
			c-0.2,0.2-0.3,0.4-0.3,0.5c-0.7,0.7-1.3,1.1-1.9,1.4l-0.2,0.4c-0.3,0.3-0.5,0.4-0.8,0.4c0,0.1,0,0.3-0.1,0.4
			c-0.1,0.1-0.1,0.2-0.1,0.3h-0.2c-0.4,0.3-0.7,0.5-0.9,0.7c-0.1,0-0.1,0-0.1,0.1c-0.1,0.1-0.1,0.3-0.2,0.3v-0.1
			c0,0.1-0.1,0.3-0.4,0.5h-0.3c-0.3,0.1-0.4,0.4-0.4,0.8c-0.1,0-0.2,0-0.3-0.1c-0.1,0.1-0.2,0.3-0.4,0.7H298
			c-0.2,0.1-0.3,0.3-0.3,0.4c-0.1-0.1-0.2-0.1-0.4-0.1c0,0.2-0.1,0.4-0.3,0.5c-0.2,0-0.4,0.1-0.5,0.4c-0.1,0.1-0.1,0.3,0,0.4h-0.8
			c-1,0.9-1.8,1.5-2.3,1.7c0,0.1,0,0.3-0.1,0.3c-0.1,0.1-0.3,0.1-0.4,0.1c-0.1,0-0.2,0-0.4,0.1c-0.1,0.1-0.2,0.3-0.3,0.4
			c-0.1,0-0.3,0.1-0.5,0.2c-0.3,0.1-0.5,0.2-0.5,0.3c-0.1,0.1-0.3,0.1-0.3,0.2c-0.1,0-0.2,0-0.4,0.1c-0.2,0.1-0.3,0.1-0.5,0.2
			c-0.2,0.2-0.5,0.2-0.8-0.1c-0.1,0-0.1,0-0.2,0.1c-0.1-0.1-0.2-0.2-0.3-0.3c-0.1-0.1-0.3-0.2-0.3-0.3c0-0.9,0-1.5,0.1-1.9
			c0.1-0.1,0.2-0.3,0.4-0.8s0.4-0.8,0.7-0.9l-0.2-0.2v-0.1c0.2-0.1,0.4-0.3,0.4-0.4c0.2-0.6,0.5-1.1,1-1.5c0.1-0.1,0.2-0.2,0.3-0.3
			c0.1-0.1,0.2-0.3,0.3-0.4c-0.1,0-0.2,0-0.2-0.1l0.2-0.4c0.2-0.1,0.4-0.3,0.7-0.8c0.1-0.2,0.3-0.5,0.4-0.8c0.3-0.3,0.4-0.5,0.4-0.8
			c0.4-0.4,0.8-0.8,1-1.1l-0.1-0.2c0.1,0,0.1,0,0.2-0.1c0.3-0.1,0.5-0.3,0.5-0.5c0-0.1,0.1-0.2,0.3-0.4c0.1-0.1,0.2-0.2,0.3-0.4
			c0.1-0.2,0.2-0.3,0.3-0.4c0.1-0.1,0.2-0.3,0.4-0.5c0.2-0.2,0.4-0.4,0.4-0.5c0.2-0.3,0.6-0.7,1.2-1.3c0-0.1,0.1-0.2,0.2-0.3
			c0.1-0.1,0.2-0.3,0.2-0.4c0-0.1,0.1-0.3,0.4-0.5c0.1-0.1,0.4-0.4,0.8-1c0.1-0.1,0.3-0.3,0.4-0.3c0-0.4,0.2-0.7,0.5-0.9
			c0.6-0.8,1.1-1.3,1.5-1.6c0.1-0.3,0.4-0.6,0.7-0.9c0.1-0.3,0.4-0.7,0.9-1.3c0.1,0,0.3-0.1,0.4-0.2l0.2-0.2l0.5-0.5
			c-0.1-0.1-0.1-0.2-0.1-0.3v-0.3h0.3c0.4-0.2,0.7-0.5,0.9-0.9c0-0.1,0.1-0.2,0.2-0.2c0.2-0.3,0.5-0.7,1-1.1l0.1-0.1
			c0.1-0.1,0.4-0.4,0.7-0.8c0.3-0.4,0.5-0.6,0.7-0.8c0.1-0.2,0.4-0.5,0.8-0.9c0-0.2,0-0.3,0.1-0.3l0.3-0.3c0.3-0.2,0.7-0.6,1.1-1.1
			c0.4-0.5,0.8-0.9,1.1-1.1c0.9-1.2,1.5-1.9,1.7-2.2c0.1-0.1,0.3-0.3,0.5-0.6c0.2-0.3,0.3-0.5,0.5-0.6c0.4-0.4,0.6-0.7,0.8-1
			c0.7-0.7,1.2-1.3,1.5-1.6c1.2-1.5,2.2-2.7,3.2-3.6c0.3-0.3,0.7-0.7,1.1-1.3c0.5-0.6,0.8-1,1-1.3c0.2,0,0.3-0.1,0.3-0.3
			c0.1-0.1,0.4-0.5,0.9-1c0.1,0,0.3-0.1,0.4-0.2c0.1-0.1,0.2-0.3,0.3-0.4c0.1-0.2,0.1-0.3,0.2-0.4c0.4-0.4,0.9-0.8,1.5-1.4h0.2
			l0.2,0.1c0.1,0,0.2,0,0.3-0.1c0.1-0.1,0.3-0.1,0.3,0c0.1,0.1,0.2,0.1,0.3,0c0.1-0.1,0.3-0.1,0.3-0.1v0.5c0,0.1,0.1,0.1,0.2,0.2
			c0,0.1,0,0.2-0.1,0.3c-0.1,0.1-0.1,0.3-0.1,0.3l-0.1,0.1c-0.1,0.1-0.1,0.1-0.2,0.1l-0.1,0.3c-0.1,0.1-0.2,0.2-0.3,0.4
			c-0.1,0.2-0.2,0.4-0.3,0.4c-1.2,1.2-2.2,2.1-2.9,2.7c-0.1,0.1-0.2,0.3-0.4,0.6c-0.2,0.3-0.4,0.5-0.4,0.6v0.1l-0.9,0.9
			c-0.1,0.3-0.3,0.5-0.4,0.5c-0.2,0.1-0.3,0.2-0.3,0.3c-0.2,0.2-0.5,0.5-1,0.9c-0.4,0.4-0.8,0.7-1,0.9c-0.1,0.3-0.3,0.5-0.8,0.8
			l0.4,0.4c-0.3,0-0.5,0-0.7-0.1c-0.1,0.1-0.2,0.2-0.3,0.4c-0.1,0.2-0.3,0.4-0.3,0.4c-0.2,0.1-0.4,0.1-0.4,0.1
			c-0.1,0.3-0.3,0.6-0.8,0.9c-0.4,0.4-0.5,0.7-0.5,1h-0.3c-0.2,0.2-0.5,0.6-1,1.2c-0.1,0.1-0.3,0.3-0.7,0.5l-0.3,0.3
			c-0.1,0.1-0.3,0.3-0.3,0.4c0,0.4-0.3,0.7-0.9,1c-0.1,0.1-0.4,0.4-0.9,1.1l-0.3,0.3l-0.1,0.2l-0.9,0.9c-0.1,0.2-0.3,0.4-0.7,0.5
			v0.3l-0.7,0.7v0.4l-0.1,0.1c-0.4,0-0.6,0.2-0.7,0.5c-0.2,0.2-0.4,0.3-0.5,0.3c-0.1,0.1-0.3,0.3-0.4,0.5c-0.1,0.2-0.2,0.3-0.3,0.4
			c-0.1,0.1-0.2,0.2-0.3,0.4c-0.1,0.1-0.3,0.3-0.4,0.5c-0.2,0-0.3,0-0.3,0.1c0,0.1-0.1,0.3-0.2,0.5l-0.3,0.3c-0.3,0.3-0.6,0.7-1,1.1
			c-0.4,0.4-0.7,0.8-0.9,1c-0.1,0.1-0.1,0.2-0.2,0.3c-0.1,0.1-0.1,0.3-0.2,0.3c-0.2,0.1-0.4,0.3-0.6,0.5c-0.2,0.2-0.4,0.4-0.5,0.6
			c-0.2,0.2-0.3,0.4-0.5,0.5c0,0.1-0.1,0.3-0.3,0.8c-0.2,0.1-0.5,0.4-0.8,0.9l-0.4,0.4v0.3c-0.1,0-0.2,0-0.3,0.1l-0.1,0.1
			c-0.1,0.1-0.1,0.1-0.1,0.2c-0.1,0.1-0.2,0.3-0.3,0.4c-0.1,0.1-0.2,0.2-0.2,0.3c-0.1,0.2-0.4,0.5-0.7,0.8c0,0.1-0.2,0.3-0.5,0.5
			c0,0.1-0.1,0.3-0.3,0.7c-0.1,0-0.1,0-0.1,0.1c0,0,0,0.1-0.1,0.1c-0.2,0.3-0.3,0.5-0.3,0.7l-0.2,0.2c-0.1,0.1-0.1,0.1,0,0.2
			c-1,0.6-1.5,1.3-1.5,2.1c-0.4,0.2-0.6,0.4-0.7,0.7c0,0.1-0.1,0.3-0.3,0.8c-0.1,0.2-0.2,0.5-0.5,0.8c-0.3,0.3-0.4,0.6-0.5,0.8
			l-0.3,0.3c-0.1,0.6-0.4,0.9-0.7,1c0,0.1,0,0.2-0.1,0.4s0,0.3,0.1,0.4l-0.1,0.2c-0.1,0.1-0.2,0.3-0.3,0.3l0.3,0.3
			c0-0.1,0-0.1,0.1-0.2l0.1-0.2c0.3,0,0.5,0,0.7-0.1c0-0.1,0.1-0.3,0.2-0.3h0.1c0.1-0.1,0.1-0.1,0.2-0.1c-0.1-0.1,0-0.3,0.1-0.4
			c0.1,0,0.1,0,0.2,0.1c0.1,0,0.1,0.1,0.2,0.1c0.1-0.1,0.2-0.3,0.2-0.4c0.5,0,0.8-0.1,1-0.4c0.2,0,0.3,0,0.3-0.1l0.4-0.4
			c0.2,0.1,0.5,0,0.8-0.3c-0.1,0-0.1,0-0.1-0.1h-0.1c0.2-0.2,0.5-0.3,0.8-0.3c0.4-0.1,0.8-0.5,1.3-1c0.3-0.2,0.7-0.6,1.1-1.2h0.2
			c0.5-0.3,0.8-0.6,1-0.9c0.4,0,0.7-0.2,0.9-0.5c0,0.1,0,0.1,0.1,0.1c0.1-0.1,0.3-0.3,0.6-0.8c0.3-0.4,0.5-0.7,0.8-0.8
			c0.1-0.3,0.4-0.6,1-0.9V200v-0.1c0,0.1,0,0.3,0.1,0.3c0.5-0.4,0.8-0.6,0.8-0.8c0.1-0.1,0.2-0.1,0.3-0.1c0.1-0.2,0.4-0.5,0.9-0.8
			c0.1,0,0.1-0.1,0.1-0.2c0.1-0.1,0.2-0.2,0.3-0.5c0.1-0.3,0.3-0.4,0.4-0.5c0.2,0,0.4,0,0.5,0.1v-0.1c0.1-0.1,0.2-0.3,0.3-0.4
			c0.4-0.6,0.6-1.1,0.5-1.5l0.4,0.4c0.1,0,0.2-0.1,0.2-0.4c0-0.1,0.1-0.2,0.4-0.4c0.3-0.2,0.5-0.4,0.5-0.7c0.2-0.1,0.7-0.4,1.3-1.1
			c0.1-0.3,0.4-0.7,1-1.3c0.3,0,0.6,0,0.9-0.1l0.1-0.1c0.1,0.1,0.3,0.4,0.8,1.1v1l-0.2,0.1c0,0.3-0.1,0.9-0.2,1.7
			c-0.3,0.3-0.4,0.7-0.3,1.1c0,0.3-0.1,0.7-0.3,1.1c-0.1,0.1-0.1,0.2-0.1,0.4c0,0.2-0.1,0.4-0.2,0.4c0.1,0.2,0,0.5-0.1,0.8
			c-0.1,0.3-0.2,0.6-0.2,0.7c0,0.2-0.1,0.5-0.3,0.8c-0.2,0.3-0.3,0.6-0.3,0.8c0.1,0.1,0.1,0.2,0.1,0.3c-0.1,0.1-0.1,0.4-0.2,0.7
			c0,0.3-0.1,0.5-0.3,0.7c-0.2,1.1,0.1,2.3,1,3.5c-0.1,0.1-0.1,0.1,0,0.2c0.1,0,0.2,0.1,0.3,0.2c0.1,0.1,0.3,0.2,0.4,0.3h1.5
			c0.4,0.1,0.7,0,1.1-0.2c1.3-0.4,2-0.7,2.1-0.7c0.1,0,0.2,0,0.3-0.1c0-0.2,0-0.3-0.1-0.3h0.2c0.1,0,0.4-0.1,0.7-0.2
			c0.3-0.1,0.6-0.2,0.7-0.2c0.1,0,0.2-0.1,0.4-0.3l1-0.3c0-0.1,0-0.2,0.1-0.2c0.1-0.1,0.4-0.3,1-0.6c0.6-0.3,1.1-0.6,1.5-0.8
			c0.1,0,0.2,0,0.3-0.1v0.2c0,0.1,0,0.1,0.1,0.2c0.4,0,0.7-0.2,1-0.7c0.1,0,0.1,0,0.2-0.1l0.7-0.3c0.3,0,0.4-0.1,0.4-0.3
			c0.1,0,0.3,0,0.4-0.1l0.4-0.2l0.4-0.2c0.1,0,0.1,0.1,0.1,0.2c-0.2,0.3-0.6,0.5-1.1,0.5c-0.1,0.1-0.1,0.1-0.1,0.2v0.1
			c-0.6,0.4-1,0.7-1.3,0.9l-0.2-0.2c-0.1,0.1-0.1,0.1-0.1,0.2l-0.1,0.2c-0.1,0.1-0.2,0.2-0.4,0.4c-0.2,0.2-0.4,0.3-0.7,0.5h-0.1H323
			l-0.2,0.4l-0.2,0.1c-0.1,0.1-0.3,0.2-0.6,0.3c-0.3,0.1-0.6,0.3-0.7,0.4c-0.3,0.1-0.5,0.3-0.5,0.3c-0.2,0.1-0.4,0.2-0.7,0.3
			c-0.2,0.1-0.4,0.2-0.4,0.2c-0.1,0-0.3,0.3-0.5,0.8l-0.2-0.2c-0.1,0-0.2,0.1-0.2,0.2c0,0.1-0.1,0.2-0.2,0.2c-0.1,0-0.1,0.1-0.2,0.2
			l-0.1,0.2l-0.2-0.2c-0.1,0.1-0.2,0.2-0.3,0.3c-0.1,0.1-0.2,0.2-0.2,0.3l-0.2-0.1h-0.2c0,0.1-0.1,0.2-0.4,0.2c-0.4,0-1,0.2-1.7,0.7
			c-1,0-1.6-0.1-1.9-0.2C312.7,209.5,312.5,209.5,312.1,209.4z"/>
		<path d="M327.5,209.7h-0.2c-0.1,0-0.2,0-0.2-0.1c-0.4,0-0.8,0-1.1-0.1c-0.4,0-0.9-0.3-1.3-0.9c0-0.1-0.1-0.1-0.2-0.1
			c-0.1-0.1-0.2-0.3-0.2-0.4c-0.1,0-0.2-0.1-0.3-0.2l-0.1-0.1v-0.1v-0.4v-1c0-0.3,0-0.5,0.1-0.8V205c0.1-0.3,0.3-0.7,0.5-1.3
			c0.1,0,0.1-0.1,0.2-0.2c0.1-0.1,0.1-0.2,0.2-0.2c0.1-0.1,0.2-0.3,0.2-0.3l0.2-0.1l-0.1-0.3l1-1.4h0.2v-0.2c0.6-0.4,1-0.9,1.3-1.3
			c0.6-0.4,1-0.8,1.3-1.1l0.2-0.2h0.1c0.1-0.1,0.1-0.1,0.2-0.1c0-0.1,0.1-0.1,0.2-0.1l0.2-0.2c0.1,0,0.2,0,0.3-0.1
			c0.1-0.1,0.2-0.1,0.3-0.2c0.1-0.1,0.2-0.3,0.4-0.4c0.2-0.1,0.3-0.2,0.4-0.3c0.5-0.1,0.8-0.3,0.8-0.5c0.1,0,0.2,0,0.3-0.1h0.1
			l0.5-0.4c0.4-0.2,1-0.5,1.7-1h0.1c0.1-0.1,0.3-0.2,0.4-0.2h0.2c0.3-0.3,0.7-0.5,1.3-0.7c0.1-0.1,0.2-0.1,0.3-0.2
			c0.1,0,0.3-0.1,0.4-0.2c0.1-0.1,0.2-0.1,0.2-0.2c0.1-0.1,0.2-0.1,0.4-0.2c0.2-0.1,0.3-0.1,0.5-0.1c0.2-0.1,0.4-0.1,0.4-0.1
			l0.2-0.1l0.2-0.1c0.1-0.1,0.3-0.1,0.3-0.1c0.1,0,0.1,0,0.2-0.1c0.1-0.1,0.3-0.1,0.5-0.1h0.1c0.1,0,0.1,0,0.2-0.1h0.2
			c0.2-0.2,0.5-0.3,1-0.3h0.4c0.1-0.1,0.3-0.1,0.4-0.1h0.1h0.2c0.3-0.2,0.7-0.3,1.3-0.3h0.1c0.1,0,0.3,0,0.4-0.1h0.2l0.3,0.1
			l0.8-0.2l1.2,0.2l0.4,0.4l0.1,0.7l-0.3,0.2c-0.1,0.3-0.2,0.5-0.4,0.5c0,0.2,0,0.3-0.1,0.3l-0.1,0.2l-0.1,0.2
			c-0.1,0-0.2,0.1-0.2,0.3l-0.1,0.1h-0.1c-0.1,0.1-0.2,0.1-0.2,0.2c0,0.2-0.2,0.4-0.7,0.7h-0.1c-0.1,0-0.1,0-0.2,0.1
			c-0.1,0.1-0.2,0.1-0.3,0.1c0,0.1-0.1,0.2-0.3,0.3l-0.2,0.1c-0.2,0-0.3,0.1-0.3,0.2c-0.1,0.2-0.3,0.4-0.8,0.5h-0.1l-0.3-0.1
			l0.2,0.3c-0.3,0.1-0.6,0.2-1,0.2c-0.2,0.4-0.5,0.5-0.9,0.5h-0.2v0.3h-1.7v0.3h-0.1c-0.3,0-0.6,0.1-0.9,0.4c0,0.1-0.1,0.2-0.3,0.4
			h-0.8l-0.5,0.2h-0.4l-0.3,0.3l-1.9,0.3l-0.8,0.3l-0.1-0.1h-0.9l-0.4,0.2H331l-1-0.3l-0.1,0.1h-0.4c0,0.1,0,0.1-0.1,0.1l-0.3,0.1
			c0,0.2-0.1,0.4-0.4,0.5l-0.3,0.3c-0.1,0.1-0.2,0.2-0.3,0.4c-0.1,0-0.2,0.1-0.2,0.2c0,0.7-0.2,1.1-0.7,1.3
			c-0.3,0.1-0.4,0.3-0.2,0.5c-0.1,0.4-0.3,0.9-0.4,1.6l-0.2,0.2c-0.1,0.8-0.1,1.4,0.1,1.7c0.1,0.1,0.4,0.2,0.7,0.2h0.3l0.1,0.1h0.7
			c0.1,0,0.4,0,0.7-0.1c0.3,0,0.5-0.1,0.7-0.1c0.6-0.1,1.1-0.2,1.4-0.2h0.2c0.1-0.1,0.1-0.1,0.2-0.1l0.7,0.1l2-0.9h0.3h0.1
			c0.1-0.1,0.3-0.1,0.3-0.1c0.1,0,0.3,0,0.3,0.1c0.1-0.1,0.3-0.3,0.8-0.5c0.4-0.1,0.6-0.2,0.7-0.3c0.3-0.3,0.5-0.4,0.8-0.4h0.2
			c0.1-0.1,0.2-0.1,0.4-0.1c0.1-0.1,0.1-0.1,0.1-0.2l0.2-0.1c0.1-0.1,0.3-0.3,0.5-0.3c0-0.1,0.1-0.1,0.4-0.1c0-0.1,0.1-0.1,0.2-0.2
			h0.1l0.1,0.1l1.7-0.9l0.2,0.2l0.2-0.5h0.2h0.1h0.1c0.1-0.1,0.1-0.1,0.2-0.1h0.1h0.1c0-0.1,0-0.1,0.1-0.1c0.1,0,0.1,0,0.2-0.1h0.1
			c0.1-0.1,0.3-0.3,0.7-0.4c0.1,0,0.2,0,0.3-0.1c0.1,0,0.2-0.1,0.3-0.2l0.2,0.2l0.3-0.3l0.8-0.5h0.2l0.1-0.1
			c0.1-0.1,0.3-0.1,0.4-0.1c0.1-0.1,0.3-0.3,0.4-0.3c0.2,0,0.4,0,0.4-0.1c0.1-0.1,0.3-0.2,0.3-0.2c0.1-0.1,0.2-0.1,0.3-0.1
			c0.1,0,0.1,0,0.1-0.1l0.7-0.2h0.1l0.5-0.3l0.3,0.7l-0.7,0.2c-0.4,0.2-0.7,0.3-0.8,0.3H348c-0.1,0.1-0.3,0.2-0.7,0.4
			c-0.7,0.5-1,0.8-1.1,0.9c-0.1,0.1-0.5,0.3-1,0.5c-0.1,0.1-0.2,0.2-0.4,0.3c-0.2,0.1-0.3,0.2-0.4,0.3h-0.1l-1,0.1l-0.1,0.3
			c-0.2,0.1-0.4,0.1-0.4,0.1c-0.4,0.2-0.8,0.4-1.3,0.5l-0.2,0.4c-0.4,0.2-0.7,0.3-0.8,0.3c-0.9,0.5-1.7,0.8-2.4,0.9l0.2,0.3h-0.1
			c-0.1,0.1-0.2,0.1-0.3,0.2c-0.1,0.1-0.2,0.1-0.3,0.1c-0.7,0.4-1.3,0.6-1.7,0.7l-0.2,0.4h-0.1h-0.3c-0.3,0.1-0.7,0.3-1.1,0.4h-0.4
			h-0.2c-0.1,0.3-0.7,0.5-1.5,0.5l-0.2,0.1h-0.3c-0.4,0.1-0.8,0.2-1.2,0.2H330l-0.1,0.1c-0.2,0-0.4,0-0.4,0.1c-0.1,0-0.4,0-0.7,0.1
			c-0.3,0-0.6,0.1-0.7,0.1h-0.1H327.5z M332.9,197.8l-0.1,0.1c0,0.1-0.1,0.1-0.2,0.1c-0.1,0.1-0.4,0.3-0.7,0.8l-0.2,0.2
			c0.1,0,0.1,0,0.2-0.1h0.2h0.2c0.1,0.1,0.1,0.1,0.2,0.1c0.1,0,0.2,0,0.3-0.1c0.1,0,0.3,0,0.4-0.1s0.2-0.1,0.3-0.2
			c0.1-0.1,0.2-0.1,0.3-0.1c0.2-0.1,0.5-0.2,0.8-0.3l0.9-0.2l0.4-0.1h0.3l0.1,0.1c0.4-0.1,0.6-0.3,0.7-0.4c0.6-0.3,1.1-0.4,1.4-0.4
			h0.1l0.4-0.3h0.2c0.1,0,0.1,0,0.2-0.1c0.1,0,0.3,0,0.3-0.1c0.1,0,0.1,0,0.1-0.1c0,0,0-0.1,0.1-0.1c0.1-0.1,0.5-0.2,1.1-0.4
			c0.1,0,0.3-0.1,0.5-0.2l0.2-0.2l0.2-0.2l0.2,0.2l0.2-0.1l0.3-0.3c0.1-0.1,0.3-0.3,0.5-0.3c0-0.1,0.1-0.2,0.3-0.3
			c0.2-0.3,0.6-0.6,1.2-0.9l0.2-0.7H345c-0.2,0-0.3,0-0.3,0.1l-0.1,0.1h-0.1h-0.1c-0.1-0.1-0.1-0.1-0.2-0.1c-0.1,0-0.2,0-0.3,0.1
			h-0.4h-0.1c-0.1,0-0.3,0.1-0.8,0.2c-0.1,0-0.2,0-0.3,0.1H342c-0.1,0.1-0.2,0.1-0.4,0.1c-0.2,0-0.4,0-0.4,0.1
			c-0.4,0-0.7,0.1-0.9,0.3c-0.4,0.1-0.7,0.3-0.8,0.4H339l-0.1,0.1c-0.1,0.1-0.1,0.1-0.2,0.1c-0.1,0-0.1,0-0.1,0.1
			c-0.1,0.1-0.1,0.1-0.2,0.1c-0.7,0.3-1.2,0.4-1.4,0.4l-0.3,0.3c-0.1,0.1-0.4,0.3-0.7,0.5c-0.2,0-0.5,0.1-0.8,0.2
			c-0.1,0-0.2,0-0.3,0.1c-0.1,0.1-0.2,0.1-0.3,0.1l-0.1-0.1l-0.3,0.2h-0.3l-0.2,0.3C333.5,197.3,333.2,197.5,332.9,197.8z
			 M349.4,200.1l0.4-0.3l0.1,0.5h-0.1C349.7,200.3,349.5,200.3,349.4,200.1z"/>
		<path d="M352.2,199.6c0,0.1-0.1,0.3-0.2,0.4c-0.1,0-0.2,0-0.2,0.1c0,0.1,0,0.3-0.1,0.3c-0.2,0.1-0.5,0.4-0.8,0.7v0.9
			c0.1-0.1,0.5-0.4,1.2-0.9h0.1l0.1-0.2l0.1-0.2c0.7-0.4,1.6-1,2.5-1.7c0.1,0,0.1,0,0.1,0.1l0.2,0.1c0-0.2,0.1-0.4,0.4-0.5l0.3-0.1
			c0.1-0.1,0.7-0.5,1.9-1.3c0.7-0.3,1.3-0.5,1.6-0.8c0.4-0.2,0.8-0.3,1-0.2c0.1-0.1,0.3-0.1,0.3-0.1c0.1,0,0.1,0,0.2,0.1
			c0.1-0.4,0.5-0.7,1.4-1l0.2,0.2c0-0.1,0.1-0.2,0.2-0.3c0.1,0,0.3-0.1,0.8-0.2c0.4-0.1,0.7-0.1,0.8,0.1c0.1-0.1,0.4-0.1,0.8-0.1
			h0.8c0.2,0,0.4,0.1,0.7,0.3h0.4c0,0.1,0.1,0.2,0.2,0.2h0.3c0.1,0,0.2,0.1,0.3,0.2c0.1,0.1,0.3,0.2,0.3,0.2
			c0.1,0.3,0.3,0.5,0.3,0.5h0.2l0.3,0.7c0.1,0.1,0.2,0.3,0.1,0.5c0.1,0.1,0.1,0.2,0,0.4l-0.4-0.4v-0.4c-0.2-0.3-0.5-0.4-0.9-0.4
			c-0.1,0-0.3,0-0.4-0.1c-0.1,0-0.3-0.1-0.4-0.1c-0.6-0.2-1.2-0.3-1.7-0.3c-0.4,0-0.7,0.1-1,0.2c-1.6,0.4-2.8,0.8-3.5,1.2
			c-0.4,0.1-0.7,0.3-1.1,0.5c-0.4,0.3-1.2,0.7-2.2,1.3c-0.5,0.3-1,0.7-1.4,1.1c-0.4,0.2-0.8,0.5-1,0.8c-0.1,0.1-0.3,0.1-0.5,0.1
			l-0.2,0.2c-0.4,0.1-0.8,0.4-1.4,0.8c-0.6,0.4-0.9,0.6-1.1,0.7l-1.6,1.3c-0.6,0.3-0.9,0.5-1.1,0.8l-1.3,1c-0.1,0.1-0.1,0.1-0.2,0.1
			c-0.2,0.1-0.4,0.3-0.6,0.5c-0.2,0.2-0.4,0.5-0.7,0.7l-0.6,0.6l-0.4,0.4c-0.2,0.2-0.3,0.3-0.5,0.4c-0.1,0.1-0.3,0.2-0.3,0.4
			c-0.1,0.1-0.3,0.3-0.4,0.5c-0.1,0.2-0.3,0.3-0.4,0.5c0,0.1,0,0.1-0.1,0.2c-0.1,0-0.1,0.1-0.1,0.2c-0.4-0.1-0.7-0.3-0.8-0.3
			c-0.1-0.2-0.2-0.4-0.5-0.5c-0.3-0.1-0.4-0.3-0.5-0.4c0.1-0.1,0.2-0.2,0.4-0.4c0.2-0.2,0.3-0.4,0.5-0.5c0.1-0.3,0.3-0.5,0.4-0.8
			c0.1-0.2,0.3-0.4,0.5-0.5l0.2-0.2l0.1-0.2c0.1-0.1,0.1-0.3,0.1-0.4c0.3-0.1,0.9-0.8,1.7-2.1c0.4-0.4,0.8-0.9,1-1.4l0.2-0.2
			c0.1-0.1,0.2-0.2,0.3-0.3c0.1-0.1,0.2-0.3,0.3-0.3l0.7-0.7c0.7-0.7,1.1-1.2,1.4-1.5h-0.1c0-0.1,0.1-0.2,0.3-0.3
			c0.2-0.1,0.3-0.3,0.3-0.3l0.4-0.4c0.4-0.1,0.6-0.4,0.7-0.7c0.2,0,0.4-0.2,0.7-0.7c0.2-0.2,0.4-0.4,0.4-0.5
			c0.4-0.1,0.7-0.3,0.7-0.5l0.4-0.4c0.4-0.4,0.8-0.8,1.2-1.2c0.1,0,0.2-0.1,0.3-0.2c0.3-0.4,0.7-0.7,1.1-0.8c0-0.1,0-0.3,0.1-0.5
			c0.1-0.2,0.1-0.3,0.1-0.4c0.6-0.4,0.9-0.7,1.1-0.9c0.1,0,0.1,0,0.1-0.1c0.1-0.2,0.3-0.5,0.5-0.8l0.2-0.2c0.1,0,0.2,0,0.3,0.1
			c0.1,0.1,0.2,0.1,0.3,0.2c0.1,0.3,0.3,0.5,0.3,0.8c0,0.4-0.1,0.8-0.3,1c0,0.4-0.1,0.8-0.4,1c-0.1,0.1-0.3,0.3-0.4,0.5
			s-0.3,0.5-0.3,0.5h-0.2c-0.1,0.1-0.2,0.2-0.2,0.3c-0.7,0.1-1.1,0.4-1.2,0.8c-0.1,0-0.2,0-0.3-0.1c-0.1,0.1-0.2,0.3-0.2,0.8
			c-0.1,0-0.3,0.1-0.5,0.4c-0.3,0-0.5,0.1-0.7,0.3c-0.1,0.1-0.2,0.1-0.3,0.1c0,0.3-0.2,0.6-0.5,1c-0.1,0.1-0.1,0.2-0.2,0.3
			c-0.1,0.1-0.1,0.2-0.2,0.3c-0.1,0-0.1,0-0.2,0.1c0,0.1-0.1,0.3-0.2,0.4L352.2,199.6z"/>
	</g>
</g>
</svg>
