<?xml version="1.0" encoding="utf-8"?>
<!-- Generator: Adobe Illustrator 21.0.2, SVG Export Plug-In . SVG Version: 6.00 Build 0)  -->
<svg version="1.1" xmlns="http://www.w3.org/2000/svg" xmlns:xlink="http://www.w3.org/1999/xlink" x="0px" y="0px"
	 viewBox="0 0 1920 1080" style="enable-background:new 0 0 1920 1080;" xml:space="preserve">
<style type="text/css">
	.st0{fill:#FFFFFF;}
	.st1{fill:#E0DCFF;}
	.st2{fill:#9181E8;}
	.st3{fill:none;stroke:#9181E8;stroke-width:4;stroke-miterlimit:10;}
	.st4{opacity:0.6;}
	.st5{fill:#004AAD;}
	.st6{fill:none;stroke:#5D44E2;stroke-width:4;stroke-miterlimit:10;}
	.st7{fill:#5D44E2;}
	.st8{fill:#9E96D8;}
</style>
<g id="BACKGROUND">
	<rect class="st0" width="1920" height="1080"/>
</g>
<g id="OBJECT">
	<g>
		<g>
			<g>
				<circle class="st1" cx="434.3" cy="930.2" r="3.5"/>
				<circle class="st1" cx="462.9" cy="930.2" r="3.5"/>
				<circle class="st1" cx="491.5" cy="930.2" r="3.5"/>
				<circle class="st1" cx="520.1" cy="930.2" r="3.5"/>
				<circle class="st1" cx="548.7" cy="930.2" r="3.5"/>
				<circle class="st1" cx="577.3" cy="930.2" r="3.5"/>
				<circle class="st1" cx="434.3" cy="955.1" r="3.5"/>
				<circle class="st1" cx="462.9" cy="955.1" r="3.5"/>
				<circle class="st1" cx="491.5" cy="955.1" r="3.5"/>
				<circle class="st1" cx="520.1" cy="955.1" r="3.5"/>
				<circle class="st1" cx="548.7" cy="955.1" r="3.5"/>
				<circle class="st1" cx="577.3" cy="955.1" r="3.5"/>
			</g>
			<g>
				<circle class="st1" cx="577.3" cy="930.2" r="3.5"/>
				<circle class="st1" cx="605.9" cy="930.2" r="3.5"/>
				<circle class="st1" cx="634.5" cy="930.2" r="3.5"/>
				<circle class="st1" cx="663.1" cy="930.2" r="3.5"/>
				<circle class="st1" cx="691.7" cy="930.2" r="3.5"/>
				<circle class="st1" cx="720.3" cy="930.2" r="3.5"/>
				<circle class="st1" cx="577.3" cy="955.1" r="3.5"/>
				<circle class="st1" cx="605.9" cy="955.1" r="3.5"/>
				<circle class="st1" cx="634.5" cy="955.1" r="3.5"/>
				<circle class="st1" cx="663.1" cy="955.1" r="3.5"/>
				<circle class="st1" cx="691.7" cy="955.1" r="3.5"/>
				<circle class="st1" cx="720.3" cy="955.1" r="3.5"/>
			</g>
		</g>
		<g>
			<g>
				<circle class="st1" cx="434.3" cy="954.9" r="3.5"/>
				<circle class="st1" cx="462.9" cy="954.9" r="3.5"/>
				<circle class="st1" cx="491.5" cy="954.9" r="3.5"/>
				<circle class="st1" cx="520.1" cy="954.9" r="3.5"/>
				<circle class="st1" cx="548.7" cy="954.9" r="3.5"/>
				<circle class="st1" cx="577.3" cy="954.9" r="3.5"/>
				<circle class="st1" cx="434.3" cy="979.8" r="3.5"/>
				<circle class="st1" cx="462.9" cy="979.8" r="3.5"/>
				<circle class="st1" cx="491.5" cy="979.8" r="3.5"/>
				<circle class="st1" cx="520.1" cy="979.8" r="3.5"/>
				<circle class="st1" cx="548.7" cy="979.8" r="3.5"/>
				<circle class="st1" cx="577.3" cy="979.8" r="3.5"/>
			</g>
			<g>
				<circle class="st1" cx="577.3" cy="954.9" r="3.5"/>
				<circle class="st1" cx="605.9" cy="954.9" r="3.5"/>
				<circle class="st1" cx="634.5" cy="954.9" r="3.5"/>
				<circle class="st1" cx="663.1" cy="954.9" r="3.5"/>
				<circle class="st1" cx="691.7" cy="954.9" r="3.5"/>
				<circle class="st1" cx="720.3" cy="954.9" r="3.5"/>
				<circle class="st1" cx="577.3" cy="979.8" r="3.5"/>
				<circle class="st1" cx="605.9" cy="979.8" r="3.5"/>
				<circle class="st1" cx="634.5" cy="979.8" r="3.5"/>
				<circle class="st1" cx="663.1" cy="979.8" r="3.5"/>
				<circle class="st1" cx="691.7" cy="979.8" r="3.5"/>
				<circle class="st1" cx="720.3" cy="979.8" r="3.5"/>
			</g>
		</g>
	</g>
	<g>
		<g>
			<g>
				<circle class="st2" cx="1231" cy="173.8" r="3.5"/>
				<circle class="st2" cx="1259.6" cy="173.8" r="3.5"/>
				<circle class="st2" cx="1288.2" cy="173.8" r="3.5"/>
				<circle class="st2" cx="1316.8" cy="173.8" r="3.5"/>
				<circle class="st2" cx="1345.3" cy="173.8" r="3.5"/>
				<circle class="st2" cx="1373.9" cy="173.8" r="3.5"/>
				<circle class="st2" cx="1231" cy="198.7" r="3.5"/>
				<circle class="st2" cx="1259.6" cy="198.7" r="3.5"/>
				<circle class="st2" cx="1288.2" cy="198.7" r="3.5"/>
				<circle class="st2" cx="1316.8" cy="198.7" r="3.5"/>
				<circle class="st2" cx="1345.3" cy="198.7" r="3.5"/>
				<circle class="st2" cx="1373.9" cy="198.7" r="3.5"/>
			</g>
			<g>
				<circle class="st2" cx="1374" cy="173.8" r="3.5"/>
				<circle class="st2" cx="1402.6" cy="173.8" r="3.5"/>
				<circle class="st2" cx="1431.2" cy="173.8" r="3.5"/>
				<circle class="st2" cx="1459.8" cy="173.8" r="3.5"/>
				<circle class="st2" cx="1488.3" cy="173.8" r="3.5"/>
				<circle class="st2" cx="1516.9" cy="173.8" r="3.5"/>
				<circle class="st2" cx="1374" cy="198.7" r="3.5"/>
				<circle class="st2" cx="1402.6" cy="198.7" r="3.5"/>
				<circle class="st2" cx="1431.2" cy="198.7" r="3.5"/>
				<circle class="st2" cx="1459.8" cy="198.7" r="3.5"/>
				<circle class="st2" cx="1488.3" cy="198.7" r="3.5"/>
				<circle class="st2" cx="1516.9" cy="198.7" r="3.5"/>
			</g>
		</g>
		<g>
			<g>
				<circle class="st2" cx="1231" cy="198.6" r="3.5"/>
				<circle class="st2" cx="1259.6" cy="198.6" r="3.5"/>
				<circle class="st2" cx="1288.2" cy="198.6" r="3.5"/>
				<circle class="st2" cx="1316.8" cy="198.6" r="3.5"/>
				<circle class="st2" cx="1345.3" cy="198.6" r="3.5"/>
				<circle class="st2" cx="1373.9" cy="198.6" r="3.5"/>
				<circle class="st2" cx="1231" cy="223.5" r="3.5"/>
				<circle class="st2" cx="1259.6" cy="223.5" r="3.5"/>
				<circle class="st2" cx="1288.2" cy="223.5" r="3.5"/>
				<circle class="st2" cx="1316.8" cy="223.5" r="3.5"/>
				<circle class="st2" cx="1345.3" cy="223.5" r="3.5"/>
				<circle class="st2" cx="1373.9" cy="223.5" r="3.5"/>
			</g>
			<g>
				<circle class="st2" cx="1374" cy="198.6" r="3.5"/>
				<circle class="st2" cx="1402.6" cy="198.6" r="3.5"/>
				<circle class="st2" cx="1431.2" cy="198.6" r="3.5"/>
				<circle class="st2" cx="1459.8" cy="198.6" r="3.5"/>
				<circle class="st2" cx="1488.3" cy="198.6" r="3.5"/>
				<circle class="st2" cx="1516.9" cy="198.6" r="3.5"/>
				<circle class="st2" cx="1374" cy="223.5" r="3.5"/>
				<circle class="st2" cx="1402.6" cy="223.5" r="3.5"/>
				<circle class="st2" cx="1431.2" cy="223.5" r="3.5"/>
				<circle class="st2" cx="1459.8" cy="223.5" r="3.5"/>
				<circle class="st2" cx="1488.3" cy="223.5" r="3.5"/>
				<circle class="st2" cx="1516.9" cy="223.5" r="3.5"/>
			</g>
		</g>
	</g>
	<g>
		<g>
			<g>
				<circle class="st1" cx="1316.8" cy="751.1" r="3.5"/>
				<circle class="st1" cx="1345.4" cy="751.1" r="3.5"/>
				<circle class="st1" cx="1374" cy="751.1" r="3.5"/>
				<circle class="st1" cx="1402.6" cy="751.1" r="3.5"/>
				<circle class="st1" cx="1431.1" cy="751.1" r="3.5"/>
				<circle class="st1" cx="1459.7" cy="751.1" r="3.5"/>
				<circle class="st1" cx="1316.8" cy="776" r="3.5"/>
				<circle class="st1" cx="1345.4" cy="776" r="3.5"/>
				<circle class="st1" cx="1374" cy="776" r="3.5"/>
				<circle class="st1" cx="1402.6" cy="776" r="3.5"/>
				<circle class="st1" cx="1431.1" cy="776" r="3.5"/>
				<circle class="st1" cx="1459.7" cy="776" r="3.5"/>
			</g>
			<g>
				<circle class="st1" cx="1459.8" cy="751.1" r="3.5"/>
				<circle class="st1" cx="1488.4" cy="751.1" r="3.5"/>
				<circle class="st1" cx="1517" cy="751.1" r="3.5"/>
				<circle class="st1" cx="1545.6" cy="751.1" r="3.5"/>
				<circle class="st1" cx="1574.1" cy="751.1" r="3.5"/>
				<circle class="st1" cx="1602.7" cy="751.1" r="3.5"/>
				<circle class="st1" cx="1459.8" cy="776" r="3.5"/>
				<circle class="st1" cx="1488.4" cy="776" r="3.5"/>
				<circle class="st1" cx="1517" cy="776" r="3.5"/>
				<circle class="st1" cx="1545.6" cy="776" r="3.5"/>
				<circle class="st1" cx="1574.1" cy="776" r="3.5"/>
				<circle class="st1" cx="1602.7" cy="776" r="3.5"/>
			</g>
		</g>
		<g>
			<g>
				<circle class="st1" cx="1316.8" cy="775.8" r="3.5"/>
				<circle class="st1" cx="1345.4" cy="775.8" r="3.5"/>
				<circle class="st1" cx="1374" cy="775.8" r="3.5"/>
				<circle class="st1" cx="1402.6" cy="775.8" r="3.5"/>
				<circle class="st1" cx="1431.1" cy="775.8" r="3.5"/>
				<circle class="st1" cx="1459.7" cy="775.8" r="3.5"/>
				<circle class="st1" cx="1316.8" cy="800.7" r="3.5"/>
				<circle class="st1" cx="1345.4" cy="800.7" r="3.5"/>
				<circle class="st1" cx="1374" cy="800.7" r="3.5"/>
				<circle class="st1" cx="1402.6" cy="800.7" r="3.5"/>
				<circle class="st1" cx="1431.1" cy="800.7" r="3.5"/>
				<circle class="st1" cx="1459.7" cy="800.7" r="3.5"/>
			</g>
			<g>
				<circle class="st1" cx="1459.8" cy="775.8" r="3.5"/>
				<circle class="st1" cx="1488.4" cy="775.8" r="3.5"/>
				<circle class="st1" cx="1517" cy="775.8" r="3.5"/>
				<circle class="st1" cx="1545.6" cy="775.8" r="3.5"/>
				<circle class="st1" cx="1574.1" cy="775.8" r="3.5"/>
				<circle class="st1" cx="1602.7" cy="775.8" r="3.5"/>
				<circle class="st1" cx="1459.8" cy="800.7" r="3.5"/>
				<circle class="st1" cx="1488.4" cy="800.7" r="3.5"/>
				<circle class="st1" cx="1517" cy="800.7" r="3.5"/>
				<circle class="st1" cx="1545.6" cy="800.7" r="3.5"/>
				<circle class="st1" cx="1574.1" cy="800.7" r="3.5"/>
				<circle class="st1" cx="1602.7" cy="800.7" r="3.5"/>
			</g>
		</g>
	</g>
	<path class="st3" d="M1406.7,645.9L1406.7,645.9c7.6,0,13.7,6.1,13.7,13.7l0,0c0,7.6-6.1,13.7-13.7,13.7l0,0
		c-7.6,0-13.7-6.1-13.7-13.7l0,0C1393,652.1,1399.1,645.9,1406.7,645.9z"/>
	<path class="st3" d="M580.8,400.7L580.8,400.7c7.6,0,13.7,6.1,13.7,13.7v0c0,7.6-6.1,13.7-13.7,13.7l0,0c-7.6,0-13.7-6.1-13.7-13.7
		v0C567.1,406.8,573.3,400.7,580.8,400.7z"/>
	<path class="st3" d="M115.7,461.2L115.7,461.2c7.6,0,13.7,6.1,13.7,13.7v0c0,7.6-6.1,13.7-13.7,13.7h0c-7.6,0-13.7-6.1-13.7-13.7v0
		C102,467.4,108.1,461.2,115.7,461.2z"/>
	<g class="st4">
		<polygon class="st5" points="232.3,175.1 159.6,248.6 159.6,234.9 218.7,175.1 		"/>
		<polygon class="st5" points="327.1,175.1 159.6,344.6 159.6,330.8 313.6,175.1 		"/>
		<polygon class="st5" points="279.7,175.1 159.6,296.6 159.6,282.9 266.2,175.1 		"/>
		<polygon class="st5" points="383.5,200.4 383.5,214.1 200.7,399 187.1,399 		"/>
		<polygon class="st5" points="184.9,175.1 159.6,200.7 159.6,187 171.3,175.1 		"/>
		<polygon class="st5" points="374.6,175.1 159.6,392.5 159.6,378.8 361,175.1 		"/>
		<polygon class="st5" points="383.5,248.4 383.5,262.1 248.1,399 234.5,399 		"/>
		<polygon class="st5" points="383.5,392.3 383.5,399 376.8,399 		"/>
		<polygon class="st5" points="383.5,296.3 383.5,310 295.5,399 282,399 		"/>
		<polygon class="st5" points="383.5,344.3 383.5,358 343,399 329.4,399 		"/>
	</g>
	<g class="st4">
		<polygon class="st5" points="1665.4,449.4 1592.7,522.9 1592.7,509.2 1651.8,449.4 		"/>
		<polygon class="st5" points="1760.2,449.4 1592.7,618.8 1592.7,605.1 1746.7,449.4 		"/>
		<polygon class="st5" points="1712.8,449.4 1592.7,570.9 1592.7,557.2 1699.2,449.4 		"/>
		<polygon class="st5" points="1816.5,474.7 1816.5,488.4 1633.7,673.3 1620.2,673.3 		"/>
		<polygon class="st5" points="1617.9,449.4 1592.7,474.9 1592.7,461.2 1604.4,449.4 		"/>
		<polygon class="st5" points="1807.6,449.4 1592.7,666.8 1592.7,653.1 1794.1,449.4 		"/>
		<polygon class="st5" points="1816.5,522.6 1816.5,536.3 1681.2,673.3 1667.6,673.3 		"/>
		<polygon class="st5" points="1816.5,666.5 1816.5,673.3 1809.9,673.3 		"/>
		<polygon class="st5" points="1816.5,570.6 1816.5,584.3 1728.6,673.3 1715,673.3 		"/>
		<polygon class="st5" points="1816.5,618.6 1816.5,632.3 1776,673.3 1762.5,673.3 		"/>
	</g>
	<polygon class="st6" points="473.3,218.6 529.2,274.6 473.3,274.6 	"/>
	<polygon class="st6" points="272.9,845.8 328.8,901.8 272.9,901.8 	"/>
	<polygon class="st6" points="1451.6,386.4 1507.6,442.3 1451.6,442.3 	"/>
	<polygon class="st6" points="1313.9,893.3 1369.9,949.3 1313.9,949.3 	"/>
	<polygon class="st1" points="158.7,629.5 270.6,741.5 158.7,741.5 	"/>
	<polygon class="st1" points="237.3,555.7 349.2,667.6 237.3,667.6 	"/>
	<polygon class="st1" points="1700.2,914.6 1812.1,1026.5 1700.2,1026.5 	"/>
	<polygon class="st1" points="1778.8,840.7 1890.7,952.7 1778.8,952.7 	"/>
	<path class="st5" d="M1451.6,1080h119.1c0-192.9,156.3-349.2,349.2-349.2V611.6C1661.3,611.6,1451.6,821.3,1451.6,1080z"/>
	<path class="st5" d="M43.4,574c-14.8,0-29.3,1.1-43.4,3.2v75.1c14-2.9,28.6-4.4,43.4-4.4c119.8,0,216.9,97.1,216.9,216.9
		c0,110.3-82.4,201.5-189,215.1h167.9c58.4-53.2,95.1-129.9,95.1-215.1C334.3,704.2,204.1,574,43.4,574z"/>
	<g>
		<g>
			<path class="st7" d="M992.2,13.8c-5.6,5.6-12.5,4.5-18.6,3.6c-5.9-1-11.4-1.8-16,2.7s-3.7,10.1-2.7,16c1,6.1,2.1,12.9-3.6,18.6
				c-5.6,5.7-12.5,4.5-18.6,3.6c-5.9-1-11.4-1.8-16,2.7c-4.6,4.6-3.7,10.1-2.7,16c1,6.1,2.1,12.9-3.6,18.6
				c-5.6,5.6-12.5,4.5-18.6,3.5c-5.9-1-11.4-1.8-16,2.7l-2.1-2.1c5.7-5.7,12.5-4.5,18.6-3.6c5.9,0.9,11.4,1.8,16-2.7
				c4.6-4.5,3.7-10.1,2.7-16c-1-6.1-2.1-12.9,3.5-18.6c5.7-5.7,12.5-4.5,18.6-3.6c5.9,0.9,11.4,1.8,16-2.7s3.7-10.1,2.7-16
				c-1-6.1-2.1-12.9,3.6-18.6c5.6-5.6,12.5-4.5,18.6-3.6c5.9,0.9,11.4,1.8,16-2.7c3.4-3.4,3.8-7.4,3.3-11.7h3
				C996.8,4.7,996.4,9.6,992.2,13.8z"/>
		</g>
	</g>
	<g>
		<g>
			<path class="st8" d="M155.4,940.8c-5.6,5.6-12.5,4.5-18.6,3.6c-5.9-1-11.4-1.8-16,2.7s-3.7,10.1-2.7,16c1,6.1,2.1,12.9-3.6,18.6
				c-5.6,5.7-12.5,4.5-18.6,3.6c-5.9-1-11.4-1.8-16,2.7c-4.6,4.6-3.7,10.1-2.7,16c1,6.1,2.1,12.9-3.6,18.6
				c-5.6,5.6-12.5,4.5-18.6,3.5c-5.9-0.9-11.4-1.8-16,2.7l-2.1-2.1c5.7-5.7,12.5-4.5,18.6-3.6c5.9,0.9,11.4,1.8,16-2.7
				c4.6-4.5,3.7-10.1,2.7-16c-1-6.1-2.1-12.9,3.5-18.6c5.7-5.7,12.5-4.5,18.6-3.6c5.9,0.9,11.4,1.8,16-2.7s3.7-10.1,2.7-16
				c-1-6.1-2.1-12.9,3.6-18.6c5.6-5.6,12.5-4.5,18.6-3.6c5.9,0.9,11.4,1.8,16-2.7c3.4-3.4,3.8-7.4,3.3-11.7h3
				C160.1,931.7,159.6,936.6,155.4,940.8z"/>
		</g>
	</g>
	<g>
		<g>
			<path class="st8" d="M1790.4,237.5c-5.6,5.6-12.5,4.5-18.6,3.6c-5.9-1-11.4-1.8-16,2.7c-4.6,4.6-3.7,10.1-2.7,16
				c1,6.1,2.1,12.9-3.6,18.6c-5.6,5.7-12.5,4.5-18.6,3.6c-5.9-1-11.4-1.8-16,2.7c-4.6,4.6-3.7,10.1-2.7,16c1,6.1,2.1,12.9-3.6,18.6
				c-5.6,5.6-12.5,4.5-18.6,3.5c-5.9-1-11.4-1.8-16,2.7l-2.1-2.1c5.7-5.7,12.5-4.5,18.6-3.6c5.9,0.9,11.4,1.8,16-2.7
				c4.6-4.5,3.7-10.1,2.7-16c-1-6.1-2.1-12.9,3.5-18.6c5.7-5.7,12.5-4.5,18.6-3.6c5.9,0.9,11.4,1.8,16-2.7c4.6-4.6,3.7-10.1,2.7-16
				c-1-6.1-2.1-12.9,3.6-18.6c5.6-5.6,12.5-4.5,18.6-3.6c5.9,0.9,11.4,1.8,16-2.7c3.4-3.4,3.8-7.4,3.3-11.7h3
				C1795.1,228.4,1794.6,233.3,1790.4,237.5z"/>
		</g>
	</g>
	<g>
		<g>
			<path class="st8" d="M1054.3,984.4c-5.7,5.6-12.5,4.5-18.6,3.6c-5.9-1-11.4-1.8-16,2.7s-3.7,10.1-2.7,16c1,6.1,2.1,12.9-3.6,18.6
				c-5.6,5.7-12.5,4.5-18.6,3.6c-5.9-1-11.4-1.8-16,2.7c-4.6,4.6-3.7,10.1-2.7,16c1,6.1,2.1,12.9-3.6,18.6
				c-5.6,5.6-12.5,4.5-18.6,3.5c-5.9-0.9-11.4-1.8-16,2.7l-2.1-2.1c5.7-5.7,12.5-4.5,18.6-3.6c5.9,0.9,11.4,1.8,16-2.7
				c4.6-4.6,3.7-10.1,2.7-16c-1-6.1-2.1-12.9,3.5-18.6c5.7-5.6,12.5-4.5,18.6-3.6c5.9,0.9,11.4,1.8,16-2.7s3.7-10.1,2.7-16
				c-1-6.1-2.1-12.9,3.6-18.6c5.6-5.6,12.5-4.5,18.6-3.6c5.9,0.9,11.4,1.8,16-2.7c3.4-3.4,3.8-7.4,3.3-11.7h3
				C1059,975.3,1058.6,980.2,1054.3,984.4z"/>
		</g>
	</g>
</g>
<g id="TEXT">
</g>
</svg>
